<svg xmlns="http://www.w3.org/2000/svg" xmlns:xlink="http://www.w3.org/1999/xlink" version="1.1" height="1000px" width="1000px" viewBox="0 0 1000 1000"><style type="text/css">.skin_fill{fill:#FADFD5;} .skin_outline{fill:#735243;} .skin_dark{fill:#EFB1B1;} .skin_halftone{fill:#B2878A;} .skin_freckles{fill:#D6AAA8;} </style><style type="text/css">.hair_fill{fill:#7DCD6A;} .hair_outline{fill:#69A559;} .hair_shadow{fill:#42713A;} .hair_brow{fill:#79BA64;} </style><style type="text/css">.eye_iris{fill:#6495ED;} </style><style type="text/css">.bg_color{fill:#FFE7F1;} .bg_stop_1{stop-color:#FFE7F1;} .bg_stroke_1{stroke:#FFE7F1;} .bg_shape{fill:#FDA7C7;} .bg_stop_2{stop-color:#FDA7C7;} .bg_stroke_2{stroke:#FDA7C7;} .bg_halftone{fill:#61C5FB;} .bg_stop_3{stop-color:#61C5FB;} .bg_stroke_3{stroke:#61C5FB;} </style><defs><path id="backdrop_a" d="M0 0h1000v1000H0z"/></defs><use class="bg_color" overflow="visible" xlink:href="#backdrop_a"/><clipPath id="backdrop_b"><use overflow="visible" xlink:href="#backdrop_a"/></clipPath><g clip-path="url(#backdrop_b)"><g fill="none" class="bg_stroke_2" stroke-dasharray="0,12" stroke-linecap="round" stroke-linejoin="round" stroke-miterlimit="10" stroke-width="4"><path d="M-153.8-173.2L597 1173.2M31.8-173.2l750.8 1346.4M-525-173.2l750.7 1346.4M-339.4-173.2l750.7 1346.4M588.7-173.2l750.7 1346.4M774.3-173.2L1525 1173.2M217.4-173.2l750.8 1346.4M403-173.2l750.8 1346.4"/><g><path d="M-153.8 1173.2L597-173.2M31.8 1173.2L782.6-173.2M-525 1173.2L225.7-173.2M-339.4 1173.2L411.3-173.2M588.7 1173.2l750.7-1346.4M774.3 1173.2L1525-173.2M217.4 1173.2L968.2-173.2M403 1173.2l750.8-1346.4"/></g><path d="M-216.7 166.4h1437.5M-216.7 335h1437.5M-216.7 500h1437.5M-216.7 666.4h1437.5M-216.7 832.9h1437.5"/></g><g class="bg_halftone"><path d="M45.7 166.4c0 13.4-20.2 13.4-20.2 0-.1-13.4 20.2-13.4 20.2 0zM232.1 166.4c0 13.4-20.2 13.4-20.2 0s20.2-13.4 20.2 0zM417.7 166.4c0 13.4-20.2 13.4-20.2 0s20.2-13.4 20.2 0zM604.2 166.4c0 13.4-20.2 13.4-20.2 0-.1-13.4 20.2-13.4 20.2 0zM788.9 166.4c0 13.4-20.2 13.4-20.2 0s20.2-13.4 20.2 0zM975.4 166.4c0 13.4-20.2 13.4-20.2 0-.1-13.4 20.2-13.4 20.2 0z"/></g><g class="bg_halftone"><path d="M135 332.7c0 13.4-20.2 13.4-20.2 0s20.2-13.4 20.2 0zM323.2 334.4c0 13.4-20.2 13.4-20.2 0-.1-13.3 20.2-13.3 20.2 0zM511.3 334.4c0 13.4-20.2 13.4-20.2 0 0-13.3 20.2-13.3 20.2 0zM696.1 334.4c0 13.4-20.2 13.4-20.2 0 0-13.3 20.2-13.3 20.2 0zM882.6 334.4c0 13.4-20.2 13.4-20.2 0-.1-13.3 20.2-13.3 20.2 0z"/></g><g class="bg_halftone"><path d="M45.7 500.7c0 13.4-20.2 13.4-20.2 0-.1-13.4 20.2-13.4 20.2 0zM232.1 500.7c0 13.4-20.2 13.4-20.2 0s20.2-13.4 20.2 0zM417.7 500.7c0 13.4-20.2 13.4-20.2 0s20.2-13.4 20.2 0zM604.2 500.7c0 13.4-20.2 13.4-20.2 0-.1-13.4 20.2-13.4 20.2 0zM788.9 500.7c0 13.4-20.2 13.4-20.2 0s20.2-13.4 20.2 0zM975.4 500.7c0 13.4-20.2 13.4-20.2 0-.1-13.4 20.2-13.4 20.2 0z"/></g><g class="bg_halftone"><path d="M135 667c0 13.4-20.2 13.4-20.2 0s20.2-13.4 20.2 0zM323.2 668.8c0 13.4-20.2 13.4-20.2 0-.1-13.4 20.2-13.4 20.2 0zM511.3 668.8c0 13.4-20.2 13.4-20.2 0s20.2-13.4 20.2 0zM696.1 668.8c0 13.4-20.2 13.4-20.2 0s20.2-13.4 20.2 0zM882.6 668.8c0 13.4-20.2 13.4-20.2 0-.1-13.4 20.2-13.4 20.2 0z"/></g><g class="bg_halftone"><path d="M45.7 835c0 13.4-20.2 13.4-20.2 0-.1-13.3 20.2-13.4 20.2 0zM232.1 835c0 13.4-20.2 13.4-20.2 0 0-13.3 20.2-13.4 20.2 0zM417.7 835c0 13.4-20.2 13.4-20.2 0 0-13.3 20.2-13.4 20.2 0zM604.2 835c0 13.4-20.2 13.4-20.2 0-.1-13.3 20.2-13.4 20.2 0zM788.9 835c0 13.4-20.2 13.4-20.2 0 0-13.3 20.2-13.4 20.2 0zM975.4 835c0 13.4-20.2 13.4-20.2 0-.1-13.3 20.2-13.4 20.2 0z"/></g></g><pattern id="ear_i" width="48" height="48" x="250" y="750" overflow="visible" patternUnits="userSpaceOnUse" viewBox="4.8 -52.8 48 48"><defs><path id="ear_a" d="M4.8-52.8h48v48h-48z"/></defs><clipPath id="ear_b"><use overflow="visible" xlink:href="#ear_a"/></clipPath><g class="skin_dark" clip-path="url(#ear_b)"><path d="M28.8-57.6c2.7 0 4.8 2.1 4.8 4.8S31.5-48 28.8-48 24-50.2 24-52.8c0-2.7 2.1-4.8 4.8-4.8zM52.8-57.6c2.7 0 4.8 2.1 4.8 4.8S55.5-48 52.8-48 48-50.2 48-52.8c0-2.7 2.1-4.8 4.8-4.8zM28.8-33.6c2.7 0 4.8 2.1 4.8 4.8S31.5-24 28.8-24 24-26.1 24-28.8s2.1-4.8 4.8-4.8zM52.8-33.6c2.7 0 4.8 2.1 4.8 4.8S55.5-24 52.8-24 48-26.1 48-28.8s2.1-4.8 4.8-4.8zM40.8-45.6c2.7 0 4.8 2.1 4.8 4.8S43.5-36 40.8-36 36-38.2 36-40.8c0-2.7 2.1-4.8 4.8-4.8zM16.8-45.6c2.7 0 4.8 2.1 4.8 4.8S19.5-36 16.8-36 12-38.2 12-40.8c0-2.7 2.1-4.8 4.8-4.8zM40.8-21.6c2.7 0 4.8 2.1 4.8 4.8S43.5-12 40.8-12 36-14.1 36-16.8s2.1-4.8 4.8-4.8zM16.8-21.6c2.7 0 4.8 2.1 4.8 4.8S19.5-12 16.8-12 12-14.1 12-16.8s2.1-4.8 4.8-4.8z"/></g><defs><path id="ear_c" d="M4.8-52.8h48v48h-48z"/></defs><clipPath id="ear_d"><use overflow="visible" xlink:href="#ear_c"/></clipPath><g class="skin_dark" clip-path="url(#ear_d)"><path d="M4.8-57.6c2.7 0 4.8 2.1 4.8 4.8S7.5-48 4.8-48 0-50.1 0-52.8s2.1-4.8 4.8-4.8zM4.8-33.6c2.7 0 4.8 2.1 4.8 4.8S7.5-24 4.8-24 0-26.1 0-28.8s2.1-4.8 4.8-4.8z"/></g><g><defs><path id="ear_e" d="M4.8-52.8h48v48h-48z"/></defs><clipPath id="ear_f"><use overflow="visible" xlink:href="#ear_e"/></clipPath><g class="skin_dark" clip-path="url(#ear_f)"><path d="M28.8-9.6c2.7 0 4.8 2.1 4.8 4.8S31.5 0 28.8 0 24-2.2 24-4.8c0-2.7 2.1-4.8 4.8-4.8zM52.8-9.6c2.7 0 4.8 2.1 4.8 4.8S55.5 0 52.8 0 48-2.2 48-4.8c0-2.7 2.1-4.8 4.8-4.8z"/></g></g><g><defs><path id="ear_g" d="M4.8-52.8h48v48h-48z"/></defs><clipPath id="ear_h"><use overflow="visible" xlink:href="#ear_g"/></clipPath><path class="skin_dark" d="M4.8-9.6c2.7 0 4.8 2.1 4.8 4.8S7.5 0 4.8 0 0-2.2 0-4.8c0-2.7 2.1-4.8 4.8-4.8z" clip-path="url(#ear_h)"/></g></pattern><path class="skin_fill" d="M367.8 526l-17.1 11.9c-6.4 4.4-15.2 1.9-18.2-5.2l-18.4-42.3c0-57.6 6.7-31-36.6-127.9 0 0 56.4 34.1 84.9 105.8l5.4 57.7zm264.4 0l17.1 11.9c6.4 4.4 15.2 1.9 18.2-5.2l18.4-42.3c0-57.6-6.7-31 36.6-127.9 0 0-56.4 34.1-84.9 105.8l-5.4 57.7z"/><pattern id="ear_j" patternTransform="matrix(.26 0 0 -.26 -47477.004 993.389)" xlink:href="#ear_i"/><path fill="url(#ear_j)" d="M329.7 486.2l5.5 9.7s-17.5 7.1-17.5-20.4c0-21.1 4.8-37-31.5-104.2 47.3 58.7 50.4 100.6 50.4 100.6-5-2.7-12.7 4-6.9 14.3zm340.6 0l-5.5 9.7s17.5 7.1 17.5-20.4c0-21.1-4.8-37 31.5-104.2-47.3 58.7-50.4 100.6-50.4 100.6 5-2.7 12.7 4 6.9 14.3z"/><path class="skin_outline" d="M286.1 371.3c2.1-1.7 47.9 57.4 51.8 99.3.5 4.7 1.2 3.9-3.1 2.3-1.5-.8-7.1 1.6-5.6 8.7.7 3.1 19.3 37.2 3.6 11.9-3.2-5.2-6.4-9.3-6.5-14.4.3-6.2 4-9.4 8.1-9.4.3 0 .3.4-.1-1.5-9.3-48.8-49.6-95.8-48.2-96.9zm423.5 4.3c-20.8 24.1-41.8 60.4-47.1 92.1-1.4 9.7-1 5.6 3.1 5.1 3.5-.5 8.3 4.3 2.7 14.7-10.2 19.4-10 20.5 1.9 1.1 7.2-11.8 1.3-18.9-4.6-18.8-.2 0-.6.6.9-5.7 11.7-51.3 62.1-110.5 43.1-88.5z"/><pattern id="face_i" width="48" height="48" x="250" y="750" overflow="visible" patternUnits="userSpaceOnUse" viewBox="4.8 -52.8 48 48"><defs><path id="face_a" d="M4.8-52.8h48v48h-48z"/></defs><clipPath id="face_b"><use overflow="visible" xlink:href="#face_a"/></clipPath><g class="skin_dark" clip-path="url(#face_b)"><path d="M28.8-57.6c2.7 0 4.8 2.1 4.8 4.8S31.5-48 28.8-48 24-50.2 24-52.8c0-2.7 2.1-4.8 4.8-4.8zM52.8-57.6c2.7 0 4.8 2.1 4.8 4.8S55.5-48 52.8-48 48-50.2 48-52.8c0-2.7 2.1-4.8 4.8-4.8zM28.8-33.6c2.7 0 4.8 2.1 4.8 4.8S31.5-24 28.8-24 24-26.1 24-28.8s2.1-4.8 4.8-4.8zM52.8-33.6c2.7 0 4.8 2.1 4.8 4.8S55.5-24 52.8-24 48-26.1 48-28.8s2.1-4.8 4.8-4.8zM40.8-45.6c2.7 0 4.8 2.1 4.8 4.8S43.5-36 40.8-36 36-38.2 36-40.8c0-2.7 2.1-4.8 4.8-4.8zM16.8-45.6c2.7 0 4.8 2.1 4.8 4.8S19.5-36 16.8-36 12-38.2 12-40.8c0-2.7 2.1-4.8 4.8-4.8zM40.8-21.6c2.7 0 4.8 2.1 4.8 4.8S43.5-12 40.8-12 36-14.1 36-16.8s2.1-4.8 4.8-4.8zM16.8-21.6c2.7 0 4.8 2.1 4.8 4.8S19.5-12 16.8-12 12-14.1 12-16.8s2.1-4.8 4.8-4.8z"/></g><defs><path id="face_c" d="M4.8-52.8h48v48h-48z"/></defs><clipPath id="face_d"><use overflow="visible" xlink:href="#face_c"/></clipPath><g class="skin_dark" clip-path="url(#face_d)"><path d="M4.8-57.6c2.7 0 4.8 2.1 4.8 4.8S7.5-48 4.8-48 0-50.1 0-52.8s2.1-4.8 4.8-4.8zM4.8-33.6c2.7 0 4.8 2.1 4.8 4.8S7.5-24 4.8-24 0-26.1 0-28.8s2.1-4.8 4.8-4.8z"/></g><g><defs><path id="face_e" d="M4.8-52.8h48v48h-48z"/></defs><clipPath id="face_f"><use overflow="visible" xlink:href="#face_e"/></clipPath><g class="skin_dark" clip-path="url(#face_f)"><path d="M28.8-9.6c2.7 0 4.8 2.1 4.8 4.8S31.5 0 28.8 0 24-2.2 24-4.8c0-2.7 2.1-4.8 4.8-4.8zM52.8-9.6c2.7 0 4.8 2.1 4.8 4.8S55.5 0 52.8 0 48-2.2 48-4.8c0-2.7 2.1-4.8 4.8-4.8z"/></g></g><g><defs><path id="face_g" d="M4.8-52.8h48v48h-48z"/></defs><clipPath id="face_h"><use overflow="visible" xlink:href="#face_g"/></clipPath><path class="skin_dark" d="M4.8-9.6c2.7 0 4.8 2.1 4.8 4.8S7.5 0 4.8 0 0-2.2 0-4.8c0-2.7 2.1-4.8 4.8-4.8z" clip-path="url(#face_h)"/></g></pattern><path class="skin_fill" d="M615.2 646.6c18.5-18.1 30.2-26.1 31.4-45.1 12.9-208.3 11.6-193.4 12.6-193.4 9.5-131.6-66.8-198.5-173.6-189.2-43.8 3.2-138.9 24.4-145.2 152.5-1.3 13.1-1.4 26.7-1.3 29.1 14.8 240.5 4.1 207.3 46.2 248.5 0 88.1 10.8 72.7-55 96.6l169.8 150 170.2-150c-66-24-55.1-8-55.1-99z"/><pattern id="face_j" patternTransform="matrix(.26 0 0 -.26 -47499.098 1009.889)" xlink:href="#face_i"/><path fill="url(#face_j)" d="M425.9 710.7c15.6 23.4 34.5 17.8 112.8 17.8 18 0 27.7-9.4 36.7-23l39.7-38.9v-20c-45.6 44.6-38.3 36.8-43.1 44-15.6 23.4-34.5 17.8-112.8 17.8-18 0-27.7-9.4-36.7-23L385.2 649v20c42.9 42 36 34.5 40.7 41.7z"/><path class="skin_outline" d="M347.7 541.5c-1.7.1-8.6-133.3-6.9-133.4 1.8-.1 8.7 133.3 6.9 133.4zM650.3 541.4c-1.7-.1 7.1-133.4 8.9-133.3 1.7.1-7.2 133.4-8.9 133.3z"/><g><pattern id="face_k" patternTransform="matrix(.26 0 0 -.26 -47499.098 1029.889)" xlink:href="#face_i"/><path fill="url(#face_k)" d="M402.1 632.3c1.6-79.2 8-100.8-16.1-117.7-23.1-16.2-26-40.1-26-40.1h-8.2c8.9 135.4-2 108.7 50.3 157.8z"/></g><pattern id="nose_m" width="28.8" height="28.8" x="250" y="750" overflow="visible" patternUnits="userSpaceOnUse" viewBox="1.4 -30.2 28.8 28.8"><defs><path id="nose_a" d="M1.4-30.2h28.8v28.8H1.4z"/></defs><clipPath id="nose_b"><use overflow="visible" xlink:href="#nose_a"/></clipPath><g clip-path="url(#nose_b)"><g fill="#FFF"><path d="M30.2 0c.8 0 1.4-.6 1.4-1.4s-.6-1.4-1.4-1.4-1.4.6-1.4 1.4c0 .8.6 1.4 1.4 1.4zM15.8 0c.8 0 1.4-.6 1.4-1.4s-.6-1.4-1.4-1.4c-.8 0-1.4.6-1.4 1.4 0 .8.6 1.4 1.4 1.4zM30.2-14.4c.8 0 1.4-.6 1.4-1.4s-.6-1.4-1.4-1.4-1.4.6-1.4 1.4c0 .8.6 1.4 1.4 1.4zM15.8-14.4c.8 0 1.4-.6 1.4-1.4s-.6-1.4-1.4-1.4c-.8 0-1.4.6-1.4 1.4 0 .8.6 1.4 1.4 1.4zM8.6-7.2c.8 0 1.4-.6 1.4-1.4S9.4-10 8.6-10c-.8 0-1.4.6-1.4 1.4 0 .8.6 1.4 1.4 1.4zM23-7.2c.8 0 1.4-.6 1.4-1.4S23.8-10 23-10s-1.4.6-1.4 1.4.6 1.4 1.4 1.4zM8.6-21.6c.8 0 1.4-.6 1.4-1.4s-.6-1.4-1.4-1.4c-.8 0-1.4.6-1.4 1.4 0 .8.6 1.4 1.4 1.4zM23-21.6c.8 0 1.4-.6 1.4-1.4s-.6-1.4-1.4-1.4-1.4.6-1.4 1.4c0 .8.6 1.4 1.4 1.4z"/></g><g fill="#FFF"><path d="M1.4 0c.8 0 1.4-.6 1.4-1.4s-.6-1.4-1.4-1.4C.6-2.9 0-2.2 0-1.4 0-.6.6 0 1.4 0zM1.4-14.4c.8 0 1.4-.6 1.4-1.4s-.6-1.4-1.4-1.4-1.4.6-1.4 1.4.6 1.4 1.4 1.4z"/></g><g fill="#FFF"><path d="M30.2-28.8c.8 0 1.4-.6 1.4-1.4s-.6-1.4-1.4-1.4-1.4.6-1.4 1.4c0 .8.6 1.4 1.4 1.4zM15.8-28.8c.8 0 1.4-.6 1.4-1.4s-.6-1.4-1.4-1.4-1.4.6-1.4 1.4c0 .8.6 1.4 1.4 1.4z"/></g><path fill="#FFF" d="M1.4-28.8c.8 0 1.4-.6 1.4-1.4s-.6-1.4-1.4-1.4C.6-31.7 0-31 0-30.2c0 .8.6 1.4 1.4 1.4z"/></g></pattern><pattern id="nose_k" width="48" height="48" x="250" y="750" overflow="visible" patternUnits="userSpaceOnUse" viewBox="4.8 -52.8 48 48"><defs><path id="nose_c" d="M4.8-52.8h48v48h-48z"/></defs><clipPath id="nose_d"><use overflow="visible" xlink:href="#nose_c"/></clipPath><g class="skin_dark" clip-path="url(#nose_d)"><path d="M28.8-57.6c2.7 0 4.8 2.1 4.8 4.8S31.5-48 28.8-48 24-50.2 24-52.8c0-2.7 2.1-4.8 4.8-4.8zM52.8-57.6c2.7 0 4.8 2.1 4.8 4.8S55.5-48 52.8-48 48-50.2 48-52.8c0-2.7 2.1-4.8 4.8-4.8zM28.8-33.6c2.7 0 4.8 2.1 4.8 4.8S31.5-24 28.8-24 24-26.1 24-28.8s2.1-4.8 4.8-4.8zM52.8-33.6c2.7 0 4.8 2.1 4.8 4.8S55.5-24 52.8-24 48-26.1 48-28.8s2.1-4.8 4.8-4.8zM40.8-45.6c2.7 0 4.8 2.1 4.8 4.8S43.5-36 40.8-36 36-38.2 36-40.8c0-2.7 2.1-4.8 4.8-4.8zM16.8-45.6c2.7 0 4.8 2.1 4.8 4.8S19.5-36 16.8-36 12-38.2 12-40.8c0-2.7 2.1-4.8 4.8-4.8zM40.8-21.6c2.7 0 4.8 2.1 4.8 4.8S43.5-12 40.8-12 36-14.1 36-16.8s2.1-4.8 4.8-4.8zM16.8-21.6c2.7 0 4.8 2.1 4.8 4.8S19.5-12 16.8-12 12-14.1 12-16.8s2.1-4.8 4.8-4.8z"/></g><defs><path id="nose_e" d="M4.8-52.8h48v48h-48z"/></defs><clipPath id="nose_f"><use overflow="visible" xlink:href="#nose_e"/></clipPath><g class="skin_dark" clip-path="url(#nose_f)"><path d="M4.8-57.6c2.7 0 4.8 2.1 4.8 4.8S7.5-48 4.8-48 0-50.1 0-52.8s2.1-4.8 4.8-4.8zM4.8-33.6c2.7 0 4.8 2.1 4.8 4.8S7.5-24 4.8-24 0-26.1 0-28.8s2.1-4.8 4.8-4.8z"/></g><g><defs><path id="nose_g" d="M4.8-52.8h48v48h-48z"/></defs><clipPath id="nose_h"><use overflow="visible" xlink:href="#nose_g"/></clipPath><g class="skin_dark" clip-path="url(#nose_h)"><path d="M28.8-9.6c2.7 0 4.8 2.1 4.8 4.8S31.5 0 28.8 0 24-2.2 24-4.8c0-2.7 2.1-4.8 4.8-4.8zM52.8-9.6c2.7 0 4.8 2.1 4.8 4.8S55.5 0 52.8 0 48-2.2 48-4.8c0-2.7 2.1-4.8 4.8-4.8z"/></g></g><g><defs><path id="nose_i" d="M4.8-52.8h48v48h-48z"/></defs><clipPath id="nose_j"><use overflow="visible" xlink:href="#nose_i"/></clipPath><path class="skin_dark" d="M4.8-9.6c2.7 0 4.8 2.1 4.8 4.8S7.5 0 4.8 0 0-2.2 0-4.8c0-2.7 2.1-4.8 4.8-4.8z" clip-path="url(#nose_j)"/></g></pattern><pattern id="nose_l" patternTransform="rotate(180 27244.648 -3609.091) scale(.252)" xlink:href="#nose_k"/><path fill="url(#nose_l)" d="M460.1 545c-.2 8.1 5.7 19 38.9 19 33.1 0 39.1-10.9 38.9-19 .5 38.1-78.3 38.1-77.8 0zm2.5-8.8c27-77.3 27.2-82.2 22.2-95.4-.5-1.2-2.2-.9-2.2.4-.3 20.6-16.8 65.7-22.4 78.8l2.4 16.2z"/><pattern id="nose_n" patternTransform="matrix(.5 0 0 .5 -4094.635 -4110.608)" xlink:href="#nose_m"/><path fill="url(#nose_n)" d="M535.4 536.2c-27-77.3-27.2-82.2-22.2-95.4.5-1.2 2.2-.9 2.2.4.3 20.6 16.8 65.7 22.4 78.8l-2.4 16.2zm-53.7 11.1c0 10.6 34.7 10.6 34.7 0 0-4.5-34.7-4.5-34.7 0z"/><path class="skin_outline" d="M538.1 548.9c-3.9 21.6-58.8 20.2-72.5 9.1-6.4-4.7-6.4-13-5.4-13 .7 0 .1 6.7 6.9 11 4-6.3 13.2-1.5 16.6 5.3 9.1 1.2 21.4 1.2 30.7 0 3.4-6.8 12.6-11.6 16.6-5.3 6.7-4.2 6.2-11 6.9-11 .2 0 .6 1.3.2 3.9zm-50-89.4c1.4-5.2-3.4-20.8-4.5-20.3-.4.1.5 3.1 1.4 8.1 1.8 10.8.6 11.9-1.5 18.9-11.5 39.7-6.9 35.1 4.6-6.7zm26.3-20.3c-1-.4-5.1 8.5-4.3 16.5 1 11.8 4.6-16.4 4.3-16.5zM483 532.8c.6 1.5 7.2-2.8 30.2.2 3.3.4.4-1.7-2.7-3-12.2-5-28.1 1.2-27.5 2.8z"/><pattern id="mouth_i" width="28.8" height="28.8" y="1000" overflow="visible" patternUnits="userSpaceOnUse" viewBox="1.4 -30.2 28.8 28.8"><defs><path id="mouth_a" d="M1.4-30.2h28.8v28.8H1.4z"/></defs><clipPath id="mouth_b"><use overflow="visible" xlink:href="#mouth_a"/></clipPath><g class="skin_halftone" clip-path="url(#mouth_b)"><path d="M30.2 0c1.9 0 1.9-2.8 0-2.8S28.3 0 30.2 0zM15.8 0c1.9 0 1.9-2.8 0-2.8S13.9 0 15.8 0zM30.2-14.4c1.9 0 1.9-2.8 0-2.8s-1.9 2.8 0 2.8zM15.8-14.4c1.9 0 1.9-2.8 0-2.8s-1.9 2.8 0 2.8zM8.6-7.2c1.9 0 1.9-2.8 0-2.8s-1.9 2.8 0 2.8zM23-7.2c1.9 0 1.9-2.8 0-2.8s-1.9 2.8 0 2.8zM8.6-21.6c1.9 0 1.9-2.8 0-2.8s-1.9 2.8 0 2.8zM23-21.6c1.9 0 1.9-2.8 0-2.8s-1.9 2.8 0 2.8z"/></g><defs><path id="mouth_c" d="M1.4-30.2h28.8v28.8H1.4z"/></defs><clipPath id="mouth_d"><use overflow="visible" xlink:href="#mouth_c"/></clipPath><g class="skin_halftone" clip-path="url(#mouth_d)"><path d="M1.4 0c1.9 0 1.9-2.8 0-2.8C-.4-3-.6 0 1.4 0zM1.4-14.4c1.9 0 1.9-2.8 0-2.8s-1.9 2.8 0 2.8z"/></g><g><defs><path id="mouth_e" d="M1.4-30.2h28.8v28.8H1.4z"/></defs><clipPath id="mouth_f"><use overflow="visible" xlink:href="#mouth_e"/></clipPath><g class="skin_halftone" clip-path="url(#mouth_f)"><path d="M30.2-28.8c1.9 0 1.9-2.8 0-2.8s-1.9 2.8 0 2.8zM15.8-28.8c1.9 0 1.9-2.8 0-2.8s-1.9 2.8 0 2.8z"/></g></g><g><defs><path id="mouth_g" d="M1.4-30.2h28.8v28.8H1.4z"/></defs><clipPath id="mouth_h"><use overflow="visible" xlink:href="#mouth_g"/></clipPath><path class="skin_halftone" d="M1.4-28.8c1.9 0 1.9-2.8 0-2.8-1.8-.2-2 2.8 0 2.8z" clip-path="url(#mouth_h)"/></g></pattern><path class="skin_dark" d="M554.2 614.1s-42.3-3.9-54.7.6c-12.4-4.5-54.7-.6-54.7-.6-9.6 2.3-15.5-5 .4 8.8 24.2 27.6 84.6 27.6 108.8 0 16.1-14 9.5-6.5.2-8.8z"/><path class="skin_dark" d="M499.5 615c26.6-2.3 12.4-2 64.4-.9-12.2-6.1-42.9-18-56.1-14.3-13.2 3.6-14.7-1.2-23.5-.8-28.1 1.2-49 15.1-49 15.1 62.6-1.3 57.9.9 64.2.9z"/><pattern id="mouth_j" patternTransform="matrix(-.5069 0 0 .4978 -35258.805 4290.345)" xlink:href="#mouth_i"/><path fill="url(#mouth_j)" d="M499.5 615c26.6-2.3 12.4-2 64.4-.9-12.2-6.1-42.9-18-56.1-14.3-13.2 3.6-14.7-1.2-23.5-.8-28.1 1.2-49 15.1-49 15.1 62.6-1.3 57.9.9 64.2.9z"/><g class="skin_outline"><path d="M539.5 613.6c-6.3 4.2-12.6-.1-12.6-.1l12.6.1z"/><path d="M567.9 612.9c-11 1.8-51.7-4.7-66.9-.1-4.2 1.3-4.7-4.3-54 .1-.1.1-1.7.2-2.5.4-8.9 1.1-19.1-1.6-19.1-.8 0 .4 13.5 3.9 20 3.1 1.6 0 .9-.2 2.3-.2 60.4-2.7 47.5 2.7 53.8.9 4.1-1 11.1-1.5 13.3-1.5 18-.8 10.3.6 17 1.4 2.5.3 4.5-.2 6.3-1.3 20.7.6 19.4 1.7 30.1-.7 7.9-2 7.2-2.3-.3-1.3z"/></g><path fill="#F2F0E3" d="M572.3 645.8c-48.1-36.5-43.2-31.4-38.5-32.3 43.4 32.1 41.9 30.1 40.6 31.9.1 0-.9 1.3-2.1.4z"/><pattern id="feat_c" width="28.8" height="28.8" x="250" y="750" overflow="visible" patternUnits="userSpaceOnUse" viewBox="1.4 -30.2 28.8 28.8"><defs><path id="feat_a" d="M1.4-30.2h28.8v28.8H1.4z"/></defs><clipPath id="feat_b"><use overflow="visible" xlink:href="#feat_a"/></clipPath><g class="hair_shadow" clip-path="url(#feat_b)"><path d="M30.2 0c.8 0 1.4-.6 1.4-1.4s-.6-1.4-1.4-1.4-1.4.6-1.4 1.4c0 .8.6 1.4 1.4 1.4zM15.8 0c.8 0 1.4-.6 1.4-1.4s-.6-1.4-1.4-1.4c-.8 0-1.4.6-1.4 1.4 0 .8.6 1.4 1.4 1.4zM30.2-14.4c.8 0 1.4-.6 1.4-1.4s-.6-1.4-1.4-1.4-1.4.6-1.4 1.4c0 .8.6 1.4 1.4 1.4zM15.8-14.4c.8 0 1.4-.6 1.4-1.4s-.6-1.4-1.4-1.4c-.8 0-1.4.6-1.4 1.4 0 .8.6 1.4 1.4 1.4zM8.6-7.2c.8 0 1.4-.6 1.4-1.4S9.4-10 8.6-10c-.8 0-1.4.6-1.4 1.4 0 .8.6 1.4 1.4 1.4zM23-7.2c.8 0 1.4-.6 1.4-1.4S23.8-10 23-10s-1.4.6-1.4 1.4.6 1.4 1.4 1.4zM8.6-21.6c.8 0 1.4-.6 1.4-1.4s-.6-1.4-1.4-1.4c-.8 0-1.4.6-1.4 1.4 0 .8.6 1.4 1.4 1.4zM23-21.6c.8 0 1.4-.6 1.4-1.4s-.6-1.4-1.4-1.4-1.4.6-1.4 1.4c0 .8.6 1.4 1.4 1.4z"/><g><path d="M1.4 0c.8 0 1.4-.6 1.4-1.4s-.6-1.4-1.4-1.4C.6-2.9 0-2.2 0-1.4 0-.6.6 0 1.4 0zM1.4-14.4c.8 0 1.4-.6 1.4-1.4s-.6-1.4-1.4-1.4-1.4.6-1.4 1.4.6 1.4 1.4 1.4z"/></g><g><path d="M30.2-28.8c.8 0 1.4-.6 1.4-1.4s-.6-1.4-1.4-1.4-1.4.6-1.4 1.4c0 .8.6 1.4 1.4 1.4zM15.8-28.8c.8 0 1.4-.6 1.4-1.4s-.6-1.4-1.4-1.4-1.4.6-1.4 1.4c0 .8.6 1.4 1.4 1.4z"/></g><path d="M1.4-28.8c.8 0 1.4-.6 1.4-1.4s-.6-1.4-1.4-1.4C.6-31.7 0-31 0-30.2c0 .8.6 1.4 1.4 1.4z"/></g></pattern><path class="hair_fill" d="M666.3 568.6c-4.7.2-6.4-5.6-7.1-10.4 3.6.7 7.1-1.2 7.1-1.2-5.1.8-6.6-6.3-7.1-11.1 2.1 1.4 4.3 1.5 4.3 1.5-5.4-3.8-4.4-14.9-4.3-19.3 1.5-11.8 12.5-21 1.5-106.2-9.9 0-2.1 5.6-10.1 57-5.8 37.3-29.9 44.7-43.6 61.3-4.9 5.9-5.8 10.2-3.8 1.5-4 6.1-5.1 13-5.7 14.3-1-3.3-1.1-6-1.1-6-8.7 17.5 1.9 73.4-8.9 67.8-1.7-5.5-3.8-10.4-7.4-15.5 2.5.8 5.3.3 5.3.3-6.8-1.1-5.2-7.8-14.3-10.2 2.4-.5 5.3-2.4 5.3-2.4-3.5 1.3-16.6-4.4-18.1-5-.1 0 3.1-.8 5.2-2.5-18-1.3-33.7-8-33.6-8 .4 0 7.8.8 2.7-.6-8.7-2.4-14.5-.5-32.4 2.9-18.1-3.4-23.7-5.3-32.4-2.9-4.6 1.3 1.1.8 2.7.6.1 0-15.7 6.7-33.6 8 2.1 1.8 5.3 2.5 5.2 2.5-2 .8-14.6 6.3-18.1 5 0 0 2.8 2 5.3 2.4-9.2 2.4-7.3 9.1-14.3 10.2 0 0 2.7.5 5.3-.3-3.6 5.1-5.7 9.9-7.4 15.5-10.8 5.5-.1-50.3-8.9-67.8 0 0-.1 2.7-1.1 6-.6-1.5-1.7-8.2-5.7-14.3 2.1 8.7 1.1 4.4-3.8-1.5-13.6-16.5-37.8-24.1-43.6-61.3-8-51.3-.2-57-10.1-57-11.1 86.2-.1 94.1 1.5 106.2.1 6 .9 15.6-4.3 19.3 0 0 2.1-.1 4.3-1.5-.5 4.8-2.1 11.8-7.1 11.1 0 0 3.5 1.9 7.1 1.2-.7 4.8-2.4 10.6-7.1 10.4 6.2 2.9 7.7-.5 7.8 1.7-1.5 3.1-7.2 13.3-3.2 24.2 4.3 11.7 4.6 23.5 0 26.8 3.8-.2 4.8-2.6 4.9-1.9-.4 1.6-3.3 14.2 3.9 24.4 0 0-1.2-3.8-.4-7.8 3.3 11 6.4 15.5 11.8 20.6 1 2.5 4.4 8.9 12.1 12.7 0 0-2.4-2.2-3.2-5.6.1.1 12.3 12.8 25.6 17.7 5.9 2.2 11.6 2.4 14.5 7.7 0 0 1.5-2.2.6-5.2 16.4 6.4 16.9-5.1 15.2-22.3 1.8 2.9 2.5 2 2.5 2-2-2.3-2.9-9.2-3.3-15.2.4-.2.5-.3.9-.5 2.8 2.1 5.2 2.1 5.2 2.1-8.8-7.2-4.3-28.9-1.9-40 71.2 4.4 75.3 4.4 146.5 0 2.5 11.1 7 32.9-1.9 40 0 0 2.4 0 5.2-2.1.4.2.5.3.9.5-.4 6-1.3 13-3.3 15.2 0 0 .7.8 2.5-2-.9 9-1.7 19 1.5 21.2 4 2.9 8.6 3 13.7 1-.8 3 .6 5.2.6 5.2 2.8-5.4 8.5-5.5 14.5-7.7 13.3-5 25.5-17.7 25.6-17.7-.8 3.5-3.2 5.6-3.2 5.6 7.8-3.8 11.1-10.2 12.1-12.7 5.4-5.1 8.6-9.5 11.8-20.6.8 4-.4 7.8-.4 7.8 7.1-10.2 4.3-22.8 3.9-24.4.1-.4 1.7 1.7 4.9 1.9-4.6-3.3-4.3-15 0-26.8 4-10.9-1.7-21.1-3.2-24.2-.3-2.2.9 1.5 7.5-1.6zm-298.9 95zm265.2 0z"/><pattern id="feat_d" patternTransform="matrix(.3974 0 0 -.3974 -97540.453 -48575.18)" xlink:href="#feat_c"/><path fill="url(#feat_d)" d="M618.7 610.4c-1-1.6 16.1 42.1 6.1 58.6 0 0 25.4-7.4-6.1-58.6z"/><pattern id="feat_e" patternTransform="matrix(.3974 0 0 -.3974 -97543.602 -48571.313)" xlink:href="#feat_c"/><path fill="url(#feat_e)" d="M538.1 590.6s1.5 23 25 19.3c0 0-22.8-11-25-19.3z"/><pattern id="feat_f" patternTransform="matrix(.3974 0 0 -.3974 -97543.602 -48571.313)" xlink:href="#feat_c"/><path fill="url(#feat_f)" d="M500 587.2s5.2 32-25 23.5c0 0 20.6-5 25-23.5z"/><pattern id="feat_g" patternTransform="matrix(.3974 0 0 -.3974 -97543.602 -48571.313)" xlink:href="#feat_c"/><path fill="url(#feat_g)" d="M406.5 621.7s16.3 9.4 19.9-10.3c0 .1-11.7 13.3-19.9 10.3z"/><path class="hair_outline" d="M470 600.5c.8.7-5.4 8.1-13.5 10.7-11.2 3.5 13.4-10.8 13.5-10.7zM458.7 582.6c3.2 4.1-32.4 3.6-8.3 1.1 7.6-.8 8.1-1.4 8.3-1.1zM461.9 587.2c.7.2-4.6 20.5-28.5 23-4.1.4-6.7 0-6.6-.2 0-.3 2.5-.3 6.5-1 24.3-4.6 27.5-22.3 28.6-21.8z"/><path class="hair_outline" d="M415.4 618.6c.1-.8 2.1-.4 5.8-3.8 2.6-2.3 4.8-5.3 5.5-4.9 1.3.7-3.6 9.9-10 9.4-.3 0-1.4-.3-1.3-.7zM447.5 590.6c.7 1.1-7.5 6.8-16 3.7-1.7-.6-2.7-1.4-2.5-1.7.3-.7 4.4.4 9.4-.1 4.9-.5 8.7-2.6 9.1-1.9zM468.5 592.2c-1.5-.8 7.2-14.9 20.1-14.7.8 0 4.5.4 4.4 1.1-.1 1-6.2-.2-13.6 4.3-7.1 4.3-10.1 9.8-10.9 9.3zM475 610.7c-.3-2.1 10.2.7 22.2-19 1.6-2.8 2.5-4.6 2.8-4.5.4.1.1 2.2-1.1 5.3-7.8 18.5-23.8 19.1-23.9 18.2zM365.4 657.1c-.2.1-2.9-5.2-.5-14 5-18.1 24.7-37.9 32.3-59.5 2.7-7.5 3.8-19.9 3.2-9.8-1.5 28.1-37.7 57.9-35.5 79.5.3 2.7.7 3.8.5 3.8zM399.8 669c-.7.3-5.5-6.7-6.6-20.2-.1-16 5.3-25.7 5.9-25.4 1 .5-6.9 19.1-1.1 39 1.4 4.5 2.2 6.5 1.8 6.6zM423.3 661.6c-.9 1.2-11.2-6.7-11.6-27.3-.3-17.8 3 13.7 8.8 23.1 1.5 2.5 3 3.8 2.8 4.2z"/><pattern id="feat_h" patternTransform="matrix(.3974 0 0 -.3974 -97543.602 -48571.313)" xlink:href="#feat_c"/><path fill="url(#feat_h)" d="M360.8 590.6s7.6 23.7-17.6 28.7c0 0 16.3-13.6 17.6-28.7z"/><path class="hair_outline" d="M360.8 592.2c.6.2-.5 3.9-.8 4.8-4.1 12.5-16 23.1-16.8 22.1-.7-.8 7.5-8.5 15-22.9.7-1.1 2.1-4.1 2.6-4zM356.1 556.8c6.8-8.7 10.6-17 11.3-16.6 1.3.5-8.7 25.2-24.2 29.9-5.9 1.6 4.3-2.2 12.9-13.3zM367.4 566.7c-.9-.9 7.3-8.9 11.5-23 .8-2.6 1.2-4.3 1.5-4.3 1.5 0 .3 14.5-9.4 24.4-.4.5-3.2 3.3-3.6 2.9zM346.1 537.8c-.7-.4 2.6-7.2 4.8-17.9 2.3-10.9 1.9-18.3 2.7-18.3.7-.1 2.2 8.2-.1 18.9-1.9 9.6-6.6 17.8-7.4 17.3zM335.2 490.2c-5.2-.7 18.3-68.3 5.2-18.1-2.7 10-4.5 18.2-5.2 18.1zM538.1 587.2c1.7-.6 4.1 16.3 28.8 21.4 3.9.8 6.4 1 6.4 1.3 0 .4-2.5.9-6.7.5-23.7-1.9-29.8-22.8-28.5-23.2z"/><path class="hair_outline" d="M581 619.1c-5-1.4-8.9-8.6-7.7-9.2 1.1-.6 3.9 4.8 10.1 7.9 2.7 1.3 0 1.9-2.4 1.3zM561.6 592.4c5 .5 9.1-.6 9.4.1.8 1.8-12.2 5.3-18.2-1.1-2.1-2.3 3.9.6 8.8 1zM534.2 600.5c-1 .3-7.3-17.5-26.6-22.6-3.7-1-6.1-.8-6.1-1.3-.1-.3 2.4-1.2 6.5-.6 18.6 2.5 28.3 23.8 26.2 24.5zM531.7 611.5c0 .6-6.9 1.7-12.8-6.9-.3-.4-7.6-12.3-7.5-12.4 1.3-2.3 9.6 10.7 9.7 10.8 5.5 8.2 10.6 7.5 10.6 8.5zM631.2 639c-6.9-21-24.7-43.7-28.7-67.3-1.6-9.7-.2-17.2.4-17.1 1.3.1-2.1 10.8 8.1 33.7 10.5 24.2 32.8 54.2 22.5 74.3-2.6 4.7 3.1-6.4-2.3-23.6zM600.2 669c-1.1-.6 4.1-7.1 3.9-22.7 0-12.2-3.9-22.6-3.3-22.9.9-.4 9.5 16 4.1 36.2-1.7 5.6-4.3 9.6-4.7 9.4zM584 646.1c2.3-8.6 3-17.1 3.7-17.1 1.6 0 1 25.5-9.5 32.1-4.3 2.5 2.4-2.2 5.8-15zM639.2 592.2c.5-.1 1.8 2.7 2.6 4.1 7.7 14.8 15.8 22 15 22.9-.8 1-12.7-9.6-16.8-22.1-.3-.9-1.3-4.7-.8-4.9zM658.5 570.3c-.3 1.2-17.2-2.8-24.7-24-1.3-3.6-1.6-5.9-1.2-6 .4-.1 1.3 2 3 5.3 12.2 23.8 23.5 22.7 22.9 24.7zM629.9 583.8c-.8.6-7-7.4-8.8-19.9-1.6-11 0-21.9.9-21.8 1.2.1-.9 19.8 5.6 35.8 1.7 4.1 2.6 5.7 2.3 5.9zM659.1 546c-.1.1-12.7-11.2-14.2-24.4-.6-6.5 1.1-16.5 1.6-10.9.4 3.3 0 10.9 2.7 17.9 2.2 5.4 11.7 16.6 9.9 17.4zM664.8 490.2c-.8.1-10.1-36.2-9.4-36.4 2.8-1 11.9 36.1 9.4 36.4zM602.8 594.5c-.2.3-4.2-2.9-5.6-13.3-.9-6.5-.3-14.5.3-14.5.5 0 .5 7 1.5 14.2 1.6 11.8 4.5 13 3.8 13.6zM656.1 492.2c-2.2-5.5 4.6 1.4 3.2 9.1-1.1 6.7-1-3.6-3.2-9.1z"/><pattern id="feat_i" patternTransform="matrix(.3974 0 0 -.3974 -97543.602 -48571.313)" xlink:href="#feat_c"/><path fill="url(#feat_i)" d="M359.2 515.3s-2.7 34.6-18.3 42.9c-.1 0 25.4-2.5 18.3-42.9z"/><pattern id="feat_j" patternTransform="matrix(.3974 0 0 -.3974 -97540.453 -48575.18)" xlink:href="#feat_c"/><path fill="url(#feat_j)" d="M617.3 534.5s-11.8 18.6 0 32.2c0 0-.6-17.9 0-32.2z"/><pattern id="feat_k" patternTransform="matrix(.3974 0 0 -.3974 -97540.453 -48575.18)" xlink:href="#feat_c"/><path fill="url(#feat_k)" d="M658.7 524.6c-1.5 1.7-12.9 5.3-10.7-29 0 0 2.5 16.6 10.7 29z"/><pattern id="feat_l" patternTransform="matrix(.3974 0 0 -.3974 -97540.453 -48575.18)" xlink:href="#feat_c"/><path fill="url(#feat_l)" d="M480.7 576.5s-10.4.4-16.1 12c.1 0-3.2-12.4 16.1-12z"/><pattern id="eye_i" width="48" height="48" x="250" y="750" overflow="visible" patternUnits="userSpaceOnUse" viewBox="4.8 -52.8 48 48"><defs><path id="eye_a" d="M4.8-52.8h48v48h-48z"/></defs><clipPath id="eye_b"><use overflow="visible" xlink:href="#eye_a"/></clipPath><g class="skin_dark" clip-path="url(#eye_b)"><path d="M28.8-57.6c2.7 0 4.8 2.1 4.8 4.8S31.5-48 28.8-48 24-50.2 24-52.8c0-2.7 2.1-4.8 4.8-4.8zM52.8-57.6c2.7 0 4.8 2.1 4.8 4.8S55.5-48 52.8-48 48-50.2 48-52.8c0-2.7 2.1-4.8 4.8-4.8zM28.8-33.6c2.7 0 4.8 2.1 4.8 4.8S31.5-24 28.8-24 24-26.1 24-28.8s2.1-4.8 4.8-4.8zM52.8-33.6c2.7 0 4.8 2.1 4.8 4.8S55.5-24 52.8-24 48-26.1 48-28.8s2.1-4.8 4.8-4.8zM40.8-45.6c2.7 0 4.8 2.1 4.8 4.8S43.5-36 40.8-36 36-38.2 36-40.8c0-2.7 2.1-4.8 4.8-4.8zM16.8-45.6c2.7 0 4.8 2.1 4.8 4.8S19.5-36 16.8-36 12-38.2 12-40.8c0-2.7 2.1-4.8 4.8-4.8zM40.8-21.6c2.7 0 4.8 2.1 4.8 4.8S43.5-12 40.8-12 36-14.1 36-16.8s2.1-4.8 4.8-4.8zM16.8-21.6c2.7 0 4.8 2.1 4.8 4.8S19.5-12 16.8-12 12-14.1 12-16.8s2.1-4.8 4.8-4.8z"/></g><defs><path id="eye_c" d="M4.8-52.8h48v48h-48z"/></defs><clipPath id="eye_d"><use overflow="visible" xlink:href="#eye_c"/></clipPath><g class="skin_dark" clip-path="url(#eye_d)"><path d="M4.8-57.6c2.7 0 4.8 2.1 4.8 4.8S7.5-48 4.8-48 0-50.1 0-52.8s2.1-4.8 4.8-4.8zM4.8-33.6c2.7 0 4.8 2.1 4.8 4.8S7.5-24 4.8-24 0-26.1 0-28.8s2.1-4.8 4.8-4.8z"/></g><g><defs><path id="eye_e" d="M4.8-52.8h48v48h-48z"/></defs><clipPath id="eye_f"><use overflow="visible" xlink:href="#eye_e"/></clipPath><g class="skin_dark" clip-path="url(#eye_f)"><path d="M28.8-9.6c2.7 0 4.8 2.1 4.8 4.8S31.5 0 28.8 0 24-2.2 24-4.8c0-2.7 2.1-4.8 4.8-4.8zM52.8-9.6c2.7 0 4.8 2.1 4.8 4.8S55.5 0 52.8 0 48-2.2 48-4.8c0-2.7 2.1-4.8 4.8-4.8z"/></g></g><g><defs><path id="eye_g" d="M4.8-52.8h48v48h-48z"/></defs><clipPath id="eye_h"><use overflow="visible" xlink:href="#eye_g"/></clipPath><path class="skin_dark" d="M4.8-9.6c2.7 0 4.8 2.1 4.8 4.8S7.5 0 4.8 0 0-2.2 0-4.8c0-2.7 2.1-4.8 4.8-4.8z" clip-path="url(#eye_h)"/></g></pattern><pattern id="eye_j" patternTransform="matrix(.252 0 0 -.252 -70858.117 -7217.188)" xlink:href="#eye_i"/><path fill="url(#eye_j)" d="M365.8 440.4s5.2 9.4 25.9 13.1c8.9-5.8 11.9-8.9 11.9-8.9 10.7-4.6 33.4-3.4 43.5-2.2l6.4 6.9c5.2-6.4 1.4-11.8 1.4-11.8-52.2-9.2-89.1 2.9-89.1 2.9z"/><path class="hair_brow" d="M472.2 426.4c-1.8 4-4.2 12.3-17.4 11-29.7-2.8-58.1-6.5-89.1 3.5 0 0 10.7-28.8 39.9-28.8 25.9.1 56.4 19.6 66.6 14.3zM475.4 421.9c.7-.2 3.3 7.2-1.4 13.2-2.3 2.7-4.9 3.7-5 3.3-.2-.4 1.5-1.2 3.7-4.3 4.3-6.4 1.7-11.9 2.7-12.2z"/><path class="skin_outline" d="M446.7 443.3c1.1.5-4.9-1.1-15.3-1.7-20.3-1.2-27.3 3.9-27.8 2.9-.3-.5 8.8-6.7 27.9-5.6 2.8.2 17.4 1.7 18.1 3.4.2-.6-2.1-1-2-.9 13.9 16.4-.9 1.9-.9 1.9z"/><path fill="#FFF" d="M400.2 454c.9 13 25.6 10.4 41.5 10.4 6.5 0 13.7-.9 13.7-7 0 0-3.2-4-9.5-7.8-17.3-5-46.1-2-45.7 4.4z"/><path class="eye_iris" d="M446.9 450.1c-2.1-1.3-8.9-2.2-11.4-2.5 4.6 4.3 1.6 12.1-4.8 12.1-6.7 0-9.6-8.6-4.2-12.6-4 0-7.9.2-11.4.6-1.8 5.7-.6 12.2 4.4 16.6h22.8c4-4.2 5.4-9.4 4.6-14.2z"/><path d="M423.7 452.7c0 9.3 14 9.3 14 0 0-2-.9-3.8-2.2-5.1-3-.3-6-.5-9-.5-1.6 1.3-2.8 3.4-2.8 5.6z"/><g><path fill="#241F20" d="M453.5 461.8c3.4 3.6-41.4 6.5-49.5-1-1-.9-1.4-1.6-1.3-1.7.2-.2 2.2 2.1 6.7 3.3 6.8 1.8 22.3.6 33 1.2 10 .5 10.5-2.5 11.1-1.8z"/></g><g><path fill="#241F20" d="M400.4 452.8c-7.9-4.1 40-21.3 54.4 1.8 3.7 5.8-3.6 1-9.6-2.3-4.2-2.2-25.3-3-36.6-1.3-6.9 1.1-7.4 2.3-8.2 1.8z"/></g><g><pattern id="eye_k" patternTransform="rotate(180 27244.867 -3608.594) scale(.252)" xlink:href="#eye_i"/><path fill="url(#eye_k)" d="M634.2 440.4s-5.2 9.4-25.9 13.1c-8.9-5.8-11.9-8.9-11.9-8.9-10.7-4.6-33.4-3.4-43.5-2.2l-6.4 6.9c-5.2-6.4-1.4-11.8-1.4-11.8 52.2-9.2 89.1 2.9 89.1 2.9z"/><path class="hair_brow" d="M527.8 426.4c1.8 4 4.2 12.3 17.4 11 29.7-2.8 58.1-6.5 89.1 3.5 0 0-10.7-28.8-39.9-28.8-25.9.1-56.4 19.6-66.6 14.3zM524.6 421.9c.9.2-1.5 6 2.7 12.3 2.5 3.4 4 3.9 3.7 4.3-.2.4-2.6-.5-5-3.3-4.6-6-2.1-13.4-1.4-13.3z"/><path class="skin_outline" d="M546.5 449.3c-.5-.5 6-7.8 5.7-7.8-.6.1-2.1.4-2 .9.3-.7.2-.6 4.5-1.6 24.7-5.3 42.4 2.2 41.5 3.8-.6 1.3-9.3-6.3-41.1-1.5-2.1.3-1.6.3-2.1.3.1 0-5.9 6.3-6.5 5.9z"/><path fill="#FFF" d="M599.8 454c-.9 13-25.6 10.4-41.5 10.4-6.5 0-13.7-.9-13.7-7 0 0 3.2-4 9.5-7.8 17.3-5 46.1-2 45.7 4.4z"/><path class="eye_iris" d="M553.1 450.1c2.1-1.3 8.9-2.2 11.4-2.5-4.6 4.3-1.6 12.1 4.8 12.1 6.7 0 9.6-8.6 4.2-12.6 4 0 7.9.2 11.4.6 1.8 5.7.6 12.2-4.4 16.6h-22.8c-4-4.2-5.4-9.4-4.6-14.2z"/><path d="M576.3 452.7c0 9.3-14 9.3-14 0 0-2 .9-3.8 2.2-5.1 3-.3 6-.5 9-.5 1.6 1.3 2.8 3.4 2.8 5.6z"/><g><path fill="#241F20" d="M546.5 461.8c.2-.3 1.8 1.4 7.3 1.8l28.7-.1c13.1-.3 14.1-5.1 14.8-4.3.2.2-1.6 2.9-6.4 4.5-6.4 2.2-37.5 2.5-42.8-.5-1.2-.7-1.6-1.3-1.6-1.4z"/></g><g><path fill="#241F20" d="M599.6 452.8c-.4.2-15.3-5.4-39.3-1.7-4.1.6-4.6 1-5 1-1.2 0-14.7 9.8-10.1 2.5 9.3-14.9 36.8-12.7 47.6-8.4 6.3 2.6 7.8 6.1 6.8 6.6z"/></g></g><pattern id="hair_n" width="28.8" height="28.8" x="250" y="750" overflow="visible" patternUnits="userSpaceOnUse" viewBox="1.4 -30.2 28.8 28.8"><defs><path id="hair_a" d="M1.4-30.2h28.8v28.8H1.4z"/></defs><clipPath id="hair_b"><use overflow="visible" xlink:href="#hair_a"/></clipPath><g clip-path="url(#hair_b)"><g fill="#FFF"><path d="M30.2 0c.8 0 1.4-.6 1.4-1.4s-.6-1.4-1.4-1.4-1.4.6-1.4 1.4c0 .8.6 1.4 1.4 1.4zM15.8 0c.8 0 1.4-.6 1.4-1.4s-.6-1.4-1.4-1.4c-.8 0-1.4.6-1.4 1.4 0 .8.6 1.4 1.4 1.4zM30.2-14.4c.8 0 1.4-.6 1.4-1.4s-.6-1.4-1.4-1.4-1.4.6-1.4 1.4c0 .8.6 1.4 1.4 1.4zM15.8-14.4c.8 0 1.4-.6 1.4-1.4s-.6-1.4-1.4-1.4c-.8 0-1.4.6-1.4 1.4 0 .8.6 1.4 1.4 1.4zM8.6-7.2c.8 0 1.4-.6 1.4-1.4S9.4-10 8.6-10c-.8 0-1.4.6-1.4 1.4 0 .8.6 1.4 1.4 1.4zM23-7.2c.8 0 1.4-.6 1.4-1.4S23.8-10 23-10s-1.4.6-1.4 1.4.6 1.4 1.4 1.4zM8.6-21.6c.8 0 1.4-.6 1.4-1.4s-.6-1.4-1.4-1.4c-.8 0-1.4.6-1.4 1.4 0 .8.6 1.4 1.4 1.4zM23-21.6c.8 0 1.4-.6 1.4-1.4s-.6-1.4-1.4-1.4-1.4.6-1.4 1.4c0 .8.6 1.4 1.4 1.4z"/></g><g fill="#FFF"><path d="M1.4 0c.8 0 1.4-.6 1.4-1.4s-.6-1.4-1.4-1.4C.6-2.9 0-2.2 0-1.4 0-.6.6 0 1.4 0zM1.4-14.4c.8 0 1.4-.6 1.4-1.4s-.6-1.4-1.4-1.4-1.4.6-1.4 1.4.6 1.4 1.4 1.4z"/></g><g fill="#FFF"><path d="M30.2-28.8c.8 0 1.4-.6 1.4-1.4s-.6-1.4-1.4-1.4-1.4.6-1.4 1.4c0 .8.6 1.4 1.4 1.4zM15.8-28.8c.8 0 1.4-.6 1.4-1.4s-.6-1.4-1.4-1.4-1.4.6-1.4 1.4c0 .8.6 1.4 1.4 1.4z"/></g><path fill="#FFF" d="M1.4-28.8c.8 0 1.4-.6 1.4-1.4s-.6-1.4-1.4-1.4C.6-31.7 0-31 0-30.2c0 .8.6 1.4 1.4 1.4z"/></g></pattern><pattern id="hair_e" width="28.8" height="28.8" x="250" y="750" overflow="visible" patternUnits="userSpaceOnUse" viewBox="1.4 -30.2 28.8 28.8"><defs><path id="hair_c" d="M1.4-30.2h28.8v28.8H1.4z"/></defs><clipPath id="hair_d"><use overflow="visible" xlink:href="#hair_c"/></clipPath><g class="hair_shadow" clip-path="url(#hair_d)"><path d="M30.2 0c.8 0 1.4-.6 1.4-1.4s-.6-1.4-1.4-1.4-1.4.6-1.4 1.4c0 .8.6 1.4 1.4 1.4zM15.8 0c.8 0 1.4-.6 1.4-1.4s-.6-1.4-1.4-1.4c-.8 0-1.4.6-1.4 1.4 0 .8.6 1.4 1.4 1.4zM30.2-14.4c.8 0 1.4-.6 1.4-1.4s-.6-1.4-1.4-1.4-1.4.6-1.4 1.4c0 .8.6 1.4 1.4 1.4zM15.8-14.4c.8 0 1.4-.6 1.4-1.4s-.6-1.4-1.4-1.4c-.8 0-1.4.6-1.4 1.4 0 .8.6 1.4 1.4 1.4zM8.6-7.2c.8 0 1.4-.6 1.4-1.4S9.4-10 8.6-10c-.8 0-1.4.6-1.4 1.4 0 .8.6 1.4 1.4 1.4zM23-7.2c.8 0 1.4-.6 1.4-1.4S23.8-10 23-10s-1.4.6-1.4 1.4.6 1.4 1.4 1.4zM8.6-21.6c.8 0 1.4-.6 1.4-1.4s-.6-1.4-1.4-1.4c-.8 0-1.4.6-1.4 1.4 0 .8.6 1.4 1.4 1.4zM23-21.6c.8 0 1.4-.6 1.4-1.4s-.6-1.4-1.4-1.4-1.4.6-1.4 1.4c0 .8.6 1.4 1.4 1.4z"/><g><path d="M1.4 0c.8 0 1.4-.6 1.4-1.4s-.6-1.4-1.4-1.4C.6-2.9 0-2.2 0-1.4 0-.6.6 0 1.4 0zM1.4-14.4c.8 0 1.4-.6 1.4-1.4s-.6-1.4-1.4-1.4-1.4.6-1.4 1.4.6 1.4 1.4 1.4z"/></g><g><path d="M30.2-28.8c.8 0 1.4-.6 1.4-1.4s-.6-1.4-1.4-1.4-1.4.6-1.4 1.4c0 .8.6 1.4 1.4 1.4zM15.8-28.8c.8 0 1.4-.6 1.4-1.4s-.6-1.4-1.4-1.4-1.4.6-1.4 1.4c0 .8.6 1.4 1.4 1.4z"/></g><path d="M1.4-28.8c.8 0 1.4-.6 1.4-1.4s-.6-1.4-1.4-1.4C.6-31.7 0-31 0-30.2c0 .8.6 1.4 1.4 1.4z"/></g></pattern><path class="skin_fill" d="M370.6 355.4c-15.5-52.7 30.2-86.5 30.2-86.5-6.3-4.6-7.8-13.8-8.1-15.9-19.9 18.6-40.6 54.4-48.6 99.4-3.4 21.9-3.5 38.6-3.1 57.3 0 .1-1.4-17.8 29.6-54.3z"/><pattern id="hair_f" patternTransform="matrix(.3956 0 0 -.4063 -97110.281 -49463.23)" xlink:href="#hair_e"/><path fill="url(#hair_f)" d="M370.6 355.4c-15.5-52.7 30.2-86.5 30.2-86.5-6.3-4.6-7.8-13.8-8.1-15.9-19.9 18.6-40.6 54.4-48.6 99.4-3.4 21.9-3.5 38.6-3.1 57.3 0 .1-1.4-17.8 29.6-54.3z"/><path class="skin_fill" d="M655.9 352.4c-8-44.8-28.6-80.8-48.6-99.4-.3 2.1-1.8 11.3-8.1 15.9 0 0 45.7 33.9 30.2 86.5 0 0 29.7 35 29.6 54.3.4-18.4.4-34.9-3.1-57.3z"/><pattern id="hair_g" patternTransform="matrix(-.3956 0 0 -.4063 80776.93 -49463.23)" xlink:href="#hair_e"/><path fill="url(#hair_g)" d="M655.9 352.4c-8-44.8-28.6-80.8-48.6-99.4-.3 2.1-1.8 11.3-8.1 15.9 0 0 45.7 33.9 30.2 86.5 0 0 29.7 35 29.6 54.3.4-18.4.4-34.9-3.1-57.3z"/><g><path class="hair_fill" d="M558.7 143.1c-23.9-30.2-58.7-25.3-58.7-25.3s-3.2-9.6-11.3-10.1c-2.2 10.1-17.3 17.7-17.3 17.7s-16.2-14.7-30.1 17.7c0 0-3.9 3.8-3.4-2.4-5.3 8.3-6 16.3-6 16.3-22.4 34.6-63.3 113.1-22.3 118.4l51.5 6.6c34.3 17.2 36.8 20.4 77.7 0l51.5-6.6c35.5-4.5 9.2-64.6-9.1-96.5-1.3-12.1-6.5-16.6-6.5-16.6 2 22.3 1-8.7-16-19.2z"/><path class="hair_outline" d="M500 117.8c.9-.3 8.3 21.9 8.8 54 .9 61.1-20.9 122.5-22.3 122.1-1.2-.4 19-60 19-122 .1-36.1-6.6-53.8-5.5-54.1zM558.7 143.1c.3-.1 4.6 6.6 7.4 20.2 8.3 40.7-7.3 97.5-22.7 115-2.5 2.9-4.4 3.9-4.5 3.7-.2-.2 1.4-1.5 3.4-4.5 13.4-19.4 27.6-73.5 21.3-113.7-2.3-15.1-5.7-20.4-4.9-20.7zM441.3 143.1c.1 0-24.1 88 19 137.6 6.5 7.4-32.9-18-29-93.8 1.5-26.8 9.4-44 10-43.8z"/><path class="hair_outline" d="M431.9 278.2c-2.8 1.6-34.2-65.6-8.8-107.7 6.4-10.5-.2 2.9-2.8 12.2-13.1 46.4 13.2 94.6 11.6 95.5z"/><pattern id="hair_h" patternTransform="matrix(.3974 0 0 -.3974 -97540.078 -48593.836)" xlink:href="#hair_e"/><path fill="url(#hair_h)" d="M416.2 276.2s-19.6-24.3-11.4-69.6c0 0 1.1 41.1 16.1 70.2 0 0-2.6-.6-4.7-.6z"/><path class="hair_outline" d="M531.2 122.4c1.3-.4 15.1 32.8 8.2 75.5-1.3 8-2.7 12.9-3.2 12.8-.5-.1.1-5.1.7-13.1 4.2-50.9-7.7-74.5-5.7-75.2zM525.1 260.2c.9.1 1.1 10.4-6.3 22.7-4.9 7.9-13.7 13.9-14.4 12.7-.4-.7 6.7-6.6 11.5-14.6 7.7-13.2 7.8-21 9.2-20.8zM478.8 290.8c-1.2-.2 6.7-43.5 4.1-83.1-2.2-53.7-12.7-81.9-11.4-82.3 1.2-.4 6.4 19.4 7.3 23.4 16.2 66.4 2.1 142.3 0 142zM467.2 275.5c-3.9 1.3-12.9-50.6-9.1-50.8 1-.1 9.5 50.7 9.1 50.8zM456.8 202c-3.9.2-1.3-80 2.5-79.5.8 0-1.7 79.4-2.5 79.5zM570.1 278.2c-1.2-1.3 13.2-9 14.2-48 .8-26.6-4.2-51.2-3.1-51.4 1.1-.2 7.4 25.1 6.6 51.5-1 37.7-17.2 48.5-17.7 47.9zM593.8 269.3c-.9-.5 2-6.4 3.7-17.2 1.1-6.9 2-27.5 3.8-12.3 1.8 16.9-6.2 30.2-7.5 29.5zM399.7 263.4c-2.7-6.1-2.8-13-1.6-13 1.3-.1 2.7 9.9 8.9 19.1 5.7 7.9-3.9 1.8-7.3-6.1zM545.2 229.3c-1.1-.4 5.4-14.3 6.9-47 1-27.9-7.8-51.8-6.9-52.1 1.5-.7 11.5 25.2 10.4 52.2-1.5 30.1-9.8 47.1-10.4 46.9z"/><pattern id="hair_i" patternTransform="matrix(.3974 0 0 -.3974 -97540.078 -48593.836)" xlink:href="#hair_e"/><path fill="url(#hair_i)" d="M431.9 157s-8.6 30.5-4.5 61.6c-3.2-16-4.5-47.4 4.5-61.6z"/><pattern id="hair_j" patternTransform="matrix(.3974 0 0 -.3974 -97540.078 -48593.836)" xlink:href="#hair_e"/><path fill="url(#hair_j)" d="M516 210.7c1.1 94.3-38.4 84.8-16 84.8 0 .1 27.1-15.1 16-84.8z"/><pattern id="hair_k" patternTransform="matrix(.3974 0 0 -.3974 -97540.078 -48593.836)" xlink:href="#hair_e"/><path fill="url(#hair_k)" d="M510.1 117.6s6.5 37.3-2.9 63.2c0 0 .6-49-7.2-63.1l10.1-.1z"/><pattern id="hair_l" patternTransform="matrix(.3974 0 0 -.3974 -97540.078 -48593.836)" xlink:href="#hair_e"/><path fill="url(#hair_l)" d="M574.5 216.4s0-49.4-6-62.5c11.5 26.8 5 4.1 6 62.5z"/><pattern id="hair_m" patternTransform="matrix(.3974 0 0 -.3974 -97540.078 -48593.836)" xlink:href="#hair_e"/><path fill="url(#hair_m)" d="M591.2 208.1s5.6 40.1-6.2 61.2c0 0 20-14.6 6.2-61.2z"/><pattern id="hair_o" patternTransform="matrix(.5 0 0 .5 -4091.109 -4110.608)" xlink:href="#hair_n"/><path fill="url(#hair_o)" d="M446.9 160s-13.4 48.7 2.7 90.1v-35.8s7.2 2.8 13.1-1.8c0 0 9.8 18.2 8.8 35.3 0 0 6-59.1-1.9-87.8l-6.9 46.6s-7.1 7.5-12.5-1.5c0 0-3.4-20.9-3.3-45.1z"/><pattern id="hair_p" patternTransform="matrix(.5 0 0 .5 -4091.109 -4110.608)" xlink:href="#hair_n"/><path fill="url(#hair_p)" d="M489.3 149.2s8.9 49.8 2 73.2c0 0 18-27.3-2-73.2z"/><pattern id="hair_q" patternTransform="matrix(.5 0 0 .5 -4091.109 -4110.608)" xlink:href="#hair_n"/><path fill="url(#hair_q)" d="M523.1 149.2s5.7 62.3-4.4 95.8c0 0 26.5-34.3 4.4-95.8z"/><pattern id="hair_r" patternTransform="matrix(.5 0 0 .5 -4091.109 -4110.608)" xlink:href="#hair_n"/><path fill="url(#hair_r)" d="M572 217.4s5.2 34.6-14 49.6c0 0 25.4-3.1 14-49.6z"/></g></svg>