<svg xmlns="http://www.w3.org/2000/svg" xmlns:xlink="http://www.w3.org/1999/xlink" version="1.1" height="1000px" width="1000px" viewBox="0 0 1000 1000"><style type="text/css">.skin_fill{fill:#F8AFF8;} .skin_outline{fill:#5E4F65;} .skin_dark{fill:#A885A3;} .skin_halftone{fill:#72576F;} .skin_freckles{fill:#A982A1;} </style><style type="text/css">.hair_fill{fill:#FFF5E1;} .hair_outline{fill:#D4CDBF;} .hair_shadow{fill:#B0ABA1;} .hair_brow{fill:#F1E9D7;} </style><style type="text/css">.eye_iris{fill:#BF94E4;} </style><style type="text/css">.bg_color{fill:#F9A6FF;} .bg_stop_1{stop-color:#F9A6FF;} .bg_stroke_1{stroke:#F9A6FF;} .bg_shape{fill:#FDF0E0;} .bg_stop_2{stop-color:#FDF0E0;} .bg_stroke_2{stroke:#FDF0E0;} .bg_halftone{fill:#FF6047;} .bg_stop_3{stop-color:#FF6047;} .bg_stroke_3{stroke:#FF6047;} </style><pattern id="backdrop_e" width="28.8" height="28.8" y="1000" overflow="visible" patternUnits="userSpaceOnUse" viewBox="1.4 -30.2 28.8 28.8"><defs><path id="backdrop_a" d="M1.4-30.2h28.8v28.8H1.4z"/></defs><clipPath id="backdrop_b"><use overflow="visible" xlink:href="#backdrop_a"/></clipPath><g class="bg_halftone" clip-path="url(#backdrop_b)"><path d="M30.2 0c.8 0 1.4-.6 1.4-1.4s-.6-1.4-1.4-1.4-1.4.6-1.4 1.4c0 .8.6 1.4 1.4 1.4zM15.8 0c.8 0 1.4-.6 1.4-1.4s-.6-1.4-1.4-1.4c-.8 0-1.4.6-1.4 1.4 0 .8.6 1.4 1.4 1.4zM30.2-14.4c.8 0 1.4-.6 1.4-1.4s-.6-1.4-1.4-1.4-1.4.6-1.4 1.4c0 .8.6 1.4 1.4 1.4zM15.8-14.4c.8 0 1.4-.6 1.4-1.4s-.6-1.4-1.4-1.4c-.8 0-1.4.6-1.4 1.4 0 .8.6 1.4 1.4 1.4zM8.6-7.2c.8 0 1.4-.6 1.4-1.4S9.4-10 8.6-10c-.8 0-1.4.6-1.4 1.4 0 .8.6 1.4 1.4 1.4zM23-7.2c.8 0 1.4-.6 1.4-1.4S23.8-10 23-10s-1.4.6-1.4 1.4.6 1.4 1.4 1.4zM8.6-21.6c.8 0 1.4-.6 1.4-1.4s-.6-1.4-1.4-1.4c-.8 0-1.4.6-1.4 1.4 0 .8.6 1.4 1.4 1.4zM23-21.6c.8 0 1.4-.6 1.4-1.4s-.6-1.4-1.4-1.4-1.4.6-1.4 1.4c0 .8.6 1.4 1.4 1.4z"/><g><path d="M1.4 0c.8 0 1.4-.6 1.4-1.4s-.6-1.4-1.4-1.4C.6-2.9 0-2.2 0-1.4 0-.6.6 0 1.4 0zM1.4-14.4c.8 0 1.4-.6 1.4-1.4s-.6-1.4-1.4-1.4-1.4.6-1.4 1.4.6 1.4 1.4 1.4z"/></g><g><path d="M30.2-28.8c.8 0 1.4-.6 1.4-1.4s-.6-1.4-1.4-1.4-1.4.6-1.4 1.4c0 .8.6 1.4 1.4 1.4zM15.8-28.8c.8 0 1.4-.6 1.4-1.4s-.6-1.4-1.4-1.4-1.4.6-1.4 1.4c0 .8.6 1.4 1.4 1.4z"/></g><path d="M1.4-28.8c.8 0 1.4-.6 1.4-1.4s-.6-1.4-1.4-1.4C.6-31.7 0-31 0-30.2c0 .8.6 1.4 1.4 1.4z"/></g></pattern><defs><path id="backdrop_c" d="M0 0h1000v1000H0z"/></defs><use class="bg_color" overflow="visible" xlink:href="#backdrop_c"/><clipPath id="backdrop_d"><use overflow="visible" xlink:href="#backdrop_c"/></clipPath><path class="bg_shape" d="M223.9 906.6l27.5-178.1-133.3 32.2z" clip-path="url(#backdrop_d)"/><g class="bg_halftone" clip-path="url(#backdrop_d)"><path d="M924.7 894.3c-21.1-8.3-21.7-7.8-21.5-10.4l1.1-17.4c.2-2.6-3.1-3.8-4.7-1.8-11.2 13.8-11.5 15.2-14 14.3l-19.9-7.8c-1.2-.5-2.3.9-1.6 1.9 12.3 19.5 12.9 19.2 11.3 21.2l-11 13.5c-1.6 2 .3 4.9 2.7 4.2 18.6-5 18.4-5.3 19.1-4.1l9.8 15.4c1.4 2.2 4.7 1.3 4.9-1.3 1.2-18.7.6-19.2 3-19.8l20.7-5.5c1.2-.2 1.3-2 .1-2.4z"/><path d="M851.7 925.6c-18.7 16-25.5 27.5 18.8-33.7-13.9-20-22-41.7-23.2-66.4l-2.2-44.3c-.2-4.6-5.8-6.7-9-3.5-31.1 31.2-29.9 18.7 3.9 74.3-32.6-39.1-34.3-44.6-39.9-39.1l-44.8 43.8c-2.9 2.8-1.7 7.6 2.1 8.8l67 21.3c-47.6-7.8-79.6-19.6-108.8 8.8l-4.4 4.2c-2.8 2.7-1.8 7.3 1.8 8.7 42.4 16.6 47.5 20.9 59.5 16.3l76.9-29.3-59.8 33.7c-3.9 2.2-3.5 7.9.7 9.5l56.4 22c3.6 1.4 7.5-1.4 7.2-5.3l-2.2-29.8z"/></g><path fill="none" class="bg_stroke_3" stroke-miterlimit="10" d="M32.7 747.5s121.3 165 161.9 139.6-36.4-92.8 9.1-107.9C234.1 769 322 872.1 318 768.7S318 504 497.4 548s211.3-126.7 259.4-112.2c81.6 24.6-101.5 240-42.9 266.9 58.6 26.9 107.3-85.9 120-27.6s74.3 55.1 133.2-60.9" clip-path="url(#backdrop_d)"/><pattern id="backdrop_f" patternTransform="rotate(-25.614 -7650.025 -8708.47)" xlink:href="#backdrop_e"/><path fill="url(#backdrop_f)" d="M206 1030.5l-114.2 54.8-54.7-114.2 114.1-54.8z" clip-path="url(#backdrop_d)"/><g clip-path="url(#backdrop_d)"><path class="bg_shape" d="M128 415.8c4.1 16.3-62.2 33-66.3 16.7-4.1-16.3 62.2-33 66.3-16.7zM185.5 643.6c4.1 16.3-62.2 33-66.3 16.7-4.1-16.2 62.2-33 66.3-16.7z"/><path fill="none" class="bg_stroke_3" stroke-miterlimit="10" d="M118.5 657.7L61.7 432.5M128 415.8L184.9 641"/></g><g clip-path="url(#backdrop_d)"><path class="bg_shape" d="M410.8-122.3c15.2 7-13.3 69.2-28.6 62.2-15.2-7.1 13.3-69.3 28.6-62.2zM624.3-24.2c15.2 7-13.3 69.2-28.6 62.2-15.2-7 13.3-69.2 28.6-62.2z"/><path fill="none" class="bg_stroke_3" stroke-miterlimit="10" d="M593.2 36.8l-211-97M410.8-122.3l211 97"/></g><circle cx="156.4" cy="110.7" r="28.4" class="bg_halftone" clip-path="url(#backdrop_d)"/><path fill="none" class="bg_stroke_3" stroke-miterlimit="10" d="M70.9 69.6c0 13.2-20 13.2-20 0s20-13.2 20 0zM604.4 926.9c0 24.6-37.2 24.6-37.2 0-.1-24.6 37.2-24.6 37.2 0z" clip-path="url(#backdrop_d)"/><g clip-path="url(#backdrop_d)"><path class="bg_shape" d="M758.84 160.235l114.155-54.729 54.73 114.155-114.156 54.73z"/><pattern id="backdrop_g" patternTransform="rotate(-25.614 -7650.025 -8708.47)" xlink:href="#backdrop_e"/><path fill="url(#backdrop_g)" d="M948.8 176.3l-21 43.3-54.7-114.2 21-43.3z"/><path fill="none" class="bg_stroke_3" stroke-miterlimit="10" d="M894.1 62.1l-21 43.3-114.2 54.8 21-43.4z"/></g><path fill="none" class="bg_stroke_3" stroke-miterlimit="10" d="M160 295.1L48.5 199.9c26.3-30.8 72.6-34.4 103.4-8.1s34.4 72.5 8.1 103.3z" clip-path="url(#backdrop_d)"/><circle cx="894.1" cy="456.8" r="40" fill="none" class="bg_stroke_3" stroke-miterlimit="10" clip-path="url(#backdrop_d)"/><pattern id="ear_i" width="48" height="48" x="250" y="750" overflow="visible" patternUnits="userSpaceOnUse" viewBox="4.8 -52.8 48 48"><defs><path id="ear_a" d="M4.8-52.8h48v48h-48z"/></defs><clipPath id="ear_b"><use overflow="visible" xlink:href="#ear_a"/></clipPath><g class="skin_dark" clip-path="url(#ear_b)"><path d="M28.8-57.6c2.7 0 4.8 2.1 4.8 4.8S31.5-48 28.8-48 24-50.2 24-52.8c0-2.7 2.1-4.8 4.8-4.8zM52.8-57.6c2.7 0 4.8 2.1 4.8 4.8S55.5-48 52.8-48 48-50.2 48-52.8c0-2.7 2.1-4.8 4.8-4.8zM28.8-33.6c2.7 0 4.8 2.1 4.8 4.8S31.5-24 28.8-24 24-26.1 24-28.8s2.1-4.8 4.8-4.8zM52.8-33.6c2.7 0 4.8 2.1 4.8 4.8S55.5-24 52.8-24 48-26.1 48-28.8s2.1-4.8 4.8-4.8zM40.8-45.6c2.7 0 4.8 2.1 4.8 4.8S43.5-36 40.8-36 36-38.2 36-40.8c0-2.7 2.1-4.8 4.8-4.8zM16.8-45.6c2.7 0 4.8 2.1 4.8 4.8S19.5-36 16.8-36 12-38.2 12-40.8c0-2.7 2.1-4.8 4.8-4.8zM40.8-21.6c2.7 0 4.8 2.1 4.8 4.8S43.5-12 40.8-12 36-14.1 36-16.8s2.1-4.8 4.8-4.8zM16.8-21.6c2.7 0 4.8 2.1 4.8 4.8S19.5-12 16.8-12 12-14.1 12-16.8s2.1-4.8 4.8-4.8z"/></g><defs><path id="ear_c" d="M4.8-52.8h48v48h-48z"/></defs><clipPath id="ear_d"><use overflow="visible" xlink:href="#ear_c"/></clipPath><g class="skin_dark" clip-path="url(#ear_d)"><path d="M4.8-57.6c2.7 0 4.8 2.1 4.8 4.8S7.5-48 4.8-48 0-50.1 0-52.8s2.1-4.8 4.8-4.8zM4.8-33.6c2.7 0 4.8 2.1 4.8 4.8S7.5-24 4.8-24 0-26.1 0-28.8s2.1-4.8 4.8-4.8z"/></g><g><defs><path id="ear_e" d="M4.8-52.8h48v48h-48z"/></defs><clipPath id="ear_f"><use overflow="visible" xlink:href="#ear_e"/></clipPath><g class="skin_dark" clip-path="url(#ear_f)"><path d="M28.8-9.6c2.7 0 4.8 2.1 4.8 4.8S31.5 0 28.8 0 24-2.2 24-4.8c0-2.7 2.1-4.8 4.8-4.8zM52.8-9.6c2.7 0 4.8 2.1 4.8 4.8S55.5 0 52.8 0 48-2.2 48-4.8c0-2.7 2.1-4.8 4.8-4.8z"/></g></g><g><defs><path id="ear_g" d="M4.8-52.8h48v48h-48z"/></defs><clipPath id="ear_h"><use overflow="visible" xlink:href="#ear_g"/></clipPath><path class="skin_dark" d="M4.8-9.6c2.7 0 4.8 2.1 4.8 4.8S7.5 0 4.8 0 0-2.2 0-4.8c0-2.7 2.1-4.8 4.8-4.8z" clip-path="url(#ear_h)"/></g></pattern><path class="skin_fill" d="M360.8 531.1l-10.1 6.8c-6.4 4.4-15.2 1.9-18.2-5.2-21.3-49-32-64.8-28.6-92.6 2.3-18.7 7.8-54.4 49.3-22.4l7.6 113.4z"/><pattern id="ear_j" patternTransform="matrix(.2595 0 0 -.2601 -47417.488 1017.571)" xlink:href="#ear_i"/><path fill="url(#ear_j)" d="M335.8 472.3c6.8-16.9-1.2-47.6-10.5-54.1-12.4-.7-17.9 54.5-2.1 65.1 10.1 6.8 15.1 22.9 15.1 22.9 0-7.8-10.4-14.4-2.5-33.9z"/><path class="skin_outline" d="M319.1 417.9c-.3-.5 5.4-5.3 12.3 5.9 7.2 11.6 11.9 34.3 5.7 49.7-8 21.6-.3 18.4 1.3 30.5.1 3-.3 3.1-1 .2-4.2-11.9-10.7-10.7-3.4-31.9 5.3-13.9 1.5-35.6-4.7-47.3-5.5-10.5-9.9-6.5-10.2-7.1z"/><path class="skin_fill" d="M639.2 531.1l10.1 6.8c6.4 4.4 15.2 1.9 18.2-5.2 21.3-49 32-64.8 28.6-92.6-2.3-18.7-7.8-54.4-49.3-22.4l-7.6 113.4z"/><pattern id="ear_k" patternTransform="matrix(-.2595 0 0 -.2601 31045.23 1017.571)" xlink:href="#ear_i"/><path fill="url(#ear_k)" d="M664.2 472.3c-6.8-16.9 1.2-47.6 10.5-54.1 12.4-.7 17.9 54.5 2.1 65.1-10.1 6.8-15.1 22.9-15.1 22.9 0-7.8 10.4-14.4 2.5-33.9z"/><g><path class="skin_outline" d="M680.9 417.9c-.3.4-9-5.4-15.4 21.6-5.3 23 .8 33 2 37.2 4.9 16.6-1.4 16.4-5.2 28.6-.8 2.5-.9-.5-.4-3.1.9-5.7 5.4-8.7 4.5-16.7-1.5-9.2-3.7-11.2-5.1-16.8-4.5-17.6 2.9-42.5 11.3-49.9 4.9-4.4 8.5-1.3 8.3-.9z"/></g><pattern id="face_i" width="48" height="48" x="250" y="750" overflow="visible" patternUnits="userSpaceOnUse" viewBox="4.8 -52.8 48 48"><defs><path id="face_a" d="M4.8-52.8h48v48h-48z"/></defs><clipPath id="face_b"><use overflow="visible" xlink:href="#face_a"/></clipPath><g class="skin_dark" clip-path="url(#face_b)"><path d="M28.8-57.6c2.7 0 4.8 2.1 4.8 4.8S31.5-48 28.8-48 24-50.2 24-52.8c0-2.7 2.1-4.8 4.8-4.8zM52.8-57.6c2.7 0 4.8 2.1 4.8 4.8S55.5-48 52.8-48 48-50.2 48-52.8c0-2.7 2.1-4.8 4.8-4.8zM28.8-33.6c2.7 0 4.8 2.1 4.8 4.8S31.5-24 28.8-24 24-26.1 24-28.8s2.1-4.8 4.8-4.8zM52.8-33.6c2.7 0 4.8 2.1 4.8 4.8S55.5-24 52.8-24 48-26.1 48-28.8s2.1-4.8 4.8-4.8zM40.8-45.6c2.7 0 4.8 2.1 4.8 4.8S43.5-36 40.8-36 36-38.2 36-40.8c0-2.7 2.1-4.8 4.8-4.8zM16.8-45.6c2.7 0 4.8 2.1 4.8 4.8S19.5-36 16.8-36 12-38.2 12-40.8c0-2.7 2.1-4.8 4.8-4.8zM40.8-21.6c2.7 0 4.8 2.1 4.8 4.8S43.5-12 40.8-12 36-14.1 36-16.8s2.1-4.8 4.8-4.8zM16.8-21.6c2.7 0 4.8 2.1 4.8 4.8S19.5-12 16.8-12 12-14.1 12-16.8s2.1-4.8 4.8-4.8z"/></g><defs><path id="face_c" d="M4.8-52.8h48v48h-48z"/></defs><clipPath id="face_d"><use overflow="visible" xlink:href="#face_c"/></clipPath><g class="skin_dark" clip-path="url(#face_d)"><path d="M4.8-57.6c2.7 0 4.8 2.1 4.8 4.8S7.5-48 4.8-48 0-50.1 0-52.8s2.1-4.8 4.8-4.8zM4.8-33.6c2.7 0 4.8 2.1 4.8 4.8S7.5-24 4.8-24 0-26.1 0-28.8s2.1-4.8 4.8-4.8z"/></g><g><defs><path id="face_e" d="M4.8-52.8h48v48h-48z"/></defs><clipPath id="face_f"><use overflow="visible" xlink:href="#face_e"/></clipPath><g class="skin_dark" clip-path="url(#face_f)"><path d="M28.8-9.6c2.7 0 4.8 2.1 4.8 4.8S31.5 0 28.8 0 24-2.2 24-4.8c0-2.7 2.1-4.8 4.8-4.8zM52.8-9.6c2.7 0 4.8 2.1 4.8 4.8S55.5 0 52.8 0 48-2.2 48-4.8c0-2.7 2.1-4.8 4.8-4.8z"/></g></g><g><defs><path id="face_g" d="M4.8-52.8h48v48h-48z"/></defs><clipPath id="face_h"><use overflow="visible" xlink:href="#face_g"/></clipPath><path class="skin_dark" d="M4.8-9.6c2.7 0 4.8 2.1 4.8 4.8S7.5 0 4.8 0 0-2.2 0-4.8c0-2.7 2.1-4.8 4.8-4.8z" clip-path="url(#face_h)"/></g></pattern><path class="skin_fill" d="M590 708.9v-69.1c24.7-26 41.3-53.2 54.2-77.3 9.4-17.5 25.7-80 15.6-146.1-15.3-99.9-49.1-199.8-160.6-199.8s-143.6 99.9-158.9 199.8c-10.1 66.1 6.2 128.6 15.6 146.1 12.9 24 29.5 51.3 54.2 77.3v69.1c0 9.7-6.9 17.9-16.4 19.7l-38.6 7 68.9 80.8c39.9 46.8 112.2 46.8 152.2 0l68.9-80.8-38.6-7c-9.6-1.7-16.5-10-16.5-19.7z"/><path class="skin_outline" d="M347.8 541c-1.6.5-19.1-59.6-8.7-119.7 2.3-12.3.9 1.1-.1 13.5-4.2 62.4 10.2 105.8 8.8 106.2zM652.2 541c-1.1-.3 12.9-45.8 8.8-106.2-.9-12.4-2.4-25.8-.1-13.5 10.1 58.8-6.7 120.3-8.7 119.7z"/><pattern id="face_j" patternTransform="matrix(.26 0 0 -.26 -47498.695 1075)" xlink:href="#face_i"/><path fill="url(#face_j)" d="M471.9 710.6c17.3 10.3 38.7 10.4 56.2 0 25.2-15 45.4-31.8 61.9-49.2v-21.6c-19.5 20.5-61.7 57.3-90 56.8-28.4.5-70.7-36.5-90-56.8v21.6c16.5 17.5 36.7 34.3 61.9 49.2z"/><pattern id="face_k" patternTransform="matrix(.26 0 0 -.26 -47477.004 993.389)" xlink:href="#face_i"/><path fill="url(#face_k)" d="M362.4 468.3c6.8 19.4 27.6 22.8 24.6 43.1-3.3 23.1-.4 46.5 3.7 65.2 1.2 5.5-6.2 8.4-9.1 3.6-12.3-20.6-32.8-50.8-31.3-110.3.2-6.8 9.9-7.8 12.1-1.6z"/><pattern id="nose_n" width="28.8" height="28.8" x="250" y="750" overflow="visible" patternUnits="userSpaceOnUse" viewBox="1.4 -30.2 28.8 28.8"><defs><path id="nose_a" d="M1.4-30.2h28.8v28.8H1.4z"/></defs><clipPath id="nose_b"><use overflow="visible" xlink:href="#nose_a"/></clipPath><g clip-path="url(#nose_b)"><g fill="#FFF"><path d="M30.2 0c.8 0 1.4-.6 1.4-1.4s-.6-1.4-1.4-1.4-1.4.6-1.4 1.4c0 .8.6 1.4 1.4 1.4zM15.8 0c.8 0 1.4-.6 1.4-1.4s-.6-1.4-1.4-1.4c-.8 0-1.4.6-1.4 1.4 0 .8.6 1.4 1.4 1.4zM30.2-14.4c.8 0 1.4-.6 1.4-1.4s-.6-1.4-1.4-1.4-1.4.6-1.4 1.4c0 .8.6 1.4 1.4 1.4zM15.8-14.4c.8 0 1.4-.6 1.4-1.4s-.6-1.4-1.4-1.4c-.8 0-1.4.6-1.4 1.4 0 .8.6 1.4 1.4 1.4zM8.6-7.2c.8 0 1.4-.6 1.4-1.4S9.4-10 8.6-10c-.8 0-1.4.6-1.4 1.4 0 .8.6 1.4 1.4 1.4zM23-7.2c.8 0 1.4-.6 1.4-1.4S23.8-10 23-10s-1.4.6-1.4 1.4.6 1.4 1.4 1.4zM8.6-21.6c.8 0 1.4-.6 1.4-1.4s-.6-1.4-1.4-1.4c-.8 0-1.4.6-1.4 1.4 0 .8.6 1.4 1.4 1.4zM23-21.6c.8 0 1.4-.6 1.4-1.4s-.6-1.4-1.4-1.4-1.4.6-1.4 1.4c0 .8.6 1.4 1.4 1.4z"/></g><g fill="#FFF"><path d="M1.4 0c.8 0 1.4-.6 1.4-1.4s-.6-1.4-1.4-1.4C.6-2.9 0-2.2 0-1.4 0-.6.6 0 1.4 0zM1.4-14.4c.8 0 1.4-.6 1.4-1.4s-.6-1.4-1.4-1.4-1.4.6-1.4 1.4.6 1.4 1.4 1.4z"/></g><g fill="#FFF"><path d="M30.2-28.8c.8 0 1.4-.6 1.4-1.4s-.6-1.4-1.4-1.4-1.4.6-1.4 1.4c0 .8.6 1.4 1.4 1.4zM15.8-28.8c.8 0 1.4-.6 1.4-1.4s-.6-1.4-1.4-1.4-1.4.6-1.4 1.4c0 .8.6 1.4 1.4 1.4z"/></g><path fill="#FFF" d="M1.4-28.8c.8 0 1.4-.6 1.4-1.4s-.6-1.4-1.4-1.4C.6-31.7 0-31 0-30.2c0 .8.6 1.4 1.4 1.4z"/></g></pattern><pattern id="nose_k" width="48" height="48" x="250" y="750" overflow="visible" patternUnits="userSpaceOnUse" viewBox="4.8 -52.8 48 48"><defs><path id="nose_c" d="M4.8-52.8h48v48h-48z"/></defs><clipPath id="nose_d"><use overflow="visible" xlink:href="#nose_c"/></clipPath><g class="skin_dark" clip-path="url(#nose_d)"><path d="M28.8-57.6c2.7 0 4.8 2.1 4.8 4.8S31.5-48 28.8-48 24-50.2 24-52.8c0-2.7 2.1-4.8 4.8-4.8zM52.8-57.6c2.7 0 4.8 2.1 4.8 4.8S55.5-48 52.8-48 48-50.2 48-52.8c0-2.7 2.1-4.8 4.8-4.8zM28.8-33.6c2.7 0 4.8 2.1 4.8 4.8S31.5-24 28.8-24 24-26.1 24-28.8s2.1-4.8 4.8-4.8zM52.8-33.6c2.7 0 4.8 2.1 4.8 4.8S55.5-24 52.8-24 48-26.1 48-28.8s2.1-4.8 4.8-4.8zM40.8-45.6c2.7 0 4.8 2.1 4.8 4.8S43.5-36 40.8-36 36-38.2 36-40.8c0-2.7 2.1-4.8 4.8-4.8zM16.8-45.6c2.7 0 4.8 2.1 4.8 4.8S19.5-36 16.8-36 12-38.2 12-40.8c0-2.7 2.1-4.8 4.8-4.8zM40.8-21.6c2.7 0 4.8 2.1 4.8 4.8S43.5-12 40.8-12 36-14.1 36-16.8s2.1-4.8 4.8-4.8zM16.8-21.6c2.7 0 4.8 2.1 4.8 4.8S19.5-12 16.8-12 12-14.1 12-16.8s2.1-4.8 4.8-4.8z"/></g><defs><path id="nose_e" d="M4.8-52.8h48v48h-48z"/></defs><clipPath id="nose_f"><use overflow="visible" xlink:href="#nose_e"/></clipPath><g class="skin_dark" clip-path="url(#nose_f)"><path d="M4.8-57.6c2.7 0 4.8 2.1 4.8 4.8S7.5-48 4.8-48 0-50.1 0-52.8s2.1-4.8 4.8-4.8zM4.8-33.6c2.7 0 4.8 2.1 4.8 4.8S7.5-24 4.8-24 0-26.1 0-28.8s2.1-4.8 4.8-4.8z"/></g><g><defs><path id="nose_g" d="M4.8-52.8h48v48h-48z"/></defs><clipPath id="nose_h"><use overflow="visible" xlink:href="#nose_g"/></clipPath><g class="skin_dark" clip-path="url(#nose_h)"><path d="M28.8-9.6c2.7 0 4.8 2.1 4.8 4.8S31.5 0 28.8 0 24-2.2 24-4.8c0-2.7 2.1-4.8 4.8-4.8zM52.8-9.6c2.7 0 4.8 2.1 4.8 4.8S55.5 0 52.8 0 48-2.2 48-4.8c0-2.7 2.1-4.8 4.8-4.8z"/></g></g><g><defs><path id="nose_i" d="M4.8-52.8h48v48h-48z"/></defs><clipPath id="nose_j"><use overflow="visible" xlink:href="#nose_i"/></clipPath><path class="skin_dark" d="M4.8-9.6c2.7 0 4.8 2.1 4.8 4.8S7.5 0 4.8 0 0-2.2 0-4.8c0-2.7 2.1-4.8 4.8-4.8z" clip-path="url(#nose_j)"/></g></pattern><pattern id="nose_l" patternTransform="matrix(.26 0 0 -.26 -47498.695 1035.925)" xlink:href="#nose_k"/><path fill="url(#nose_l)" d="M500 564.9c7.7 0 9.5-4.4 14.7-6.5 9.6-3.9 13.2 2.4 13.2 2.4-11.2 0-16 11-27.9 11s-17.8-11-27.9-11c0 0 3.6-6.3 13.2-2.4 5.2 2.1 7.1 6.5 14.7 6.5z"/><pattern id="nose_m" patternTransform="matrix(.26 0 0 -.26 -47498.695 1035.925)" xlink:href="#nose_k"/><path fill="url(#nose_m)" d="M469.7 544.6l15.7-21c0-63.2 3.1-53-15.7-83v104z"/><pattern id="nose_o" patternTransform="rotate(180 27371.49 3311.683) scale(.416)" xlink:href="#nose_n"/><path fill="url(#nose_o)" d="M530.4 544.6l-15.7-21c0-63.2-3.1-53 15.7-83v104z"/><pattern id="nose_p" patternTransform="rotate(180 27371.49 3311.683) scale(.416)" xlink:href="#nose_n"/><path fill="url(#nose_p)" d="M507.3 541.9c0 7.8-14.5 7.8-14.5 0s14.5-7.8 14.5 0z"/><path class="skin_outline" d="M480.1 531.5c1.2 1-9.8 14.5-10.7 17.5-1.3 4.3-.6 8.8 3.5 10.9 1.8.9 8.9 1.5 4 2.4-10 1.8-16.7-9.2-6.1-21.7.7-.9 8.4-9.8 9.3-9.1zM534.1 547.9c1.9 6.1-.1 12.5-6 14.2-3 .9-9.5-.3-4.9-1.2 2.7-.6 7.5-1.4 8-6.6.8-5.5-2.1-8.7-4.4-11.8-18.3-24.7 5.2-1.1 7.3 5.4z"/><path class="skin_outline" d="M515.2 555.8c-3.6 1.7-7.4 5.2-10.8 6.5-8.5 3.3-13.3-3.7-19.5-6.5-10.9-5.3-9.8 3.9 1.6 4.2 11.1 9 16 9 27.1 0 11.4-.3 12.5-9.5 1.6-4.2z"/><pattern id="mouth_i" width="28.8" height="28.8" x="250" y="750" overflow="visible" patternUnits="userSpaceOnUse" viewBox="1.4 -30.2 28.8 28.8"><defs><path id="mouth_a" d="M1.4-30.2h28.8v28.8H1.4z"/></defs><clipPath id="mouth_b"><use overflow="visible" xlink:href="#mouth_a"/></clipPath><g class="skin_halftone" clip-path="url(#mouth_b)"><path d="M30.2 0c1.9 0 1.9-2.8 0-2.8S28.3 0 30.2 0zM15.8 0c1.9 0 1.9-2.8 0-2.8S13.9 0 15.8 0zM30.2-14.4c1.9 0 1.9-2.8 0-2.8s-1.9 2.8 0 2.8zM15.8-14.4c1.9 0 1.9-2.8 0-2.8s-1.9 2.8 0 2.8zM8.6-7.2c1.9 0 1.9-2.8 0-2.8s-1.9 2.8 0 2.8zM23-7.2c1.9 0 1.9-2.8 0-2.8s-1.9 2.8 0 2.8zM8.6-21.6c1.9 0 1.9-2.8 0-2.8s-1.9 2.8 0 2.8zM23-21.6c1.9 0 1.9-2.8 0-2.8s-1.9 2.8 0 2.8z"/></g><defs><path id="mouth_c" d="M1.4-30.2h28.8v28.8H1.4z"/></defs><clipPath id="mouth_d"><use overflow="visible" xlink:href="#mouth_c"/></clipPath><g class="skin_halftone" clip-path="url(#mouth_d)"><path d="M1.4 0c1.9 0 1.9-2.8 0-2.8C-.4-3-.6 0 1.4 0zM1.4-14.4c1.9 0 1.9-2.8 0-2.8s-1.9 2.8 0 2.8z"/></g><g><defs><path id="mouth_e" d="M1.4-30.2h28.8v28.8H1.4z"/></defs><clipPath id="mouth_f"><use overflow="visible" xlink:href="#mouth_e"/></clipPath><g class="skin_halftone" clip-path="url(#mouth_f)"><path d="M30.2-28.8c1.9 0 1.9-2.8 0-2.8s-1.9 2.8 0 2.8zM15.8-28.8c1.9 0 1.9-2.8 0-2.8s-1.9 2.8 0 2.8z"/></g></g><g><defs><path id="mouth_g" d="M1.4-30.2h28.8v28.8H1.4z"/></defs><clipPath id="mouth_h"><use overflow="visible" xlink:href="#mouth_g"/></clipPath><path class="skin_halftone" d="M1.4-28.8c1.9 0 1.9-2.8 0-2.8-1.8-.2-2 2.8 0 2.8z" clip-path="url(#mouth_h)"/></g></pattern><path class="skin_dark" d="M498.6 608.1c-13.7-5-43.3.6-52.3-.5 21.9 46.9 93.9 45.4 107.7-12.1 0 .1-43.5 8.3-55.4 12.6z"/><path class="skin_dark" d="M509.8 586.8l-11.2 9.7-11.2-3.6c-20.8 4.6-41.1 14.9-41.1 14.9 4.6.6 32-.9 32-.9 25.5 2.2 15.9 2.9 42.1-4.3l35.3-8.6c-14.9-4.9-24.3-7.2-45.9-7.2z"/><pattern id="mouth_j" patternTransform="matrix(.4765 0 0 .4437 -30499.05 2882.278)" xlink:href="#mouth_i"/><path fill="url(#mouth_j)" d="M509.8 586.8l-11.2 9.7-11.2-3.6c-20.8 4.6-41.1 14.9-41.1 14.9 4.6.6 32-.9 32-.9 25.5 2.2 15.9 2.9 42.1-4.3l35.3-8.6c-14.9-4.9-24.3-7.2-45.9-7.2z"/><path class="skin_outline" d="M437 606c.2-.9 11 2 19.6.5 4.3-.6 13.5-1.5 21.7-1.7 25.7-.6 12.1 3.3 25.7-.1 45.2-12 56-7.7 59.3-21.6.8-4 2.7 4.5-5.5 10.7-8 4.9-32.2 7.6-59.2 16.1-.9.1-.9-.2-4.4-.9-11.7-2.5-40.1.7-45.8-.1-3.6-.5-11.5-2.4-11.4-2.9zM571.6 577.2c-1.3.4-.9-7.9-10.8-1.3-5.6 3.8.3-3.2 4.6-4.3 5.4-1.2 6.8 5.5 6.2 5.6z"/><path class="skin_dark" d="M374.5 488.3zm6 0zm42 0zm6 0zm-57 6zm6-.4c.5 0 .5.8 0 .8s-.5-.8 0-.8zm6-.2c.8 0 .8 1.2 0 1.2s-.8-1.2 0-1.2zm6 .2c.5 0 .5.8 0 .8s-.5-.8 0-.8zm6 .2c.3 0 .3.4 0 .4s-.3-.4 0-.4zm6 .1c.1 0 .1.2 0 .2s-.1-.2 0-.2zm6-.1c.3 0 .3.4 0 .4s-.3-.4 0-.4zm6-.2c.5 0 .5.8 0 .8s-.5-.8 0-.8zm6-.2c.8 0 .8 1.2 0 1.2s-.8-1.2 0-1.2zm6 .2c.5 0 .5.8 0 .8s-.5-.8 0-.8zm6 .4zm-57 5.8c.3 0 .3.4 0 .4s-.3-.4 0-.4zm6-.5c.9 0 .9 1.4 0 1.4s-.9-1.4 0-1.4zm6-.3c1.3 0 1.3 2 0 2s-1.3-2 0-2zm6-.1c1.5 0 1.5 2.2 0 2.2s-1.5-2.2 0-2.2zm6-.1c1.6 0 1.6 2.4 0 2.4s-1.6-2.4 0-2.4zm6 0c1.6 0 1.6 2.4 0 2.4s-1.6-2.4 0-2.4zm6 0c1.6 0 1.6 2.4 0 2.4s-1.6-2.4 0-2.4zm6 .2c1.3 0 1.3 2 0 2s-1.3-2 0-2zm6 .3c.9 0 .9 1.4 0 1.4s-.9-1.4 0-1.4zm6 .4c.4 0 .4.6 0 .6s-.4-.6 0-.6zm-57 6.3zm6-.4c.5 0 .5.8 0 .8s-.5-.8 0-.8zm6-.4c1.1 0 1.1 1.6 0 1.6s-1.1-1.6 0-1.6zm6-.3c1.5 0 1.5 2.2 0 2.2s-1.5-2.2 0-2.2zm6-.1c1.6 0 1.6 2.4 0 2.4s-1.6-2.4 0-2.4zm6 0c1.6 0 1.6 2.4 0 2.4s-1.6-2.4 0-2.4zm6 0c1.6 0 1.6 2.4 0 2.4s-1.6-2.4 0-2.4zm6 .1c1.5 0 1.5 2.2 0 2.2s-1.5-2.2 0-2.2zm6 .2c1.2 0 1.2 1.8 0 1.8s-1.2-1.8 0-1.8zm6 .4c.7 0 .7 1 0 1s-.7-1 0-1zm6 .5zm-57 5.9c.1 0 .1.2 0 .2s-.1-.2 0-.2zm6-.4c.7 0 .7 1 0 1s-.7-1 0-1zm6-.3c1.1 0 1.1 1.6 0 1.6s-1.1-1.6 0-1.6zm6-.2c1.3 0 1.3 2 0 2s-1.3-2 0-2zm6-.1c1.5 0 1.5 2.2 0 2.2s-1.5-2.2 0-2.2zm6 0c1.5 0 1.5 2.2 0 2.2s-1.5-2.2 0-2.2zm6 .1c1.3 0 1.3 2 0 2s-1.3-2 0-2zm6 .1c1.2 0 1.2 1.8 0 1.8s-1.2-1.8 0-1.8zm6 .4c.7 0 .7 1 0 1s-.7-1 0-1zm6 .4c.1 0 .1.2 0 .2s-.1-.2 0-.2zm-51 6.1zm6-.3c.4 0 .4.6 0 .6s-.4-.6 0-.6zm6-.4c.9 0 .9 1.4 0 1.4s-.9-1.4 0-1.4zm6-.1c1.1 0 1.1 1.6 0 1.6s-1.1-1.6 0-1.6zm6-.1c1.2 0 1.2 1.8 0 1.8s-1.2-1.8 0-1.8zm6 0c1.2 0 1.2 1.8 0 1.8s-1.2-1.8 0-1.8zm6 .2c.9 0 .9 1.4 0 1.4s-.9-1.4 0-1.4zm6 .4c.4 0 .4.6 0 .6s-.4-.6 0-.6zm6 .3zm-33 5.9c.1 0 .1.2 0 .2s-.1-.2 0-.2zm6-.1c.3 0 .3.4 0 .4s-.3-.4 0-.4zm6 0c.3 0 .3.4 0 .4s-.3-.4 0-.4zm6 .1c.1 0 .1.2 0 .2s-.1-.2 0-.2zm160.6-35.9zm6 0zm42 0zm6 0zm-57 6zm6-.4c.5 0 .5.8 0 .8s-.5-.8 0-.8zm6-.2c.8 0 .8 1.2 0 1.2s-.8-1.2 0-1.2zm6 .2c.5 0 .5.8 0 .8s-.5-.8 0-.8zm6 .2c.3 0 .3.4 0 .4s-.3-.4 0-.4zm6 .1c.1 0 .1.2 0 .2s-.1-.2 0-.2zm6-.1c.3 0 .3.4 0 .4s-.3-.4 0-.4zm6-.2c.5 0 .5.8 0 .8s-.5-.8 0-.8zm6-.2c.8 0 .8 1.2 0 1.2s-.8-1.2 0-1.2zm6 .2c.5 0 .5.8 0 .8s-.5-.8 0-.8zm6 .4zm-57 5.8c.3 0 .3.4 0 .4s-.3-.4 0-.4zm6-.5c.9 0 .9 1.4 0 1.4s-.9-1.4 0-1.4zm6-.3c1.3 0 1.3 2 0 2s-1.3-2 0-2zm6-.1c1.5 0 1.5 2.2 0 2.2s-1.5-2.2 0-2.2zm6-.1c1.6 0 1.6 2.4 0 2.4s-1.6-2.4 0-2.4zm6 0c1.6 0 1.6 2.4 0 2.4s-1.6-2.4 0-2.4zm6 0c1.6 0 1.6 2.4 0 2.4s-1.6-2.4 0-2.4zm6 .2c1.3 0 1.3 2 0 2s-1.3-2 0-2zm6 .3c.9 0 .9 1.4 0 1.4s-.9-1.4 0-1.4zm6 .4c.4 0 .4.6 0 .6s-.4-.6 0-.6zm-57 6.3zm6-.4c.5 0 .5.8 0 .8s-.5-.8 0-.8zm6-.4c1.1 0 1.1 1.6 0 1.6s-1.1-1.6 0-1.6zm6-.3c1.5 0 1.5 2.2 0 2.2s-1.5-2.2 0-2.2zm6-.1c1.6 0 1.6 2.4 0 2.4s-1.6-2.4 0-2.4zm6 0c1.6 0 1.6 2.4 0 2.4s-1.6-2.4 0-2.4zm6 0c1.6 0 1.6 2.4 0 2.4s-1.6-2.4 0-2.4zm6 .1c1.5 0 1.5 2.2 0 2.2s-1.5-2.2 0-2.2zm6 .2c1.2 0 1.2 1.8 0 1.8s-1.2-1.8 0-1.8zm6 .4c.7 0 .7 1 0 1s-.7-1 0-1zm6 .5zm-57 5.9c.1 0 .1.2 0 .2s-.1-.2 0-.2zm6-.4c.7 0 .7 1 0 1s-.7-1 0-1zm6-.3c1.1 0 1.1 1.6 0 1.6s-1.1-1.6 0-1.6zm6-.2c1.3 0 1.3 2 0 2s-1.3-2 0-2zm6-.1c1.5 0 1.5 2.2 0 2.2s-1.5-2.2 0-2.2zm6 0c1.5 0 1.5 2.2 0 2.2s-1.5-2.2 0-2.2zm6 .1c1.3 0 1.3 2 0 2s-1.3-2 0-2zm6 .1c1.2 0 1.2 1.8 0 1.8s-1.2-1.8 0-1.8zm6 .4c.7 0 .7 1 0 1s-.7-1 0-1zm6 .4c.1 0 .1.2 0 .2s-.1-.2 0-.2zm-51 6.1zm6-.3c.4 0 .4.6 0 .6s-.4-.6 0-.6zm6-.4c.9 0 .9 1.4 0 1.4s-.9-1.4 0-1.4zm6-.1c1.1 0 1.1 1.6 0 1.6s-1.1-1.6 0-1.6zm6-.1c1.2 0 1.2 1.8 0 1.8s-1.2-1.8 0-1.8zm6 0c1.2 0 1.2 1.8 0 1.8s-1.2-1.8 0-1.8zm6 .2c.9 0 .9 1.4 0 1.4s-.9-1.4 0-1.4zm6 .4c.4 0 .4.6 0 .6s-.4-.6 0-.6zm6 .3zm-33 5.9c.1 0 .1.2 0 .2s-.1-.2 0-.2zm6-.1c.3 0 .3.4 0 .4s-.3-.4 0-.4zm6 0c.3 0 .3.4 0 .4s-.3-.4 0-.4zm6 .1c.1 0 .1.2 0 .2s-.1-.2 0-.2z"/><pattern id="eye_i" width="48" height="48" x="250" y="750" overflow="visible" patternUnits="userSpaceOnUse" viewBox="4.8 -52.8 48 48"><defs><path id="eye_a" d="M4.8-52.8h48v48h-48z"/></defs><clipPath id="eye_b"><use overflow="visible" xlink:href="#eye_a"/></clipPath><g class="skin_dark" clip-path="url(#eye_b)"><path d="M28.8-57.6c2.7 0 4.8 2.1 4.8 4.8S31.5-48 28.8-48 24-50.2 24-52.8c0-2.7 2.1-4.8 4.8-4.8zM52.8-57.6c2.7 0 4.8 2.1 4.8 4.8S55.5-48 52.8-48 48-50.2 48-52.8c0-2.7 2.1-4.8 4.8-4.8zM28.8-33.6c2.7 0 4.8 2.1 4.8 4.8S31.5-24 28.8-24 24-26.1 24-28.8s2.1-4.8 4.8-4.8zM52.8-33.6c2.7 0 4.8 2.1 4.8 4.8S55.5-24 52.8-24 48-26.1 48-28.8s2.1-4.8 4.8-4.8zM40.8-45.6c2.7 0 4.8 2.1 4.8 4.8S43.5-36 40.8-36 36-38.2 36-40.8c0-2.7 2.1-4.8 4.8-4.8zM16.8-45.6c2.7 0 4.8 2.1 4.8 4.8S19.5-36 16.8-36 12-38.2 12-40.8c0-2.7 2.1-4.8 4.8-4.8zM40.8-21.6c2.7 0 4.8 2.1 4.8 4.8S43.5-12 40.8-12 36-14.1 36-16.8s2.1-4.8 4.8-4.8zM16.8-21.6c2.7 0 4.8 2.1 4.8 4.8S19.5-12 16.8-12 12-14.1 12-16.8s2.1-4.8 4.8-4.8z"/></g><defs><path id="eye_c" d="M4.8-52.8h48v48h-48z"/></defs><clipPath id="eye_d"><use overflow="visible" xlink:href="#eye_c"/></clipPath><g class="skin_dark" clip-path="url(#eye_d)"><path d="M4.8-57.6c2.7 0 4.8 2.1 4.8 4.8S7.5-48 4.8-48 0-50.1 0-52.8s2.1-4.8 4.8-4.8zM4.8-33.6c2.7 0 4.8 2.1 4.8 4.8S7.5-24 4.8-24 0-26.1 0-28.8s2.1-4.8 4.8-4.8z"/></g><g><defs><path id="eye_e" d="M4.8-52.8h48v48h-48z"/></defs><clipPath id="eye_f"><use overflow="visible" xlink:href="#eye_e"/></clipPath><g class="skin_dark" clip-path="url(#eye_f)"><path d="M28.8-9.6c2.7 0 4.8 2.1 4.8 4.8S31.5 0 28.8 0 24-2.2 24-4.8c0-2.7 2.1-4.8 4.8-4.8zM52.8-9.6c2.7 0 4.8 2.1 4.8 4.8S55.5 0 52.8 0 48-2.2 48-4.8c0-2.7 2.1-4.8 4.8-4.8z"/></g></g><g><defs><path id="eye_g" d="M4.8-52.8h48v48h-48z"/></defs><clipPath id="eye_h"><use overflow="visible" xlink:href="#eye_g"/></clipPath><path class="skin_dark" d="M4.8-9.6c2.7 0 4.8 2.1 4.8 4.8S7.5 0 4.8 0 0-2.2 0-4.8c0-2.7 2.1-4.8 4.8-4.8z" clip-path="url(#eye_h)"/></g></pattern><path d="M452.7 434.8l.1-.1-.1.1z"/><path fill="#241F20" d="M392.6 451.9l-7.5 5.9c-20.8-7.8-7.6-1.3 7.5-5.9z"/><pattern id="eye_j" patternTransform="matrix(.26 0 0 -.26 -47497.586 991.192)" xlink:href="#eye_i"/><path fill="url(#eye_j)" d="M364.3 442.5s-.6 18.1 31.3 9.3c36.2-25.3 58.2 2.8 58.2 2.8 11.5-.4 14.6-22.7 14.6-22.7 5.8 13.7-68-2.9-104.1 10.6z"/><path class="hair_brow" d="M469.5 431.8c-1.7 18.9-24.3 1.9-79.8 6.5-15.4 1.3-25.3 4.2-25.3 4.2s3.1-18.4 23.8-20.9c21.3-2.5 72.6 11.8 72.6 11.8 7.9 1.8 9.1-6.1 8.7-1.6z"/><path fill="#FFF" d="M399.3 453c10.1 13.8 25.7 11.3 40.9 11.3 6.5 0 11.9-2.8 13.7-7-15-11.9-42.6-13.5-54.6-4.3z"/><path class="eye_iris" d="M413.5 447.7c-1.7 5.6-.4 12 4.5 16.3 3.5.6 17.6.4 22.4.4 3.6-3.6 5.2-7.9 5.2-12.1-9.9-4.6-22-6.2-32.1-4.6z"/><path class="skin_outline" d="M403.2 447.1c-.4-.6 15.7-13.8 37.3-3.2 8.4 4.1 13.9 10.2 13.4 10.6-.6.6-10.4-9-24.4-11.6-15.4-2.9-25.7 5.2-26.3 4.2z"/><path d="M422.2 452.4c0 9.3 14 9.3 14 0 0-1.3-.4-2.6-1-3.7-3.5-.8-7.1-1.3-10.7-1.5-1.5 1.3-2.3 3.1-2.3 5.2z"/><path fill="#241F20" d="M452.7 459.4c.2.2-2.7 5.9-14.3 6.1-21.3.2-29.5 1.2-49.4-6.1-7.8-2.8-6.7-1.7-5.8-5.9 15.1-.6 31-13 52.9-6.6 9.4 3 18.3 9.9 17.9 10.5-.5.6-7.6-5.3-18.6-8.1-12.9-3.1-22.4-.1-35.8 4.1-6.9 2.5-9.6 2.7-9.4 2.8-.6-.1 12.6 4.6 22.2 6 4.7.5 29.2 1.3 29.9 1.3 7.5-.7 10-4.5 10.4-4.1z"/><path fill="#241F20" d="M417.3 462.6s-12.8-2-17.1-9.8l-12 2.9s13.8 9 29.1 6.9z"/><g><pattern id="eye_k" patternTransform="matrix(-.26 0 0 -.26 31133.426 991.192)" xlink:href="#eye_i"/><path fill="url(#eye_k)" d="M635.7 442.5s.6 18.1-31.3 9.3c-36.2-25.3-58.2 2.8-58.2 2.8-11.5-.4-14.6-22.7-14.6-22.7-5.8 13.7 68-2.9 104.1 10.6z"/><path class="hair_brow" d="M530.5 431.8c1.7 18.9 24.3 1.9 79.8 6.5 15.4 1.3 25.3 4.2 25.3 4.2s-3.1-18.4-23.8-20.9c-21.3-2.5-72.6 11.8-72.6 11.8-7.9 1.8-9.1-6.1-8.7-1.6z"/><path fill="#FFF" d="M600.7 453c-10.1 13.8-25.7 11.3-40.9 11.3-6.5 0-11.9-2.8-13.7-7 15-11.9 42.6-13.5 54.6-4.3z"/><path class="eye_iris" d="M586.5 447.7c1.7 5.6.4 12-4.5 16.3-3.5.6-17.6.4-22.4.4-3.6-3.6-5.2-7.9-5.2-12.1 9.9-4.6 22-6.2 32.1-4.6z"/><path class="skin_outline" d="M596.8 447.1c.4-.6-15.7-13.8-37.3-3.2-8.4 4.1-13.9 10.2-13.4 10.6.6.6 10.4-9 24.4-11.6 15.4-2.9 25.7 5.2 26.3 4.2z"/><path d="M577.8 452.4c0 9.3-14 9.3-14 0 0-1.3.4-2.6 1-3.7 3.5-.8 7.1-1.3 10.7-1.5 1.5 1.3 2.3 3.1 2.3 5.2z"/><path fill="#241F20" d="M547.3 459.4c.3-.3 3.1 3.5 10.4 4 .6.1 25-.7 29.9-1.3 8.8-1.2 22.2-5.9 22.2-6-13.5-3-27-11.2-45.2-6.8-11.7 3.1-18 8.9-18.6 8.1-.3-.4 7.3-7.1 17.9-10.5 21.8-6.4 37.9 6 52.9 6.6.8 4 2 3.1-5.8 5.9-19.9 7.3-28.1 6.3-49.4 6.1-11-.3-14.7-5.8-14.3-6.1z"/><path fill="#241F20" d="M582.7 462.6s12.8-2 17.1-9.8l12 2.9s-13.8 9-29.1 6.9z"/></g><path fill="#241F20" d="M607.4 451.9l7.5 5.9c20.9-7.8 7.7-1.3-7.5-5.9z"/><g><path class="skin_outline" d="M474.6 432.9c3.5-5.3 2.2-11.4 2.9-11.6 1.2-.3 2.6 10.4-3.3 13.4-1.5.7-.2-.8.4-1.8zM526.5 434.8c-.5.7-6.3-3.6-4.9-11.4 1.3-6.3 1.3 2.7 1.9 5 1 4.1 3.3 5.9 3 6.4z"/></g><pattern id="hair_e" width="28.8" height="28.8" x="250" y="750" overflow="visible" patternUnits="userSpaceOnUse" viewBox="1.4 -30.2 28.8 28.8"><defs><path id="hair_a" d="M1.4-30.2h28.8v28.8H1.4z"/></defs><clipPath id="hair_b"><use overflow="visible" xlink:href="#hair_a"/></clipPath><g class="hair_shadow" clip-path="url(#hair_b)"><path d="M30.2 0c.8 0 1.4-.6 1.4-1.4s-.6-1.4-1.4-1.4-1.4.6-1.4 1.4c0 .8.6 1.4 1.4 1.4zM15.8 0c.8 0 1.4-.6 1.4-1.4s-.6-1.4-1.4-1.4c-.8 0-1.4.6-1.4 1.4 0 .8.6 1.4 1.4 1.4zM30.2-14.4c.8 0 1.4-.6 1.4-1.4s-.6-1.4-1.4-1.4-1.4.6-1.4 1.4c0 .8.6 1.4 1.4 1.4zM15.8-14.4c.8 0 1.4-.6 1.4-1.4s-.6-1.4-1.4-1.4c-.8 0-1.4.6-1.4 1.4 0 .8.6 1.4 1.4 1.4zM8.6-7.2c.8 0 1.4-.6 1.4-1.4S9.4-10 8.6-10c-.8 0-1.4.6-1.4 1.4 0 .8.6 1.4 1.4 1.4zM23-7.2c.8 0 1.4-.6 1.4-1.4S23.8-10 23-10s-1.4.6-1.4 1.4.6 1.4 1.4 1.4zM8.6-21.6c.8 0 1.4-.6 1.4-1.4s-.6-1.4-1.4-1.4c-.8 0-1.4.6-1.4 1.4 0 .8.6 1.4 1.4 1.4zM23-21.6c.8 0 1.4-.6 1.4-1.4s-.6-1.4-1.4-1.4-1.4.6-1.4 1.4c0 .8.6 1.4 1.4 1.4z"/><g><path d="M1.4 0c.8 0 1.4-.6 1.4-1.4s-.6-1.4-1.4-1.4C.6-2.9 0-2.2 0-1.4 0-.6.6 0 1.4 0zM1.4-14.4c.8 0 1.4-.6 1.4-1.4s-.6-1.4-1.4-1.4-1.4.6-1.4 1.4.6 1.4 1.4 1.4z"/></g><g><path d="M30.2-28.8c.8 0 1.4-.6 1.4-1.4s-.6-1.4-1.4-1.4-1.4.6-1.4 1.4c0 .8.6 1.4 1.4 1.4zM15.8-28.8c.8 0 1.4-.6 1.4-1.4s-.6-1.4-1.4-1.4-1.4.6-1.4 1.4c0 .8.6 1.4 1.4 1.4z"/></g><path d="M1.4-28.8c.8 0 1.4-.6 1.4-1.4s-.6-1.4-1.4-1.4C.6-31.7 0-31 0-30.2c0 .8.6 1.4 1.4 1.4z"/></g></pattern><pattern id="hair_g" width="28.8" height="28.8" x="250" y="750" overflow="visible" patternUnits="userSpaceOnUse" viewBox="1.4 -30.2 28.8 28.8"><defs><path id="hair_c" d="M1.4-30.2h28.8v28.8H1.4z"/></defs><clipPath id="hair_d"><use overflow="visible" xlink:href="#hair_c"/></clipPath><g clip-path="url(#hair_d)"><g fill="#FFF"><path d="M30.2 0c.8 0 1.4-.6 1.4-1.4s-.6-1.4-1.4-1.4-1.4.6-1.4 1.4c0 .8.6 1.4 1.4 1.4zM15.8 0c.8 0 1.4-.6 1.4-1.4s-.6-1.4-1.4-1.4c-.8 0-1.4.6-1.4 1.4 0 .8.6 1.4 1.4 1.4zM30.2-14.4c.8 0 1.4-.6 1.4-1.4s-.6-1.4-1.4-1.4-1.4.6-1.4 1.4c0 .8.6 1.4 1.4 1.4zM15.8-14.4c.8 0 1.4-.6 1.4-1.4s-.6-1.4-1.4-1.4c-.8 0-1.4.6-1.4 1.4 0 .8.6 1.4 1.4 1.4zM8.6-7.2c.8 0 1.4-.6 1.4-1.4S9.4-10 8.6-10c-.8 0-1.4.6-1.4 1.4 0 .8.6 1.4 1.4 1.4zM23-7.2c.8 0 1.4-.6 1.4-1.4S23.8-10 23-10s-1.4.6-1.4 1.4.6 1.4 1.4 1.4zM8.6-21.6c.8 0 1.4-.6 1.4-1.4s-.6-1.4-1.4-1.4c-.8 0-1.4.6-1.4 1.4 0 .8.6 1.4 1.4 1.4zM23-21.6c.8 0 1.4-.6 1.4-1.4s-.6-1.4-1.4-1.4-1.4.6-1.4 1.4c0 .8.6 1.4 1.4 1.4z"/></g><g fill="#FFF"><path d="M1.4 0c.8 0 1.4-.6 1.4-1.4s-.6-1.4-1.4-1.4C.6-2.9 0-2.2 0-1.4 0-.6.6 0 1.4 0zM1.4-14.4c.8 0 1.4-.6 1.4-1.4s-.6-1.4-1.4-1.4-1.4.6-1.4 1.4.6 1.4 1.4 1.4z"/></g><g fill="#FFF"><path d="M30.2-28.8c.8 0 1.4-.6 1.4-1.4s-.6-1.4-1.4-1.4-1.4.6-1.4 1.4c0 .8.6 1.4 1.4 1.4zM15.8-28.8c.8 0 1.4-.6 1.4-1.4s-.6-1.4-1.4-1.4-1.4.6-1.4 1.4c0 .8.6 1.4 1.4 1.4z"/></g><path fill="#FFF" d="M1.4-28.8c.8 0 1.4-.6 1.4-1.4s-.6-1.4-1.4-1.4C.6-31.7 0-31 0-30.2c0 .8.6 1.4 1.4 1.4z"/></g></pattern><path class="hair_fill" d="M698.2 303.1c1-.4-15.1-50.1-86.7-83-19.4-17.9-42-28.1-68.3-32.9-33.6-6-88.2-.4-118.4 16.4.4 0-7.4 1.9-18.9 7.2-.2-2.1-59.9 3.4-72 40.3-2.3 6.9-2.9 12.7-2.3 12.8.1 0-35.3 33.4-46.5 101.1-2.9 17.8 2.8-9.2 12.7-36.4-2.5 14.8.3 76.4-29.2 91.3-10.8 5.7-24.6-1.9-25.2-.8-.5 1 28.3 19 44-15.1-10.1 35.8-27.2 61.7-41 70.4 0 0 16.5-8.2 27.2-22.6-8.4 12.9-33.5 55.9-21.4 89.8 0 0 4.6-41 26.9-63-14.4 18.2-22.6 54.1-6.6 82 4.9 8.1 9.2 12 9.5 11.7 1.7-1.3-19.8-20.5-13.8-58.4.5 10.4 4.6 21.7 16.2 32.5 0 0 1.1 14.3 11.5 29.9-24.4 41.2.1 98.2-3.3 80.9-2.3-11.8-4.3-19.6-4.4-33.3.7 13.5 4.5 27 15.1 36.2 0 0 19.7 42.3 56.8 46.1 0 0 11.9 0 33.4 15.8 0 0 19.5 16.1-8 78.6 0 0 82-69.5 33.2-123.6 0 0 10.7 5.3 25.1-2.4 0 0-11.7-10.3-26.1-26.3 16.4 10.2 34.5 8.8 34.3 7.2-.4-3.8-29.6 12-68.4-52.1 8.9 2.7 19 4.6 30.5 5-40.6-33.7-61.3-91.9-51.4-70.4 11.8 25.7 26.4 35.6 41.9 40.1 10.7 1.8 11.2 1.1.5-1.9-42.4-17.3-47.4-67.3-50.7-66.6 13.1-17.5 22.9-50.9 31.8-108.2.4 25.5 3.4 43 3.4 43 57.6-7.8 88.7-42.8 103.7-67.3-23.9 41.9-62.5 66.7-104.6 73.3-13.7 2.5-3.4 2.1 10.2 0 64.7-9.6 104.1-73.6 106.4-97.5 4.4 55.2-43.7 98.1-43.7 98.1 36-5.8 62.7-47.5 62.7-47.5-13 28.1-33.9 40.3-33.9 40.3 16.5 2.1 30.9-.2 43.5-5.2-17.5 10.1-43.1 16.9-26.5 13 41.9-10.2 78.6-46.5 94.9-85.3.4-2.5 16 28.8 12.6 66.3-1.4 16.7-6.9 35.1-3.9 27.1 6-16.6 8.7-36.8 6-57.7 5.6 24.6 5.2 45.4 5.2 45.4 21.7-55.2-4.6-14 12.8 63.1-3 22.3-4.2 42.1-4.1 59.6-.2.3-22.8 9.6-41.7 40.4-16.2 26.7-19.1 54.8-17.6 54.9 1.1.1 3.4-24.3 20.1-52.2-28 56.4-10.8 129.1-12.7 102.5-1.5-19.7-1.1-35.2.6-48.8-2.2 53.4 24.4 77.9 59 80.5 0 0 11.9 0 33.4 15.8 0 0 19.5 16.1-8 78.6 0 0 52.7-44.7 48.4-90.4 6 21.2.3 31.4 1.7 31.8.7.3 7.8-13.1 1.1-34.9-4.6-14.7-14-27.4-17.4-29.9 2.5 1 12.1 3.9 24.5-2.7 0 0-9.4-6.1-21.3-16.4 16.6 8.8 31 5.4 30.9 4.5-.3-2.6-24.3 6.7-55.1-29.8-3.8-4.5-6.1-7.8-7-8.5 4.7-2.9 19.9-19 30.6-41.6 8.5 7.7 18 15.2 28.6 22.2 0 0-13.7-9.8-26.9-25.7 6.2-13.9-1.4-5.2 20.2 5.1 0 0-5.7-7.6-14.1-21.2 15-46.7-9.7-18.2 28.5 15.9 26.4 23.5 9.6 54.7 9.6 54.7 8.9-6.6 18.6-36.5 11.2-60 7 10.8 9.7 18 9.6 30.8-.3 11.4 5.6-8.1-2.2-24.4-11.7-25.2-35.3-32.8-33.1-126.5 0 0 14.7-10.2 12-56.7-2.6-43.8-55.7-103.9-27.6-71.8 14.5 16.8 25.5 36.2 31.6 59.7-1.6 7.4-4 12-4 12 2.1-1.7 4-3.5 5.6-5.5 4.7 22.5 4 43.1.9 65.9-3.3 22.8 12-24.9 1.9-69.6 15.3-24.4-2.5-60.6-2.5-60.6 38.2 48.5 39.6 95.1 39.6 95.1 7.6-50.5-40.8-111.6-91.1-160.2zm-114.5-92.2c35 14.1 27.8 12.5 47 33.6-8.2-6.4-36.5-28.4-47-33.6zm114 91.7c-47.8-46.1-60.5-49.3-69.7-63.4-8.3-12.5-14.2-14.9-6-10.4 56.5 31.9 68.6 63.4 75.7 73.8zM516.3 187.7c28.6.5 61.2 9.7 86 28.4-11.3-4.6-39.2-13.7-51.4-12.4-27.5-18-62.3-17.3-34.6-16zm-183.4 72.5c10.4-37.9 54.5-44.2 71.7-48.8-33.8 15.7-48.9 35.8-51.2 36.9 1.6-1.4-2.2.5-4.8 2.1-18.7 12-17.8 17.4-15.7 9.8zm370.8 90.6c1.3 1.6 48.1 21.6 45.5 66.3-14.1-44-45-65.6-45.5-66.3z"/><pattern id="hair_f" patternTransform="matrix(.3974 0 0 -.3974 -97551.578 -48595.102)" xlink:href="#hair_e"/><path fill="url(#hair_f)" d="M532.1 208.7c-126.2 23.8-145.5 206-145.5 206-.4-193.5 152.7-206 152.7-206h-7.2zm19.3 2c73 21.4 90.2 98.1 90.2 98.1l6.1 8.3c-13.3-103.3-96.3-106.4-96.3-106.4zm172.3 171.4s-15.3-27.7-30.5-37.1c-75.7-27.6-11.7-8.6 30.5 37.1zm-89.3 150.7s7.2 63.6 67.7 92.3c-78-62.4-67.7-165.9-67.7-92.3zM396.3 625l-15.2-22.5s-32.8-8.3-45.9-30.3c0 0 14.9 31.5 42.9 43.3 0 0-52.4 1-82.2-39.2 0 .1 20.2 48.9 100.4 48.7zm-42-115.5c-5 9.1-19.1 15.3-19.1 15.3 14.4 55.9 78.8 83.5 78.8 83.5-53.4-44.5-59.7-98.8-59.7-98.8zM347 251.4l-22.9 20.1c-44.1 60.7-12.2 157.1-12.2 157.1-23.8-107 35.1-177.2 35.1-177.2z"/><pattern id="hair_h" patternTransform="matrix(.5 0 0 .5 -4088.718 -4099.058)" xlink:href="#hair_g"/><path fill="url(#hair_h)" d="M624.7 679c.8 1 18.8 29 47.3 52.2 28.5 23.3 14.9 64.8 14.9 64.8s12.1-37.9-40-69.2c-18.5-11.1-22.2-47.8-22.2-47.8zM357.1 311.7c-1.8-15.6 14.9-66.6 14.9-66.6-34.1 47.7-23.9 125.5-23.9 125.5-.5-25.3 16.2-58.9 16.2-58.9-19 40.8 0 98.9 0 98.9-2.1-144.9 69.1-178 69.1-178-57.5 23.7-76.3 79.1-76.3 79.1zm216.6-37.9C560 253 523.2 236 523.2 236c68.1 51.7 36.2 132 36.2 132 30-48.3 9.2-86.3 9.2-86.3 30.7 32.7 37.5 64.8 37.5 64.8-16.1-100.8-82.9-120.6-82.9-120.6 31 22.4 50.5 47.9 50.5 47.9zM525 367.9c30-84.9-25.2-125.7-25.2-125.7 46.4 54.1 25.2 125.7 25.2 125.7zm122.8 21.8s3.3 88.9 39 151.7l-22.1-83.8s21.4 33.4 31.1 87.2c0-.1-13.6-107.9-48-155.1zm-347 144.2s-4.6 41.4 33.5 60.1c-.1 0-22.9-27.4-33.5-60.1zM368.4 686c52.1 31.3 40 69.2 40 69.2s13.6-41.5-14.9-64.8-46.5-51.2-47.3-52.2c-.1 0 3.7 36.7 22.2 47.8zm333.7-238.6s12.1 42.6 15.4 102.2c3 53.6 26.5 64.1 26.5 64.1s-20.2-21.8-20.2-88c-.1-52.8-21.7-78.3-21.7-78.3zM330 417.9l11.5 37.5c1.3-35.8-19.9-103.3-19.9-103.3-7.9 42.8 11.5 131.5 11.5 131.5 4.2-20.4-3.1-65.7-3.1-65.7zm78.3-9.6c50.4-31.5 45.6-121.8 45.6-121.8-17.7 74.6-45.6 121.8-45.6 121.8z"/><path class="hair_outline" d="M638.6 747c-.5 1.3-68.3-28.2-42.9-129.9 2.2-7.7 6.9-21 7.5-20.7 2 .7-15.5 40.1-8.6 82.8 7.2 48.8 44.4 67 44 67.8zm57.2-10.2c-16.6-30.9-45.7-34.4-63.5-62.5-11.2-17-10.3-23.8-11.2-23.6-.4 0 .1 9.7 9.3 24.9 17 29.1 46.1 32.9 62.3 63 27.6 50.7-29.9 101.5-28.7 102.9 1.1 1 59.9-53.1 31.8-104.7zm23.8-22c-37.9-.7-57.1-28.9-59-27.2-1.9 1.7 28.6 35.2 59 28.6 3.6-.7 3.7-1.2 0-1.4zm-50.5 44.8c1.7 1.9 2.4 3.2 2.9 3.1.9-.2.3-6-7.9-12.6-3.9-3.1-12.9-7.7-13.5-6.2-.7 1.5 11.6 7.5 18.5 15.7zm-12.2-194.9c-18.6-36.1-20.9-57.6-22.5-57.3-1.6.3 10 69.7 63.2 114.4 17.4 14.4-21.6-19.7-40.7-57.1zm44.9 46c3.8 3.5 8.2 6.5 5.2 2.5-27.8-37.4-27-39.4-28-39-1.5.6 8.3 23 22.8 36.5zM391.4 434.9c19.9-135.1 97.4-207.5 96-209.1-2.8-3-88.2 92.5-97.3 208.9-1.2 12.3-.8 13.2 1.3.2zm107.4-132.3c8.2 27.7 5.3 49.3 6.5 49.5 1.1.2 4.8-23.4-3.2-50.5-8.2-27.7-25.4-43.9-26.1-43.2-1.1 1.1 14.1 14.7 22.8 44.2zm-30.7-16.1c-2 .4 15.8 64.7-37.7 122.3-10.1 10.5-16.7 15.5-16.3 16 .4.5 8.4-5.2 18.1-14.3 54.1-53.3 37.7-124.5 35.9-124zm69.4 90.5c-8.1 17.9-20.3 36.6-8.2 19.9 46-65.9 9-121.2 6.4-119-.5.4 29.1 42.2 1.8 99.1zm123.1-43.1c1.3.6 42.4 18.2 43 16.9.5-.9-9.1-6.6-21.8-11.8-30.9-12.7-16.9.1-29-16.4-15.4-20.2-5.7-3.9-15.7-33.8-17.8-48.4-65.1-78.2-94.7-80.3-29.9-.7 128.3 5.3 96.2 178.7 1.6-66.2-30.4-133.4-95.9-166.5-11-5.3-18.4-7.4-18.5-7-1.1 3.4 100.4 25.8 112.8 169.5.7 11.7 1 8.4-3.8 27.5-.9 3.6-5.7 19.4-5.7 19.5-13.9 40.9 3.7-3.5 8-18.9 10.8-39.3-10.4 19 39.2 132.2 17.7 38.9 48.8 87.9 24.8 43.7-31.1-58.9-52.3-116.7-58.4-183.9-1.6-20 1-7.3 4.5-46 3.2-36.1-6.8-51.9.2-41.5 65.1 98.2 95 210 84.4 170.6-11.2-42.5-39.3-107.9-69.6-152.5zM536.2 208.7c-56.9 4.5-117.6 51.4-136.4 113-11.4 34.9-8.6 44.3-19.8 111.4-5.3 31.3 2.9-4.5 7.6-32.8 7-42.1 7.1-68.2 30-109.6 44.8-81.1 143.9-83.8 118.6-82zM319.9 614.6c4.3-24.2-2.8 2.9-3.6 6.8-3.6 17.5-1.7 31.9 3.4 45.7 11.5 28.4 39.8 40.7 40.4 39.2 1.2-2.7-53.6-19.3-40.2-91.7zm97.4 81.4c-19.7-36.7-59.7-36.5-74-84.1 9.5 3.1 25.6 5.6 38.7 5.1 16.7-.6-23.3-1.7-41.3-36.2 12 11.3 29.2 20 40.1 22.3 17.1 4.1-14.1-3.4-36-23.2-15-13.6-19.6-29-11.2-7.1 8.6 22.6 24.6 36.5 45.2 42.4-68-6.9-80.8-40.3-82.9-38.8-.9.6 5.6 8.9 7.5 11.2 10 11.3 3.6-2.8-4.6 23.5-7.9 25.4 3 49.7 4.4 49.1 1.2-.5-8.2-22.3-1.3-48.2 2.4-9.1 6-15.4 7.4-18.5 9 8 19.6 13.6 30.9 17.4 5.4 1.8-.9 1 9.9 20.9 13.4 24.6 35 32.8 50.2 47.8 56.4 56-16.5 119.2-14.8 121 1.1 1.2 59.8-53.1 31.8-104.6zm23.7-22c-37.9-.7-57.1-28.9-59-27.2-1.9 1.7 28.6 35.2 59 28.6 3.7-.6 3.8-1.1 0-1.4zM321.9 525.7c26.4-1.1 32.9-16 32.5-16.2-.4-.2-10.3 18.6-44.8 13.3-8.9-1.2-4.9-1.4-4-1.6 106.1-32.1-5.7-132.8 46.7-254.6 12.6-29.4 27.6-40 27.2-40.6-.6-.8-60.3 42.9-40.9 166.4 5.2 31.4 34.3 105.9-26.3 125.9 18-10.8 16.8-33 10.3-52.9-18.7-57.6-19.7-130.8 12.2-190 10.2-18.2 28.3-37.5 13.3-21.6-38 43.8-47 107.2-39.3 164.9 1.7 13.2 2.8 9.9-1.4 12.6-5.9 3.6-17.4 13.2-26.4 23.9-33.4 40-30.3 86.7-28.7 86.5 1.3-.1-1.6-43.3 31.2-84.4 10.5-13.2 21.3-21.8 27-26.9 2.6 14.8 4 6.2-7.6 21.7-37.5 50.2-19.7 95.1-18.1 94.4.6-.2-1.4-6.4-2.5-16.8-3.2-33.9 11.4-60 30.4-87.7 5.4 25 12.6 36.2 10.7 52.8-1.6 13.9-10.7 22.2-21.7 24.6-10.5 2.3-13.2-.1-9.1 1.9 3.4 1.6 17.4 4.9 29.3 4.4zm392.3 52.8c1.9-.1-2.3-33.6-8.1-61.7-10.4-44.6-22.8-72.9-23.8-72.5-1.3.5 7.9 20.1 20.4 73.3 9.3 43.1 10.6 61 11.5 60.9zm-341.1-307c3.2 1.9 36.7-79.9 151.8-68.7 4.6.5 7.2.8 7.2.6.2-.4-5.1-3.9-14.7-7.3-50.1-18-93.4 6.1-92.6 7.5 1 2.1 40.9-23.5 102.4-1.7-36.5-8.1-84.1-.3-118.1 26.2-23.3 17.9-36.7 43-36 43.4zm367.1 83.8c-31.7-37.8-64.7-65.8-66-64.1-.6.7 1-.6 64.2 65.7 15.4 16.2 14.6 13.7 1.8-1.6zm-166.6 15.1c-28.9 63.6-83.7 71-83.2 73.2.2 1.7 60.8-9.4 85.5-72.2 4.1-10.9 5.7-19.1 5.3-19.2-.6-.3-2.7 7-7.6 18.2zm-183 348.5c1.7 1.9 2.4 3.2 2.9 3.1.9-.2.3-6-7.9-12.6-3.9-3.1-12.9-7.7-13.5-6.2-.8 1.4 11.5 7.4 18.5 15.7zM633 585.6c-.3-1.4-2.5-24.8-2.7-11.2-1.2 63.5 37.5 94.2 39.3 90.7 1.4-2.7-26.2-10.4-36.6-79.5z"/></svg>