 <svg xmlns="http://www.w3.org/2000/svg" xmlns:xlink="http://www.w3.org/1999/xlink" version="1.1" height="1000px" width="1000px" viewBox="0 0 1000 1000">
   <style type="text/css">
     .skin_fill {
       fill: #E0AB8B;
     }

     .skin_outline {
       fill: #644747;
     }

     .skin_dark {
       fill: #BF806A;
     }

     .skin_halftone {
       fill: #896451;
     }

     .skin_freckles {
       fill: #BB8A70;
     }
   </style>
   <style type="text/css">
     .hair_fill {
       fill: #D6C4C2;
     }

     .hair_outline {
       fill: #B2A3A2;
     }

     .hair_shadow {
       fill: #9E9190;
     }

     .hair_brow {
       fill: #C8B7B5;
     }
   </style>
   <style type="text/css">
     .eye_iris {
       fill: #614051;
     }
   </style>
   <style type="text/css">
     .bg_color {
       fill: #F8BE49;
     }

     .bg_stop_1 {
       stop-color: #F8BE49;
     }

     .bg_stroke_1 {
       stroke: #F8BE49;
     }

     .bg_shape {
       fill: #EE94BB;
     }

     .bg_stop_2 {
       stop-color: #EE94BB;
     }

     .bg_stroke_2 {
       stroke: #EE94BB;
     }

     .bg_halftone {
       fill: #3F3FC9;
     }

     .bg_stop_3 {
       stop-color: #3F3FC9;
     }

     .bg_stroke_3 {
       stroke: #3F3FC9;
     }
   </style>
   <pattern id="backdrop_a" width="83" height="65" y="1000" overflow="visible" patternUnits="userSpaceOnUse" viewBox="1.8 -133.6 83 65">
     <path fill="none" class="bg_stroke_2" stroke-dasharray="0,6.5" stroke-linecap="round" stroke-width="3.5" d="M84.8-67.2v65.4" />
     <g fill="none" class="bg_stroke_2" stroke-dasharray="0,6.5" stroke-linecap="round">
       <path stroke-width="3.5" d="M1.8-67.2v65.4" />
       <path stroke-width="3.25" d="M6.4-70.5v68.7" />
       <path stroke-width="3" d="M11-67.2v65.4" />
       <path stroke-width="2.75" d="M15.6-70.5v68.7" />
       <path stroke-width="2.25" d="M24.8-70.5v68.7" />
       <path stroke-width="1.75" d="M34-70.5v68.7" />
       <path stroke-width="1.25" d="M43.2-70.5v68.7" />
       <path stroke-width="3.5" d="M84.8-67.2v65.4" />
       <path stroke-width="3.25" d="M80.1-70.5v68.7" />
       <path stroke-width="3" d="M75.5-67.2v65.4" />
       <path stroke-width="2.75" d="M70.9-70.5v68.7" />
       <path stroke-width="2.25" d="M61.7-70.5v68.7" />
       <path stroke-width="1.75" d="M52.5-70.5v68.7" />
     </g>
     <path fill="none" class="bg_stroke_2" stroke-dasharray="0,6.5" stroke-linecap="round" stroke-width="3.5" d="M1.8-67.2v65.4M84.8-132.2v65.4" />
     <g fill="none" class="bg_stroke_2" stroke-dasharray="0,6.5" stroke-linecap="round">
       <path stroke-width="3.5" d="M1.8-132.2v65.4" />
       <path stroke-width="3.25" d="M6.4-135.5v68.7" />
       <path stroke-width="3" d="M11-132.2v65.4" />
       <path stroke-width="2.75" d="M15.6-135.5v68.7" />
       <path stroke-width="2.5" d="M20.2-132.2v65.4" />
       <path stroke-width="2.25" d="M24.8-135.5v68.7" />
       <path stroke-width="2" d="M29.4-132.2v65.4" />
       <path stroke-width="1.75" d="M34-135.5v68.7" />
       <path stroke-width="1.499" d="M38.6-132.2v65.4" />
       <path stroke-width="1.25" d="M43.2-135.5v68.7" />
       <path stroke-width="3.5" d="M84.8-132.2v65.4" />
       <path stroke-width="3.25" d="M80.1-135.5v68.7" />
       <path stroke-width="3" d="M75.5-132.2v65.4" />
       <path stroke-width="2.75" d="M70.9-135.5v68.7" />
       <path stroke-width="2.5" d="M66.3-132.2v65.4" />
       <path stroke-width="2.25" d="M61.7-135.5v68.7" />
       <path stroke-width="2" d="M57.1-132.2v65.4" />
       <path stroke-width="1.75" d="M52.5-135.5v68.7" />
       <path stroke-width="1.499" d="M47.9-132.2v65.4" />
     </g>
     <path fill="none" class="bg_stroke_2" stroke-dasharray="0,6.5" stroke-linecap="round" stroke-width="3.5" d="M1.8-132.2v65.4M84.8-197.2v65.4" />
     <g fill="none" class="bg_stroke_2" stroke-dasharray="0,6.5" stroke-linecap="round">
       <path stroke-width="3.5" d="M1.8-197.2v65.4" />
       <path stroke-width="3.25" d="M6.4-200.5v68.7" />
       <path stroke-width="3" d="M11-197.2v65.4" />
       <path stroke-width="2.75" d="M15.6-200.5v68.7" />
       <path stroke-width="2.5" d="M20.2-197.2v65.4" />
       <path stroke-width="2.25" d="M24.8-200.5v68.7" />
       <path stroke-width="2" d="M29.4-197.2v65.4" />
       <path stroke-width="1.75" d="M34-200.5v68.7" />
       <path stroke-width="1.499" d="M38.6-197.2v65.4" />
       <path stroke-width="1.25" d="M43.2-200.5v68.7" />
       <path stroke-width="3.5" d="M84.8-197.2v65.4" />
       <path stroke-width="3.25" d="M80.1-200.5v68.7" />
       <path stroke-width="3" d="M75.5-197.2v65.4" />
       <path stroke-width="2.75" d="M70.9-200.5v68.7" />
       <path stroke-width="2.5" d="M66.3-197.2v65.4" />
       <path stroke-width="2.25" d="M61.7-200.5v68.7" />
       <path stroke-width="2" d="M57.1-197.2v65.4" />
       <path stroke-width="1.75" d="M52.5-200.5v68.7" />
       <path stroke-width="1.499" d="M47.9-197.2v65.4" />
     </g>
     <path fill="none" class="bg_stroke_2" stroke-dasharray="0,6.5" stroke-linecap="round" stroke-width="3.5" d="M1.8-197.2v65.4" />
   </pattern>
   <path class="bg_halftone" d="M0 0h1000v1000H0z" />
   <pattern id="backdrop_b" patternTransform="matrix(0 -2 2 0 9958.875 -24198.063)" xlink:href="#backdrop_a" />
   <path fill="url(#backdrop_b)" d="M0 0h1000v1000H0z" />
   <path class="bg_shape" d="M1000 8.2v191.6C958.9 224.7 23.1 792.3 0 806.4V614.7C25.1 599.5 987.9 15.5 1000 8.2zM1000 326.1v62L1.9 1000c-2.8 0-1.9 6.8-1.9-60.9 456.4-276.8 235-141.2 1000-613zM477.2 0L0 289.5v-37L416.3 0zM94.4 0L0 57.3V0zM256.8 0L0 155.8v-36.5L196.7 0zM315.5 0C209.6 64.7 113.6 123 0 189.7v-7.8C96.2 121.8 189.2 65.1 297.2 0h18.3z" />
   <path class="bg_color" d="M0 351.2v-11.5C457.5 63.9 454.5 73.8 0 351.2z" />
   <path class="bg_shape" d="M715.1 0C410.4 189.9-237.1 569.8 533.4 99.7 723.8-15 694.8 0 715.1 0z" />
   <path class="bg_color" d="M802 34C439.3 258.5-261.6 681 252.2 365.7 471 232.3 575.2 168.8 802 34z" />
   <path class="bg_shape" d="M322 277C219.8 342.9-90.8 529.4 25.7 455.5 159.9 372.1 271.9 305.5 322 277z" />
   <path class="bg_color" d="M521.2 0c-225.9 137.7-234.9 139.6-3.5 0h3.5z" />
   <path class="bg_shape" d="M20 571c-22.2 13.8-20 12.6-20 11.9L20 571z" />
   <path class="bg_color" d="M144 563c-38.9 25.1-104.3 65.3-144 89.6 0-5.9-11.2 1.7 101.2-64.8 14.3-8.3 28.5-16.7 42.8-24.8z" />
   <path class="bg_shape" d="M0 372.3c0-6-13 2.4 117.2-74.5 107.5-62.2-4.6 5.7-117.2 74.5zM0 860.3c0-6-13 2.4 117.2-74.5 107.5-62.2-4.6 5.7-117.2 74.5z" />
   <path class="bg_color" d="M216.8 892c-159.4 103-294.6 173.7-31.4 18.2 10.5-6 20.9-12.2 31.4-18.2zM240.6 0c-106 62.7-101.9 59.9-5.5 0h5.5zM555.1 0c-101.8 61-103 61.6-2.5 0h2.5z" />
   <g>
     <path class="bg_shape" d="M1000 676.2v36.9L527.1 1000h-61zM1000 908.4v91.6H848.9zM1000 809.9v36.5L746.7 1000h-60.1zM646.6 1000h-19.2c446.3-272.3 540.6-318 19.2 0zM1000 486.1c0 4.7 7.2-.4-49.4 31.7 16.4-10.6 32.9-21.2 49.4-31.7z" />
     <path class="bg_color" d="M1000 614.9v10.7c-628.7 386.7-642.4 372.7 0-10.7z" />
     <path class="bg_shape" d="M273.8 982.7c2.5-2.5 9.7-16 12.9-19.2 565.8-345 526-305.7-12.9 19.2z" />
     <path class="bg_color" d="M794.6 569.8c-584 361.6-672.5 402.8-92 54.7l92-54.7z" />
     <path class="bg_shape" d="M542.6 770.8c102.3-66 510.9-312.1 254.3-152.4-63.1 39.1-187.7 114.5-254.3 152.4zM516.6 943.8c-101.4 62.8-90.4 56.2-94.1 56.2 44-26.5 71.1-42.5 94.1-56.2zM1000 381.5c0 3.4-327 199.3-29.2 17.8l29.2-17.8z" />
     <path class="bg_color" d="M1000 250.6c0 2.5 5.1-.3-41.4 26.2 13.7-8.8 27.6-17.5 41.4-26.2z" />
     <path class="bg_shape" d="M1000 594.5c0 5.2-484.5 297.5-211.7 127.7 85.1-52.7 207.5-125.6 211.7-127.7z" />
     <path class="bg_color" d="M1000 71.2c0 3.7 12.4-4.7-117.4 74.8-353.4 212-72.4 37.3 117.4-74.8zM1000 967.2c0 1.6 3.2-.4-21.4 13.6 7.1-4.6 14.2-9.1 21.4-13.6zM721.9 112.5c4.7-7.8-13.4 2.2 156-97.9 89.8-52.1-69.1 45.5-156 97.9z" />
     <path class="bg_shape" d="M1000 463.9c0 4.4 4.3.6-28.6 20.1-54.4 31.5-69.2 40.7 28.6-20.1zM960 235.8c-126.9 78.6-164.6 102.3-464.7 284.9.2-8.1-42.7 16.6 464.7-284.9z" />
     <path class="bg_color" d="M1000 44.4v9.3c-187.5 109.5-186.3 107.5 0-9.3z" />
   </g>
   <g class="bg_color">
     <path d="M279.5 916.3c.4-.3.8-.7 1.1-1.1-.4.3-.7.7-1.1 1.1zM268 924.6c0-.2 0-.5.1-.7-.1.3-.1.5-.1.7z" />
   </g>
   <g class="bg_color">
     <path d="M436.6 483c-191.3 119-185.8 116.7 2.1 5.7l-2.1-5.7zM781.7 413.9c-285.8 171.3-232.4 145.4 59.6-35.4l-59.6 35.4z" />
   </g>
   <pattern id="ear_i" width="48" height="48" x="250" y="750" overflow="visible" patternUnits="userSpaceOnUse" viewBox="4.8 -52.8 48 48">
     <defs>
       <path id="ear_a" d="M4.8-52.8h48v48h-48z" />
     </defs>
     <clipPath id="ear_b">
       <use overflow="visible" xlink:href="#ear_a" />
     </clipPath>
     <g class="skin_dark" clip-path="url(#ear_b)">
       <path d="M28.8-57.6c2.7 0 4.8 2.1 4.8 4.8S31.5-48 28.8-48 24-50.2 24-52.8c0-2.7 2.1-4.8 4.8-4.8zM52.8-57.6c2.7 0 4.8 2.1 4.8 4.8S55.5-48 52.8-48 48-50.2 48-52.8c0-2.7 2.1-4.8 4.8-4.8zM28.8-33.6c2.7 0 4.8 2.1 4.8 4.8S31.5-24 28.8-24 24-26.1 24-28.8s2.1-4.8 4.8-4.8zM52.8-33.6c2.7 0 4.8 2.1 4.8 4.8S55.5-24 52.8-24 48-26.1 48-28.8s2.1-4.8 4.8-4.8zM40.8-45.6c2.7 0 4.8 2.1 4.8 4.8S43.5-36 40.8-36 36-38.2 36-40.8c0-2.7 2.1-4.8 4.8-4.8zM16.8-45.6c2.7 0 4.8 2.1 4.8 4.8S19.5-36 16.8-36 12-38.2 12-40.8c0-2.7 2.1-4.8 4.8-4.8zM40.8-21.6c2.7 0 4.8 2.1 4.8 4.8S43.5-12 40.8-12 36-14.1 36-16.8s2.1-4.8 4.8-4.8zM16.8-21.6c2.7 0 4.8 2.1 4.8 4.8S19.5-12 16.8-12 12-14.1 12-16.8s2.1-4.8 4.8-4.8z" />
     </g>
     <defs>
       <path id="ear_c" d="M4.8-52.8h48v48h-48z" />
     </defs>
     <clipPath id="ear_d">
       <use overflow="visible" xlink:href="#ear_c" />
     </clipPath>
     <g class="skin_dark" clip-path="url(#ear_d)">
       <path d="M4.8-57.6c2.7 0 4.8 2.1 4.8 4.8S7.5-48 4.8-48 0-50.1 0-52.8s2.1-4.8 4.8-4.8zM4.8-33.6c2.7 0 4.8 2.1 4.8 4.8S7.5-24 4.8-24 0-26.1 0-28.8s2.1-4.8 4.8-4.8z" />
     </g>
     <g>
       <defs>
         <path id="ear_e" d="M4.8-52.8h48v48h-48z" />
       </defs>
       <clipPath id="ear_f">
         <use overflow="visible" xlink:href="#ear_e" />
       </clipPath>
       <g class="skin_dark" clip-path="url(#ear_f)">
         <path d="M28.8-9.6c2.7 0 4.8 2.1 4.8 4.8S31.5 0 28.8 0 24-2.2 24-4.8c0-2.7 2.1-4.8 4.8-4.8zM52.8-9.6c2.7 0 4.8 2.1 4.8 4.8S55.5 0 52.8 0 48-2.2 48-4.8c0-2.7 2.1-4.8 4.8-4.8z" />
       </g>
     </g>
     <g>
       <defs>
         <path id="ear_g" d="M4.8-52.8h48v48h-48z" />
       </defs>
       <clipPath id="ear_h">
         <use overflow="visible" xlink:href="#ear_g" />
       </clipPath>
       <path class="skin_dark" d="M4.8-9.6c2.7 0 4.8 2.1 4.8 4.8S7.5 0 4.8 0 0-2.2 0-4.8c0-2.7 2.1-4.8 4.8-4.8z" clip-path="url(#ear_h)" />
     </g>
   </pattern>
   <path class="skin_fill" d="M367.8 526l-17.1 11.9c-6.4 4.4-15.2 1.9-18.2-5.2l-29.2-67.3v-54.2l20.4-7.6 46.2 66-2.1 56.4z" />
   <pattern id="ear_j" patternTransform="rotate(180 -33521.922 -10227.572) scale(.226)" xlink:href="#ear_i" />
   <path fill="url(#ear_j)" d="M339.3 472.9c.1 0 .5 1.3-20.5-54.3-7.8 8.3-5.3-17-7.8 46.7l31.2 68c-1-30.1.9-19.2-9.5-47.6-2-5.4 1.1-11.3 6.6-12.8z" />
   <path class="skin_outline" d="M338.3 471c-42.1-112.3-6.7-8.8-1.8.9-1.4 0-8.4 5.9-4.9 13.7 12 26 13.2 25 2.8-1-3.2-7.7 5.5-8.9 3.9-13.6z" />
   <path class="skin_fill" d="M632.2 526l17.1 11.9c6.4 4.4 15.2 1.9 18.2-5.2l29.2-67.3v-54.2l-20.4-7.6-46.2 66 2.1 56.4z" />
   <g>
     <pattern id="ear_k" patternTransform="matrix(.226 0 0 -.226 50672.965 -20455.144)" xlink:href="#ear_i" />
     <path fill="url(#ear_k)" d="M667.3 485.7c-10.4 28.4-8.5 17.5-9.5 47.6l31.2-68c-2.5-63.7 0-38.4-7.8-46.7-21 55.6-20.6 54.3-20.5 54.3 5.5 1.5 8.6 7.4 6.6 12.8z" />
     <g>
       <path class="skin_outline" d="M665.6 484.6c-10.4 26-9.2 27 2.8 1 3.5-7.8-3.5-13.7-4.9-13.7 4.9-9.7 40.3-113.2-1.8-.9-1.6 4.7 7.1 5.9 3.9 13.6z" />
     </g>
   </g>
   <pattern id="face_i" width="48" height="48" x="250" y="750" overflow="visible" patternUnits="userSpaceOnUse" viewBox="4.8 -52.8 48 48">
     <defs>
       <path id="face_a" d="M4.8-52.8h48v48h-48z" />
     </defs>
     <clipPath id="face_b">
       <use overflow="visible" xlink:href="#face_a" />
     </clipPath>
     <g class="skin_dark" clip-path="url(#face_b)">
       <path d="M28.8-57.6c2.7 0 4.8 2.1 4.8 4.8S31.5-48 28.8-48 24-50.2 24-52.8c0-2.7 2.1-4.8 4.8-4.8zM52.8-57.6c2.7 0 4.8 2.1 4.8 4.8S55.5-48 52.8-48 48-50.2 48-52.8c0-2.7 2.1-4.8 4.8-4.8zM28.8-33.6c2.7 0 4.8 2.1 4.8 4.8S31.5-24 28.8-24 24-26.1 24-28.8s2.1-4.8 4.8-4.8zM52.8-33.6c2.7 0 4.8 2.1 4.8 4.8S55.5-24 52.8-24 48-26.1 48-28.8s2.1-4.8 4.8-4.8zM40.8-45.6c2.7 0 4.8 2.1 4.8 4.8S43.5-36 40.8-36 36-38.2 36-40.8c0-2.7 2.1-4.8 4.8-4.8zM16.8-45.6c2.7 0 4.8 2.1 4.8 4.8S19.5-36 16.8-36 12-38.2 12-40.8c0-2.7 2.1-4.8 4.8-4.8zM40.8-21.6c2.7 0 4.8 2.1 4.8 4.8S43.5-12 40.8-12 36-14.1 36-16.8s2.1-4.8 4.8-4.8zM16.8-21.6c2.7 0 4.8 2.1 4.8 4.8S19.5-12 16.8-12 12-14.1 12-16.8s2.1-4.8 4.8-4.8z" />
     </g>
     <defs>
       <path id="face_c" d="M4.8-52.8h48v48h-48z" />
     </defs>
     <clipPath id="face_d">
       <use overflow="visible" xlink:href="#face_c" />
     </clipPath>
     <g class="skin_dark" clip-path="url(#face_d)">
       <path d="M4.8-57.6c2.7 0 4.8 2.1 4.8 4.8S7.5-48 4.8-48 0-50.1 0-52.8s2.1-4.8 4.8-4.8zM4.8-33.6c2.7 0 4.8 2.1 4.8 4.8S7.5-24 4.8-24 0-26.1 0-28.8s2.1-4.8 4.8-4.8z" />
     </g>
     <g>
       <defs>
         <path id="face_e" d="M4.8-52.8h48v48h-48z" />
       </defs>
       <clipPath id="face_f">
         <use overflow="visible" xlink:href="#face_e" />
       </clipPath>
       <g class="skin_dark" clip-path="url(#face_f)">
         <path d="M28.8-9.6c2.7 0 4.8 2.1 4.8 4.8S31.5 0 28.8 0 24-2.2 24-4.8c0-2.7 2.1-4.8 4.8-4.8zM52.8-9.6c2.7 0 4.8 2.1 4.8 4.8S55.5 0 52.8 0 48-2.2 48-4.8c0-2.7 2.1-4.8 4.8-4.8z" />
       </g>
     </g>
     <g>
       <defs>
         <path id="face_g" d="M4.8-52.8h48v48h-48z" />
       </defs>
       <clipPath id="face_h">
         <use overflow="visible" xlink:href="#face_g" />
       </clipPath>
       <path class="skin_dark" d="M4.8-9.6c2.7 0 4.8 2.1 4.8 4.8S7.5 0 4.8 0 0-2.2 0-4.8c0-2.7 2.1-4.8 4.8-4.8z" clip-path="url(#face_h)" />
     </g>
   </pattern>
   <path class="skin_fill" d="M645.6 558.1c14.3-100 14.2-144.8 14.2-149.9-1-187.5-160-180.3-160-180.3s-159-7.2-160 180.3c0 5.1-.1 50 14.2 149.9 6.3 33.5 19.3 56.3 56 91.8v59c0 9.7-6.9 17.9-16.4 19.7l-38.6 7 68.9 80.8c39.9 46.8 112.2 46.8 152.2 0l68.9-80.8-38.6-7c-9.5-1.7-16.4-10-16.4-19.7v-59.4c36.4-35.3 49.3-58 55.6-91.4z" />
   <pattern id="face_j" patternTransform="matrix(.2608 0 0 -.2597 -47645.152 1005.796)" xlink:href="#face_i" />
   <path fill="url(#face_j)" d="M590 669.5v-20c-82.6 80.1-101.2 76.7-180 .4v20c82.3 79.7 100.7 76.5 180-.4z" />
   <g class="skin_outline">
     <path d="M658.7 429.1c-.6 0-12.9 121.1-12 121.2 2.8.3 14.6-121.1 12-121.2zM347.3 489.6c-16.6-166.1.6 61.3 5.6 60.7.6-.1-1.2-17.1-5.6-60.7z" />
   </g>
   <pattern id="face_k" patternTransform="matrix(.2608 0 0 -.2597 -47645.152 1005.796)" xlink:href="#face_i" />
   <path fill="url(#face_k)" d="M360.2 467.4c6.1 16.2 14.8 33.8 26.8 49.9 16.9 22.8 14.7 61.5 16.5 110.2 0 0-33-30-39.8-70.3L353 467.3h7.2z" />
   <pattern id="nose_m" width="28.8" height="28.8" x="250" y="750" overflow="visible" patternUnits="userSpaceOnUse" viewBox="1.4 -30.2 28.8 28.8">
     <defs>
       <path id="nose_a" d="M1.4-30.2h28.8v28.8H1.4z" />
     </defs>
     <clipPath id="nose_b">
       <use overflow="visible" xlink:href="#nose_a" />
     </clipPath>
     <g clip-path="url(#nose_b)">
       <g fill="#FFF">
         <path d="M30.2 0c.8 0 1.4-.6 1.4-1.4s-.6-1.4-1.4-1.4-1.4.6-1.4 1.4c0 .8.6 1.4 1.4 1.4zM15.8 0c.8 0 1.4-.6 1.4-1.4s-.6-1.4-1.4-1.4c-.8 0-1.4.6-1.4 1.4 0 .8.6 1.4 1.4 1.4zM30.2-14.4c.8 0 1.4-.6 1.4-1.4s-.6-1.4-1.4-1.4-1.4.6-1.4 1.4c0 .8.6 1.4 1.4 1.4zM15.8-14.4c.8 0 1.4-.6 1.4-1.4s-.6-1.4-1.4-1.4c-.8 0-1.4.6-1.4 1.4 0 .8.6 1.4 1.4 1.4zM8.6-7.2c.8 0 1.4-.6 1.4-1.4S9.4-10 8.6-10c-.8 0-1.4.6-1.4 1.4 0 .8.6 1.4 1.4 1.4zM23-7.2c.8 0 1.4-.6 1.4-1.4S23.8-10 23-10s-1.4.6-1.4 1.4.6 1.4 1.4 1.4zM8.6-21.6c.8 0 1.4-.6 1.4-1.4s-.6-1.4-1.4-1.4c-.8 0-1.4.6-1.4 1.4 0 .8.6 1.4 1.4 1.4zM23-21.6c.8 0 1.4-.6 1.4-1.4s-.6-1.4-1.4-1.4-1.4.6-1.4 1.4c0 .8.6 1.4 1.4 1.4z" />
       </g>
       <g fill="#FFF">
         <path d="M1.4 0c.8 0 1.4-.6 1.4-1.4s-.6-1.4-1.4-1.4C.6-2.9 0-2.2 0-1.4 0-.6.6 0 1.4 0zM1.4-14.4c.8 0 1.4-.6 1.4-1.4s-.6-1.4-1.4-1.4-1.4.6-1.4 1.4.6 1.4 1.4 1.4z" />
       </g>
       <g fill="#FFF">
         <path d="M30.2-28.8c.8 0 1.4-.6 1.4-1.4s-.6-1.4-1.4-1.4-1.4.6-1.4 1.4c0 .8.6 1.4 1.4 1.4zM15.8-28.8c.8 0 1.4-.6 1.4-1.4s-.6-1.4-1.4-1.4-1.4.6-1.4 1.4c0 .8.6 1.4 1.4 1.4z" />
       </g>
       <path fill="#FFF" d="M1.4-28.8c.8 0 1.4-.6 1.4-1.4s-.6-1.4-1.4-1.4C.6-31.7 0-31 0-30.2c0 .8.6 1.4 1.4 1.4z" />
     </g>
   </pattern>
   <pattern id="nose_k" width="48" height="48" x="250" y="750" overflow="visible" patternUnits="userSpaceOnUse" viewBox="4.8 -52.8 48 48">
     <defs>
       <path id="nose_c" d="M4.8-52.8h48v48h-48z" />
     </defs>
     <clipPath id="nose_d">
       <use overflow="visible" xlink:href="#nose_c" />
     </clipPath>
     <g class="skin_dark" clip-path="url(#nose_d)">
       <path d="M28.8-57.6c2.7 0 4.8 2.1 4.8 4.8S31.5-48 28.8-48 24-50.2 24-52.8c0-2.7 2.1-4.8 4.8-4.8zM52.8-57.6c2.7 0 4.8 2.1 4.8 4.8S55.5-48 52.8-48 48-50.2 48-52.8c0-2.7 2.1-4.8 4.8-4.8zM28.8-33.6c2.7 0 4.8 2.1 4.8 4.8S31.5-24 28.8-24 24-26.1 24-28.8s2.1-4.8 4.8-4.8zM52.8-33.6c2.7 0 4.8 2.1 4.8 4.8S55.5-24 52.8-24 48-26.1 48-28.8s2.1-4.8 4.8-4.8zM40.8-45.6c2.7 0 4.8 2.1 4.8 4.8S43.5-36 40.8-36 36-38.2 36-40.8c0-2.7 2.1-4.8 4.8-4.8zM16.8-45.6c2.7 0 4.8 2.1 4.8 4.8S19.5-36 16.8-36 12-38.2 12-40.8c0-2.7 2.1-4.8 4.8-4.8zM40.8-21.6c2.7 0 4.8 2.1 4.8 4.8S43.5-12 40.8-12 36-14.1 36-16.8s2.1-4.8 4.8-4.8zM16.8-21.6c2.7 0 4.8 2.1 4.8 4.8S19.5-12 16.8-12 12-14.1 12-16.8s2.1-4.8 4.8-4.8z" />
     </g>
     <defs>
       <path id="nose_e" d="M4.8-52.8h48v48h-48z" />
     </defs>
     <clipPath id="nose_f">
       <use overflow="visible" xlink:href="#nose_e" />
     </clipPath>
     <g class="skin_dark" clip-path="url(#nose_f)">
       <path d="M4.8-57.6c2.7 0 4.8 2.1 4.8 4.8S7.5-48 4.8-48 0-50.1 0-52.8s2.1-4.8 4.8-4.8zM4.8-33.6c2.7 0 4.8 2.1 4.8 4.8S7.5-24 4.8-24 0-26.1 0-28.8s2.1-4.8 4.8-4.8z" />
     </g>
     <g>
       <defs>
         <path id="nose_g" d="M4.8-52.8h48v48h-48z" />
       </defs>
       <clipPath id="nose_h">
         <use overflow="visible" xlink:href="#nose_g" />
       </clipPath>
       <g class="skin_dark" clip-path="url(#nose_h)">
         <path d="M28.8-9.6c2.7 0 4.8 2.1 4.8 4.8S31.5 0 28.8 0 24-2.2 24-4.8c0-2.7 2.1-4.8 4.8-4.8zM52.8-9.6c2.7 0 4.8 2.1 4.8 4.8S55.5 0 52.8 0 48-2.2 48-4.8c0-2.7 2.1-4.8 4.8-4.8z" />
       </g>
     </g>
     <g>
       <defs>
         <path id="nose_i" d="M4.8-52.8h48v48h-48z" />
       </defs>
       <clipPath id="nose_j">
         <use overflow="visible" xlink:href="#nose_i" />
       </clipPath>
       <path class="skin_dark" d="M4.8-9.6c2.7 0 4.8 2.1 4.8 4.8S7.5 0 4.8 0 0-2.2 0-4.8c0-2.7 2.1-4.8 4.8-4.8z" clip-path="url(#nose_j)" />
     </g>
   </pattern>
   <pattern id="nose_l" patternTransform="translate(28934.668 -2611.896) scale(.2222)" xlink:href="#nose_k" />
   <path fill="url(#nose_l)" d="M530.6 553.5s-5.6 2.3-12 1.8c-11.5-.6-7.1 8.3-18.6 8.3s-7.1-8.9-18.6-8.3c-6.4.5-12-1.8-12-1.8s-.3 8.1 7.9 8.1c7.4 0 12.2 11 22.8 11s15.3-11 22.8-11c8 0 7.7-8.1 7.7-8.1z" />
   <path class="skin_outline" d="M534.8 540.2c-.6-1.4-15.1-25.2-4.2-3.6 2.3 4.5 4.5 7.7 2.2 12.6-2.4 3.9-6.8 5.1-6.9 4.7-1.4-3.8-5.6-8.3-10.4-6.4-9.9 4.4-3.7 14-15.4 14.4-2.4.1-5.5-.9-7.1-3-.6-.7-.9-1.6-1.7-3.8-3.3-8.2-10.4-11.2-15.6-3.7-1.9 2.8-1.2 2.8-1.8 2.6-2.8-.9-4.8-1.9-6.5-4.8-2.3-4.9-.1-8.1 2.2-12.6 10.6-21-3.5 2.1-4.2 3.6-3.4 6.8-.3 14.7 9 16.9 2.3.5 1.6.8 2.5-1.3.8-1.7 8.2 0 11.7 1.5 4.3 11.4 19.3 10.6 23.3 0 4-1.7 11-2.9 11.7-1.5.6 1.4 0 2.4 3.7 1 8.3-2.9 10.8-10.1 7.5-16.6z" />
   <pattern id="nose_n" patternTransform="matrix(.532 .01347 -.01454 .4929 -3941.14 -4006.93)" xlink:href="#nose_m" />
   <path fill="url(#nose_n)" d="M510.4 544.2c.9-1.5-.3-3.3-2.2-3.3-12.3 0-22.2-1.4-19.5 3.3 4.6 8.1 17.1 8.1 21.7 0z" />
   <pattern id="nose_o" patternTransform="matrix(.2767 0 0 -.2564 -50036.66 894.421)" xlink:href="#nose_k" />
   <path fill="url(#nose_o)" d="M477.9 433.6c6.9 10.1 5.1-.1 5.7 54.7 7.9-16.5 6-4.6 6-54.7h-11.7z" />
   <pattern id="nose_p" patternTransform="matrix(.532 .01347 -.01454 .4929 -3941.14 -4006.93)" xlink:href="#nose_m" />
   <path fill="url(#nose_p)" d="M521.3 433.6c-6.9 10.1-5.1-.1-5.7 54.7-7.9-16.5-6-4.6-6-54.7h11.7z" />
   <g>
     <g fill="#FDF2EE">
       <path d="M530.2 522.1c-.3 0-.5-.2-.5-.5h-5.2L508.6 499H503v.5h-6.8v-.5h-5.6l-15.9 22.5h-5.2c0 .3-.2.5-.5.5s-.5-.2-.5-.5h-1c0 .8.7 1.5 1.5 1.5.4 0 .8-.2 1.1-.5h5.1l15.9-22.5h5.1v.5h6.8v-.5h5.1l15.9 22.5h5.1c.3.3.7.5 1.1.5.8 0 1.5-.7 1.5-1.5h-1c0 .3-.3.6-.5.6z" />
       <path d="M540.2 515.3c-.3 0-.5-.2-.5-.5h-14.2l-16.9-23.5H503v.5h-6.8v-.5h-5.6l-16.9 23.5h-14.2c0 .3-.2.5-.5.5s-.5-.2-.5-.5h-1c0 .8.7 1.5 1.5 1.5.4 0 .8-.2 1.1-.5h14.1l16.9-23.5h5.1v.5h6.8v-.5h5.1l16.9 23.5h14.1c.3.3.7.5 1.1.5.8 0 1.5-.7 1.5-1.5h-1c0 .3-.3.5-.5.5z" />
       <path d="M549.7 509.2c0 .3-.2.5-.5.5s-.5-.2-.5-.5h-22.3l-17.7-25.3-.1-.2H503v.4h-6.8v-.4h-5.6l-17.9 25.5h-22.3c0 .3-.2.5-.5.5s-.5-.2-.5-.5h-1c0 .8.7 1.5 1.5 1.5.4 0 .8-.2 1.1-.5h22.2l17.9-25.5h5.1v.4h6.8v-.4h5.1l17.7 25.3.1.2h22.2c.3.3.7.5 1.1.5.8 0 1.5-.7 1.5-1.5h-1z" />
       <path d="M500.5 509c-.4.3-.8.4-1.3.3-.6-.1-1-.6-1.2-1.1v-.5l-1-.1v.8c.2 1 1 1.7 1.9 1.9h.5c.6 0 1.1-.2 1.6-.6.6-.5.9-1.2.9-1.9h-1c.2.5 0 .9-.4 1.2zM499.1 476.9c.2 0 .3.1.5.1.6 0 1.1-.2 1.6-.6.6-.5.9-1.2.9-1.9h-1c0 .5-.2.9-.5 1.2-.4.3-.8.4-1.3.3-.6-.1-1-.6-1.2-1.1v-.5l-1-.1v.8c.2.8 1 1.6 2 1.8z" />
     </g>
     <g class="skin_dark">
       <path d="M530.2 519.6c-.7 0-1.2.4-1.4 1H525L509.1 498H503v-.6h-6.8v.6h-6.1l-15.9 22.5h-3.8c-.2-.6-.8-1-1.4-1-.8 0-1.5.7-1.5 1.5s.7 1.5 1.5 1.5c.7 0 1.2-.4 1.4-1h4.3l15.9-22.5h5.6v.6h6.8v-.6h5.6l15.9 22.5h4.3c.2.6.8 1 1.4 1 .8 0 1.5-.7 1.5-1.5s-.7-1.4-1.5-1.4zm-61.2 2c-.3 0-.5-.2-.5-.5s.2-.5.5-.5.5.2.5.5-.2.5-.5.5zm61.2 0c-.3 0-.5-.2-.5-.5s.2-.5.5-.5.5.2.5.5-.3.5-.5.5z" />
       <path d="M540.2 512.8c-.7 0-1.2.4-1.4 1H526l-16.9-23.5H503v-.6h-6.8v.6h-6.1l-16.9 23.5h-12.8c-.2-.6-.8-1-1.4-1-.8 0-1.5.7-1.5 1.5s.7 1.5 1.5 1.5c.7 0 1.2-.4 1.4-1h13.3l16.9-23.5h5.6v.6h6.8v-.6h5.6l16.9 23.5h13.3c.2.6.8 1 1.4 1 .8 0 1.5-.7 1.5-1.5s-.7-1.5-1.5-1.5zm-81.2 2c-.3 0-.5-.2-.5-.5s.2-.5.5-.5.5.2.5.5-.2.5-.5.5zm81.2 0c-.3 0-.5-.2-.5-.5s.2-.5.5-.5.5.2.5.5-.3.5-.5.5z" />
       <path d="M549.2 507.2c-.7 0-1.2.4-1.4 1H527l-17.7-25.3-.1-.2H503v-.7h-6.8v.7h-6.1l-17.9 25.5h-20.8c-.2-.6-.8-1-1.4-1-.8 0-1.5.7-1.5 1.5s.7 1.5 1.5 1.5c.7 0 1.2-.4 1.4-1h21.4l17.9-25.5h5.6v.4h6.8v-.4h5.6l17.7 25.3.1.2h21.4c.2.6.8 1 1.4 1 .8 0 1.5-.7 1.5-1.5s-.7-1.5-1.6-1.5zm-99.3 2c-.3 0-.5-.2-.5-.5s.2-.5.5-.5.5.2.5.5-.2.5-.5.5zm99.3 0c-.3 0-.5-.2-.5-.5s.2-.5.5-.5.5.2.5.5-.2.5-.5.5z" />
       <path d="M499.6 504.6c-1.4 0-2.5 1.1-2.5 2.5s1.1 2.5 2.5 2.5 2.5-1.1 2.5-2.5-1.1-2.5-2.5-2.5zm0 4c-.8 0-1.5-.7-1.5-1.5s.7-1.5 1.5-1.5 1.5.7 1.5 1.5-.7 1.5-1.5 1.5zM499.6 476.2c1.4 0 2.5-1.1 2.5-2.5s-1.1-2.5-2.5-2.5-2.5 1.1-2.5 2.5 1.1 2.5 2.5 2.5zm0-4c.8 0 1.5.7 1.5 1.5s-.7 1.5-1.5 1.5-1.5-.7-1.5-1.5.6-1.5 1.5-1.5z" />
     </g>
   </g>
   <pattern id="mouth_i" width="28.8" height="28.8" x="250" y="750" overflow="visible" patternUnits="userSpaceOnUse" viewBox="1.4 -30.2 28.8 28.8">
     <defs>
       <path id="mouth_a" d="M1.4-30.2h28.8v28.8H1.4z" />
     </defs>
     <clipPath id="mouth_b">
       <use overflow="visible" xlink:href="#mouth_a" />
     </clipPath>
     <g fill="#AB888A" clip-path="url(#mouth_b)">
       <path d="M30.2 0c1.9 0 1.9-2.8 0-2.8S28.3 0 30.2 0zM15.8 0c1.9 0 1.9-2.8 0-2.8S13.9 0 15.8 0zM30.2-14.4c1.9 0 1.9-2.8 0-2.8s-1.9 2.8 0 2.8zM15.8-14.4c1.9 0 1.9-2.8 0-2.8s-1.9 2.8 0 2.8zM8.6-7.2c1.9 0 1.9-2.8 0-2.8s-1.9 2.8 0 2.8zM23-7.2c1.9 0 1.9-2.8 0-2.8s-1.9 2.8 0 2.8zM8.6-21.6c1.9 0 1.9-2.8 0-2.8s-1.9 2.8 0 2.8zM23-21.6c1.9 0 1.9-2.8 0-2.8s-1.9 2.8 0 2.8z" />
     </g>
     <defs>
       <path id="mouth_c" d="M1.4-30.2h28.8v28.8H1.4z" />
     </defs>
     <clipPath id="mouth_d">
       <use overflow="visible" xlink:href="#mouth_c" />
     </clipPath>
     <g fill="#AB888A" clip-path="url(#mouth_d)">
       <path d="M1.4 0c1.9 0 1.9-2.8 0-2.8C-.4-3-.6 0 1.4 0zM1.4-14.4c1.9 0 1.9-2.8 0-2.8s-1.9 2.8 0 2.8z" />
     </g>
     <g>
       <defs>
         <path id="mouth_e" d="M1.4-30.2h28.8v28.8H1.4z" />
       </defs>
       <clipPath id="mouth_f">
         <use overflow="visible" xlink:href="#mouth_e" />
       </clipPath>
       <g fill="#AB888A" clip-path="url(#mouth_f)">
         <path d="M30.2-28.8c1.9 0 1.9-2.8 0-2.8s-1.9 2.8 0 2.8zM15.8-28.8c1.9 0 1.9-2.8 0-2.8s-1.9 2.8 0 2.8z" />
       </g>
     </g>
     <g>
       <defs>
         <path id="mouth_g" d="M1.4-30.2h28.8v28.8H1.4z" />
       </defs>
       <clipPath id="mouth_h">
         <use overflow="visible" xlink:href="#mouth_g" />
       </clipPath>
       <path fill="#AB888A" d="M1.4-28.8c1.9 0 1.9-2.8 0-2.8-1.8-.2-2 2.8 0 2.8z" clip-path="url(#mouth_h)" />
     </g>
   </pattern>
   <path fill="#241F20" d="M537.8 619.1s-6-1-10.5.7c0 0-4.2-3.2-8.8-1.3.2-10.3-15.1-3.2-19.3-7.9-.4 1.4-2.5 1.7-2.5 1.7-19.1 1.2-18.9 1.3-19.7-2.7-3.8-.1-7.2-.1-9.6.2 9.8-5.3 21.8-11.6 32.7-8.8 17.5-4.5 28.5 11.5 45.7 11.9-.1 0 .5-.6-8 6.2z" />
   <path class="skin_dark" d="M511.1 588.6c-14 2.8-9 2.7-21.4.2-18.8-3.8-44.8 23-44.7 23-1.7 1.7 36.3 3.7 52.1 13.6 56.3 35.4 57.5-13.4 57.9-13.6-10.8-10.8-28.4-26.3-43.9-23.2zm23.3 28.5s-3.9-4.5-11.2-3.3c0 0-4.7-2.4-8.8-3.4-17-.7-11.3.2-15.3-4.2-.4 1.4-2.5 3.6-2.5 3.6-19.4 1.2-18.4 1-19.7-1.7-3.8-.1-7.2 1-9.6 1.3 9.8-5.3 21.8-9.8 32.7-6.9 10.9-2.8 22.8 1.7 32.7 6.9 11.1 6.1 21.9-.1 1.7 7.7z" />
   <pattern id="mouth_j" patternTransform="matrix(.4461 0 0 .3924 -29054.688 1618.157)" xlink:href="#mouth_i" />
   <path fill="url(#mouth_j)" d="M511.1 588.6l-11.1 2.3-10.3-2.1c-4.1-.8-8.5-.4-12.3 1.2-8.1 3.5-20.9 10.4-32.3 21.8 0 0 12.5 3 22.3-2.2 9.8-5.3 21.8-9.8 32.7-6.9 10.9-2.8 22.8 1.7 32.7 6.9 9.8 5.3 22.3 2.2 22.3 2.2-10.9-11.7-24.5-19.4-32.6-22.3-3.7-1.4-7.6-1.7-11.4-.9z" />
   <path fill="#F5F2E8" d="M476.5 605.2c-.1 6.6 2.3 5.8 20.1 4.7 3.1 0 2.5-4.1 2.5-7.6-7-1.2-15.6.2-22.6 2.9z" />
   <path fill="#F5F2E8" d="M521.7 604.6c.1 7.5-2.3 6.5-20.1 5.4-3.1 0-2.5-4.1-2.5-7.6 7.1-1.3 15.7-.5 22.6 2.2z" />
   <path class="skin_outline" d="M555 611.8c.2.6-9.9 3.7-20.9-.1-3.8-1.7-20.3-10.7-32.3-7.7-3.2.7-2.3-.1-6.3-.4-15.1-1-25 7.1-33.6 9.3-7.6 1.6-17.1-.2-16.9-1.1.1-.6 7.7 1.1 16.3-1.3 7.8-2.5 18.2-11.4 34.6-10.4 12 .9-3.7.9 8.3 0 16.4-1 26.7 7.9 34.6 10.4 8.4 2.3 16.1.7 16.2 1.3z" />
   <path fill="#8C3DF6" d="M626.1 453.1c1.3.2.9 2.2-.4 2-1.3-.2-.9-2.2.4-2z" />
   <path fill="#E6C4FD" d="M611.2 472.7c-.4-.7.7-1.3 1.1-.6.4.8-.7 1.4-1.1.6zM576.5 485.4c-2 .2-2.2-2.8-.2-3 2-.1 2.2 2.9.2 3z" />
   <path fill="#8C3DF6" d="M602.3 486.6c-.4-.8.8-1.4 1.2-.6.4.8-.8 1.4-1.2.6z" />
   <path fill="#E6C4FD" d="M585.3 479c.6-2.4 4.3-1.5 3.7.9-.6 2.5-4.3 1.6-3.7-.9z" />
   <path fill="#8608EF" d="M614.2 485.5c-1.6-.2-1.1-.4-2.1.8-.3-1.6.1-1.1-1.4-1.8 1.4-.8 1.1-.3 1.2-1.9 1.2 1.1.6.9 2.2.6-.7 1.5-.7.9.1 2.3z" />
   <path fill="#5D0AF7" d="M622.3 448.7c.9.1.7 1.4-.2 1.3-.8-.2-.6-1.5.2-1.3z" />
   <path fill="#9845FA" d="M551.8 467.9c.5-.8 1.7 0 1.2.8s-1.7 0-1.2-.8z" />
   <path fill="#FFF" d="M622.2 457.4c-1 .9 1.2 1.6 1 .4-.3.2-.9 0-1-.4z" />
   <path fill="#8C3DF6" d="M618.7 455.4c.8 1.9-2.1 3.1-2.9 1.2-.8-1.9 2.1-3.1 2.9-1.2z" />
   <path fill="#9845FA" d="M608.9 478.5c-.7.3-1.3-.8-.5-1.1.8-.4 1.3.8.5 1.1z" />
   <path fill="#5D0AF7" d="M611.5 454.8c1.4.7.4 2.7-1 2.1-1.3-.7-.4-2.8 1-2.1z" />
   <path fill="#FFF" d="M624.8 480.2c-2.4-.6-1.5-4.1.9-3.6 2.3.6 1.4 4.2-.9 3.6z" />
   <path fill="#7B06F8" d="M636.7 460.1c-.5 1.8-3.2 1.1-2.7-.7.4-1.8 3.1-1.1 2.7.7zM593.1 468.1c-.1.7-1.3.5-1.1-.2.1-.7 1.2-.5 1.1.2z" />
   <path fill="#8608EF" d="M594.8 472.3c.6-.1.4 0 .7-.6.3.5.1.4.8.5-.4.5-.4.3-.2.9-.6-.2-.4-.3-.9.1 0-.7.1-.5-.4-.9z" />
   <path fill="#9845FA" d="M570.6 477.8c-.6-1.6 1.9-2.6 2.5-.9.6 1.6-1.9 2.5-2.5.9z" />
   <path fill="#FFF" d="M558.2 467.3c-2.5 0-2.4 3.8.1 3.8.6 0 1.2-.3 1.5-.8-2.2-.1-2.2-3-1.6-3z" />
   <path fill="#8C3DF6" d="M586.9 468.4c1.1.5.3 2.2-.8 1.7-1.1-.6-.3-2.3.8-1.7z" />
   <path fill="#8608EF" d="M627.8 461.8c-.5.4-.4.2-.4.8-.5-.4-.3-.3-.9-.1.2-.6.2-.4-.1-.9.6 0 .4.1.8-.4.2.6 0 .4.6.6zM606.3 482.7c0-.5.1-.4-.4-.7.5-.2.4-.1.5-.6.3.4.2.3.7.3-.3.5-.3.3-.1.8-.5-.1-.3-.2-.7.2z" />
   <path fill="#8C3DF6" d="M563.5 468.7c2.4 0 2.4 3.7 0 3.6-2.5.1-2.5-3.6 0-3.6z" />
   <path fill="#5D0AF7" d="M617.9 470.2c-.4-.7.8-1.3 1.1-.6.4.8-.7 1.3-1.1.6z" />
   <path fill="#8608EF" d="M604.7 477.1c-1.8.2-1.3-.2-2.1 1.5-.8-1.7-.2-1.3-2.1-1.6 1.3-1.3 1.1-.6.8-2.4 1.6.9.9.9 2.6 0-.3 1.9-.5 1.2.8 2.5z" />
   <path fill="#FFF" d="M619 462.4c-1 2.1 3.1 1.8 1.9-.1-.6 1.2-2.1.4-1.9.1z" />
   <path fill="#9845FA" d="M596.3 477.9c-.8.4-1.4-.7-.6-1.1.7-.4 1.3.7.6 1.1z" />
   <path fill="#8C3DF6" d="M578.4 475.7c-1.1 1.1-2.8-.5-1.7-1.6 1.1-1.2 2.8.4 1.7 1.6z" />
   <path fill="#5D0AF7" d="M614.5 478.7c-1.7-.4-1.1-2.9.6-2.5 1.6.3 1.1 2.8-.6 2.5zM603.1 464.8c.6-2.2 3.9-1.3 3.3.9-.6 2.2-3.9 1.3-3.3-.9z" />
   <path fill="#FFF" d="M637.3 466.2c-1.2-1.7-3.8.2-2.6 1.9.3.4.8.7 1.3.7-1-1.6 1-3 1.3-2.6zM587.9 487.3c-.2-1.8 2.5-2 2.7-.3.1 1.8-2.6 2.1-2.7.3z" />
   <path fill="#8608EF" d="M610.3 462.8c1.3-.7 1-.3 1.2-1.8 1.1 1 .6.9 2 .6-.7 1.4-.7.8.1 2.1-1.5-.2-1-.4-2 .7-.3-1.4 0-1-1.3-1.6z" />
   <path fill="#FFF" d="M612.5 467.3c.6 2 3.2-.6 1.3-1.2.3 1.1-1.2 1.5-1.3 1.2z" />
   <path fill="#9845FA" d="M598.2 468.1c1.4-1.3 3.3.9 1.9 2.1-1.4 1.2-3.3-.9-1.9-2.1z" />
   <path fill="#8C3DF6" d="M565.5 478.3c-1.1.1-1.3-1.5-.2-1.6 1.1-.2 1.3 1.5.2 1.6z" />
   <path fill="#7B06F8" d="M589.9 480.9c1-2.1 4.1-.5 3.1 1.5-1 2-4.1.5-3.1-1.5zM632.6 450.3c1.8 1.6-.7 4.4-2.5 2.7-1.7-1.6.7-4.3 2.5-2.7z" />
   <path fill="#FFF" d="M604.7 471.5c-.6 1.8 2.6 1.2 1.5-.2-.3.9-1.6.4-1.5.2zM569.7 470.3c-.3 1.8-3 1.4-2.8-.4.3-1.8 3-1.4 2.8.4z" />
   <path fill="#8C3DF6" d="M596.1 489.5c-2.6.4-3.2-3.5-.7-3.9 2.6-.4 3.3 3.5.7 3.9z" />
   <path fill="#FFF" d="M618.8 480.4c-.8-.6.1-1.7.8-1.2.8.5 0 1.7-.8 1.2zM597.9 463.4c-1 .6.7 1.6.8.5-.4.2-.8-.1-.8-.5z" />
   <path fill="#E6C4FD" d="M626.2 469.5c-1.6 1.9-4.5-.5-2.9-2.4s4.5.5 2.9 2.4z" />
   <path fill="#FFF" d="M570.4 484c2.1-1.6-.3-4.7-2.4-3.1-.5.4-.8 1-.8 1.6 2-1.4 3.6 1.2 3.2 1.5zM606.2 459.7c-.4 1.1 1.4-.4.2-.9-.2-.1-.4 0-.6.1.4.2.5.5.4.8z" />
   <path fill="#E6C4FD" d="M632.3 467.1c.2 1.5-2 1.8-2.2.3-.3-1.5 2-1.8 2.2-.3z" />
   <path fill="#FFF" d="M588.2 473.3c.5.5-.3 1.3-.8.8s.3-1.3.8-.8z" />
   <path fill="#E6C4FD" d="M616 450c1.2 1.1-.4 3-1.7 1.9-1.3-1.1.4-3 1.7-1.9zM582.5 471.6c.9.4.3 1.7-.6 1.3-.8-.3-.3-1.6.6-1.3zM581.3 479.9c-.8 0-.8-1.2 0-1.2s.8 1.2 0 1.2z" />
   <path fill="#8C3DF6" d="M583 486.3c-.7-.3-.3-1.4.5-1.1.7.3.2 1.4-.5 1.1z" />
   <path fill="#8608EF" d="M624.2 474c-.6-.2-.4-.3-1 .1 0-.7.1-.5-.4-.9.7-.2.5 0 .7-.7.4.6.2.5.8.5-.4.5-.3.3-.1 1z" />
   <path fill="#FFF" d="M575.3 469c.8.4.3 1.6-.6 1.3-.7-.4-.2-1.7.6-1.3z" />
   <path fill="#8C3DF6" d="M631.2 456.8c.8.3.3 1.5-.5 1.2-.8-.4-.3-1.5.5-1.2z" />
   <path fill="#5D0AF7" d="M558.2 474.6c.6-.7 1.6.2 1 .8-.5.7-1.5-.1-1-.8z" />
   <path fill="#FFF" d="M598.5 482c.3-.7 1.3-.3 1.1.4-.3.7-1.3.3-1.1-.4z" />
   <path fill="#8608EF" d="M630.7 473.8c-.4-.3-.2-.3-.7-.1.2-.5.2-.3-.1-.7.5 0 .4.1.7-.4.2.5 0 .4.5.5-.6.4-.5.2-.4.7z" />
   <pattern id="eye_i" width="48" height="48" x="250" y="750" overflow="visible" patternUnits="userSpaceOnUse" viewBox="4.8 -52.8 48 48">
     <defs>
       <path id="eye_a" d="M4.8-52.8h48v48h-48z" />
     </defs>
     <clipPath id="eye_b">
       <use overflow="visible" xlink:href="#eye_a" />
     </clipPath>
     <g class="skin_dark" clip-path="url(#eye_b)">
       <path d="M28.8-57.6c2.7 0 4.8 2.1 4.8 4.8S31.5-48 28.8-48 24-50.2 24-52.8c0-2.7 2.1-4.8 4.8-4.8zM52.8-57.6c2.7 0 4.8 2.1 4.8 4.8S55.5-48 52.8-48 48-50.2 48-52.8c0-2.7 2.1-4.8 4.8-4.8zM28.8-33.6c2.7 0 4.8 2.1 4.8 4.8S31.5-24 28.8-24 24-26.1 24-28.8s2.1-4.8 4.8-4.8zM52.8-33.6c2.7 0 4.8 2.1 4.8 4.8S55.5-24 52.8-24 48-26.1 48-28.8s2.1-4.8 4.8-4.8zM40.8-45.6c2.7 0 4.8 2.1 4.8 4.8S43.5-36 40.8-36 36-38.2 36-40.8c0-2.7 2.1-4.8 4.8-4.8zM16.8-45.6c2.7 0 4.8 2.1 4.8 4.8S19.5-36 16.8-36 12-38.2 12-40.8c0-2.7 2.1-4.8 4.8-4.8zM40.8-21.6c2.7 0 4.8 2.1 4.8 4.8S43.5-12 40.8-12 36-14.1 36-16.8s2.1-4.8 4.8-4.8zM16.8-21.6c2.7 0 4.8 2.1 4.8 4.8S19.5-12 16.8-12 12-14.1 12-16.8s2.1-4.8 4.8-4.8z" />
     </g>
     <defs>
       <path id="eye_c" d="M4.8-52.8h48v48h-48z" />
     </defs>
     <clipPath id="eye_d">
       <use overflow="visible" xlink:href="#eye_c" />
     </clipPath>
     <g class="skin_dark" clip-path="url(#eye_d)">
       <path d="M4.8-57.6c2.7 0 4.8 2.1 4.8 4.8S7.5-48 4.8-48 0-50.1 0-52.8s2.1-4.8 4.8-4.8zM4.8-33.6c2.7 0 4.8 2.1 4.8 4.8S7.5-24 4.8-24 0-26.1 0-28.8s2.1-4.8 4.8-4.8z" />
     </g>
     <g>
       <defs>
         <path id="eye_e" d="M4.8-52.8h48v48h-48z" />
       </defs>
       <clipPath id="eye_f">
         <use overflow="visible" xlink:href="#eye_e" />
       </clipPath>
       <g class="skin_dark" clip-path="url(#eye_f)">
         <path d="M28.8-9.6c2.7 0 4.8 2.1 4.8 4.8S31.5 0 28.8 0 24-2.2 24-4.8c0-2.7 2.1-4.8 4.8-4.8zM52.8-9.6c2.7 0 4.8 2.1 4.8 4.8S55.5 0 52.8 0 48-2.2 48-4.8c0-2.7 2.1-4.8 4.8-4.8z" />
       </g>
     </g>
     <g>
       <defs>
         <path id="eye_g" d="M4.8-52.8h48v48h-48z" />
       </defs>
       <clipPath id="eye_h">
         <use overflow="visible" xlink:href="#eye_g" />
       </clipPath>
       <path class="skin_dark" d="M4.8-9.6c2.7 0 4.8 2.1 4.8 4.8S7.5 0 4.8 0 0-2.2 0-4.8c0-2.7 2.1-4.8 4.8-4.8z" clip-path="url(#eye_h)" />
     </g>
   </pattern>
   <path fill="#FFF" d="M600.8 449c-1.3 6.4-7.8 13.2-19.1 15-3 .5-.8.4-22.4.4-6.5 0-11.9-2.8-13.7-7 21.4-24 45.8-17.1 55.2-8.4z" />
   <pattern id="eye_j" patternTransform="matrix(.26 0 0 -.26 -47497.586 1023.817)" xlink:href="#eye_i" />
   <path fill="url(#eye_j)" d="M635.2 412.7s-4.2 37-37 26.4c-22.7-16.2-48.1 4.2-48.1 4.2-19.8-4.1-18.9-22.4-18.9-22.4s71.4-35 104-8.2z" />
   <path class="hair_brow" d="M531.2 420.9s42.4-15.5 79.2-15.5c12.3 0 24.7 7.3 24.7 7.3s-2.7-23.8-23.6-23.8c-17.7 0-54.8 12.9-67.3 17.5-6.9 2.5-11.5 8-13 14.5z" />
   <path class="eye_iris" d="M554.1 463.7c2.8.8 4.9.7 7 .7-4.3-4.8-4.9-12.9-1-18.7-2.4 1.3-4.7 2.8-7.1 4.7-1 4.4-.7 9.2 1.1 13.3zM587.3 462.6c4.5-1.6 8-4.1 10.3-6.9.5-3.2.3-6.4-.6-9.6-2.7-1.7-6-3.1-9.8-4.1 4.6 5.2 6.1 14.2.1 20.6z" />
   <path class="eye_iris" d="M578.6 461.5c-10.7 6.1-19.3-6.7-12.9-13.6 7.3-8.2 18.6 4.4 10.2 9.3-4.7 2.7-10.6-1.3-7.9-6.1 2.1-3.7 7.7-2.1 7.7 1.7.4-7.5-10.8-5.9-9.5 1.8.9 5.7 10.3 7 13.5.9 5.7-10.8-13.8-18.6-18-5.6-1.9 5.8.6 11.6 5.2 14.4 10.7 0 12.2 0 13.6-.2 8.2-4.5 9.3-15.9 2.9-22.9-2.3-.3-4.7-.4-7.2-.3 8.5 3.7 10.7 15.9 2.4 20.6z" />
   <path d="M575.7 452.9c0-1-.3-1.7-.9-2.2.5.5.8 1.2.9 2.2z" />
   <path d="M569.2 452.9c0-4.3 6.5-4.3 6.5 0s-6.5 4.3-6.5 0z" />
   <g>
     <path class="skin_outline" d="M598.2 439.1c.4-.6-15.7-13.8-37.3-3.2-8.4 4.1-13.9 10.2-13.4 10.6.6.6 10.4-9 24.4-11.6 15.4-2.9 25.7 5.2 26.3 4.2z" />
   </g>
   <path fill="#241F20" d="M615.4 444.5c-49.6-20.5-72.2 12.8-69.8 12.8 0 0 26-30.3 55.2-8.3 0 0-.9 4.4-4.8 8.3-4.5 4.5-9.3 5.1-15 5.6-22.1.3-24.4 1.1-29.2-.7-3-1.2-6.7-4.7-4.1-1.5 2.4 2.8 6.6 4.2 10.4 4.6 27.2 2.1 35.1.4 45.4-7.9 5.8-4.8 12.4-12.7 11.9-12.9z" />
   <g>
     <path fill="#FFF" d="M399.1 449.2c1.3 6.4 7.8 13.2 19.1 15 3 .5.8.4 22.4.4 6.5 0 11.9-2.8 13.7-7-21.3-24-45.7-17.1-55.2-8.4z" />
     <pattern id="eye_k" patternTransform="rotate(180 15566.712 511.998) scale(.26)" xlink:href="#eye_i" />
     <path fill="url(#eye_k)" d="M364.8 412.9s4.2 37 37 26.4c22.7-16.2 48.1 4.2 48.1 4.2 19.8-4.1 18.9-22.4 18.9-22.4s-71.4-35-104-8.2z" />
     <path class="hair_brow" d="M468.8 421s-42.4-15.5-79.2-15.5c-12.3 0-24.7 7.3-24.7 7.3s2.7-23.8 23.6-23.8c17.7 0 54.8 12.9 67.3 17.5 6.9 2.6 11.5 8.1 13 14.5z" />
     <path class="eye_iris" d="M445.9 463.9c-2.8.8-4.9.7-7 .7 4.3-4.8 4.9-12.9 1-18.7 2.4 1.3 4.7 2.8 7.1 4.7 1 4.4.7 9.2-1.1 13.3zM412.7 462.8c-4.5-1.6-8-4.1-10.3-6.9-.5-3.2-.3-6.4.6-9.6 2.7-1.7 6-3.1 9.8-4.1-4.6 5.2-6.1 14.1-.1 20.6z" />
     <path class="eye_iris" d="M421.4 461.7c10.7 6.1 19.3-6.7 12.9-13.6-7.3-8.2-18.6 4.4-10.2 9.3 4.7 2.7 10.6-1.3 7.9-6.1-2.1-3.7-7.7-2.1-7.7 1.7-.4-7.5 10.8-5.9 9.5 1.8-.9 5.7-10.3 7-13.5.9-5.7-10.8 13.8-18.6 18-5.6 1.9 5.8-.6 11.6-5.2 14.4-10.7 0-12.2 0-13.6-.2-8.2-4.5-9.3-15.9-2.9-22.9 2.3-.3 4.7-.4 7.2-.3-8.5 3.7-10.7 15.9-2.4 20.6z" />
     <path d="M424.3 453c0-1 .3-1.7.9-2.2-.5.6-.8 1.3-.9 2.2z" />
     <path d="M430.8 453c0-4.3-6.5-4.3-6.5 0s6.5 4.3 6.5 0z" />
     <g>
       <path class="skin_outline" d="M401.8 439.3c-.4-.6 15.7-13.8 37.3-3.2 8.4 4.1 13.9 10.2 13.4 10.6-.6.6-10.4-9-24.4-11.6-15.4-3-25.7 5.2-26.3 4.2z" />
     </g>
     <path fill="#241F20" d="M384.6 444.7c49.6-20.5 72.2 12.8 69.8 12.8 0 0-26-30.3-55.2-8.3 0 0 .9 4.4 4.8 8.3 4.5 4.5 9.3 5.1 15 5.6 22.1.3 24.4 1.1 29.2-.7 3-1.2 6.7-4.7 4.1-1.5-2.4 2.8-6.6 4.2-10.4 4.6-27.2 2.1-35.1.4-45.4-7.9-5.8-4.8-12.4-12.7-11.9-12.9z" />
   </g>
   <pattern id="hair_e" width="28.8" height="28.8" x="250" y="750" overflow="visible" patternUnits="userSpaceOnUse" viewBox="1.4 -30.2 28.8 28.8">
     <defs>
       <path id="hair_a" d="M1.4-30.2h28.8v28.8H1.4z" />
     </defs>
     <clipPath id="hair_b">
       <use overflow="visible" xlink:href="#hair_a" />
     </clipPath>
     <g clip-path="url(#hair_b)">
       <g fill="#FFF">
         <path d="M30.2 0c.8 0 1.4-.6 1.4-1.4s-.6-1.4-1.4-1.4-1.4.6-1.4 1.4c0 .8.6 1.4 1.4 1.4zM15.8 0c.8 0 1.4-.6 1.4-1.4s-.6-1.4-1.4-1.4c-.8 0-1.4.6-1.4 1.4 0 .8.6 1.4 1.4 1.4zM30.2-14.4c.8 0 1.4-.6 1.4-1.4s-.6-1.4-1.4-1.4-1.4.6-1.4 1.4c0 .8.6 1.4 1.4 1.4zM15.8-14.4c.8 0 1.4-.6 1.4-1.4s-.6-1.4-1.4-1.4c-.8 0-1.4.6-1.4 1.4 0 .8.6 1.4 1.4 1.4zM8.6-7.2c.8 0 1.4-.6 1.4-1.4S9.4-10 8.6-10c-.8 0-1.4.6-1.4 1.4 0 .8.6 1.4 1.4 1.4zM23-7.2c.8 0 1.4-.6 1.4-1.4S23.8-10 23-10s-1.4.6-1.4 1.4.6 1.4 1.4 1.4zM8.6-21.6c.8 0 1.4-.6 1.4-1.4s-.6-1.4-1.4-1.4c-.8 0-1.4.6-1.4 1.4 0 .8.6 1.4 1.4 1.4zM23-21.6c.8 0 1.4-.6 1.4-1.4s-.6-1.4-1.4-1.4-1.4.6-1.4 1.4c0 .8.6 1.4 1.4 1.4z" />
       </g>
       <g fill="#FFF">
         <path d="M1.4 0c.8 0 1.4-.6 1.4-1.4s-.6-1.4-1.4-1.4C.6-2.9 0-2.2 0-1.4 0-.6.6 0 1.4 0zM1.4-14.4c.8 0 1.4-.6 1.4-1.4s-.6-1.4-1.4-1.4-1.4.6-1.4 1.4.6 1.4 1.4 1.4z" />
       </g>
       <g fill="#FFF">
         <path d="M30.2-28.8c.8 0 1.4-.6 1.4-1.4s-.6-1.4-1.4-1.4-1.4.6-1.4 1.4c0 .8.6 1.4 1.4 1.4zM15.8-28.8c.8 0 1.4-.6 1.4-1.4s-.6-1.4-1.4-1.4-1.4.6-1.4 1.4c0 .8.6 1.4 1.4 1.4z" />
       </g>
       <path fill="#FFF" d="M1.4-28.8c.8 0 1.4-.6 1.4-1.4s-.6-1.4-1.4-1.4C.6-31.7 0-31 0-30.2c0 .8.6 1.4 1.4 1.4z" />
     </g>
   </pattern>
   <pattern id="hair_l" width="28.8" height="28.8" x="250" y="750" overflow="visible" patternUnits="userSpaceOnUse" viewBox="1.4 -30.2 28.8 28.8">
     <defs>
       <path id="hair_c" d="M1.4-30.2h28.8v28.8H1.4z" />
     </defs>
     <clipPath id="hair_d">
       <use overflow="visible" xlink:href="#hair_c" />
     </clipPath>
     <g class="hair_shadow" clip-path="url(#hair_d)">
       <path d="M30.2 0c.8 0 1.4-.6 1.4-1.4s-.6-1.4-1.4-1.4-1.4.6-1.4 1.4c0 .8.6 1.4 1.4 1.4zM15.8 0c.8 0 1.4-.6 1.4-1.4s-.6-1.4-1.4-1.4c-.8 0-1.4.6-1.4 1.4 0 .8.6 1.4 1.4 1.4zM30.2-14.4c.8 0 1.4-.6 1.4-1.4s-.6-1.4-1.4-1.4-1.4.6-1.4 1.4c0 .8.6 1.4 1.4 1.4zM15.8-14.4c.8 0 1.4-.6 1.4-1.4s-.6-1.4-1.4-1.4c-.8 0-1.4.6-1.4 1.4 0 .8.6 1.4 1.4 1.4zM8.6-7.2c.8 0 1.4-.6 1.4-1.4S9.4-10 8.6-10c-.8 0-1.4.6-1.4 1.4 0 .8.6 1.4 1.4 1.4zM23-7.2c.8 0 1.4-.6 1.4-1.4S23.8-10 23-10s-1.4.6-1.4 1.4.6 1.4 1.4 1.4zM8.6-21.6c.8 0 1.4-.6 1.4-1.4s-.6-1.4-1.4-1.4c-.8 0-1.4.6-1.4 1.4 0 .8.6 1.4 1.4 1.4zM23-21.6c.8 0 1.4-.6 1.4-1.4s-.6-1.4-1.4-1.4-1.4.6-1.4 1.4c0 .8.6 1.4 1.4 1.4z" />
       <g>
         <path d="M1.4 0c.8 0 1.4-.6 1.4-1.4s-.6-1.4-1.4-1.4C.6-2.9 0-2.2 0-1.4 0-.6.6 0 1.4 0zM1.4-14.4c.8 0 1.4-.6 1.4-1.4s-.6-1.4-1.4-1.4-1.4.6-1.4 1.4.6 1.4 1.4 1.4z" />
       </g>
       <g>
         <path d="M30.2-28.8c.8 0 1.4-.6 1.4-1.4s-.6-1.4-1.4-1.4-1.4.6-1.4 1.4c0 .8.6 1.4 1.4 1.4zM15.8-28.8c.8 0 1.4-.6 1.4-1.4s-.6-1.4-1.4-1.4-1.4.6-1.4 1.4c0 .8.6 1.4 1.4 1.4z" />
       </g>
       <path d="M1.4-28.8c.8 0 1.4-.6 1.4-1.4s-.6-1.4-1.4-1.4C.6-31.7 0-31 0-30.2c0 .8.6 1.4 1.4 1.4z" />
     </g>
   </pattern>
   <path class="hair_fill" d="M552 82.7c29.7 10.4 39.1 32.7 41 31.5 1.2-.8-13.1-25.5-39.9-34.9-26.8-8.4-50.7 3.5-50.2 4.5.6 1.5 20.2-9.4 49.1-1.1zM702.4 890.2c-.9.3 2.3 7.7 3.8 18.5-9.8 3.4-95.5 28.6-41.7-145.9 17.5-56.9 27.2-96.5 28.3-140.6 2 107.3-25.2 161.4-23 162.3 1.6.6 39.8-88.2 21.6-222.2-3.5-25.6-3.7-19.7-11.2-58.8l-12.7 29.3c-3.1 7-11.7 9.5-18.1 5.3 5.5-28.7 11-75.6 10.1-110.5l10.3-14.6s7.5-20.6 11.9-49c1.5 0 20.5-52.3-7.5-102.1-13.6-23.6-30.2-35-30.7-34.3 0 0 2.4-44.7-56.8-66.6-22.3-53.2-151.3-53.2-173.6 0-5.3 2-10.1 4.3-14.5 6.7-.2-.6-10.4 1.1-22.8 9.5-25.3 17.3-21.5 50.8-19.5 50.4-14 10.8-17.3 18.7-21.7 21.9-18 15.9-20.7 41.4-20 57.5-6.1 25.6-7.4 66.2 9.5 86.4 2.4 9.1 4.5 15.6 5.4 18.3 3.6 65 9.4 137.2 6.7 296.2 6.8-68.7 7.7-155.4 7.3-217 7.1 66.2 23.2 127 23.8 126.8 7.2-1.6-68.5-228.1 15.6-314.5 0 3.2 41-7.8 41.4-27.9 27.6 3.2 38.5-6.8 38.5-6.8 22.3 14.7 51.7 14.7 73.9 0 0 0 11 10 38.9 6.8-2 .8 11.4 21.3 36.9 24.7 48.4 50.5 48.8 125.7 38.9 201-7.7 59.2-19.3 108.4-18 108.7 1.7.4 12.9-56.3 15.7-70.5-.1 11-3.2 101.8-69.6 179.8-14.5 17-25.4 34.6-33.4 52.2-44.2 85-27.1 149.5-26.1 149.3 3.3-.6-11.8-43.3 13.6-112.8-19.1 78.5 12 149.8 36.3 162.6 60 71 99.9-11 99.9-11-.1.6 6.8 2.2 14 .3 15.6-4 25.5-18.7 26.4-34.9 1.1-18.7-7.1-34.8-7.8-34.5zm-19.7-532.3c3.3-25.1 3.7-55.3-5.5-82.4 15 36.8 8.3 69.3 5.5 82.4zm-367.2-41.8c-1.4 26.9 3 53.1 7.4 71.4-10.6-19.3-9.8-49.5-7.4-71.4zm3.2-25.6c2.4-17.4 7.9-28 12.9-34.5-6.2 10.8-10.3 22.5-12.9 34.5zm38.2-68.2c1.2-24.8 12.1-41.3 38.5-52.8-29.8 17.7-36.8 42.2-38.5 52.8zm50.1 71.2c-10.6 6.2-21.5 8.2-23.6 9.3 5.3-5.4 9-7.8 9-7.8 25.6-3.8 30.8-19.9 31.9-19.7-.8 1-5.8 11.6-17.3 18.2zm187.6-2.2c11.7 5.1 10.6 1.3 15.4 5.8-6-1.4-11.1-3.5-15.4-5.8z" />
   <path class="hair_outline" d="M463 268.4c-.5 2.1-48.4-6.2-53.2-67.5-2-20.8 2.1-40.3 3.4-40 1.1.2-1.2 19.2 1.4 39.5 7.1 62.3 49.4 64.3 48.4 68zM424.2 275.2c-.1.9-22.4.1-41.8-12.8-20.7-13.9-27.5-34.5-25.9-34.9 1.1-.3 6.3 17.4 27.9 32 20.5 13.6 40 13.9 39.8 15.7zM392.4 294.9c.3 1.5-26 11.1-52.1-6.6-11-7.6-16.8-17-15.7-17.7.9-.7 6.7 6.6 18.3 13.7 27.2 16 48.9 7.8 49.5 10.6zM355.3 345.6c.6 1.1-15.5 12.1-32-4.4-5.7-5.6-8.9-12.4-8.1-12.8.7-.4 4.6 5.4 10.3 10.4 17 15.1 28.9 5 29.8 6.8zM344.8 378.1c1.3 1-8 13.5-19.7 1.5-3.5-3.6-5.5-8.1-4.8-8.5 1-.6 5.6 6.3 11.5 9.3 7.5 3.5 12-3.3 13-2.3zM537 268.4c-.6-2.4 42.6-6.6 49.2-67.9 2.6-20.9-.1-39.4.6-39.6.9-.2 4.7 19 2.6 39.9-5.1 59.5-51.9 69.6-52.4 67.6zM575.8 275.2c-.3-2.3 37.9-2.8 61.2-36.8 4.3-6.5 6.1-11 6.6-10.9 1.2.3-7 32.7-48.5 45.1-2 .5-19.1 4.3-19.3 2.6zM607.6 294.9c.5-2.5 22.9 5.1 49.5-10.6 11.7-7.1 17.4-14.3 18.3-13.7 1 .6-4.2 9.8-15.7 17.7-26.1 17.6-52.5 8.1-52.1 6.6zM646.3 347.8c.9-1.8 12.8 8.5 29-8.2 5.2-5.4 8.8-11.5 9.5-11.2 2.7 1.2-16.6 34.6-37.1 20.8-1-.7-1.5-1.2-1.4-1.4zM654.5 378c1.1-1.4 6.6 2.9 13.2.4 6-2.2 10.5-8.2 11.9-7.4 2.3 1.3-5.6 15-17 13-5.5-.9-8.8-5.1-8.1-6zM636.4 266.5c-.5-1.6 13.3-5.2 22.2-16.8 1.8-2.3 2.6-4 3.1-3.9 2.2.4-3.3 15.3-20.2 20.2-3 .8-4.9 1-5.1.5zM675.4 317.1c.3.7-4.7 2.6-6 3-19.5 7-38.6-.5-37.8-2.2.2-.4 2.6.2 6.5.7 21 3.4 36.7-3.2 37.3-1.5zM401.3 231.5c-.7 1.4-23.5-9-18-38 .9-4.7 2.2-7.4 2.7-7.3.5.1 0 3-.2 7.6-1.7 32.4 17 35.1 15.5 37.7zM347.9 310.9c.8-2.2 20.6 4.9 19.8 7.1-.8 2.2-20.6-4.9-19.8-7.1zM474.9 231.5c-.6.5-22.4-24.1-15.7-67.8 2.4-16.2 8.7-30.2 9.6-29.7 1 .4-8.3 22.6-7.3 49.6.9 31.6 14.9 47 13.4 47.9zM554.6 201.1c1.5 0 3 29.8-17.9 57.6-17.4 23-34 22.2-34 20.6 0-.9 4.4-.5 12.8-6.2 33.4-23.1 37.3-72.1 39.1-72z" />
   <pattern id="hair_f" patternTransform="matrix(-.4108 0 0 .4108 38890.121 9077.196)" xlink:href="#hair_e" />
   <path fill="url(#hair_f)" d="M429.9 155.5s-25.5 69.8 39.3 94.3c0 0-30.7-38.6-15.5-111.8 0 0-19.9 29.8-16.4 64.8-.1 0-9.5-10.1-7.4-47.3z" />
   <pattern id="hair_g" patternTransform="matrix(-.4108 0 0 .4108 38890.121 9077.196)" xlink:href="#hair_e" />
   <path fill="url(#hair_g)" d="M490 235.7l32.4-32.6s4.9 10.1-5.7 40.5c0 0 31.5-17.5 24.6-96.9L487 201.1s-1.2-30.1.2-54.3c0 0-24.2 45.1 2.8 88.9z" />
   <pattern id="hair_h" patternTransform="matrix(-.4108 0 0 .4108 38890.121 9077.196)" xlink:href="#hair_e" />
   <path fill="url(#hair_h)" d="M601.8 198s23.9 5.6 25.6 29.4c0 0-25.6 26-58 25.2 0 0 29-10.4 38.2-23.4 0 0 2.1-6.5-7.6-12.1-.1.1 2.9-9.4 1.8-19.1z" />
   <pattern id="hair_i" patternTransform="matrix(-.4108 0 0 .4108 38890.121 9077.196)" xlink:href="#hair_e" />
   <path fill="url(#hair_i)" d="M667.9 287.8s7.5 9 5.4 24.2c0 0-20.3.6-34.4-9 0 0 11.3 4 22.8-3.1-15.4.4-22.2-5.6-22.2-5.6s22.2 3.7 28.4-6.5z" />
   <pattern id="hair_j" patternTransform="matrix(-.4108 0 0 .4108 38890.121 9077.196)" xlink:href="#hair_e" />
   <path fill="url(#hair_j)" d="M349.5 245.8s15.1 25.5 48.5 20.7c0 0-16.7 24.1-57.5-.4 0 0 14.7 6.3 23.6 2.5 0 .1-4.6-3.2-14.6-22.8z" />
   <pattern id="hair_k" patternTransform="matrix(-.4108 0 0 .4108 38890.121 9077.196)" xlink:href="#hair_e" />
   <path fill="url(#hair_k)" d="M326.7 290.1s13.2 13.5 34.4 6.8l-29 11.3s5.4 13.2 19.4 14.1l-3.6 9s-20.8 6-30.8-9.5c32.5 2.1-1.3 6.4 9.6-31.7z" />
   <path class="hair_fill" d="M533.8 83.9c-34.6-11.8-51.5 11-51.5 11-27.6 7.7-23.7 33.2-23.7 33.2 51.1-7.1 106.5 10 106.5 10 13.2-30.1 27.8-23.8 27.8-23.8-20.7-33.8-59.1-30.4-59.1-30.4z" />
   <path class="hair_outline" d="M458.4 126.8c-.8-2.1 52.4-18.7 103.1 8.9 11.5 6.3-7.6-1.5-8.2-1.7-19.4-6.4-33.7-10.8-61.8-10.8-12.9-.3-33 3.9-33.1 3.6z" />
   <pattern id="hair_m" patternTransform="translate(-74329.094 23542.037) scale(.3974)" xlink:href="#hair_l" />
   <path fill="url(#hair_m)" d="M593.6 762.8c76.8-102.8 70.5-225 70.5-225-1.2 3.1-14.8 2.9-14.8.1 0 0 1.2 97.7-69.6 180.9-46.7 54.9-61 122.5-46.8 184.6 10-18.4-20-32.5 60.7-140.6z" />
   <path class="hair_outline" d="M586.8 160.9s6.2 2.4 10.9 4.6c7.6-32.5-4.7-51.2-4.7-51.2s-14-6.9-27.8 23.8c14.5 8.7 21.6 22.8 21.6 22.8z" />
   <pattern id="hair_n" patternTransform="translate(-74329.18 23542.037) scale(.3974)" xlink:href="#hair_l" />
   <path fill="url(#hair_n)" d="M586.8 160.9s6.2 2.4 10.9 4.6c7.6-32.5-4.7-51.2-4.7-51.2s-14-6.9-27.8 23.8c14.5 8.7 21.6 22.8 21.6 22.8z" />
   <path class="hair_outline" d="M482.3 94.8c.7.7-3.4 4.9-7.3 14.1-2.3 5.5-7.6 23.9-6.2 10 1.6-15.6 12.4-25.2 13.5-24.1zM534.2 118.9c-2.1-.7 5.3-26.9 27.7-28.6 11.7-.8 17.7 6.6 16.6 7.5-.8.7-5.9-4.2-16.1-2.7-19.6 3.1-25.9 24.6-28.2 23.8zM515.9 113.6c-.9-.1-.9-8.9 4-17.9 5.2-9.6 13.5-13 13.9-11.8.4.9-5.8 4.2-10.9 13.5-4.5 8.4-5.9 16.4-7 16.2z" />
   <pattern id="hair_o" patternTransform="matrix(-.4108 0 0 .4108 38890.121 9077.196)" xlink:href="#hair_e" />
   <path fill="url(#hair_o)" d="M484.4 101.7s8.1-15.4 34.1-12.4c0 0-7.4 8-13.2 24.3 0 0-12.1-6.2-24.8 1.6l3.9-13.5z" />
   <path class="hair_outline" d="M570 970.3c-.7.1-4.6-14.4-3.3-33.2 4.1-57.9 49.4-101.4 95.9-188.3 13-25.4.1 12.2-30.1 61.1-29.9 48.7-54 78.6-62 124.5-3.3 29.5 1.2 35.6-.5 35.9zM650.2 821.1c2.1.6-10.9 38.9-11.3 75.3-.9 54.9 31.5 61.4 31 63-.4 1.3-37.1-5.4-36.2-63 .4-36.4 15.2-75.8 16.5-75.3zM656.3 680.3c-1.9-.7 17-41.8 19.8-98.3 1.6-32.8-5.1-53.8-4.5-54.1 1-.4 8.9 21.5 7.8 54.2-1.9 52.9-22.1 98.6-23.1 98.2z" />
   <pattern id="hair_p" patternTransform="matrix(-.4108 0 0 .4108 38890.121 9077.196)" xlink:href="#hair_e" />
   <path fill="url(#hair_p)" d="M598.9 781.1c-45 45-41.5 109.1-41.5 109.1s14.7-52.7 34.3-72.1l-8.1 32.7s65.8-83.8 84-156.6c0 0-22.3 40.5-68.7 86.9z" />
   <pattern id="hair_q" patternTransform="matrix(-.4108 0 0 .4108 38898.004 9077.196)" xlink:href="#hair_e" />
   <path fill="url(#hair_q)" d="M654.4 966.8c-36.2 23.2-83.7-31.9-34.4-104.6 0 0-29 94.8 34.4 104.6z" />
 </svg>