<svg xmlns="http://www.w3.org/2000/svg" xmlns:xlink="http://www.w3.org/1999/xlink" version="1.1" height="1000px" width="1000px" viewBox="0 0 1000 1000"><style type="text/css">.skin_fill{fill:#E0AB8B;} .skin_outline{fill:#644747;} .skin_dark{fill:#BF806A;} .skin_halftone{fill:#896451;} .skin_freckles{fill:#BB8A70;} </style><style type="text/css">.hair_fill{fill:#B7A69E;} .hair_outline{fill:#998B85;} .hair_shadow{fill:#736965;} .hair_brow{fill:#AD9D96;} </style><style type="text/css">.eye_iris{fill:#FBCCE7;} </style><style type="text/css">.bg_color{fill:#F6D047;} .bg_stop_1{stop-color:#F6D047;} .bg_stroke_1{stroke:#F6D047;} .bg_shape{fill:#4ECF99;} .bg_stop_2{stop-color:#4ECF99;} .bg_stroke_2{stroke:#4ECF99;} .bg_halftone{fill:#F7374D;} .bg_stop_3{stop-color:#F7374D;} .bg_stroke_3{stroke:#F7374D;} </style><pattern id="backdrop_e" width="28.8" height="28.8" y="1000" overflow="visible" patternUnits="userSpaceOnUse" viewBox="1.4 -30.2 28.8 28.8"><defs><path id="backdrop_a" d="M1.4-30.2h28.8v28.8H1.4z"/></defs><clipPath id="backdrop_b"><use overflow="visible" xlink:href="#backdrop_a"/></clipPath><g class="bg_halftone" clip-path="url(#backdrop_b)"><path d="M30.2 0c.8 0 1.4-.6 1.4-1.4s-.6-1.4-1.4-1.4-1.4.6-1.4 1.4c0 .8.6 1.4 1.4 1.4zM15.8 0c.8 0 1.4-.6 1.4-1.4s-.6-1.4-1.4-1.4c-.8 0-1.4.6-1.4 1.4 0 .8.6 1.4 1.4 1.4zM30.2-14.4c.8 0 1.4-.6 1.4-1.4s-.6-1.4-1.4-1.4-1.4.6-1.4 1.4c0 .8.6 1.4 1.4 1.4zM15.8-14.4c.8 0 1.4-.6 1.4-1.4s-.6-1.4-1.4-1.4c-.8 0-1.4.6-1.4 1.4 0 .8.6 1.4 1.4 1.4zM8.6-7.2c.8 0 1.4-.6 1.4-1.4S9.4-10 8.6-10c-.8 0-1.4.6-1.4 1.4 0 .8.6 1.4 1.4 1.4zM23-7.2c.8 0 1.4-.6 1.4-1.4S23.8-10 23-10s-1.4.6-1.4 1.4.6 1.4 1.4 1.4zM8.6-21.6c.8 0 1.4-.6 1.4-1.4s-.6-1.4-1.4-1.4c-.8 0-1.4.6-1.4 1.4 0 .8.6 1.4 1.4 1.4zM23-21.6c.8 0 1.4-.6 1.4-1.4s-.6-1.4-1.4-1.4-1.4.6-1.4 1.4c0 .8.6 1.4 1.4 1.4z"/><g><path d="M1.4 0c.8 0 1.4-.6 1.4-1.4s-.6-1.4-1.4-1.4C.6-2.9 0-2.2 0-1.4 0-.6.6 0 1.4 0zM1.4-14.4c.8 0 1.4-.6 1.4-1.4s-.6-1.4-1.4-1.4-1.4.6-1.4 1.4.6 1.4 1.4 1.4z"/></g><g><path d="M30.2-28.8c.8 0 1.4-.6 1.4-1.4s-.6-1.4-1.4-1.4-1.4.6-1.4 1.4c0 .8.6 1.4 1.4 1.4zM15.8-28.8c.8 0 1.4-.6 1.4-1.4s-.6-1.4-1.4-1.4-1.4.6-1.4 1.4c0 .8.6 1.4 1.4 1.4z"/></g><path d="M1.4-28.8c.8 0 1.4-.6 1.4-1.4s-.6-1.4-1.4-1.4C.6-31.7 0-31 0-30.2c0 .8.6 1.4 1.4 1.4z"/></g></pattern><defs><path id="backdrop_c" d="M0 0h1000v1000H0z"/></defs><use class="bg_color" overflow="visible" xlink:href="#backdrop_c"/><clipPath id="backdrop_d"><use overflow="visible" xlink:href="#backdrop_c"/></clipPath><path class="bg_shape" d="M223.9 906.6l27.5-178.1-133.3 32.2z" clip-path="url(#backdrop_d)"/><g class="bg_halftone" clip-path="url(#backdrop_d)"><path d="M924.7 894.3c-21.1-8.3-21.7-7.8-21.5-10.4l1.1-17.4c.2-2.6-3.1-3.8-4.7-1.8-11.2 13.8-11.5 15.2-14 14.3l-19.9-7.8c-1.2-.5-2.3.9-1.6 1.9 12.3 19.5 12.9 19.2 11.3 21.2l-11 13.5c-1.6 2 .3 4.9 2.7 4.2 18.6-5 18.4-5.3 19.1-4.1l9.8 15.4c1.4 2.2 4.7 1.3 4.9-1.3 1.2-18.7.6-19.2 3-19.8l20.7-5.5c1.2-.2 1.3-2 .1-2.4z"/><path d="M851.7 925.6c-18.7 16-25.5 27.5 18.8-33.7-13.9-20-22-41.7-23.2-66.4l-2.2-44.3c-.2-4.6-5.8-6.7-9-3.5-31.1 31.2-29.9 18.7 3.9 74.3-32.6-39.1-34.3-44.6-39.9-39.1l-44.8 43.8c-2.9 2.8-1.7 7.6 2.1 8.8l67 21.3c-47.6-7.8-79.6-19.6-108.8 8.8l-4.4 4.2c-2.8 2.7-1.8 7.3 1.8 8.7 42.4 16.6 47.5 20.9 59.5 16.3l76.9-29.3-59.8 33.7c-3.9 2.2-3.5 7.9.7 9.5l56.4 22c3.6 1.4 7.5-1.4 7.2-5.3l-2.2-29.8z"/></g><path fill="none" class="bg_stroke_3" stroke-miterlimit="10" d="M32.7 747.5s121.3 165 161.9 139.6-36.4-92.8 9.1-107.9C234.1 769 322 872.1 318 768.7S318 504 497.4 548s211.3-126.7 259.4-112.2c81.6 24.6-101.5 240-42.9 266.9 58.6 26.9 107.3-85.9 120-27.6s74.3 55.1 133.2-60.9" clip-path="url(#backdrop_d)"/><pattern id="backdrop_f" patternTransform="rotate(-25.614 -7650.025 -8708.47)" xlink:href="#backdrop_e"/><path fill="url(#backdrop_f)" d="M206 1030.5l-114.2 54.8-54.7-114.2 114.1-54.8z" clip-path="url(#backdrop_d)"/><g clip-path="url(#backdrop_d)"><path class="bg_shape" d="M128 415.8c4.1 16.3-62.2 33-66.3 16.7-4.1-16.3 62.2-33 66.3-16.7zM185.5 643.6c4.1 16.3-62.2 33-66.3 16.7-4.1-16.2 62.2-33 66.3-16.7z"/><path fill="none" class="bg_stroke_3" stroke-miterlimit="10" d="M118.5 657.7L61.7 432.5M128 415.8L184.9 641"/></g><g clip-path="url(#backdrop_d)"><path class="bg_shape" d="M410.8-122.3c15.2 7-13.3 69.2-28.6 62.2-15.2-7.1 13.3-69.3 28.6-62.2zM624.3-24.2c15.2 7-13.3 69.2-28.6 62.2-15.2-7 13.3-69.2 28.6-62.2z"/><path fill="none" class="bg_stroke_3" stroke-miterlimit="10" d="M593.2 36.8l-211-97M410.8-122.3l211 97"/></g><circle cx="156.4" cy="110.7" r="28.4" class="bg_halftone" clip-path="url(#backdrop_d)"/><path fill="none" class="bg_stroke_3" stroke-miterlimit="10" d="M70.9 69.6c0 13.2-20 13.2-20 0s20-13.2 20 0zM604.4 926.9c0 24.6-37.2 24.6-37.2 0-.1-24.6 37.2-24.6 37.2 0z" clip-path="url(#backdrop_d)"/><g clip-path="url(#backdrop_d)"><path class="bg_shape" d="M758.84 160.235l114.155-54.729 54.73 114.155-114.156 54.73z"/><pattern id="backdrop_g" patternTransform="rotate(-25.614 -7650.025 -8708.47)" xlink:href="#backdrop_e"/><path fill="url(#backdrop_g)" d="M948.8 176.3l-21 43.3-54.7-114.2 21-43.3z"/><path fill="none" class="bg_stroke_3" stroke-miterlimit="10" d="M894.1 62.1l-21 43.3-114.2 54.8 21-43.4z"/></g><path fill="none" class="bg_stroke_3" stroke-miterlimit="10" d="M160 295.1L48.5 199.9c26.3-30.8 72.6-34.4 103.4-8.1s34.4 72.5 8.1 103.3z" clip-path="url(#backdrop_d)"/><circle cx="894.1" cy="456.8" r="40" fill="none" class="bg_stroke_3" stroke-miterlimit="10" clip-path="url(#backdrop_d)"/><pattern id="ear_i" width="48" height="48" x="250" y="750" overflow="visible" patternUnits="userSpaceOnUse" viewBox="4.8 -52.8 48 48"><defs><path id="ear_a" d="M4.8-52.8h48v48h-48z"/></defs><clipPath id="ear_b"><use overflow="visible" xlink:href="#ear_a"/></clipPath><g class="skin_dark" clip-path="url(#ear_b)"><path d="M28.8-57.6c2.7 0 4.8 2.1 4.8 4.8S31.5-48 28.8-48 24-50.2 24-52.8c0-2.7 2.1-4.8 4.8-4.8zM52.8-57.6c2.7 0 4.8 2.1 4.8 4.8S55.5-48 52.8-48 48-50.2 48-52.8c0-2.7 2.1-4.8 4.8-4.8zM28.8-33.6c2.7 0 4.8 2.1 4.8 4.8S31.5-24 28.8-24 24-26.1 24-28.8s2.1-4.8 4.8-4.8zM52.8-33.6c2.7 0 4.8 2.1 4.8 4.8S55.5-24 52.8-24 48-26.1 48-28.8s2.1-4.8 4.8-4.8zM40.8-45.6c2.7 0 4.8 2.1 4.8 4.8S43.5-36 40.8-36 36-38.2 36-40.8c0-2.7 2.1-4.8 4.8-4.8zM16.8-45.6c2.7 0 4.8 2.1 4.8 4.8S19.5-36 16.8-36 12-38.2 12-40.8c0-2.7 2.1-4.8 4.8-4.8zM40.8-21.6c2.7 0 4.8 2.1 4.8 4.8S43.5-12 40.8-12 36-14.1 36-16.8s2.1-4.8 4.8-4.8zM16.8-21.6c2.7 0 4.8 2.1 4.8 4.8S19.5-12 16.8-12 12-14.1 12-16.8s2.1-4.8 4.8-4.8z"/></g><defs><path id="ear_c" d="M4.8-52.8h48v48h-48z"/></defs><clipPath id="ear_d"><use overflow="visible" xlink:href="#ear_c"/></clipPath><g class="skin_dark" clip-path="url(#ear_d)"><path d="M4.8-57.6c2.7 0 4.8 2.1 4.8 4.8S7.5-48 4.8-48 0-50.1 0-52.8s2.1-4.8 4.8-4.8zM4.8-33.6c2.7 0 4.8 2.1 4.8 4.8S7.5-24 4.8-24 0-26.1 0-28.8s2.1-4.8 4.8-4.8z"/></g><g><defs><path id="ear_e" d="M4.8-52.8h48v48h-48z"/></defs><clipPath id="ear_f"><use overflow="visible" xlink:href="#ear_e"/></clipPath><g class="skin_dark" clip-path="url(#ear_f)"><path d="M28.8-9.6c2.7 0 4.8 2.1 4.8 4.8S31.5 0 28.8 0 24-2.2 24-4.8c0-2.7 2.1-4.8 4.8-4.8zM52.8-9.6c2.7 0 4.8 2.1 4.8 4.8S55.5 0 52.8 0 48-2.2 48-4.8c0-2.7 2.1-4.8 4.8-4.8z"/></g></g><g><defs><path id="ear_g" d="M4.8-52.8h48v48h-48z"/></defs><clipPath id="ear_h"><use overflow="visible" xlink:href="#ear_g"/></clipPath><path class="skin_dark" d="M4.8-9.6c2.7 0 4.8 2.1 4.8 4.8S7.5 0 4.8 0 0-2.2 0-4.8c0-2.7 2.1-4.8 4.8-4.8z" clip-path="url(#ear_h)"/></g></pattern><path class="skin_fill" d="M360.8 531.1l-10.1 6.8c-6.4 4.4-15.2 1.9-18.2-5.2-21.3-49-32-64.8-28.6-92.6 2.3-18.7 7.8-54.4 49.3-22.4l7.6 113.4z"/><pattern id="ear_j" patternTransform="matrix(.2595 0 0 -.2601 -47417.488 1017.571)" xlink:href="#ear_i"/><path fill="url(#ear_j)" d="M335.8 472.3c6.8-16.9-1.2-47.6-10.5-54.1-12.4-.7-17.9 54.5-2.1 65.1 10.1 6.8 15.1 22.9 15.1 22.9 0-7.8-10.4-14.4-2.5-33.9z"/><path class="skin_outline" d="M319.1 417.9c-.3-.5 5.4-5.3 12.3 5.9 7.2 11.6 11.9 34.3 5.7 49.7-8 21.6-.3 18.4 1.3 30.5.1 3-.3 3.1-1 .2-4.2-11.9-10.7-10.7-3.4-31.9 5.3-13.9 1.5-35.6-4.7-47.3-5.5-10.5-9.9-6.5-10.2-7.1z"/><path class="skin_fill" d="M639.2 531.1l10.1 6.8c6.4 4.4 15.2 1.9 18.2-5.2 21.3-49 32-64.8 28.6-92.6-2.3-18.7-7.8-54.4-49.3-22.4l-7.6 113.4z"/><pattern id="ear_k" patternTransform="matrix(-.2595 0 0 -.2601 31045.23 1017.571)" xlink:href="#ear_i"/><path fill="url(#ear_k)" d="M664.2 472.3c-6.8-16.9 1.2-47.6 10.5-54.1 12.4-.7 17.9 54.5 2.1 65.1-10.1 6.8-15.1 22.9-15.1 22.9 0-7.8 10.4-14.4 2.5-33.9z"/><g><path class="skin_outline" d="M680.9 417.9c-.3.4-9-5.4-15.4 21.6-5.3 23 .8 33 2 37.2 4.9 16.6-1.4 16.4-5.2 28.6-.8 2.5-.9-.5-.4-3.1.9-5.7 5.4-8.7 4.5-16.7-1.5-9.2-3.7-11.2-5.1-16.8-4.5-17.6 2.9-42.5 11.3-49.9 4.9-4.4 8.5-1.3 8.3-.9z"/></g><pattern id="face_i" width="48" height="48" x="250" y="750" overflow="visible" patternUnits="userSpaceOnUse" viewBox="4.8 -52.8 48 48"><defs><path id="face_a" d="M4.8-52.8h48v48h-48z"/></defs><clipPath id="face_b"><use overflow="visible" xlink:href="#face_a"/></clipPath><g class="skin_dark" clip-path="url(#face_b)"><path d="M28.8-57.6c2.7 0 4.8 2.1 4.8 4.8S31.5-48 28.8-48 24-50.2 24-52.8c0-2.7 2.1-4.8 4.8-4.8zM52.8-57.6c2.7 0 4.8 2.1 4.8 4.8S55.5-48 52.8-48 48-50.2 48-52.8c0-2.7 2.1-4.8 4.8-4.8zM28.8-33.6c2.7 0 4.8 2.1 4.8 4.8S31.5-24 28.8-24 24-26.1 24-28.8s2.1-4.8 4.8-4.8zM52.8-33.6c2.7 0 4.8 2.1 4.8 4.8S55.5-24 52.8-24 48-26.1 48-28.8s2.1-4.8 4.8-4.8zM40.8-45.6c2.7 0 4.8 2.1 4.8 4.8S43.5-36 40.8-36 36-38.2 36-40.8c0-2.7 2.1-4.8 4.8-4.8zM16.8-45.6c2.7 0 4.8 2.1 4.8 4.8S19.5-36 16.8-36 12-38.2 12-40.8c0-2.7 2.1-4.8 4.8-4.8zM40.8-21.6c2.7 0 4.8 2.1 4.8 4.8S43.5-12 40.8-12 36-14.1 36-16.8s2.1-4.8 4.8-4.8zM16.8-21.6c2.7 0 4.8 2.1 4.8 4.8S19.5-12 16.8-12 12-14.1 12-16.8s2.1-4.8 4.8-4.8z"/></g><defs><path id="face_c" d="M4.8-52.8h48v48h-48z"/></defs><clipPath id="face_d"><use overflow="visible" xlink:href="#face_c"/></clipPath><g class="skin_dark" clip-path="url(#face_d)"><path d="M4.8-57.6c2.7 0 4.8 2.1 4.8 4.8S7.5-48 4.8-48 0-50.1 0-52.8s2.1-4.8 4.8-4.8zM4.8-33.6c2.7 0 4.8 2.1 4.8 4.8S7.5-24 4.8-24 0-26.1 0-28.8s2.1-4.8 4.8-4.8z"/></g><g><defs><path id="face_e" d="M4.8-52.8h48v48h-48z"/></defs><clipPath id="face_f"><use overflow="visible" xlink:href="#face_e"/></clipPath><g class="skin_dark" clip-path="url(#face_f)"><path d="M28.8-9.6c2.7 0 4.8 2.1 4.8 4.8S31.5 0 28.8 0 24-2.2 24-4.8c0-2.7 2.1-4.8 4.8-4.8zM52.8-9.6c2.7 0 4.8 2.1 4.8 4.8S55.5 0 52.8 0 48-2.2 48-4.8c0-2.7 2.1-4.8 4.8-4.8z"/></g></g><g><defs><path id="face_g" d="M4.8-52.8h48v48h-48z"/></defs><clipPath id="face_h"><use overflow="visible" xlink:href="#face_g"/></clipPath><path class="skin_dark" d="M4.8-9.6c2.7 0 4.8 2.1 4.8 4.8S7.5 0 4.8 0 0-2.2 0-4.8c0-2.7 2.1-4.8 4.8-4.8z" clip-path="url(#face_h)"/></g></pattern><path class="skin_fill" d="M615.2 646.6c18.5-18.1 30.2-26.1 31.4-45.1 12.9-208.3 11.6-193.4 12.6-193.4 9.5-131.6-66.8-198.5-173.6-189.2-43.8 3.2-138.9 24.4-145.2 152.5-1.3 13.1-1.4 26.7-1.3 29.1 14.8 240.5 4.1 207.3 46.2 248.5 0 88.1 10.8 72.7-55 96.6l169.8 150 170.2-150c-66-24-55.1-8-55.1-99z"/><pattern id="face_j" patternTransform="matrix(.26 0 0 -.26 -47499.098 1009.889)" xlink:href="#face_i"/><path fill="url(#face_j)" d="M425.9 710.7c15.6 23.4 34.5 17.8 112.8 17.8 18 0 27.7-9.4 36.7-23l39.7-38.9v-20c-45.6 44.6-38.3 36.8-43.1 44-15.6 23.4-34.5 17.8-112.8 17.8-18 0-27.7-9.4-36.7-23L385.2 649v20c42.9 42 36 34.5 40.7 41.7z"/><path class="skin_outline" d="M347.7 541.5c-1.7.1-8.6-133.3-6.9-133.4 1.8-.1 8.7 133.3 6.9 133.4zM650.3 541.4c-1.7-.1 7.1-133.4 8.9-133.3 1.7.1-7.2 133.4-8.9 133.3z"/><g><pattern id="face_k" patternTransform="matrix(.26 0 0 -.26 -47499.098 1029.889)" xlink:href="#face_i"/><path fill="url(#face_k)" d="M402.1 632.3c1.6-79.2 8-100.8-16.1-117.7-23.1-16.2-26-40.1-26-40.1h-8.2c8.9 135.4-2 108.7 50.3 157.8z"/></g><pattern id="nose_m" width="28.8" height="28.8" x="250" y="750" overflow="visible" patternUnits="userSpaceOnUse" viewBox="1.4 -30.2 28.8 28.8"><defs><path id="nose_a" d="M1.4-30.2h28.8v28.8H1.4z"/></defs><clipPath id="nose_b"><use overflow="visible" xlink:href="#nose_a"/></clipPath><g clip-path="url(#nose_b)"><g fill="#FFF"><path d="M30.2 0c.8 0 1.4-.6 1.4-1.4s-.6-1.4-1.4-1.4-1.4.6-1.4 1.4c0 .8.6 1.4 1.4 1.4zM15.8 0c.8 0 1.4-.6 1.4-1.4s-.6-1.4-1.4-1.4c-.8 0-1.4.6-1.4 1.4 0 .8.6 1.4 1.4 1.4zM30.2-14.4c.8 0 1.4-.6 1.4-1.4s-.6-1.4-1.4-1.4-1.4.6-1.4 1.4c0 .8.6 1.4 1.4 1.4zM15.8-14.4c.8 0 1.4-.6 1.4-1.4s-.6-1.4-1.4-1.4c-.8 0-1.4.6-1.4 1.4 0 .8.6 1.4 1.4 1.4zM8.6-7.2c.8 0 1.4-.6 1.4-1.4S9.4-10 8.6-10c-.8 0-1.4.6-1.4 1.4 0 .8.6 1.4 1.4 1.4zM23-7.2c.8 0 1.4-.6 1.4-1.4S23.8-10 23-10s-1.4.6-1.4 1.4.6 1.4 1.4 1.4zM8.6-21.6c.8 0 1.4-.6 1.4-1.4s-.6-1.4-1.4-1.4c-.8 0-1.4.6-1.4 1.4 0 .8.6 1.4 1.4 1.4zM23-21.6c.8 0 1.4-.6 1.4-1.4s-.6-1.4-1.4-1.4-1.4.6-1.4 1.4c0 .8.6 1.4 1.4 1.4z"/></g><g fill="#FFF"><path d="M1.4 0c.8 0 1.4-.6 1.4-1.4s-.6-1.4-1.4-1.4C.6-2.9 0-2.2 0-1.4 0-.6.6 0 1.4 0zM1.4-14.4c.8 0 1.4-.6 1.4-1.4s-.6-1.4-1.4-1.4-1.4.6-1.4 1.4.6 1.4 1.4 1.4z"/></g><g fill="#FFF"><path d="M30.2-28.8c.8 0 1.4-.6 1.4-1.4s-.6-1.4-1.4-1.4-1.4.6-1.4 1.4c0 .8.6 1.4 1.4 1.4zM15.8-28.8c.8 0 1.4-.6 1.4-1.4s-.6-1.4-1.4-1.4-1.4.6-1.4 1.4c0 .8.6 1.4 1.4 1.4z"/></g><path fill="#FFF" d="M1.4-28.8c.8 0 1.4-.6 1.4-1.4s-.6-1.4-1.4-1.4C.6-31.7 0-31 0-30.2c0 .8.6 1.4 1.4 1.4z"/></g></pattern><pattern id="nose_k" width="48" height="48" x="250" y="750" overflow="visible" patternUnits="userSpaceOnUse" viewBox="4.8 -52.8 48 48"><defs><path id="nose_c" d="M4.8-52.8h48v48h-48z"/></defs><clipPath id="nose_d"><use overflow="visible" xlink:href="#nose_c"/></clipPath><g class="skin_dark" clip-path="url(#nose_d)"><path d="M28.8-57.6c2.7 0 4.8 2.1 4.8 4.8S31.5-48 28.8-48 24-50.2 24-52.8c0-2.7 2.1-4.8 4.8-4.8zM52.8-57.6c2.7 0 4.8 2.1 4.8 4.8S55.5-48 52.8-48 48-50.2 48-52.8c0-2.7 2.1-4.8 4.8-4.8zM28.8-33.6c2.7 0 4.8 2.1 4.8 4.8S31.5-24 28.8-24 24-26.1 24-28.8s2.1-4.8 4.8-4.8zM52.8-33.6c2.7 0 4.8 2.1 4.8 4.8S55.5-24 52.8-24 48-26.1 48-28.8s2.1-4.8 4.8-4.8zM40.8-45.6c2.7 0 4.8 2.1 4.8 4.8S43.5-36 40.8-36 36-38.2 36-40.8c0-2.7 2.1-4.8 4.8-4.8zM16.8-45.6c2.7 0 4.8 2.1 4.8 4.8S19.5-36 16.8-36 12-38.2 12-40.8c0-2.7 2.1-4.8 4.8-4.8zM40.8-21.6c2.7 0 4.8 2.1 4.8 4.8S43.5-12 40.8-12 36-14.1 36-16.8s2.1-4.8 4.8-4.8zM16.8-21.6c2.7 0 4.8 2.1 4.8 4.8S19.5-12 16.8-12 12-14.1 12-16.8s2.1-4.8 4.8-4.8z"/></g><defs><path id="nose_e" d="M4.8-52.8h48v48h-48z"/></defs><clipPath id="nose_f"><use overflow="visible" xlink:href="#nose_e"/></clipPath><g class="skin_dark" clip-path="url(#nose_f)"><path d="M4.8-57.6c2.7 0 4.8 2.1 4.8 4.8S7.5-48 4.8-48 0-50.1 0-52.8s2.1-4.8 4.8-4.8zM4.8-33.6c2.7 0 4.8 2.1 4.8 4.8S7.5-24 4.8-24 0-26.1 0-28.8s2.1-4.8 4.8-4.8z"/></g><g><defs><path id="nose_g" d="M4.8-52.8h48v48h-48z"/></defs><clipPath id="nose_h"><use overflow="visible" xlink:href="#nose_g"/></clipPath><g class="skin_dark" clip-path="url(#nose_h)"><path d="M28.8-9.6c2.7 0 4.8 2.1 4.8 4.8S31.5 0 28.8 0 24-2.2 24-4.8c0-2.7 2.1-4.8 4.8-4.8zM52.8-9.6c2.7 0 4.8 2.1 4.8 4.8S55.5 0 52.8 0 48-2.2 48-4.8c0-2.7 2.1-4.8 4.8-4.8z"/></g></g><g><defs><path id="nose_i" d="M4.8-52.8h48v48h-48z"/></defs><clipPath id="nose_j"><use overflow="visible" xlink:href="#nose_i"/></clipPath><path class="skin_dark" d="M4.8-9.6c2.7 0 4.8 2.1 4.8 4.8S7.5 0 4.8 0 0-2.2 0-4.8c0-2.7 2.1-4.8 4.8-4.8z" clip-path="url(#nose_j)"/></g></pattern><pattern id="nose_l" patternTransform="matrix(.252 0 0 -.252 -70856.242 -7206.028)" xlink:href="#nose_k"/><path fill="url(#nose_l)" d="M484.3 470.3c-1.9 16-3.1 18.7-.1 23.6 6 9.8 7.4 11.1 6.8 15.3-1.4 9.7-11 4.6-18.3 22.3-7.6-12.2-5.5-34.4-5.8-91.9 9.5 8.7 19.3 15.6 17.4 30.7z"/><pattern id="nose_n" patternTransform="rotate(180 27374.346 3312.582) scale(.416)" xlink:href="#nose_m"/><path fill="url(#nose_n)" d="M523.8 448.2l9.3-8.6c-.2 53.1 2.1 79.2-5.8 91.9 0 0-5.2-12.5-14.7-16.1-4-2.5-5.2-9.4-1.8-13.5 4.9-7.9 6.9-10.2 6.9-14.9-1.9-15.8-5.6-28 6.1-38.8zM487 539.6h26.1c-2.5-15.1-23.7-15.1-26.1 0z"/><g><path class="skin_outline" d="M534.1 542.5c-.5 13.8-14.6 12.7-15.6 13.9-2.4 2.9-4.9 6.3-9.8 7.7-4.1 1.1-15.1 1.7-20.4-1.1-3.2-1.7-4.9-4.1-7.2-6.8-20.1-1.8-18.1-21.2-9.4-25.5-.1.6 1-2.8 4.9-7.7 5.4-6.6 10.7-7.9 10.8-7.5.2.6-8 3.2-13.6 16.9-7.7 5.8-5.2 14.7-3.4 14.7 6.4-.4 11.5 4.6 15.4 9.3 4.4 5.1 8.2 5.5 16.3 5.3 8.7-.3 9.6-2.1 14.2-7.2 3.4-3.9 9.2-7.8 14-7 .6.1 4.9-6.7-2.1-14.8-3-3.5 5.8 1.5 5.9 9.8zm-53.3-53.9c.8 5.8 7.9 13.6 8.4 13.3 1.1-.7-4.8-8.8-5.2-13.6-.1-1.1-.1-.6.4-4.3 8.2-64-5.3-7.4-3.6 4.6zm35 5.3c.8.5 2.6-1.6 3.3-4 .9-3.1.2-10.9-1.3-10.9-1.9 0-2.5 14.6-2 14.9z"/></g><pattern id="mouth_i" width="28.8" height="28.8" x="250" y="750" overflow="visible" patternUnits="userSpaceOnUse" viewBox="1.4 -30.2 28.8 28.8"><defs><path id="mouth_a" d="M1.4-30.2h28.8v28.8H1.4z"/></defs><clipPath id="mouth_b"><use overflow="visible" xlink:href="#mouth_a"/></clipPath><g class="skin_halftone" clip-path="url(#mouth_b)"><path d="M30.2 0c1.9 0 1.9-2.8 0-2.8S28.3 0 30.2 0zM15.8 0c1.9 0 1.9-2.8 0-2.8S13.9 0 15.8 0zM30.2-14.4c1.9 0 1.9-2.8 0-2.8s-1.9 2.8 0 2.8zM15.8-14.4c1.9 0 1.9-2.8 0-2.8s-1.9 2.8 0 2.8zM8.6-7.2c1.9 0 1.9-2.8 0-2.8s-1.9 2.8 0 2.8zM23-7.2c1.9 0 1.9-2.8 0-2.8s-1.9 2.8 0 2.8zM8.6-21.6c1.9 0 1.9-2.8 0-2.8s-1.9 2.8 0 2.8zM23-21.6c1.9 0 1.9-2.8 0-2.8s-1.9 2.8 0 2.8z"/></g><defs><path id="mouth_c" d="M1.4-30.2h28.8v28.8H1.4z"/></defs><clipPath id="mouth_d"><use overflow="visible" xlink:href="#mouth_c"/></clipPath><g class="skin_halftone" clip-path="url(#mouth_d)"><path d="M1.4 0c1.9 0 1.9-2.8 0-2.8C-.4-3-.6 0 1.4 0zM1.4-14.4c1.9 0 1.9-2.8 0-2.8s-1.9 2.8 0 2.8z"/></g><g><defs><path id="mouth_e" d="M1.4-30.2h28.8v28.8H1.4z"/></defs><clipPath id="mouth_f"><use overflow="visible" xlink:href="#mouth_e"/></clipPath><g class="skin_halftone" clip-path="url(#mouth_f)"><path d="M30.2-28.8c1.9 0 1.9-2.8 0-2.8s-1.9 2.8 0 2.8zM15.8-28.8c1.9 0 1.9-2.8 0-2.8s-1.9 2.8 0 2.8z"/></g></g><g><defs><path id="mouth_g" d="M1.4-30.2h28.8v28.8H1.4z"/></defs><clipPath id="mouth_h"><use overflow="visible" xlink:href="#mouth_g"/></clipPath><path class="skin_halftone" d="M1.4-28.8c1.9 0 1.9-2.8 0-2.8-1.8-.2-2 2.8 0 2.8z" clip-path="url(#mouth_h)"/></g></pattern><path fill="#241F20" d="M440.8 595.4c28.4 43.5 91.3 41.8 117.7.8l-117.7-.8z"/><path fill="#F7F3E8" d="M500 627.6c-4.7 0-31.3-1.9-31.9-4.6-1.8-8.6 5.1-7.3 4.2-7.3 2.1 1.8 4.4 2.8 4.4 2.8 6.7-3.4 12.3 1.3 12.3 1.3 2.4-1.8 7.3-2.1 9.4-1.6 1.6.4 1.5 1.9 1.5 2.9 0-1-.1-2.5 1.5-2.9 2-.5 6.6-.1 9.4 1.6 0 0 5.7-4.7 12.3-1.3 0 0 2.4-1 4.4-2.8 4.3 0 5.1 3.1 4.2 7.3-.4 2.7-27 4.6-31.7 4.6z"/><path class="skin_dark" d="M556.5 596.9c-8.8 10.7-23.1 28-56.5 28s-47.7-17.3-56.5-28c0 0-8.4-2.1-11.8-5.2l22.6 33.6c17.7 27.5 73.7 27.5 91.5 0l22.6-33.6c-3.4 3.1-11.9 5.2-11.9 5.2z"/><path fill="#F7F3E8" d="M547.4 599.5s-1.1 6.6-3.2 6.6c-2.2 0-5-1.8-5-1.8-.4 3.1-1.6 4.7-1.6 4.7-3.8.5-5.4-2.6-5.4-2.6-1.4 4.6-11.5 6.7-14 1.3 0 6-8.7 5.4-15.7 5.3-1.5 0-2.6-1.2-2.6-2.7 0-.8.3 2.6-2.6 2.7-6.9.2-15.7.7-15.7-5.3-2.5 5.4-12.6 3.2-14-1.3 0 0-1.6 3.1-5.4 2.6 0 0-1.2-1.6-1.6-4.7-5.2 3.3-7.1 2.3-8.3-4.8-.9-5.8-3.2-4.1 93-4.1 3.6 0 2.1 4.1 2.1 4.1z"/><path fill="#EB8874" d="M450.9 592.9c2.9 16.4-1.6-.5 8.4 6.3.3.2.8.1 1-.3 3.1-6.3 6.4 3.6 7.7 1.3 2.5-4.8 11-2.1 14.2 1.6 1.5 1.7 6.7-6 17.7 2.6 0 .1 0 .1 0 0 10.9-8.6 16.2-.9 17.7-2.6 3.2-3.7 11.7-6.5 14.2-1.6 1.3 2.4 4.6-7.6 7.7-1.3.2.4.6.5 1 .3 10-6.9 5.6 10 8.4-6.3h-98z"/><path class="skin_dark" d="M513 588.1c-16.4 2.1-10.3 2.1-26.3-.1-11.6-2.4-34.7 4.8-56.7 2.6 0 0 13.3 6.8 19.8 7.2 68.8 4.5 31.4 4.6 100.4 0 6.5-.4 12.8-2.6 18.1-6.1-21.7 2.2-42.8-6.2-55.3-3.6z"/><pattern id="mouth_j" patternTransform="matrix(.448 0 0 .448 -29141.309 3006.561)" xlink:href="#mouth_i"/><path fill="url(#mouth_j)" d="M513 588.1c-16.4 2.1-10.3 2.1-26.3-.1-11.6-2.4-34.7 4.8-56.7 2.6 0 0 13.3 6.8 19.8 7.2 68.8 4.5 31.4 4.6 100.4 0 6.5-.4 12.8-2.6 18.1-6.1-21.7 2.2-42.8-6.2-55.3-3.6z"/><path class="skin_outline" d="M568.3 591.7c.2.3-6.2 6.2-19.4 7.4-65.1 6.1-34.1 6.2-77.3 1.9-22.8-2.1-24.9-1.2-36.8-7.4-13.5-7.1 4.6.6 10.5 2.1 7.3 2 5.3-.5 46.9 4.4 13.3 1.5 18.9-1.8 56.7-3.4 13-.2 18.8-5.9 19.4-5z"/><path fill="none"/><pattern id="eye_c" width="28.8" height="28.8" x="250" y="750" overflow="visible" patternUnits="userSpaceOnUse" viewBox="1.4 -30.2 28.8 28.8"><defs><path id="eye_a" d="M1.4-30.2h28.8v28.8H1.4z"/></defs><clipPath id="eye_b"><use overflow="visible" xlink:href="#eye_a"/></clipPath><g clip-path="url(#eye_b)"><g fill="#FFF"><path d="M30.2 0c.8 0 1.4-.6 1.4-1.4s-.6-1.4-1.4-1.4-1.4.6-1.4 1.4c0 .8.6 1.4 1.4 1.4zM15.8 0c.8 0 1.4-.6 1.4-1.4s-.6-1.4-1.4-1.4c-.8 0-1.4.6-1.4 1.4 0 .8.6 1.4 1.4 1.4zM30.2-14.4c.8 0 1.4-.6 1.4-1.4s-.6-1.4-1.4-1.4-1.4.6-1.4 1.4c0 .8.6 1.4 1.4 1.4zM15.8-14.4c.8 0 1.4-.6 1.4-1.4s-.6-1.4-1.4-1.4c-.8 0-1.4.6-1.4 1.4 0 .8.6 1.4 1.4 1.4zM8.6-7.2c.8 0 1.4-.6 1.4-1.4S9.4-10 8.6-10c-.8 0-1.4.6-1.4 1.4 0 .8.6 1.4 1.4 1.4zM23-7.2c.8 0 1.4-.6 1.4-1.4S23.8-10 23-10s-1.4.6-1.4 1.4.6 1.4 1.4 1.4zM8.6-21.6c.8 0 1.4-.6 1.4-1.4s-.6-1.4-1.4-1.4c-.8 0-1.4.6-1.4 1.4 0 .8.6 1.4 1.4 1.4zM23-21.6c.8 0 1.4-.6 1.4-1.4s-.6-1.4-1.4-1.4-1.4.6-1.4 1.4c0 .8.6 1.4 1.4 1.4z"/></g><g fill="#FFF"><path d="M1.4 0c.8 0 1.4-.6 1.4-1.4s-.6-1.4-1.4-1.4C.6-2.9 0-2.2 0-1.4 0-.6.6 0 1.4 0zM1.4-14.4c.8 0 1.4-.6 1.4-1.4s-.6-1.4-1.4-1.4-1.4.6-1.4 1.4.6 1.4 1.4 1.4z"/></g><g fill="#FFF"><path d="M30.2-28.8c.8 0 1.4-.6 1.4-1.4s-.6-1.4-1.4-1.4-1.4.6-1.4 1.4c0 .8.6 1.4 1.4 1.4zM15.8-28.8c.8 0 1.4-.6 1.4-1.4s-.6-1.4-1.4-1.4-1.4.6-1.4 1.4c0 .8.6 1.4 1.4 1.4z"/></g><path fill="#FFF" d="M1.4-28.8c.8 0 1.4-.6 1.4-1.4s-.6-1.4-1.4-1.4C.6-31.7 0-31 0-30.2c0 .8.6 1.4 1.4 1.4z"/></g></pattern><path fill="#D8A383" d="M637.8 418.4c4.2-1.2 6.5-4.7 6.5-8.4 0-7.2 6.4-8.4 12.4-10.6 3.2-1.2 6.6 1.2 6.6 4.6 0 24.4 2.8 21.2-25.6 26.8-.1-.1 4.6-9.4.1-12.4z"/><path fill="#452D23" d="M657.9 421.5c.8 0 2-.6 2-2 0-16.2.7-18-2-18-.8 0-2 .6-2 2 .1 16.2-.6 18 2 18z"/><path fill="#D8A383" d="M360.4 418.4c-4.2-1.2-6.5-4.7-6.5-8.4 0-7.2-6.4-8.4-12.4-10.6-3.2-1.2-6.6 1.2-6.6 4.6 0 24.4-2.8 21.2 25.6 26.8.1-.1-4.6-9.4-.1-12.4z"/><path fill="#452D23" d="M340.3 421.5c-.8 0-2-.6-2-2 0-16.2-.7-18 2-18 .8 0 2 .6 2 2 0 16.2.7 18-2 18z"/><path fill="#301E17" d="M424.6 507.4c-43-.1-70.7-42.3-72.5-77.4-2.2-43.8 17.1-36.6 72.5-36.6 74.8.1 77.9 114.1 0 114z"/><path fill="#452D23" d="M427.8 507.4c-66.7-.1-101.5-114-40.6-114h40.6c70.6.1 73.6 114.1 0 114z"/><path fill="#B27D62" d="M414.1 408.6c-25.3 7.2-38.8 35.6-27 60.2l-7.2 3.2c-2.6-5.4.8-4.6-13.6-1.8l-1.6-5.7c14.1-5.4 11.2-2.8 10.5-9.6L363 454l-.1-5.9c15-1.5 11.5.2 12.6-6.6l-11.4-3.9 1.4-5.7c14.8 2.4 11.1 3.2 13.9-3.1l-10-6.8 2.9-5.1c13.7 6.2 9.8 6 14.2.6l-7.9-9.1 4.1-4.2c11.6 9.5 8 8.3 13.6 4.3l-5.3-10.9 5-3c8.8 12.2 5.5 10.1 12 7.7l-2.3-11.9 5.7-1.6c5.4 14.1 2.7 11.2 9.9 10.5.7 11 2.5 6.5-7.2 9.3z"/><circle cx="426.6" cy="451" r="54" fill="#D8A383"/><path fill="#301E17" d="M421.3 501.9c-2.4-.3-2.5-4 .4-4 2.4.3 2.6 4-.4 4zm18.6-3.5c-.3-.8.3-2.5 1.3-2.5 1.9-.6 2.4 1.3 2.5 1.3.9 2.6-3 3.6-3.8 1.2zm-38.9-3.1c-1.3-.8-1-2.7-.7-2.7.9-1.7 2.6-.7 2.7-.7 2.3 1.3.3 4.7-2 3.4zm57.1-6.5c-1.1-1.2-.1-2.8.1-2.8 1.5-1.3 2.7.1 2.8.1 1.9 2.1-1.3 4.6-2.9 2.7zm-72.9-7.7c-.8-1.2 0-2.8.4-2.8 1.6-1.2 2.7.4 2.8.4 1.7 2.3-1.7 4.5-3.2 2.4zm85.6-8.3c-1.5-.7-2.3-3.7 1.6-3.7 2.4 1.1.7 4.8-1.6 3.7zm-94.3-11.1c-.2-.7.4-2.4 1.5-2.4 1.9-.4 2.3 1.5 2.4 1.5.6 2.8-3.4 3.4-3.9.9zm97.3-10.9c.1 0-.1-2.1 2-2.1 2.3 0 1.9 2.2 2 2.2 0 2.7-4 2.7-4-.1zm-95.8-8c-2.1-.4-2.5-3.9.8-3.9 2.6.5 1.7 4.5-.8 3.9zm91.7-11.2c-.5-1.1.3-2.6 1-2.6 1.9-.9 2.5 1 2.6 1 1.2 2.6-2.6 3.8-3.6 1.6zm-84.2-7.9c-1.3-1-.7-2.8-.5-2.8 1.1-1.6 2.7-.4 2.8-.4 2.2 1.6-.2 4.8-2.3 3.2zm72.6-7.9c-1.2-1.1-.4-2.8-.2-2.8 1.3-1.4 2.7-.2 2.8-.2 2 1.7-.7 4.7-2.6 3zm-58-6.4c-.7-1.2.2-2.7.7-2.7 1.7-1 2.6.7 2.7.7 1.6 2.6-2.2 4.1-3.4 2zM441 406c-1.7-.6-2.4-3.8 1.2-3.8 2.6.8 1.3 4.6-1.2 3.8zm-21.7-3.8c-.1-.7.4-2.2 1.8-2.2 2-.2 2.1 1.8 2.2 1.8.3 2.7-3.7 3-4 .4z"/><circle cx="426.6" cy="451" r="44.9" fill="#B27D62"/><path fill="#301E17" d="M573.6 507.4c43-.1 70.7-42.3 72.5-77.4 2.2-43.8-14.6-36.6-72.5-36.6-74.7.1-77.9 114.1 0 114z"/><path fill="#452D23" d="M570.4 507.4c66.7-.1 101.5-114 40.6-114h-40.6c-70.6.1-73.6 114.1 0 114z"/><path fill="#D8A383" d="M619.2 408.3c2.6-1.9 15-3.6 15-3.6s-5.6 11-8.2 12.8c-6.1 4.6-12.9-4.7-6.8-9.2z"/><path fill="#452D23" d="M626.7 417.1c-7.5-10.3-6.5-9.4-7.4-8.7-6.6 4.7 1.5 14.4 7.4 8.7z"/><path fill="#D8A383" d="M617.8 407.8c11.1 15.1 11.2 10.8.5 18.7l-9.8-13.4c7.6-5.6 8.3-6.7 9.3-5.3z"/><path fill="#452D23" d="M609.4 412.4c2.1-2 12.4 11.9 9.9 13.3-1.5.9-11.1-12.1-9.9-13.3z"/><path fill="#D8A383" d="M633 433.1c3.1-.6 15.1 3.2 15.1 3.2s-9.8 7.5-12.9 8.1c-7.5 1.5-9.7-9.8-2.2-11.3z"/><path fill="#452D23" d="M635.9 444.2c-2.4-12.5-1.9-11.3-3-11.1-7.9 1.6-4.7 13.8 3 11.1z"/><path fill="#D8A383" d="M631.9 432c3.6 18.4 5.5 14.6-7.5 17.1l-3.2-16.3c9.3-1.8 10.4-2.4 10.7-.8z"/><path fill="#452D23" d="M622.4 432.6c2.7-1 6.1 16 3.3 16.2-1.8.2-5-15.6-3.3-16.2z"/><path fill="#D8A383" d="M595 391.6c1.4-2.8 11.7-10 11.7-10s0 12.3-1.4 15.2c-3.4 6.7-13.7 1.6-10.3-5.2z"/><path fill="#452D23" d="M605.6 396c-11.4-5.7-10.1-5.4-10.6-4.4-3.6 7.2 8 12.1 10.6 4.4z"/><path fill="#D8A383" d="M593.5 391.7c16.7 8.4 14.9 4.6 8.9 16.4l-14.8-7.4c4.3-8.5 4.4-9.7 5.9-9z"/><g><path fill="#452D23" d="M588.2 399.6c.9-2.7 16.4 4.9 14.9 7.3-1.1 1.5-15.5-5.6-14.9-7.3z"/></g><circle cx="571.6" cy="451" r="54" fill="#D8A383"/><g><path fill="#301E17" d="M576.7 501.9c.6 0-1.8.2-2-1.8.1 0-.2-2 1.8-2.2 3.1 0 2.8 4 .2 4zm-20.3-2.1c.6 0-2.7 0-1.9-2.6.1 0 .7-1.9 2.5-1.3 1.8 0 2 3.9-.6 3.9zm39.8-4.2c.4 0-1 .2-1.7-1 .1 0-1.1-1.7.7-2.7.1 0 1.8-.9 2.7.7.5 0 .6 3-1.7 3zm-57.5-6.1c.1 0-.7.1-1.3-.5.1 0-1.5-1.3-.1-2.8.1 0 1.4-1.4 2.8-.1.8-.1 1.1 3.4-1.4 3.4zm71.5-7.9c.1 0-1.6-1.2-.4-2.8.1 0 1.2-1.6 2.8-.4 1.8-.1.5 5.2-2.4 3.2zm-83.5-8.6c.4 0-1.2.2-1.8-1.2.1 0-.8-1.8 1-2.6.1 0 1.9-.7 2.6 1 .4-.1.4 2.8-1.8 2.8zm93.1-9.7c.8 0-2.5.1-2-2.4.1 0 .4-2 2.4-1.5 2-.1 2.3 3.9-.4 3.9zM520.4 451c.1 0-.2-2.2 2-2.2 2.1 0 1.9 2.1 2 2.1 0 2.8-4 2.6-4 .1zm99.4-8.2c.7 0-1.6.3-1.9-1.6.1 0-.4-2 1.5-2.4 3.4.1 2.9 4 .4 4zm-93-10c.5 0-3-.2-1.8-2.8.1 0 .8-1.8 2.6-1 1.4-.1 1.9 3.8-.8 3.8zm84.7-8.7c.1 0-.9.1-1.6-.8.1 0-1.2-1.6.5-2.8.1 0 1.7-1.1 2.8.4.5 0 .7 3.2-1.7 3.2zm-72.7-7.8c.1 0-.8.1-1.5-.7.1 0-1.4-1.5.2-2.8.1 0 1.5-1.3 2.8.2.8-.1 1 3.3-1.5 3.3zm56.6-6.2c.1 0-1.7-1-.7-2.7.1 0 1-1.7 2.7-.7 1.8 0 1 5.2-2 3.4zm-38.8-4c.5 0-1.4.2-1.9-1.4.1 0-.6-1.9 1.3-2.5 3.9 0 2.9 3.9.6 3.9zm20.3-2.1c1.2 0-2.3.4-2-2.2.1 0 .2-2 2.2-1.8 2.4 0 2.5 4-.2 4z"/></g><circle cx="571.6" cy="451" r="44.9" fill="#29282E"/><g><path fill="#452D23" d="M525.9 449.9c-.4 11-10.7 6.6-45.4 7.6-10.5.3-10.9-15.5-.5-15.8 13.3-.4 24.7-.4 38.1 0 9 .3 7.7 10.3 7.8 8.2z"/><path fill="#301E17" d="M485.5 449.5c0 6.9-10.4 6.9-10.4 0s10.4-6.9 10.4 0zM512.7 449.5c0 6.9 10.4 6.9 10.4 0 .1-6.9-10.4-6.9-10.4 0z"/></g><g fill="#29282E"><path d="M435.2 451c0 6.2-5.6-1.2 19.4 23.8 11.7-13.7 11.7-33.9 0-47.6-25 25-19.4 17.6-19.4 23.8zM418 451c0-6.2 5.6 1.2-19.4-23.8-11.7 13.7-11.7 33.9 0 47.6 25-25.1 19.4-17.7 19.4-23.8zM426.6 459.5c-6.2 0 1.2-5.6-23.8 19.4 13.7 11.7 33.9 11.7 47.6 0-25-25-17.6-19.4-23.8-19.4zM426.6 442.4c6.2 0-1.2 5.6 23.8-19.4-13.7-11.7-33.9-11.7-47.6 0 25 25 17.6 19.4 23.8 19.4zM430.2 451c0-4.7-7.1-4.7-7.1 0-.1 4.7 7.1 4.7 7.1 0z"/></g><path fill="#B27D62" d="M571.6 409.5c-22.9 0-41.5 18.6-41.5 41.5s18.6 41.5 41.5 41.5 41.5-18.6 41.5-41.5-18.5-41.5-41.5-41.5zm0 71.1c-16.4 0-29.7-13.3-29.7-29.7s13.3-29.7 29.7-29.7 29.7 13.3 29.7 29.7-13.3 29.7-29.7 29.7z"/><g><path fill="#29282E" d="M571.6 489.4c0-7-.5-6 .9-6 .2 7.1.6 6-.9 6zm0-3.1v.1-.1zm-10.8 1.6c-1.4-.4-1.4.7.8-6 1.2.4 1.1-.7-.8 6zm22.7-.3c-2.2-6.8-2.1-5.6-1-6 2.4 6.6 2.4 5.5 1 6zm-33.6-4.9c-1.2-.8-1.5.2 2.6-5.5 1.1.8 1.3-.2-2.6 5.5zm44.3-.6c-4.1-5.6-3.8-4.6-2.8-5.4 4.4 5.6 4 4.6 2.8 5.4zm-53-7.6c-.9-1.2-1.5-.3 4.2-4.4.7 1 1.4 0-4.2 4.4zm61.6-.9c-5.7-4.2-5-3.3-4.3-4.3 5.8 4 5.1 3.1 4.3 4.3zm-67.4-9.7c-.5-1.4-1.4-.7 5.4-2.9.3 1.2 1.1.6-5.4 2.9zm72.8-1c-6.7-2.2-5.8-1.6-5.4-2.7 6.8 2 5.9 1.3 5.4 2.7zm-75-10.8v-1.2c6.7 0 6-.1 6 .1 0 1.2.9.9-6 1.1zm76.9-1c-6.5-.1-6 0-6-.1 0-1.1-1.1-.8 6-1v1.1zm-69.6-9.4c-6.8-2-5.9-1.4-5.4-2.8 6.7 2.2 5.7 1.6 5.4 2.8zm62.1-.7c-.4-1.2-1.3-.5 5.4-2.9.4 1.4 1.3.7-5.4 2.9zm-57.7-8.5c-5.8-4-5.2-3.1-4.3-4.3 5.7 4.2 5 3.3 4.3 4.3zm53.1-.6c-.8-1.1-1.3-.2 4.2-4.4.9 1.2 1.5.3-4.2 4.4zm-46.1-6.7c-4.3-5.6-4-4.6-2.8-5.4 4.2 5.7 3.8 4.6 2.8 5.4zm38.9-.5c-1-.7-1.4.4 2.6-5.5 1.3.9 1.6-.2-2.6 5.5zm-30-4.4c-2.3-6.6-2.4-5.6-1-6 2.2 6.8 2.2 5.6 1 6zm21-.2c-1.2-.4-1.2.6.8-6 1.4.4 1.4-.7-.8 6zm-11-1.6c-.2-6.9-.6-6 .8-6 .2 0 .1-.5.1 6h-.9z"/></g><pattern id="eye_d" patternTransform="matrix(-.277 0 0 -.2594 33736.238 1051.841)" xlink:href="#eye_c"/><path fill="url(#eye_d)" d="M359.9 422.1s2-20 21.8-25.1l-21.8 25.1zm224.7 8.8l-35 35c3.7 5.6 9.5 9.6 16.3 10.8l29.5-29.5c-1.2-6.7-5.2-12.6-10.8-16.3zm11.2 23.6l-22.6 22.6c11.9-1.2 21.4-10.7 22.6-22.6zm33.7-50.3c-3.1-3.1-7.3-5.8-13-7.3 9 10.4 6 9 13 7.3z"/><pattern id="hair_h" width="28.8" height="28.8" y="1000" overflow="visible" patternUnits="userSpaceOnUse" viewBox="1.4 -30.2 28.8 28.8"><g fill="#FFF"><path d="M30.2-31.6c.8 0 1.4.6 1.4 1.4 0 .8-.6 1.4-1.4 1.4s-1.4-.6-1.4-1.4c0-.8.6-1.4 1.4-1.4zM15.8-31.6c.8 0 1.4.6 1.4 1.4 0 .8-.6 1.4-1.4 1.4-.8 0-1.4-.6-1.4-1.4 0-.8.6-1.4 1.4-1.4zM30.2-17.2c.8 0 1.4.6 1.4 1.4s-.6 1.4-1.4 1.4-1.4-.6-1.4-1.4c0-.8.6-1.4 1.4-1.4zM15.8-17.2c.8 0 1.4.6 1.4 1.4s-.6 1.4-1.4 1.4c-.8 0-1.4-.6-1.4-1.4 0-.8.6-1.4 1.4-1.4zM8.6-24.4c.8 0 1.4.6 1.4 1.4 0 .8-.6 1.4-1.4 1.4-.8 0-1.4-.6-1.4-1.4 0-.8.6-1.4 1.4-1.4zM23-24.4c.8 0 1.4.6 1.4 1.4 0 .8-.6 1.4-1.4 1.4s-1.4-.6-1.4-1.4.6-1.4 1.4-1.4zM8.6-10c.8 0 1.4.6 1.4 1.4s-.6 1.4-1.4 1.4c-.8 0-1.4-.6-1.4-1.4 0-.8.6-1.4 1.4-1.4zM23-10c.8 0 1.4.6 1.4 1.4s-.6 1.4-1.4 1.4-1.4-.6-1.4-1.4.6-1.4 1.4-1.4z"/></g><g fill="#FFF"><path d="M1.4-31.6c.8 0 1.4.6 1.4 1.4 0 .8-.6 1.4-1.4 1.4-.8.1-1.4-.6-1.4-1.4 0-.8.6-1.4 1.4-1.4zM1.4-17.2c.8 0 1.4.6 1.4 1.4s-.6 1.4-1.4 1.4S0-15 0-15.8s.6-1.4 1.4-1.4z"/></g><g fill="#FFF"><path d="M30.2-2.8c.8 0 1.4.6 1.4 1.4S31 0 30.2 0s-1.4-.6-1.4-1.4c0-.8.6-1.4 1.4-1.4zM15.8-2.8c.8 0 1.4.6 1.4 1.4S16.6 0 15.8 0s-1.4-.6-1.4-1.4c0-.8.6-1.4 1.4-1.4z"/></g><path fill="#FFF" d="M1.4-2.8c.8 0 1.4.6 1.4 1.4S2.2 0 1.4 0C.6.1 0-.6 0-1.4c0-.8.6-1.4 1.4-1.4z"/></pattern><pattern id="hair_c" width="28.8" height="28.8" y="1000" overflow="visible" patternUnits="userSpaceOnUse" viewBox="1.4 -30.2 28.8 28.8"><defs><path id="hair_a" d="M1.4-30.2h28.8v28.8H1.4z"/></defs><clipPath id="hair_b"><use overflow="visible" xlink:href="#hair_a"/></clipPath><g fill="#3D150F" clip-path="url(#hair_b)"><path d="M30.2-31.6c.8 0 1.4.6 1.4 1.4 0 .8-.6 1.4-1.4 1.4s-1.4-.6-1.4-1.4c0-.8.6-1.4 1.4-1.4zM15.8-31.6c.8 0 1.4.6 1.4 1.4 0 .8-.6 1.4-1.4 1.4-.8 0-1.4-.6-1.4-1.4 0-.8.6-1.4 1.4-1.4zM30.2-17.2c.8 0 1.4.6 1.4 1.4s-.6 1.4-1.4 1.4-1.4-.6-1.4-1.4c0-.8.6-1.4 1.4-1.4zM15.8-17.2c.8 0 1.4.6 1.4 1.4s-.6 1.4-1.4 1.4c-.8 0-1.4-.6-1.4-1.4 0-.8.6-1.4 1.4-1.4zM8.6-24.4c.8 0 1.4.6 1.4 1.4 0 .8-.6 1.4-1.4 1.4-.8 0-1.4-.6-1.4-1.4 0-.8.6-1.4 1.4-1.4zM23-24.4c.8 0 1.4.6 1.4 1.4 0 .8-.6 1.4-1.4 1.4s-1.4-.6-1.4-1.4.6-1.4 1.4-1.4zM8.6-10c.8 0 1.4.6 1.4 1.4s-.6 1.4-1.4 1.4c-.8 0-1.4-.6-1.4-1.4 0-.8.6-1.4 1.4-1.4zM23-10c.8 0 1.4.6 1.4 1.4s-.6 1.4-1.4 1.4-1.4-.6-1.4-1.4.6-1.4 1.4-1.4z"/><g><path d="M1.4-31.6c.8 0 1.4.6 1.4 1.4 0 .8-.6 1.4-1.4 1.4-.8.1-1.4-.6-1.4-1.4 0-.8.6-1.4 1.4-1.4zM1.4-17.2c.8 0 1.4.6 1.4 1.4s-.6 1.4-1.4 1.4S0-15 0-15.8s.6-1.4 1.4-1.4z"/></g><g><path d="M30.2-2.8c.8 0 1.4.6 1.4 1.4S31 0 30.2 0s-1.4-.6-1.4-1.4c0-.8.6-1.4 1.4-1.4zM15.8-2.8c.8 0 1.4.6 1.4 1.4S16.6 0 15.8 0s-1.4-.6-1.4-1.4c0-.8.6-1.4 1.4-1.4z"/></g><path d="M1.4-2.8c.8 0 1.4.6 1.4 1.4S2.2 0 1.4 0C.6.1 0-.6 0-1.4c0-.8.6-1.4 1.4-1.4z"/></g></pattern><path fill="#665150" d="M800.4 295.1c65.6-47.4 92 18.8 51 64.4-67.6 75.2-169.6 69-169.6 69l-24.6-2.7 1.5-39.1c35.5-17.9 109.6-68.4 141.7-91.6zM197.7 295.1c-65.6-47.4-92 18.8-51 64.4 67.6 75.2 169.6 69 169.6 69l24.4-2.7-1.6-39.2c-35.4-18-109-68.1-141.4-91.5z"/><pattern id="hair_d" patternTransform="translate(-101927.555 43642.902) scale(.3974)" xlink:href="#hair_c"/><path fill="url(#hair_d)" d="M197.7 295.1c-65.6-47.4-92 18.8-51 64.4 67.6 75.2 169.6 69 169.6 69l24.4-2.7-1.6-39.2c-35.4-18-109-68.1-141.4-91.5z"/><pattern id="hair_e" patternTransform="translate(-101927.555 43642.902) scale(.3974)" xlink:href="#hair_c"/><path fill="url(#hair_e)" d="M800.4 295.1c65.6-47.4 92 18.8 51 64.4-67.6 75.2-169.6 69-169.6 69l-24.6-2.7 1.5-39.1c35.5-17.9 109.6-68.4 141.7-91.6z"/><path fill="#665150" d="M581.4 138.1c-11.5-12.6-29.7-16.8-45.6-10.4-19.9 8.1-33.3 16.3-52.1 8.7-18.4-7.5-44.9-22.7-67 1.7-84 92-74 78.1-90.1 242.2 129.4-9.1 215.3-9.1 345 0-16.7-168.5-8.3-152.6-90.2-242.2z"/><pattern id="hair_f" patternTransform="translate(-101931.664 43661.902) scale(.3974)" xlink:href="#hair_c"/><path fill="url(#hair_f)" d="M382.5 226.7c-3.8 15.6 15.6 24.9 25.1 15.4 23.6-17.4 35.6-37.1 41.3-55.1 4-12.7-8.7-24.3-20.9-19-16.7 7.2-37.1 23.3-45.5 58.7z"/><pattern id="hair_g" patternTransform="matrix(-.3974 0 0 .3974 70674.914 43661.902)" xlink:href="#hair_c"/><path fill="url(#hair_g)" d="M615.5 226.7c3.8 15.6-15.6 24.9-25.1 15.4-23.6-17.4-35.6-37.1-41.3-55.1-4-12.7 8.7-24.3 20.9-19 16.8 7.2 37.1 23.3 45.5 58.7z"/><path fill="#AA9897" d="M327.8 370.2l-1.3 10.1c129.4-9.1 215.3-9.1 345 0l-1.3-10.1c-119.3-8-210.1-10-342.4 0z"/><path fill="#6D5751" d="M671.6 380.3c-185.3-14.8-345.1 0-345 0 68.9 38.3 99.3 41.8 172.5 41.8s103.5-3.5 172.5-41.8z"/><path fill="#7F665F" d="M800.4 295.2c-165.7 119.7-189.5 131-301.3 131-109 0-131.8-8.6-301.4-130.9 175.2 126.6 212.4 126.9 301.4 126.9 90.1 0 126.2-.7 301.3-127z"/><path class="hair_fill" d="M324.7 381.8c-20.7 5.4-5.1 56.2-35.4 57.8-3.8.1-6.1-.5-6.2-.2 0 .9 18.9 6.8 26-14.5-2.2 7.9-7.6 17.6-21.8 28 39.2 29.2 54.4-10.1 54.4-10.1s2.6-16.3-1.6-51.8c-5.4-3.4-15.4-9.2-15.4-9.2z"/><g><path class="hair_outline" d="M339 391.1c-1.3 0-1.3 22.6-14.4 42.7-16.5 25.8-36.8 18.1-37.3 19.1-.6 1.3 23.1 9.8 40.3-17.2 12.9-19.4 12.4-44.6 11.4-44.6z"/><path class="hair_fill" d="M721.2 461.4c-31.9 0-25.7-69.3-47.9-79.6 0 0-9.9 5.8-15.3 9.2-2.3 27.5-1.6 39-1.6 39 1.3 44 43.5 49.7 43.5 48.3 0-.8-8.7-.7-19-6.8 8.3 3 19.5 3 34.4-2.6-4.9 0-8.8-5.6-12.2-13.9 10.1 13.9 25.3 5.2 18.1 6.4z"/><pattern id="hair_i" patternTransform="matrix(.5 0 0 -.5 -7678.234 -8661.206)" xlink:href="#hair_h"/><path fill="url(#hair_i)" d="M313.2 434.2s22.5-2.2 9.4-36.5c0 0 1.8 27.6-9.4 36.5z"/><pattern id="hair_j" patternTransform="matrix(.5 0 0 -.5 -7678.234 -8661.206)" xlink:href="#hair_h"/><path fill="url(#hair_j)" d="M685.8 431.3s5.2 11.7 10.5 15.3c0-.1-11.9-36.4-24.7-48.1 0 0 .1 48.7 26.4 63 0 0-9.4-11.3-12.2-30.2z"/><path class="hair_outline" d="M711.1 468.5c-48.8 0-48.3-77.2-49.9-77.2-1.5 0-2.2 35.5 11.9 58 15.9 28.3 52.4 19.8 38 19.2z"/></g><g fill="#5D4A43"><path d="M409.6 319.3c-15.2 16.9-54.6 42.5-29.8 28.8 23.6-12.6 37.5-34.1 36-34.9-.4-.3-2.5 2.2-6.2 6.1zM757.4 380.3c-.7-1.5-40.8 23.7-65.1 29.1-8.9 2.5 6.5 3.7 33.3-9.1 17.2-8.3 32.5-19.1 31.8-20z"/></g></svg>