<svg xmlns="http://www.w3.org/2000/svg" xmlns:xlink="http://www.w3.org/1999/xlink" version="1.1" height="1000px" width="1000px" viewBox="0 0 1000 1000"><style type="text/css">.skin_fill{fill:#9CCDE2;} .skin_outline{fill:#31515E;} .skin_dark{fill:#6D8F9E;} .skin_halftone{fill:#435A65;} .skin_freckles{fill:#6B8999;} </style><style type="text/css">.hair_fill{fill:#4A86E8;} .hair_outline{fill:#496CA2;} .hair_shadow{fill:#2F4870;} .hair_brow{fill:#537AB8;} </style><style type="text/css">.eye_iris{fill:#556B2F;} </style><style type="text/css">.bg_color{fill:#6164FF;} .bg_stop_1{stop-color:#6164FF;} .bg_stroke_1{stroke:#6164FF;} .bg_shape{fill:#FE80D1;} .bg_stop_2{stop-color:#FE80D1;} .bg_stroke_2{stroke:#FE80D1;} .bg_halftone{fill:#532C82;} .bg_stop_3{stop-color:#532C82;} .bg_stroke_3{stroke:#532C82;} </style><pattern id="backdrop_F" width="28.8" height="28.8" y="1000" overflow="visible" patternUnits="userSpaceOnUse" viewBox="1.4 -30.2 28.8 28.8"><defs><path id="backdrop_a" d="M1.4-30.2h28.8v28.8H1.4z"/></defs><clipPath id="backdrop_b"><use overflow="visible" xlink:href="#backdrop_a"/></clipPath><g class="bg_halftone" clip-path="url(#backdrop_b)"><path d="M30.2 0c.8 0 1.4-.6 1.4-1.4s-.6-1.4-1.4-1.4-1.4.6-1.4 1.4c0 .8.6 1.4 1.4 1.4zM15.8 0c.8 0 1.4-.6 1.4-1.4s-.6-1.4-1.4-1.4c-.8 0-1.4.6-1.4 1.4 0 .8.6 1.4 1.4 1.4zM30.2-14.4c.8 0 1.4-.6 1.4-1.4s-.6-1.4-1.4-1.4-1.4.6-1.4 1.4c0 .8.6 1.4 1.4 1.4zM15.8-14.4c.8 0 1.4-.6 1.4-1.4s-.6-1.4-1.4-1.4c-.8 0-1.4.6-1.4 1.4 0 .8.6 1.4 1.4 1.4zM8.6-7.2c.8 0 1.4-.6 1.4-1.4S9.4-10 8.6-10c-.8 0-1.4.6-1.4 1.4 0 .8.6 1.4 1.4 1.4zM23-7.2c.8 0 1.4-.6 1.4-1.4S23.8-10 23-10s-1.4.6-1.4 1.4.6 1.4 1.4 1.4zM8.6-21.6c.8 0 1.4-.6 1.4-1.4s-.6-1.4-1.4-1.4c-.8 0-1.4.6-1.4 1.4 0 .8.6 1.4 1.4 1.4zM23-21.6c.8 0 1.4-.6 1.4-1.4s-.6-1.4-1.4-1.4-1.4.6-1.4 1.4c0 .8.6 1.4 1.4 1.4z"/><g><path d="M1.4 0c.8 0 1.4-.6 1.4-1.4s-.6-1.4-1.4-1.4C.6-2.9 0-2.2 0-1.4 0-.6.6 0 1.4 0zM1.4-14.4c.8 0 1.4-.6 1.4-1.4s-.6-1.4-1.4-1.4-1.4.6-1.4 1.4.6 1.4 1.4 1.4z"/></g><g><path d="M30.2-28.8c.8 0 1.4-.6 1.4-1.4s-.6-1.4-1.4-1.4-1.4.6-1.4 1.4c0 .8.6 1.4 1.4 1.4zM15.8-28.8c.8 0 1.4-.6 1.4-1.4s-.6-1.4-1.4-1.4-1.4.6-1.4 1.4c0 .8.6 1.4 1.4 1.4z"/></g><path d="M1.4-28.8c.8 0 1.4-.6 1.4-1.4s-.6-1.4-1.4-1.4C.6-31.7 0-31 0-30.2c0 .8.6 1.4 1.4 1.4z"/></g></pattern><defs><path id="backdrop_c" d="M0 0h1000v1000H0z"/></defs><use class="bg_color" overflow="visible" xlink:href="#backdrop_c"/><clipPath id="backdrop_d"><use overflow="visible" xlink:href="#backdrop_c"/></clipPath><g clip-path="url(#backdrop_d)"><linearGradient id="backdrop_e" x1="536.871" x2="551.402" y1="34.964" y2="34.964" gradientUnits="userSpaceOnUse"><stop offset="0" class="bg_stop_2"/><stop offset=".313" stop-color="#ebc7fb"/><stop offset=".581" stop-color="#e6bcfa"/><stop offset=".831" stop-color="#ddabf7"/><stop offset="1" class="bg_stop_3"/></linearGradient><path fill="none" stroke="url(#backdrop_e)" stroke-miterlimit="10" stroke-width="2" d="M550.4-43.7l-12.5 157.4"/><linearGradient id="backdrop_f" x1="583.873" x2="642.985" y1="60.907" y2="60.907" gradientUnits="userSpaceOnUse"><stop offset="0" class="bg_stop_1"/><stop offset=".403" stop-color="#f7e2ff"/><stop offset=".747" stop-color="#f2d7fd"/><stop offset="1" class="bg_stop_2"/></linearGradient><path fill="none" stroke="url(#backdrop_f)" stroke-miterlimit="10" stroke-width="12" d="M637.2-24.9l-47.5 171.6"/><linearGradient id="backdrop_g" x1="691.212" x2="806.201" y1="107.61" y2="107.61" gradientUnits="userSpaceOnUse"><stop offset="0" class="bg_stop_2"/><stop offset=".313" stop-color="#ebc7fb"/><stop offset=".581" stop-color="#e6bcfa"/><stop offset=".831" stop-color="#ddabf7"/><stop offset="1" class="bg_stop_3"/></linearGradient><path fill="none" stroke="url(#backdrop_g)" stroke-miterlimit="10" stroke-width="2" d="M805.4 18.7L692.1 196.6"/><linearGradient id="backdrop_h" x1="738.671" x2="1008.446" y1="296.382" y2="296.382" gradientUnits="userSpaceOnUse"><stop offset="0" class="bg_stop_2"/><stop offset=".313" stop-color="#ebc7fb"/><stop offset=".581" stop-color="#e6bcfa"/><stop offset=".831" stop-color="#ddabf7"/><stop offset="1" class="bg_stop_3"/></linearGradient><path fill="none" stroke="url(#backdrop_h)" stroke-miterlimit="10" stroke-width="2" d="M1007.9 214.5L739.2 378.3"/><linearGradient id="backdrop_i" x1="771.881" x2="987.894" y1="425.71" y2="425.71" gradientUnits="userSpaceOnUse"><stop offset="0" class="bg_stop_2"/><stop offset=".313" stop-color="#ebc7fb"/><stop offset=".581" stop-color="#e6bcfa"/><stop offset=".831" stop-color="#ddabf7"/><stop offset="1" class="bg_stop_3"/></linearGradient><path fill="none" stroke="url(#backdrop_i)" stroke-miterlimit="10" stroke-width="2" d="M987.7 404.8l-215.6 41.8"/><linearGradient id="backdrop_j" x1="395.736" x2="431.777" y1="49.519" y2="49.519" gradientUnits="userSpaceOnUse"><stop offset="0" class="bg_stop_2"/><stop offset=".313" stop-color="#ebc7fb"/><stop offset=".581" stop-color="#e6bcfa"/><stop offset=".831" stop-color="#ddabf7"/><stop offset="1" class="bg_stop_3"/></linearGradient><path fill="none" stroke="url(#backdrop_j)" stroke-miterlimit="10" stroke-width="2" d="M396.7-28l34.1 155.1"/><linearGradient id="backdrop_k" x1="7.226" x2="277.747" y1="149.186" y2="149.186" gradientUnits="userSpaceOnUse"><stop offset="0" class="bg_stop_2"/><stop offset=".313" stop-color="#ebc7fb"/><stop offset=".581" stop-color="#e6bcfa"/><stop offset=".831" stop-color="#ddabf7"/><stop offset="1" class="bg_stop_3"/></linearGradient><path fill="none" stroke="url(#backdrop_k)" stroke-miterlimit="10" stroke-width="2" d="M7.9 17.4L277 281"/><linearGradient id="backdrop_l" x1="-9.719" x2="184.994" y1="231.775" y2="231.775" gradientUnits="userSpaceOnUse"><stop offset="0" class="bg_stop_2"/><stop offset=".313" stop-color="#ebc7fb"/><stop offset=".581" stop-color="#e6bcfa"/><stop offset=".831" stop-color="#ddabf7"/><stop offset="1" class="bg_stop_3"/></linearGradient><path fill="none" stroke="url(#backdrop_l)" stroke-miterlimit="10" stroke-width="2" d="M-9.2 172.1l193.7 119.4"/><linearGradient id="backdrop_m" x1="-55.075" x2="261.548" y1="358.519" y2="358.519" gradientUnits="userSpaceOnUse"><stop offset="0" class="bg_stop_2"/><stop offset=".313" stop-color="#ebc7fb"/><stop offset=".581" stop-color="#e6bcfa"/><stop offset=".831" stop-color="#ddabf7"/><stop offset="1" class="bg_stop_3"/></linearGradient><path fill="none" stroke="url(#backdrop_m)" stroke-miterlimit="10" stroke-width="2" d="M-54.8 314.6l316.1 87.9"/><linearGradient id="backdrop_n" x1="86.643" x2="263.425" y1="342.538" y2="342.538" gradientUnits="userSpaceOnUse"><stop offset=".001" class="bg_stop_2"/><stop offset=".254" stop-color="#f2d7fd"/><stop offset=".598" stop-color="#f7e2ff"/><stop offset="1" class="bg_stop_1"/></linearGradient><path fill="none" stroke="url(#backdrop_n)" stroke-miterlimit="10" stroke-width="12" d="M88.8 309.5l172.5 66.1"/><linearGradient id="backdrop_o" x1="602.31" x2="653.348" y1="1038.804" y2="1038.804" gradientUnits="userSpaceOnUse"><stop offset="0" class="bg_stop_2"/><stop offset=".313" stop-color="#ebc7fb"/><stop offset=".581" stop-color="#e6bcfa"/><stop offset=".831" stop-color="#ddabf7"/><stop offset="1" class="bg_stop_3"/></linearGradient><path fill="none" stroke="url(#backdrop_o)" stroke-miterlimit="10" stroke-width="2" d="M652.4 1152.4l-49.1-227.2"/><linearGradient id="backdrop_p" x1="659.808" x2="717.608" y1="971.196" y2="971.196" gradientUnits="userSpaceOnUse"><stop offset="0" class="bg_stop_1"/><stop offset=".398" stop-color="#f7e2ff"/><stop offset=".738" stop-color="#f2d7fd"/><stop offset=".988" class="bg_stop_2"/></linearGradient><path fill="none" stroke="url(#backdrop_p)" stroke-miterlimit="10" stroke-width="12" d="M712.1 1027.2l-46.8-112"/><linearGradient id="backdrop_q" x1="698.454" x2="765.607" y1="938.012" y2="938.012" gradientUnits="userSpaceOnUse"><stop offset="0" class="bg_stop_2"/><stop offset=".313" stop-color="#ebc7fb"/><stop offset=".581" stop-color="#e6bcfa"/><stop offset=".831" stop-color="#ddabf7"/><stop offset="1" class="bg_stop_3"/></linearGradient><path fill="none" stroke="url(#backdrop_q)" stroke-miterlimit="10" stroke-width="2" d="M764.7 1005.1l-65.3-134.2"/><linearGradient id="backdrop_r" x1="738.642" x2="1026.746" y1="856.625" y2="856.625" gradientUnits="userSpaceOnUse"><stop offset="0" class="bg_stop_2"/><stop offset=".313" stop-color="#ebc7fb"/><stop offset=".581" stop-color="#e6bcfa"/><stop offset=".831" stop-color="#ddabf7"/><stop offset="1" class="bg_stop_3"/></linearGradient><path fill="none" stroke="url(#backdrop_r)" stroke-miterlimit="10" stroke-width="2" d="M1026.1 994.1l-286.8-275"/><linearGradient id="backdrop_s" x1="766.055" x2="926.019" y1="752.486" y2="752.486" gradientUnits="userSpaceOnUse"><stop offset="0" class="bg_stop_2"/><stop offset=".313" stop-color="#ebc7fb"/><stop offset=".581" stop-color="#e6bcfa"/><stop offset=".831" stop-color="#ddabf7"/><stop offset="1" class="bg_stop_3"/></linearGradient><path fill="none" stroke="url(#backdrop_s)" stroke-miterlimit="10" stroke-width="2" d="M925.4 809.4L766.6 695.6"/><linearGradient id="backdrop_t" x1="831.428" x2="962.926" y1="831.857" y2="831.857" gradientUnits="userSpaceOnUse"><stop offset="0" class="bg_stop_1"/><stop offset=".403" stop-color="#f7e2ff"/><stop offset=".747" stop-color="#f2d7fd"/><stop offset="1" class="bg_stop_2"/></linearGradient><path fill="none" stroke="url(#backdrop_t)" stroke-miterlimit="10" stroke-width="12" d="M959.1 882.7L835.2 781"/><linearGradient id="backdrop_u" x1="779.336" x2="997.143" y1="694.507" y2="694.507" gradientUnits="userSpaceOnUse"><stop offset="0" class="bg_stop_2"/><stop offset=".313" stop-color="#ebc7fb"/><stop offset=".581" stop-color="#e6bcfa"/><stop offset=".831" stop-color="#ddabf7"/><stop offset="1" class="bg_stop_3"/></linearGradient><path fill="none" stroke="url(#backdrop_u)" stroke-miterlimit="10" stroke-width="2" d="M996.7 746.1L779.8 642.9"/><linearGradient id="backdrop_v" x1="694.639" x2="909.059" y1="679.074" y2="679.074" gradientUnits="userSpaceOnUse"><stop offset="0" class="bg_stop_1"/><stop offset=".403" stop-color="#f7e2ff"/><stop offset=".747" stop-color="#f2d7fd"/><stop offset="1" class="bg_stop_2"/></linearGradient><path fill="none" stroke="url(#backdrop_v)" stroke-miterlimit="10" stroke-width="12" d="M906.6 725.8l-209.5-93.5"/><linearGradient id="backdrop_w" x1="154.603" x2="261.572" y1="941.871" y2="941.871" gradientUnits="userSpaceOnUse"><stop offset=".004" class="bg_stop_2"/><stop offset=".256" stop-color="#f2d7fd"/><stop offset=".599" stop-color="#f7e2ff"/><stop offset="1" class="bg_stop_1"/></linearGradient><path fill="none" stroke="url(#backdrop_w)" stroke-miterlimit="10" stroke-width="12" d="M159.6 1015.3l97-146.8"/><linearGradient id="backdrop_x" x1="-16.761" x2="197.446" y1="795.604" y2="795.604" gradientUnits="userSpaceOnUse"><stop offset="0" class="bg_stop_2"/><stop offset=".313" stop-color="#ebc7fb"/><stop offset=".581" stop-color="#e6bcfa"/><stop offset=".831" stop-color="#ddabf7"/><stop offset="1" class="bg_stop_3"/></linearGradient><path fill="none" stroke="url(#backdrop_x)" stroke-miterlimit="10" stroke-width="2" d="M-16.2 872.1l213.1-153"/><linearGradient id="backdrop_y" x1="123.728" x2="336.892" y1="732.973" y2="732.973" gradientUnits="userSpaceOnUse"><stop offset="0" class="bg_stop_2"/><stop offset=".253" stop-color="#f2d7fd"/><stop offset=".598" stop-color="#f7e2ff"/><stop offset="1" class="bg_stop_1"/></linearGradient><path fill="none" stroke="url(#backdrop_y)" stroke-miterlimit="10" stroke-width="12" d="M333 644.6L127.6 821.4"/><linearGradient id="backdrop_z" x1="71.314" x2="260.678" y1="890.497" y2="890.497" gradientUnits="userSpaceOnUse"><stop offset="0" class="bg_stop_2"/><stop offset=".313" stop-color="#ebc7fb"/><stop offset=".581" stop-color="#e6bcfa"/><stop offset=".831" stop-color="#ddabf7"/><stop offset="1" class="bg_stop_3"/></linearGradient><path fill="none" stroke="url(#backdrop_z)" stroke-miterlimit="10" stroke-width="2" d="M259.9 781.5l-187.8 218"/><linearGradient id="backdrop_A" x1="761.011" x2="977.71" y1="252.124" y2="252.124" gradientUnits="userSpaceOnUse"><stop offset="0" class="bg_stop_1"/><stop offset=".403" stop-color="#f7e2ff"/><stop offset=".747" stop-color="#f2d7fd"/><stop offset="1" class="bg_stop_2"/></linearGradient><path fill="none" stroke="url(#backdrop_A)" stroke-miterlimit="10" stroke-width="12" d="M764.5 328.1l209.7-152"/><linearGradient id="backdrop_B" x1="791.601" x2="1062.559" y1="132.031" y2="132.031" gradientUnits="userSpaceOnUse"><stop offset="0" class="bg_stop_2"/><stop offset=".313" stop-color="#ebc7fb"/><stop offset=".581" stop-color="#e6bcfa"/><stop offset=".831" stop-color="#ddabf7"/><stop offset="1" class="bg_stop_3"/></linearGradient><path fill="none" stroke="url(#backdrop_B)" stroke-miterlimit="10" stroke-width="2" d="M1061.9 0L792.3 264.1"/><circle cx="938.1" cy="788.7" r="4" class="bg_halftone"/><circle cx="947.1" cy="650" r="7" class="bg_halftone"/><circle cx="927.1" cy="165.1" r="7" class="bg_halftone"/><circle cx="252.4" cy="647.4" r="7" class="bg_halftone"/><circle cx="494.2" cy="943.2" r="7" class="bg_halftone"/><circle cx="816.7" cy="600.8" r="4" class="bg_halftone"/><circle cx="412.5" cy="904.3" r="4" class="bg_halftone"/><circle cx="821" cy="553" r="2" class="bg_halftone"/><circle cx="233.7" cy="312.7" r="2" class="bg_halftone"/><circle cx="692.6" cy="133.9" r="2" class="bg_halftone"/><circle cx="748" cy="272.7" r="2" class="bg_halftone"/><circle cx="738.6" cy="578.1" r="2" class="bg_halftone"/><circle cx="732.6" cy="823.3" r="2" class="bg_halftone"/><circle cx="514.5" cy="925.2" r="2" class="bg_halftone"/><circle cx="768.9" cy="513.2" r="4" class="bg_halftone"/><circle cx="774.4" cy="557.8" r="4" class="bg_halftone"/><circle cx="123.8" cy="211.9" r="4" class="bg_halftone"/><circle cx="683" cy="84.6" r="4" class="bg_halftone"/><circle cx="686.1" cy="440.4" r="2" class="bg_halftone"/><circle cx="331.1" cy="474.2" r="2" class="bg_halftone"/><circle cx="151" cy="937.1" r="7" class="bg_halftone"/><circle cx="226.3" cy="453" r="4" class="bg_halftone"/><circle cx="115.8" cy="561.2" r="4" class="bg_halftone"/><circle cx="230.3" cy="264.1" r="4" class="bg_halftone"/><circle cx="329.5" cy="54.9" r="6" class="bg_halftone"/><circle cx="277" cy="107.6" r="4" class="bg_halftone"/><circle cx="80.9" cy="412.3" r="7" class="bg_halftone"/><circle cx="947.8" cy="834.6" r="6" class="bg_halftone"/><circle cx="846.7" cy="908.3" r="4" class="bg_halftone"/><linearGradient id="backdrop_C" x1="7.532" x2="169.885" y1="683.868" y2="683.868" gradientUnits="userSpaceOnUse"><stop offset="0" class="bg_stop_2"/><stop offset=".313" stop-color="#ebc7fb"/><stop offset=".581" stop-color="#e6bcfa"/><stop offset=".831" stop-color="#ddabf7"/><stop offset="1" class="bg_stop_3"/></linearGradient><path fill="none" stroke="url(#backdrop_C)" stroke-miterlimit="10" stroke-width="2" d="M169.5 649.2L7.9 718.5"/><linearGradient id="backdrop_D" x1="6.129" x2="95.83" y1="635.721" y2="635.721" gradientUnits="userSpaceOnUse"><stop offset="0" class="bg_stop_2"/><stop offset=".253" stop-color="#f2d7fd"/><stop offset=".597" stop-color="#f7e2ff"/><stop offset="1" class="bg_stop_1"/></linearGradient><path fill="none" stroke="url(#backdrop_D)" stroke-miterlimit="10" stroke-width="12" d="M7.9 649.2l86.1-27"/><linearGradient id="backdrop_E" x1="7.735" x2="183.785" y1="583.163" y2="583.163" gradientUnits="userSpaceOnUse"><stop offset="0" class="bg_stop_2"/><stop offset=".313" stop-color="#ebc7fb"/><stop offset=".581" stop-color="#e6bcfa"/><stop offset=".831" stop-color="#ddabf7"/><stop offset="1" class="bg_stop_3"/></linearGradient><path fill="none" stroke="url(#backdrop_E)" stroke-miterlimit="10" stroke-width="2" d="M183.6 566.1L7.9 600.2"/><pattern id="backdrop_G" patternTransform="rotate(180 -7689.89 -8710.99)" xlink:href="#backdrop_F"/><path fill="url(#backdrop_G)" d="M-78.3 403.8l-14 141.5L238.8 500z"/><pattern id="backdrop_H" patternTransform="rotate(-1.757 -8339.035 -8750.132) scale(.99997)" xlink:href="#backdrop_F"/><path fill="url(#backdrop_H)" d="M1102.1 563.2l-15.3-138.7-346 49.2z"/><pattern id="backdrop_I" patternTransform="rotate(180 -7688.442 -8715.37)" xlink:href="#backdrop_F"/><path fill="url(#backdrop_I)" d="M194.9-20.7L68.3-19.3l217.2 226.6z"/><pattern id="backdrop_J" patternTransform="rotate(180 -7684.345 -8715.37)" xlink:href="#backdrop_F"/><path fill="url(#backdrop_J)" d="M1058.2 8L924.7-27.5l-197 260.6z"/><pattern id="backdrop_K" patternTransform="rotate(55.896 -7696.144 -8725.295)" xlink:href="#backdrop_F"/><path fill="url(#backdrop_K)" d="M204.7 1057.7l72.1 104.1 65.9-306.9z"/><linearGradient id="backdrop_L" x1="-8.446" x2="53.48" y1="122.156" y2="122.156" gradientUnits="userSpaceOnUse"><stop offset="0" class="bg_stop_2"/><stop offset=".313" stop-color="#ebc7fb"/><stop offset=".581" stop-color="#e6bcfa"/><stop offset=".831" stop-color="#ddabf7"/><stop offset="1" class="bg_stop_3"/></linearGradient><path fill="none" stroke="url(#backdrop_L)" stroke-miterlimit="10" stroke-width="2" d="M-7.9 101.9l60.8 40.5"/></g><pattern id="ear_i" width="48" height="48" x="250" y="750" overflow="visible" patternUnits="userSpaceOnUse" viewBox="4.8 -52.8 48 48"><defs><path id="ear_a" d="M4.8-52.8h48v48h-48z"/></defs><clipPath id="ear_b"><use overflow="visible" xlink:href="#ear_a"/></clipPath><g class="skin_dark" clip-path="url(#ear_b)"><path d="M28.8-57.6c2.7 0 4.8 2.1 4.8 4.8S31.5-48 28.8-48 24-50.2 24-52.8c0-2.7 2.1-4.8 4.8-4.8zM52.8-57.6c2.7 0 4.8 2.1 4.8 4.8S55.5-48 52.8-48 48-50.2 48-52.8c0-2.7 2.1-4.8 4.8-4.8zM28.8-33.6c2.7 0 4.8 2.1 4.8 4.8S31.5-24 28.8-24 24-26.1 24-28.8s2.1-4.8 4.8-4.8zM52.8-33.6c2.7 0 4.8 2.1 4.8 4.8S55.5-24 52.8-24 48-26.1 48-28.8s2.1-4.8 4.8-4.8zM40.8-45.6c2.7 0 4.8 2.1 4.8 4.8S43.5-36 40.8-36 36-38.2 36-40.8c0-2.7 2.1-4.8 4.8-4.8zM16.8-45.6c2.7 0 4.8 2.1 4.8 4.8S19.5-36 16.8-36 12-38.2 12-40.8c0-2.7 2.1-4.8 4.8-4.8zM40.8-21.6c2.7 0 4.8 2.1 4.8 4.8S43.5-12 40.8-12 36-14.1 36-16.8s2.1-4.8 4.8-4.8zM16.8-21.6c2.7 0 4.8 2.1 4.8 4.8S19.5-12 16.8-12 12-14.1 12-16.8s2.1-4.8 4.8-4.8z"/></g><defs><path id="ear_c" d="M4.8-52.8h48v48h-48z"/></defs><clipPath id="ear_d"><use overflow="visible" xlink:href="#ear_c"/></clipPath><g class="skin_dark" clip-path="url(#ear_d)"><path d="M4.8-57.6c2.7 0 4.8 2.1 4.8 4.8S7.5-48 4.8-48 0-50.1 0-52.8s2.1-4.8 4.8-4.8zM4.8-33.6c2.7 0 4.8 2.1 4.8 4.8S7.5-24 4.8-24 0-26.1 0-28.8s2.1-4.8 4.8-4.8z"/></g><g><defs><path id="ear_e" d="M4.8-52.8h48v48h-48z"/></defs><clipPath id="ear_f"><use overflow="visible" xlink:href="#ear_e"/></clipPath><g class="skin_dark" clip-path="url(#ear_f)"><path d="M28.8-9.6c2.7 0 4.8 2.1 4.8 4.8S31.5 0 28.8 0 24-2.2 24-4.8c0-2.7 2.1-4.8 4.8-4.8zM52.8-9.6c2.7 0 4.8 2.1 4.8 4.8S55.5 0 52.8 0 48-2.2 48-4.8c0-2.7 2.1-4.8 4.8-4.8z"/></g></g><g><defs><path id="ear_g" d="M4.8-52.8h48v48h-48z"/></defs><clipPath id="ear_h"><use overflow="visible" xlink:href="#ear_g"/></clipPath><path class="skin_dark" d="M4.8-9.6c2.7 0 4.8 2.1 4.8 4.8S7.5 0 4.8 0 0-2.2 0-4.8c0-2.7 2.1-4.8 4.8-4.8z" clip-path="url(#ear_h)"/></g></pattern><path class="skin_fill" d="M632.6 526l17.1 11.9c6.4 4.4 15.2 1.9 18.2-5.2 14.4-33.1 20.7-42.5 18-60.4-10-68.1-8.2-70.3-16.4-70.3-7.8 0-7.7 9.2-10.8 23.4l-26.2 9.2V526z"/><pattern id="ear_j" patternTransform="matrix(.26 0 0 .26 -33976.535 -806.336)" xlink:href="#ear_i"/><path fill="url(#ear_j)" d="M680.2 478.7c2.2 9.8-7.9 20.6-13.3 23.7 0 0 3.3-8.7-.2-14.5.1 0-.8-48.6.3-66.7 0 0 6.9 29.1 13.2 57.5z"/><path class="skin_outline" d="M665 508.1c-1.3-.7 4.8-11.1.4-19.9 0-95 3-96.9 3-.8 0 .7 2.9 3.6 0 13.5-1.2 3.7-3.1 7.4-3.4 7.2z"/><path class="skin_fill" d="M367.4 526l-17.1 11.9c-6.4 4.4-15.2 1.9-18.2-5.2-14.4-33.1-20.7-42.5-18-60.4 10-68.1 8.2-70.3 16.4-70.3 7.8 0 7.7 9.2 10.8 23.4l26.2 9.2V526z"/><pattern id="ear_k" patternTransform="matrix(-.26 0 0 .26 17612.375 -806.336)" xlink:href="#ear_i"/><path fill="url(#ear_k)" d="M333 421.2c1.1 18.1.2 66.7.3 66.7-3.6 5.8-.2 14.5-.2 14.5-5.4-3.1-15.4-13.9-13.3-23.7 6.3-28.4 13.2-57.5 13.2-57.5z"/><path class="skin_outline" d="M331.6 500.9c-2.9-9.9 0-12.8 0-13.5 0-96.1 3-94.2 3 .8-4.4 8.8 1.7 19.2.4 19.9-.3.2-2.2-3.5-3.4-7.2z"/><pattern id="face_i" width="48" height="48" x="250" y="750" overflow="visible" patternUnits="userSpaceOnUse" viewBox="4.8 -52.8 48 48"><defs><path id="face_a" d="M4.8-52.8h48v48h-48z"/></defs><clipPath id="face_b"><use overflow="visible" xlink:href="#face_a"/></clipPath><g class="skin_dark" clip-path="url(#face_b)"><path d="M28.8-57.6c2.7 0 4.8 2.1 4.8 4.8S31.5-48 28.8-48 24-50.2 24-52.8c0-2.7 2.1-4.8 4.8-4.8zM52.8-57.6c2.7 0 4.8 2.1 4.8 4.8S55.5-48 52.8-48 48-50.2 48-52.8c0-2.7 2.1-4.8 4.8-4.8zM28.8-33.6c2.7 0 4.8 2.1 4.8 4.8S31.5-24 28.8-24 24-26.1 24-28.8s2.1-4.8 4.8-4.8zM52.8-33.6c2.7 0 4.8 2.1 4.8 4.8S55.5-24 52.8-24 48-26.1 48-28.8s2.1-4.8 4.8-4.8zM40.8-45.6c2.7 0 4.8 2.1 4.8 4.8S43.5-36 40.8-36 36-38.2 36-40.8c0-2.7 2.1-4.8 4.8-4.8zM16.8-45.6c2.7 0 4.8 2.1 4.8 4.8S19.5-36 16.8-36 12-38.2 12-40.8c0-2.7 2.1-4.8 4.8-4.8zM40.8-21.6c2.7 0 4.8 2.1 4.8 4.8S43.5-12 40.8-12 36-14.1 36-16.8s2.1-4.8 4.8-4.8zM16.8-21.6c2.7 0 4.8 2.1 4.8 4.8S19.5-12 16.8-12 12-14.1 12-16.8s2.1-4.8 4.8-4.8z"/></g><defs><path id="face_c" d="M4.8-52.8h48v48h-48z"/></defs><clipPath id="face_d"><use overflow="visible" xlink:href="#face_c"/></clipPath><g class="skin_dark" clip-path="url(#face_d)"><path d="M4.8-57.6c2.7 0 4.8 2.1 4.8 4.8S7.5-48 4.8-48 0-50.1 0-52.8s2.1-4.8 4.8-4.8zM4.8-33.6c2.7 0 4.8 2.1 4.8 4.8S7.5-24 4.8-24 0-26.1 0-28.8s2.1-4.8 4.8-4.8z"/></g><g><defs><path id="face_e" d="M4.8-52.8h48v48h-48z"/></defs><clipPath id="face_f"><use overflow="visible" xlink:href="#face_e"/></clipPath><g class="skin_dark" clip-path="url(#face_f)"><path d="M28.8-9.6c2.7 0 4.8 2.1 4.8 4.8S31.5 0 28.8 0 24-2.2 24-4.8c0-2.7 2.1-4.8 4.8-4.8zM52.8-9.6c2.7 0 4.8 2.1 4.8 4.8S55.5 0 52.8 0 48-2.2 48-4.8c0-2.7 2.1-4.8 4.8-4.8z"/></g></g><g><defs><path id="face_g" d="M4.8-52.8h48v48h-48z"/></defs><clipPath id="face_h"><use overflow="visible" xlink:href="#face_g"/></clipPath><path class="skin_dark" d="M4.8-9.6c2.7 0 4.8 2.1 4.8 4.8S7.5 0 4.8 0 0-2.2 0-4.8c0-2.7 2.1-4.8 4.8-4.8z" clip-path="url(#face_h)"/></g></pattern><path class="skin_fill" d="M645.6 558.1c14.3-100 14.2-144.8 14.2-149.9-1-187.5-160-180.3-160-180.3s-159-7.2-160 180.3c0 5.1-.1 50 14.2 149.9 6.3 33.5 19.3 56.3 56 91.8v59c0 9.7-6.9 17.9-16.4 19.7l-38.6 7 68.9 80.8c39.9 46.8 112.2 46.8 152.2 0l68.9-80.8-38.6-7c-9.5-1.7-16.4-10-16.4-19.7v-59.4c36.4-35.3 49.3-58 55.6-91.4z"/><pattern id="face_j" patternTransform="matrix(.2608 0 0 -.2597 -47645.152 1005.796)" xlink:href="#face_i"/><path fill="url(#face_j)" d="M590 669.5v-20c-82.6 80.1-101.2 76.7-180 .4v20c82.3 79.7 100.7 76.5 180-.4z"/><g class="skin_outline"><path d="M658.7 429.1c-.6 0-12.9 121.1-12 121.2 2.8.3 14.6-121.1 12-121.2zM347.3 489.6c-16.6-166.1.6 61.3 5.6 60.7.6-.1-1.2-17.1-5.6-60.7z"/></g><pattern id="face_k" patternTransform="matrix(.2608 0 0 -.2597 -47645.152 1005.796)" xlink:href="#face_i"/><path fill="url(#face_k)" d="M360.2 467.4c6.1 16.2 14.8 33.8 26.8 49.9 16.9 22.8 14.7 61.5 16.5 110.2 0 0-33-30-39.8-70.3L353 467.3h7.2z"/><pattern id="nose_i" width="28.8" height="28.8" y="1000" overflow="visible" patternUnits="userSpaceOnUse" viewBox="1.4 -30.2 28.8 28.8"><g fill="#FFF"><path d="M30.2-31.6c.8 0 1.4.6 1.4 1.4 0 .8-.6 1.4-1.4 1.4s-1.4-.6-1.4-1.4c0-.8.6-1.4 1.4-1.4zM15.8-31.6c.8 0 1.4.6 1.4 1.4 0 .8-.6 1.4-1.4 1.4-.8 0-1.4-.6-1.4-1.4 0-.8.6-1.4 1.4-1.4zM30.2-17.2c.8 0 1.4.6 1.4 1.4s-.6 1.4-1.4 1.4-1.4-.6-1.4-1.4c0-.8.6-1.4 1.4-1.4zM15.8-17.2c.8 0 1.4.6 1.4 1.4s-.6 1.4-1.4 1.4c-.8 0-1.4-.6-1.4-1.4 0-.8.6-1.4 1.4-1.4zM8.6-24.4c.8 0 1.4.6 1.4 1.4 0 .8-.6 1.4-1.4 1.4-.8 0-1.4-.6-1.4-1.4 0-.8.6-1.4 1.4-1.4zM23-24.4c.8 0 1.4.6 1.4 1.4 0 .8-.6 1.4-1.4 1.4s-1.4-.6-1.4-1.4.6-1.4 1.4-1.4zM8.6-10c.8 0 1.4.6 1.4 1.4s-.6 1.4-1.4 1.4c-.8 0-1.4-.6-1.4-1.4 0-.8.6-1.4 1.4-1.4zM23-10c.8 0 1.4.6 1.4 1.4s-.6 1.4-1.4 1.4-1.4-.6-1.4-1.4.6-1.4 1.4-1.4z"/></g><g fill="#FFF"><path d="M1.4-31.6c.8 0 1.4.6 1.4 1.4 0 .8-.6 1.4-1.4 1.4-.8.1-1.4-.6-1.4-1.4 0-.8.6-1.4 1.4-1.4zM1.4-17.2c.8 0 1.4.6 1.4 1.4s-.6 1.4-1.4 1.4S0-15 0-15.8s.6-1.4 1.4-1.4z"/></g><g fill="#FFF"><path d="M30.2-2.8c.8 0 1.4.6 1.4 1.4S31 0 30.2 0s-1.4-.6-1.4-1.4c0-.8.6-1.4 1.4-1.4zM15.8-2.8c.8 0 1.4.6 1.4 1.4S16.6 0 15.8 0s-1.4-.6-1.4-1.4c0-.8.6-1.4 1.4-1.4z"/></g><path fill="#FFF" d="M1.4-2.8c.8 0 1.4.6 1.4 1.4S2.2 0 1.4 0C.6.1 0-.6 0-1.4c0-.8.6-1.4 1.4-1.4z"/></pattern><pattern id="nose_k" width="48" height="48" y="1000" overflow="visible" patternUnits="userSpaceOnUse" viewBox="4.8 -52.8 48 48"><defs><path id="nose_a" d="M4.8-52.8h48v48h-48z"/></defs><clipPath id="nose_b"><use overflow="visible" xlink:href="#nose_a"/></clipPath><g class="skin_dark" clip-path="url(#nose_b)"><path d="M28.8 0c2.7 0 4.8-2.1 4.8-4.8s-2.1-4.8-4.8-4.8S24-7.4 24-4.8C24-2.1 26.1 0 28.8 0zM52.8 0c2.7 0 4.8-2.1 4.8-4.8s-2.1-4.8-4.8-4.8S48-7.4 48-4.8C48-2.1 50.1 0 52.8 0zM28.8-24c2.7 0 4.8-2.1 4.8-4.8s-2.1-4.8-4.8-4.8-4.8 2.1-4.8 4.8 2.1 4.8 4.8 4.8zM52.8-24c2.7 0 4.8-2.1 4.8-4.8s-2.1-4.8-4.8-4.8-4.8 2.1-4.8 4.8 2.1 4.8 4.8 4.8zM40.8-12c2.7 0 4.8-2.1 4.8-4.8s-2.1-4.8-4.8-4.8-4.8 2.2-4.8 4.8c0 2.7 2.1 4.8 4.8 4.8zM16.8-12c2.7 0 4.8-2.1 4.8-4.8s-2.1-4.8-4.8-4.8-4.8 2.2-4.8 4.8c0 2.7 2.1 4.8 4.8 4.8zM40.8-36c2.7 0 4.8-2.1 4.8-4.8s-2.1-4.8-4.8-4.8-4.8 2.1-4.8 4.8 2.1 4.8 4.8 4.8zM16.8-36c2.7 0 4.8-2.1 4.8-4.8s-2.1-4.8-4.8-4.8-4.8 2.1-4.8 4.8 2.1 4.8 4.8 4.8z"/></g><defs><path id="nose_c" d="M4.8-52.8h48v48h-48z"/></defs><clipPath id="nose_d"><use overflow="visible" xlink:href="#nose_c"/></clipPath><g class="skin_dark" clip-path="url(#nose_d)"><path d="M4.8 0c2.7 0 4.8-2.1 4.8-4.8S7.5-9.6 4.8-9.6 0-7.5 0-4.8 2.1 0 4.8 0zM4.8-24c2.7 0 4.8-2.1 4.8-4.8s-2.1-4.8-4.8-4.8S0-31.5 0-28.8 2.1-24 4.8-24z"/></g><g><defs><path id="nose_e" d="M4.8-52.8h48v48h-48z"/></defs><clipPath id="nose_f"><use overflow="visible" xlink:href="#nose_e"/></clipPath><g class="skin_dark" clip-path="url(#nose_f)"><path d="M28.8-48c2.7 0 4.8-2.1 4.8-4.8s-2.1-4.8-4.8-4.8-4.8 2.2-4.8 4.8c0 2.7 2.1 4.8 4.8 4.8zM52.8-48c2.7 0 4.8-2.1 4.8-4.8s-2.1-4.8-4.8-4.8-4.8 2.2-4.8 4.8c0 2.7 2.1 4.8 4.8 4.8z"/></g></g><g><defs><path id="nose_g" d="M4.8-52.8h48v48h-48z"/></defs><clipPath id="nose_h"><use overflow="visible" xlink:href="#nose_g"/></clipPath><path class="skin_dark" d="M4.8-48c2.7 0 4.8-2.1 4.8-4.8s-2.1-4.8-4.8-4.8S0-55.4 0-52.8C0-50.1 2.1-48 4.8-48z" clip-path="url(#nose_h)"/></g></pattern><pattern id="nose_j" patternTransform="matrix(.416 0 0 -.416 -75336.617 10922.397)" xlink:href="#nose_i"/><path fill="url(#nose_j)" d="M515.2 545.5c-7.6-11.7-22.4-11.7-30 0h30z"/><pattern id="nose_l" patternTransform="rotate(180 -27228.385 -3936.754) scale(.2222)" xlink:href="#nose_k"/><path fill="url(#nose_l)" d="M514.7 552.3c-7.1 12.9-21.8 13-28.9 0l-10.4 7.2c17.7 11.7 23.7 17.2 49.7 0l-10.4-7.2z"/><pattern id="nose_m" patternTransform="matrix(.26 0 0 .26 -52942.23 -7305.806)" xlink:href="#nose_k"/><path fill="url(#nose_m)" d="M486.6 525c0-80.6 2.3-60-8.8-95v107.2l8.8-12.2z"/><pattern id="nose_n" patternTransform="matrix(-.416 0 0 .416 44078.063 -11499.134)" xlink:href="#nose_i"/><path fill="url(#nose_n)" d="M513.4 525c0-80.6-2.5-60 9.8-95v107.2l-9.8-12.2z"/><path class="skin_outline" d="M536.5 550.4c-2.2-4.9-4.6-2-14.8-15.8-10.2-13.5-10.8-13.1-1.5 1.1 9.4 14.2 12.1 12.1 13.7 15.9 2 4.6-3.1 9.5-7.7 6.7-13.3-8.7-9.9-10.1-19.3-.6-8.5 8.7-16.9-4.3-19.3-5.9-2.8-1.9-4.6.3-12.7 6-5.4 3.8-10.4-1.7-8.4-6.2.7-1.6 1.6-2.2 4-4.2 7.4-6.4 16.6-22.5 16.3-22.7-1-.7-9.9 14.3-17.9 20.6-2.3 1.9-4 2.9-4.9 5-3.4 7.2 4.7 15.2 12.4 10.3 3.5-2.4.5-2.1 15.6.2 4.7 4 11.7 4.1 16.5 0 14.9-2.3 12.1-2.6 15.6-.2 7.7 5.1 15.7-3.1 12.4-10.2z"/><path fill="#B7B7D0" d="M479.8 557.1l-2.4 1.5c-2.6 7-11.8.9-8-4.8 1.7-2.6 4.1-1.4 3.8-3.1-.4-2-4.1.1-5.4 2-6.2 9.2 10.5 17 12 4.4z"/><path fill="#A5A5B7" d="M473.4 563.2c-7.2 0-8.7-11.3-1.3-12.7.6 0 .6.7.1.8-6.5 1.2-5.1 11.1 1.1 11.1 3.6 0 3.5-2.7 5.5-4-.7 3.2-3 4.8-5.4 4.8z"/><pattern id="mouth_i" width="28.8" height="28.8" x="250" y="750" overflow="visible" patternUnits="userSpaceOnUse" viewBox="1.4 -30.2 28.8 28.8"><defs><path id="mouth_a" d="M1.4-30.2h28.8v28.8H1.4z"/></defs><clipPath id="mouth_b"><use overflow="visible" xlink:href="#mouth_a"/></clipPath><g fill="#B18588" clip-path="url(#mouth_b)"><path d="M30.2 0c1.9 0 1.9-2.8 0-2.8S28.3 0 30.2 0zM15.8 0c1.9 0 1.9-2.8 0-2.8S13.9 0 15.8 0zM30.2-14.4c1.9 0 1.9-2.8 0-2.8s-1.9 2.8 0 2.8zM15.8-14.4c1.9 0 1.9-2.8 0-2.8s-1.9 2.8 0 2.8zM8.6-7.2c1.9 0 1.9-2.8 0-2.8s-1.9 2.8 0 2.8zM23-7.2c1.9 0 1.9-2.8 0-2.8s-1.9 2.8 0 2.8zM8.6-21.6c1.9 0 1.9-2.8 0-2.8s-1.9 2.8 0 2.8zM23-21.6c1.9 0 1.9-2.8 0-2.8s-1.9 2.8 0 2.8z"/></g><defs><path id="mouth_c" d="M1.4-30.2h28.8v28.8H1.4z"/></defs><clipPath id="mouth_d"><use overflow="visible" xlink:href="#mouth_c"/></clipPath><g fill="#B18588" clip-path="url(#mouth_d)"><path d="M1.4 0c1.9 0 1.9-2.8 0-2.8C-.4-3-.6 0 1.4 0zM1.4-14.4c1.9 0 1.9-2.8 0-2.8s-1.9 2.8 0 2.8z"/></g><g><defs><path id="mouth_e" d="M1.4-30.2h28.8v28.8H1.4z"/></defs><clipPath id="mouth_f"><use overflow="visible" xlink:href="#mouth_e"/></clipPath><g fill="#B18588" clip-path="url(#mouth_f)"><path d="M30.2-28.8c1.9 0 1.9-2.8 0-2.8s-1.9 2.8 0 2.8zM15.8-28.8c1.9 0 1.9-2.8 0-2.8s-1.9 2.8 0 2.8z"/></g></g><g><defs><path id="mouth_g" d="M1.4-30.2h28.8v28.8H1.4z"/></defs><clipPath id="mouth_h"><use overflow="visible" xlink:href="#mouth_g"/></clipPath><path fill="#B18588" d="M1.4-28.8c1.9 0 1.9-2.8 0-2.8-1.8-.2-2 2.8 0 2.8z" clip-path="url(#mouth_h)"/></g></pattern><path fill="#241F20" d="M467.3 609.6c9.8-5.3 21.8-11.6 32.7-8.8 10.9-2.8 26.9 5.2 36.8 10.4-2.4-.3-7.6 1.3-11.4 1.4-.3 1.6-3.2-.1-4.4.1-2.6.4-17.6-.5-17.6-.5s-2.1-.3-2.5-1.7c-4.6 5-19.5-2.5-19.3 7.9-4.6-1.8-8.8 1.3-8.8 1.3-4.6-1.7-10.5-.7-10.5-.7-14.2-11.1-7.2-2.9 5-9.4z"/><path class="skin_dark" d="M488.9 588.6l11.1 2.3 10.3-2.1c4.1-.8 37.3 16.8 44.7 23-22.7 5.5-33.1-14.8-55-9.2-21.9-5.7-32.3 14.7-55 9.2 5-7.3 40.1-24 43.9-23.2z"/><pattern id="mouth_j" patternTransform="matrix(-.4461 0 0 .3924 12676.585 1590.375)" xlink:href="#mouth_i"/><path fill="url(#mouth_j)" d="M488.9 588.6l11.1 2.3 10.3-2.1c4.1-.8 37.3 16.8 44.7 23-22.7 5.5-33.1-14.8-55-9.2-21.9-5.7-32.3 14.7-55 9.2 5-7.3 40.1-24 43.9-23.2z"/><path class="skin_dark" d="M453.3 612.6c17.4 6.4 17.1 1.5 32.3-2.2 17-.7 11.3.2 15.3-4.2.4 1.4 2.5 3.6 2.5 3.6 19.4 1.2 18.4 1 19.7-1.7 0 0-1.9-6.4 9.6 2.3 9.8 5.3 22.3 1.2 22.3 1.2-17.8 6.8-29.7 4.1-50 16.6-12.9 7.9-41.3 11.5-50.7-1.6-2.2-3-8.6-12.6-9.3-14.9 0 .1 3.5.9 8.3.9z"/><path fill="#F5F1E6" d="M523.5 605.2c.1 6.6-2.3 5.8-20.1 4.7-3.1 0-2.5-4.1-2.5-7.6 7-1.2 15.6.2 22.6 2.9z"/><path fill="#F5F1E6" d="M478.3 604.6c-.1 7.5 2.3 6.5 20.1 5.4 3.1 0 2.5-4.1 2.5-7.6-7.1-1.3-15.7-.5-22.6 2.2z"/><path class="skin_outline" d="M445 611.8c.2-.7 9.2 2 20-2.3 7.6-3.8 21.4-11.5 33.8-8.5 3.8.8 8.3-4.3 32.3 6.7 17.9 8.5 23.4 3 23.9 4.1.2.3-7.8 5.3-24.7-2.1-24.2-10.2-27.4-5.1-32-6.1-11.4-2.9-26.2 4.9-32.5 7.8-10 3.5-21 1.1-20.8.4z"/><path fill="none"/><pattern id="eye_e" width="28.8" height="28.8" x="250" y="750" overflow="visible" patternUnits="userSpaceOnUse" viewBox="1.4 -30.2 28.8 28.8"><defs><path id="eye_a" d="M1.4-30.2h28.8v28.8H1.4z"/></defs><clipPath id="eye_b"><use overflow="visible" xlink:href="#eye_a"/></clipPath><g clip-path="url(#eye_b)"><g fill="#FFF"><path d="M30.2-31.6c.8 0 1.4.6 1.4 1.4 0 .8-.6 1.4-1.4 1.4s-1.4-.6-1.4-1.4c0-.8.6-1.4 1.4-1.4zM15.8-31.6c.8 0 1.4.6 1.4 1.4 0 .8-.6 1.4-1.4 1.4-.8 0-1.4-.6-1.4-1.4 0-.8.6-1.4 1.4-1.4zM30.2-17.2c.8 0 1.4.6 1.4 1.4s-.6 1.4-1.4 1.4-1.4-.6-1.4-1.4c0-.8.6-1.4 1.4-1.4zM15.8-17.2c.8 0 1.4.6 1.4 1.4s-.6 1.4-1.4 1.4c-.8 0-1.4-.6-1.4-1.4 0-.8.6-1.4 1.4-1.4zM8.6-24.4c.8 0 1.4.6 1.4 1.4 0 .8-.6 1.4-1.4 1.4-.8 0-1.4-.6-1.4-1.4 0-.8.6-1.4 1.4-1.4zM23-24.4c.8 0 1.4.6 1.4 1.4 0 .8-.6 1.4-1.4 1.4s-1.4-.6-1.4-1.4.6-1.4 1.4-1.4zM8.6-10c.8 0 1.4.6 1.4 1.4s-.6 1.4-1.4 1.4c-.8 0-1.4-.6-1.4-1.4 0-.8.6-1.4 1.4-1.4zM23-10c.8 0 1.4.6 1.4 1.4s-.6 1.4-1.4 1.4-1.4-.6-1.4-1.4.6-1.4 1.4-1.4z"/></g><g fill="#FFF"><path d="M1.4-31.6c.8 0 1.4.6 1.4 1.4 0 .8-.6 1.4-1.4 1.4-.8.1-1.4-.6-1.4-1.4 0-.8.6-1.4 1.4-1.4zM1.4-17.2c.8 0 1.4.6 1.4 1.4s-.6 1.4-1.4 1.4S0-15 0-15.8s.6-1.4 1.4-1.4z"/></g><g fill="#FFF"><path d="M30.2-2.8c.8 0 1.4.6 1.4 1.4S31 0 30.2 0s-1.4-.6-1.4-1.4c0-.8.6-1.4 1.4-1.4zM15.8-2.8c.8 0 1.4.6 1.4 1.4S16.6 0 15.8 0s-1.4-.6-1.4-1.4c0-.8.6-1.4 1.4-1.4z"/></g><path fill="#FFF" d="M1.4-2.8c.8 0 1.4.6 1.4 1.4S2.2 0 1.4 0C.6.1 0-.6 0-1.4c0-.8.6-1.4 1.4-1.4z"/></g></pattern><pattern id="eye_g" width="28.8" height="28.8" x="250" y="750" overflow="visible" patternUnits="userSpaceOnUse" viewBox="1.4 -30.2 28.8 28.8"><defs><path id="eye_c" d="M1.4-30.2h28.8v28.8H1.4z"/></defs><clipPath id="eye_d"><use overflow="visible" xlink:href="#eye_c"/></clipPath><g clip-path="url(#eye_d)"><g fill="#FFF"><path d="M30.2-31.6c.8 0 1.4.6 1.4 1.4 0 .8-.6 1.4-1.4 1.4s-1.4-.6-1.4-1.4c0-.8.6-1.4 1.4-1.4zM15.8-31.6c.8 0 1.4.6 1.4 1.4 0 .8-.6 1.4-1.4 1.4-.8 0-1.4-.6-1.4-1.4 0-.8.6-1.4 1.4-1.4zM30.2-17.2c.8 0 1.4.6 1.4 1.4s-.6 1.4-1.4 1.4-1.4-.6-1.4-1.4c0-.8.6-1.4 1.4-1.4zM15.8-17.2c.8 0 1.4.6 1.4 1.4s-.6 1.4-1.4 1.4c-.8 0-1.4-.6-1.4-1.4 0-.8.6-1.4 1.4-1.4zM8.6-24.4c.8 0 1.4.6 1.4 1.4 0 .8-.6 1.4-1.4 1.4-.8 0-1.4-.6-1.4-1.4 0-.8.6-1.4 1.4-1.4zM23-24.4c.8 0 1.4.6 1.4 1.4 0 .8-.6 1.4-1.4 1.4s-1.4-.6-1.4-1.4.6-1.4 1.4-1.4zM8.6-10c.8 0 1.4.6 1.4 1.4s-.6 1.4-1.4 1.4c-.8 0-1.4-.6-1.4-1.4 0-.8.6-1.4 1.4-1.4zM23-10c.8 0 1.4.6 1.4 1.4s-.6 1.4-1.4 1.4-1.4-.6-1.4-1.4.6-1.4 1.4-1.4z"/></g><g fill="#FFF"><path d="M1.4-31.6c.8 0 1.4.6 1.4 1.4 0 .8-.6 1.4-1.4 1.4-.8.1-1.4-.6-1.4-1.4 0-.8.6-1.4 1.4-1.4zM1.4-17.2c.8 0 1.4.6 1.4 1.4s-.6 1.4-1.4 1.4S0-15 0-15.8s.6-1.4 1.4-1.4z"/></g><g fill="#FFF"><path d="M30.2-2.8c.8 0 1.4.6 1.4 1.4S31 0 30.2 0s-1.4-.6-1.4-1.4c0-.8.6-1.4 1.4-1.4zM15.8-2.8c.8 0 1.4.6 1.4 1.4S16.6 0 15.8 0s-1.4-.6-1.4-1.4c0-.8.6-1.4 1.4-1.4z"/></g><path fill="#FFF" d="M1.4-2.8c.8 0 1.4.6 1.4 1.4S2.2 0 1.4 0C.6.1 0-.6 0-1.4c0-.8.6-1.4 1.4-1.4z"/></g></pattern><path fill="#373A3A" d="M595.4 393.4c-45.5 0-38.8-1.7-45.5 5.1h-99.8c-.2 0-4.2-5.1-12.2-5.1h-37.4c-33.1 0-60 26.9-60 60v22c0 33.1 26.9 60 60 60 74.6 0 67.7 1.8 71.5-5.2 1.6-2.9 4.7-4.8 8-4.8 41.9 0 44.3-1.6 47.8 4.8 3.7 7 4.5 5.2 67.5 5.2 33.1 0 64-26.9 64-60v-22c.1-33.1-30.7-60-63.9-60z"/><path fill="#424545" d="M536.7 531.4c-6.7 0-5.6-10-16.8-10-40.4 0-46.4-2.2-51.3 6.9-2.4 4.4 5.2 3.1-68 3.1-30.9 0-56-25.1-56-56v-22c0-30.9 25.1-56 56-56 48.6 0 41.2-1.7 47.8 5.1 114 0 102.6.5 104.3-1.2 5.1-5.2-3.7-3.9 42.7-3.9 30.9 0 60 25.1 60 56v22c0 30.9-29.1 56-60 56h-58.7z"/><path fill="#373A3A" d="M400.6 515.4c-22.1 0-40-17.9-40-40v-22c0-22.1 17.9-40 40-40h194.8c22.1 0 44 17.9 44 40v22c0 22.1-21.9 40-44 40H400.6z"/><path fill="#555858" d="M595.4 514.4H400.6c-22.1 0-40-17.9-40-40 0 24.5 19 41 40 41h194.8c20.9 0 44-16.4 44-41 0 22-21.9 40-44 40z"/><path fill="#2A2C2C" d="M595.4 413.4H400.6c-20.3 0-40 15.5-40 42 0-22.1 17.9-40 40-40h194.8c22.1 0 44 17.9 44 40 0-26.2-23.4-42-44-42z"/><pattern id="eye_f" patternTransform="matrix(-.416 0 0 .416 43384.008 -11363.27)" xlink:href="#eye_e"/><path fill="url(#eye_f)" d="M583.8 420.8h24.7v87.1h-24.7z"/><pattern id="eye_h" patternTransform="matrix(-.416 0 0 .416 43384.008 -11363.27)" xlink:href="#eye_g"/><path fill="url(#eye_h)" d="M563.1 420.8h10.7v87.1h-10.7z"/><g><g fill="#2A2C2C"><path d="M463.7 458c-10.4 0-7.8 1.9-11-8.1-.4-1-1.9-1-2.3 0-3.2 10-.7 8.1-11 8.1-1.1 0-1.6 1.4-.7 2.1 8.5 6.2 7.4 3.1 4.2 13.1-.4 1 .8 2 1.8 1.3 8.4-6.2 5.2-6.2 13.6 0 .9.7 2.2-.2 1.8-1.3-3.2-10-4.2-6.9 4.2-13.1 1-.7.5-2.1-.6-2.1z"/><path d="M440.6 482.4c-5.1 9.5-6 15.3 2.2-16.4.4-1.5-11.9-6-20-23.9l-7.4-16.4c-1-2.3-4.3-2.3-5.4 0-7.1 16.2-8.1 11.6 14 28.5-18.6-10.2-21.1-12.9-22.8-9l-10.6 23.6c-.9 2 .7 4.2 2.8 4.1 38.9-2.5 38.1-3.7 7 2.9-16.2 3.5-26.4 21.8-18.3 21.8 28.5 0 18 4.4 52.8-27.1L416.6 493c-1.5 1.9-.2 4.8 2.3 4.8h24.4c2.2 0 3.6-2.3 2.6-4.1l-5.3-11.3z"/></g></g><g><g fill="#424545"><path d="M463.7 459c-10.4 0-7.8 1.9-11.1-8.1-.4-1-1.9-1-2.3 0-3.2 10-.6 8.1-11.1 8.1-1.1 0-1.6 1.4-.7 2.1 8.5 6.2 7.4 3.1 4.2 13.1-.4 1 .8 2 1.8 1.3 8.4-6.2 5.3-6.2 13.6 0 .9.7 2.2-.2 1.8-1.3-3.3-10.2-4.1-7.1 4.2-13.1 1.2-.7.7-2.1-.4-2.1z"/><path d="M440.6 483.4c-5 9.4-6 15.3 2.3-16.4.1-.4-.1-.5-.5-.8-15.4-10.3-19.3-22.6-27-39.6-1-2.3-4.3-2.3-5.4 0-7 15.9-8.3 11.5 13.9 28.5-18.5-10.2-21.1-12.8-22.8-9l-10.6 23.6c-.9 2 .7 4.2 2.8 4.1 39.2-2.6 37.9-3.7 7 2.9-15.8 3.3-26.4 21.8-18.4 21.8 28.6 0 18.1 4.4 52.8-27.1L416.5 494c-1.5 1.9-.2 4.8 2.3 4.8h24.4c2.2 0 3.6-2.3 2.6-4.1l-5.2-11.3z"/></g></g><pattern id="hair_e" width="28.8" height="28.8" x="250" y="750" overflow="visible" patternUnits="userSpaceOnUse" viewBox="1.4 -30.2 28.8 28.8"><defs><path id="hair_a" d="M1.4-30.2h28.8v28.8H1.4z"/></defs><clipPath id="hair_b"><use overflow="visible" xlink:href="#hair_a"/></clipPath><g class="hair_shadow" clip-path="url(#hair_b)"><path d="M30.2 0c.8 0 1.4-.6 1.4-1.4s-.6-1.4-1.4-1.4-1.4.6-1.4 1.4c0 .8.6 1.4 1.4 1.4zM15.8 0c.8 0 1.4-.6 1.4-1.4s-.6-1.4-1.4-1.4c-.8 0-1.4.6-1.4 1.4 0 .8.6 1.4 1.4 1.4zM30.2-14.4c.8 0 1.4-.6 1.4-1.4s-.6-1.4-1.4-1.4-1.4.6-1.4 1.4c0 .8.6 1.4 1.4 1.4zM15.8-14.4c.8 0 1.4-.6 1.4-1.4s-.6-1.4-1.4-1.4c-.8 0-1.4.6-1.4 1.4 0 .8.6 1.4 1.4 1.4zM8.6-7.2c.8 0 1.4-.6 1.4-1.4S9.4-10 8.6-10c-.8 0-1.4.6-1.4 1.4 0 .8.6 1.4 1.4 1.4zM23-7.2c.8 0 1.4-.6 1.4-1.4S23.8-10 23-10s-1.4.6-1.4 1.4.6 1.4 1.4 1.4zM8.6-21.6c.8 0 1.4-.6 1.4-1.4s-.6-1.4-1.4-1.4c-.8 0-1.4.6-1.4 1.4 0 .8.6 1.4 1.4 1.4zM23-21.6c.8 0 1.4-.6 1.4-1.4s-.6-1.4-1.4-1.4-1.4.6-1.4 1.4c0 .8.6 1.4 1.4 1.4z"/><g><path d="M1.4 0c.8 0 1.4-.6 1.4-1.4s-.6-1.4-1.4-1.4C.6-2.9 0-2.2 0-1.4 0-.6.6 0 1.4 0zM1.4-14.4c.8 0 1.4-.6 1.4-1.4s-.6-1.4-1.4-1.4-1.4.6-1.4 1.4.6 1.4 1.4 1.4z"/></g><g><path d="M30.2-28.8c.8 0 1.4-.6 1.4-1.4s-.6-1.4-1.4-1.4-1.4.6-1.4 1.4c0 .8.6 1.4 1.4 1.4zM15.8-28.8c.8 0 1.4-.6 1.4-1.4s-.6-1.4-1.4-1.4-1.4.6-1.4 1.4c0 .8.6 1.4 1.4 1.4z"/></g><path d="M1.4-28.8c.8 0 1.4-.6 1.4-1.4s-.6-1.4-1.4-1.4C.6-31.7 0-31 0-30.2c0 .8.6 1.4 1.4 1.4z"/></g></pattern><pattern id="hair_g" width="28.8" height="28.8" x="250" y="750" overflow="visible" patternUnits="userSpaceOnUse" viewBox="1.4 -30.2 28.8 28.8"><defs><path id="hair_c" d="M1.4-30.2h28.8v28.8H1.4z"/></defs><clipPath id="hair_d"><use overflow="visible" xlink:href="#hair_c"/></clipPath><g clip-path="url(#hair_d)"><g fill="#FFF"><path d="M30.2 0c.8 0 1.4-.6 1.4-1.4s-.6-1.4-1.4-1.4-1.4.6-1.4 1.4c0 .8.6 1.4 1.4 1.4zM15.8 0c.8 0 1.4-.6 1.4-1.4s-.6-1.4-1.4-1.4c-.8 0-1.4.6-1.4 1.4 0 .8.6 1.4 1.4 1.4zM30.2-14.4c.8 0 1.4-.6 1.4-1.4s-.6-1.4-1.4-1.4-1.4.6-1.4 1.4c0 .8.6 1.4 1.4 1.4zM15.8-14.4c.8 0 1.4-.6 1.4-1.4s-.6-1.4-1.4-1.4c-.8 0-1.4.6-1.4 1.4 0 .8.6 1.4 1.4 1.4zM8.6-7.2c.8 0 1.4-.6 1.4-1.4S9.4-10 8.6-10c-.8 0-1.4.6-1.4 1.4 0 .8.6 1.4 1.4 1.4zM23-7.2c.8 0 1.4-.6 1.4-1.4S23.8-10 23-10s-1.4.6-1.4 1.4.6 1.4 1.4 1.4zM8.6-21.6c.8 0 1.4-.6 1.4-1.4s-.6-1.4-1.4-1.4c-.8 0-1.4.6-1.4 1.4 0 .8.6 1.4 1.4 1.4zM23-21.6c.8 0 1.4-.6 1.4-1.4s-.6-1.4-1.4-1.4-1.4.6-1.4 1.4c0 .8.6 1.4 1.4 1.4z"/></g><g fill="#FFF"><path d="M1.4 0c.8 0 1.4-.6 1.4-1.4s-.6-1.4-1.4-1.4C.6-2.9 0-2.2 0-1.4 0-.6.6 0 1.4 0zM1.4-14.4c.8 0 1.4-.6 1.4-1.4s-.6-1.4-1.4-1.4-1.4.6-1.4 1.4.6 1.4 1.4 1.4z"/></g><g fill="#FFF"><path d="M30.2-28.8c.8 0 1.4-.6 1.4-1.4s-.6-1.4-1.4-1.4-1.4.6-1.4 1.4c0 .8.6 1.4 1.4 1.4zM15.8-28.8c.8 0 1.4-.6 1.4-1.4s-.6-1.4-1.4-1.4-1.4.6-1.4 1.4c0 .8.6 1.4 1.4 1.4z"/></g><path fill="#FFF" d="M1.4-28.8c.8 0 1.4-.6 1.4-1.4s-.6-1.4-1.4-1.4C.6-31.7 0-31 0-30.2c0 .8.6 1.4 1.4 1.4z"/></g></pattern><g class="hair_fill"><path d="M315.3 525.4c14.7 52.2 0 73.7 1.7 74.4.1 0 20.5-27.9-4.8-94.7-2.4-11.1-6.1-23.5-11.7-37.5-45.9-115.6-23.9-179.3 2.4-208.8 17.8-20 32.6-15.3 33.9-15.4-58 .6-67.8 95.1-56.5 153 3.4 17.3 8.5 31.3 9.1 31.1.6-.2-3.3-11.6-6.6-31.5-8.7-53.5-2.9-140.7 49.5-150.7 25.9-3.7-2.6 18.2 39.1-18.4-22.4-60.1-144.1-51.9-161 68.2 0 0 12.9-44.5 48-70.6-46.8 39.6-59.9 99.2-61.9 160.4-.6 18.5-.1 34.9.5 34.9 5.1 0-11.1-120.1 57.4-188.4 6.4-6.3 15.4-14.7 23.6-18.2 0 0-92.2 47.7-71.2 212.9-21.2 128.6 39.1 179.5 39.1 179.5-50.8 26.2-54.6 93.6-1.3 120.4 3.1 1.4 8.6 3.9 11.9 4.6 11.7 3.1-1.2-1.5-10.8-6.8-17.2-9.9-29.9-23.7-34.6-43 17.2 35.1 82.7 25.2 98.7 55.4 0 0 34.7-52.4 4.6-101-23.3-37.5 5.6-55.8.9-109.8z"/><path d="M696.1 368c28.5-63.3-17.8-81.2-35.9-96.3-15.2-13.9-31.9-26-43.4-37.1-6.6-6.4-13.8-11.3-21.3-15.1-26.3-20.2-40.2-26.7-77.2-7.3-2.3 1.2-13 3.9-18.4 9.2-10.6-10.6-57.5-22.3-96.8-1.2 25.9-23.1 45-28.1 74.2-10.7 1.4.8 4.6 2.9 4.8 2.7.3-.3-3.5-3.4-4.1-3.8-34.2-26.4-61-8.1-89.8 21.7-8.7 7.1-47.2 41-60.6 51.8-66.6 53.6-15.8 104.3-3.3 135.5 10.3 25.8 12.1 50.9 19.9 50.9 19.9 0-1.4-55.3 21.9-97 17-30.5 1.9-59.9 45-70.1 32.8-7.8 70.3 23.5 88.8 11 18.5 12.5 56-18.8 88.8-11 43.1 10.2 28 39.6 45 70.1 23.3 41.7 1.9 97 21.9 97 7.8 0 9.6-25.1 19.9-50.9 6.8-16.9 16.2-24.6 20.6-49.4zm-390.7 7.2c-12-29.5-12.5-51.9 13.4-81.2-15.5 20.2-23 42.5-13.4 81.2zm224.4-165.3c21.5-8.5 33.7-8.3 52.6 4.1-18.4-6.3-37.3-6.6-52.6-4.1zm168 144.9c1.9-22.8 1.3-42.4-25.4-71.1 22.7 17.5 36.1 34.6 25.4 71.1zM242.2 213.7c41.2-41.4 95.2-39.4 117.8-8.8 10.1 13.6 16.1 35.6 11.5 17.8-11.7-36-43.2-49.7-77.9-42-35.7 7.9-57.2 36.8-56.2 37.6.2.2 1.8-1.6 4.8-4.6z"/><path d="M721.4 390.1c2.5.3 14.4-130.8-48.5-137.8-1.3 0-12.6.2-12.4 1.4 0 .2 3.7-.3 12.2.4 60.3 10.7 46.5 135.8 48.7 136zM628.5 219.5c37.9-54 97.5-56.6 137.9 9 17.8 33.1-24.1-84.4-103-45.1-15.1 7.6-27.3 20.2-36.1 35.4-4.6 8.6-4.5 9.3 1.2.7z"/><path d="M745.9 232.6c-13.2-13.7-23.8-19.2-23.8-19.2 50 21.2 67.6 81.9 67.6 81.9-17-120.2-138.6-128.3-161-68.3l24.7 21.7c16.2-8.8 33-4.5 42.4 5.1 33.5 34 49.6 98.2 3.7 213.9-18.5 46.5-38.3 86.7-28.1 140.6 3.8 20-.5-12.4.3-29.1.9-21.3 3.3-38.5 15.7-71.9-11.9 58.5 13.7 78 4.8 108.9-7.8 27.3-26 46.8-27 87.5-.6 21.2 5.5 36 6 35.8 1.3-.4-9.6-27.2 2.3-66.9-2.5 34.8 16.6 63.7 16.6 63.7 17.1-32.1 89.9-18.9 101.4-62.5 11.3-43-37.3-68.1-37.3-68.1 13-26.6 54.8-188.4 37.4-279.1 25 112.3-18.6 249.4-16.2 250.1.5.1 77.5-239.5-29.5-344.1z"/></g><pattern id="hair_f" patternTransform="matrix(.3974 0 0 -.4113 -97516.984 -50006.344)" xlink:href="#hair_e"/><path fill="url(#hair_f)" d="M361 231.6c-4.9 5.2-12.3 15.3-14.4 17.1-28.3-24.3-80.2 30.8-71.7 120.5-3.6-14-4.8-30.8-3.8-50.8-8 38 .6 59-3.7 68.7-5.4-9.6-7.1-36.8-7.1-46.2 0-56.9 38.8-90.1 45-99.9-25.3 10.3-43.3 32.6-55.9 56 14.8-68.5 84.5-90.4 111.6-65.4zM246.2 603.3c14.2-4.5 38.2-34.6 38.2-74.1 0-45.7-25.2-92.9-35.8-153-.2 19.3 2.1 38.5 2.1 57.7 0 63.5-36.4 90.8-23 147.4 10.2-32.8 34.1-64.1 34.5-99.1-5.2 38.7-3.5 83.8-16 121.1zm21.5 8.4c-28.4 48.7 27.2 66.8 35.7 108.3-1-18.6-3-40-11.1-57.1 9.3 9 13.4 21.5 15.6 34 5-52.7-46.3-53.8-40.2-85.2zm-60.2-180.8c18.6-64.6 35.6-59.3 35.6-103.1 0-.4-39.3 59.3-37.6 85.8.4 5.8 2 17.1 2 17.3zm150.8-114.8c.7 14-.4 70.8-5.7 82-2.8-18.8-9.6-37.3-14.3-55.6 4.8 21 8.5 51.6 3.9 72.7-24-36.3-26.4-114.7-26.4-49.7 0 37 14.6 53 18 81.4 3.4 12.6 6 21.4 10.6 21.4 19.9 0-1.4-55.3 21.9-97 2.4-4.6 4.2-24.4-8-55.2zm275.5 55.2c23.3 41.7 1.9 97 21.9 97 4.6 0 7.1-8.8 10.6-21.4 3.4-28.5 18-44.4 18-81.4 0-65-2.4 13.4-26.4 49.7-4.6-21.1-.9-51.7 3.9-72.7-4.7 18.4-11.5 36.9-14.3 55.6-5.3-11.2-6.4-67.8-5.7-82-12 30.1-10.6 50.4-8 55.2zM474.4 210.7c-2.2 1-3.6 2.9-3.6 4.3 0 .1 23.6 39.6 23.6 72.7 0 16.1 4.2.6-36.3-34.2 25.8 27.1 29.4 51.6 15.3 51.6-17.7 0-40.2-43.4-78.8-53.9 12.8 11.6 29.6 30.5 30.6 48.8 28.9 1.3 58.9 23 74.8 12.2.1-1.8 0-90.7 0-90.8-4-4.1-13.4-8.3-25.6-10.7zm25.6 10.7v90.8c15.9 10.8 45.9-10.9 74.8-12.2 1-18.3 17.8-37.3 30.6-48.8-38.6 10.5-61.1 53.9-78.8 53.9-15.1 0-8.9-26.1 15.3-51.6-40.5 34.8-36.3 50.3-36.3 34.2 0-33.1 23.6-72.6 23.6-72.7 0-1.3-1.4-3.3-3.6-4.3-12.3 2.4-21.6 6.6-25.6 10.7zm153.4 27.3c30.8-18.3 59.6 14.2 69.2 51.8 13 50.7 10.9 116 10.9 140.2 24.5-97.9-4.7-210.8-50.6-210.8-12 0-24.7 4.7-35.2 7.8 6.2 4.2 1.8 13.3 5.7 11zM723 394.4c-4.4 22.8-12 48.4-23.5 77.2-34.4 86.6.6 111.8-5.5 146.7 45.4-78.2 26.1-134.2 29-223.9zm33.5 73.4c11.6-27.7 26.7-65.3 26.7-96.8 0-28.8-8.8-66.4-22.7-91.6 12.6 40.2 14.6 88.3 2.5 132.1-.3-10.2 1-20.4 1-30.6 0-12.2-2.6-20.7-3.5-32 2.7 24.6-9.5 96.6-4 118.9zm27.1 19.4c-4.7 18.5-18.4 54.4-30.5 67.5 5.4-22.6 9.9-45.6 13.1-68.6-9.6 19.6-62.7 76.5-12 119.7 13.3-33.9 24-80.5 29.4-118.6zm-38.1 166.3c2.3-26.3-17.8-47.7-18.2-69.6 6.1 82.8-36.3 109.1-35.2 144.9 12-26.5 50.9-47 53.4-75.3zM691.3 681c12.4-26.2 20.1-46.9 25-75.9-29.6 40.5-24.3 53.2-25 75.9z"/><pattern id="hair_h" patternTransform="matrix(.4956 -.06835 .06605 .5129 -3561.839 -4513.016)" xlink:href="#hair_g"/><path fill="url(#hair_h)" d="M379.2 269.2c.3-5-3.5-11.1 0-15.3 5.4 3 23.1 18.8 23.1 24.6 0 9.8-10.9-3-15.4-3-6.3 0-3.7 17.1-7.1 21-4.6-12.8-6.3-26.1-13.8-37.7 6 1.1 7.1 9.4 13.2 10.4zm22.6-27.6c32.9 15.5 55.7 53.3 60.1 51.1-1.4-13.1-10.4-20.9-18.6-30.8 3.9 1 7.4 3.6 11 5.3-6.4-14.9-36.7-26.1-52.5-25.6zm18.9-15.9c21.7 7.9 44.2 18.5 59.3 36.7-3.1-5.9-7-12.1-8.9-18.5 3.1-.3 5.7 2 8 4.1-.5-14-7.3-22.2-17.9-30.6-2.3 5.7-.6 11.8.6 17.8-5.2-3-31.1-31.3-15.8-4.1-8-2.4-17.1-5.6-25.3-5.4zM353.6 326c-1.7-7 2.1-19.3 5-25.9 1 5.8 4 11.7 7.9 15.9 0-.2-4.3-32.3-7-41.1-9.6 14.7-10.1 34-5.9 51.1zM321 336.9c-1.1-11.6.2-23.4 3.8-34.9-9.5 12.2-17.7 25.8-18.3 41.6 3.2-4 5.8-18.7 10.1-20.3 2.3 4.3 2.7 9 4.4 13.6zm313.1-78.1c-7.5 11.6-9.2 25-13.8 37.7-3.4-3.9-.7-21-7.1-21-4.5 0-15.4 12.8-15.4 3 0-5.8 17.7-21.6 23.1-24.6 3.5 4.2-.3 10.3 0 15.3 6-1 7.1-9.3 13.2-10.4zm-88.4 8.3c3.6-1.6 7.1-4.3 11-5.3-8.2 9.9-17.2 17.7-18.6 30.8 4.4 2.2 27.2-35.6 60.1-51.1-15.8-.4-46.1 10.8-52.5 25.6zm33-41.4c-8.1 0-17 3.1-24.6 5.4 15.2-27.1-11.1 1.3-15.8 4.1 1.1-5.9 2.8-12.1.6-17.8-10.6 8.4-17.5 16.6-17.9 30.6 2.1-1.9 4.5-4.1 7.4-4.1 2 0-6.7 15.2-8.4 18.5 23.7-28.5 64.6-36.7 58.7-36.7zm61.8 49.3c-2.7 8.7-7 40.8-7 41.1 3.9-4.2 6.9-10.2 7.9-15.9 2.9 6.6 6.7 18.9 5 25.9 4.2-17.2 3.7-36.5-5.9-51.1zm42.9 48.2c4.4 1.6 6.9 16.4 10.1 20.3-.6-15.8-8.8-29.4-18.3-41.6 3.6 11.5 4.9 23.3 3.8 34.9 1.7-4.5 2.1-9.2 4.4-13.6zm-458.8 171c1.7-10.5 2.9-21 3.6-31.6-10.3 25.6-12.4 43.6-14.9 70.9-16.6-57.4 15.2-121.7 18.4-136.8 9.6 36.3 6.9 63.4-7.1 97.5zm23.8-217.6c-19.5 21.8-36 67.2-39.3 95.7 26.6-40.7 27.5-66.3 39.3-95.7zm-7.6-48.6c26.5-23.4 82.4-33.5 71.1-33.5-22.8 0-51.9 9.4-63.9 29.9M245.6 614c-38.1 19.3-45.9 71.5 2.4 84-9.6-10.9-13.5-23.5-15.6-37.4 18 36.8 41.6 40.5 43.1 41.2-2.7-4.1-42.4-41.6-33.8-76.7.8-3.4 1.5-8.3 3.9-11.1zm48.7-146c9.5 37.3 13 73.4 5.8 111.4 4.8-13.8 24.7-42.9-5.8-111.4zm438.3 231.4c28.3-15.6 28.6-71.9 14.8-89.5 29.3 10.4 48.2 67.6 17.6 86.2 4-19 7.7-36.9-.6-54.6-1.3 5.6 3.8 45-31.8 57.9zm52.3-282.6c0 9.2-15.8 72.1-19.6 94.6 28.3-59.5 19.6-94.7 19.6-94.6zM651 218.9c21.8-5.4 78.3-16.7 121.4 75.6 0 0-12.7-68-66.1-83.4-30-8.7-55.3 7.8-55.3 7.8z"/><path class="hair_outline" d="M282.9 258.8c.5.5-7.1 6.8-17.8 26-41.4 78.9 8.5 145 18.6 218.2 4.5 33.2.7 65.1-22.6 89.9-1.4 1.4-13.2 12.9-13.9 12-2.8-3.6 44.9-21.4 33.3-101.5-10.8-73.9-62.7-143.3-14.7-223.8 5.8-9.7 16.8-21.1 17.1-20.8zm32.5 440.4c.2 23.1-8.7 37.3-7.7 37.8.6.3 10.7-15 10.9-37.8.5-42.5-32.1-82.9-32.9-82.3-1.7 1.2 29.2 40 29.7 82.3zm39-477.8C309 188.1 245.9 240.8 225 303.3c-4.9 16.8 5.5-17.6 28.5-46.3 22.5-28.1 55.9-50.8 89.4-39 15 5.3 22 16.2 22.6 15.8.5-.4-4.1-7.2-11.1-12.4zM232.1 371.5c-10.2 21.6-22.9 40.4-27 63.5-3.5 19.5-3.6 44.1-1.2 18 5.9-41.3 13.9-45 30-80.7 7-15.5 9.7-33.6 9.2-33.7-.6-.1-3.1 16.4-11 32.9zm33.8 289.6c-15.3-27.6 3.9-59.4.5-52.5-20.3 39.2 2.7 60.5 21.8 85.3 28.3 37.4-12.6-15.2-22.3-32.8zm229.5-361.6c.6 1.3 1.7 4.5 1.8 4.5.1 0-1.1-4-1.3-4.7-19.5-54.3-93.4-66.6-93.4-66.5-.7 2.5 70.4 13.6 92.9 66.7zm-146.1-30.3c-16.6 40.3-.4 76.9 5 124.9 2.2 28.3.8-.8-.2-8.9-2.4-22.1-7.1-36.9-10-64.9-3.7-36.9 8.6-55.9 7.8-56.3-.2.1-1.8 3.5-2.6 5.2zm-16.4 106.6c4.2 17.4-7.7-27-4.3-57.6 3.1-25.5 13.7-38.3 13.2-38.7-.5-.3-25.4 29.7-8.9 96.3zM437 291.9c5.3 8.3-3.2-9.7-13-21.5-18.8-22.4-45.3-24.7-45.4-24.6-.1.9 34 8.1 58.4 46.1zm-62.9 50.6c-.1 3.9.9-5.9 1.1-11.9 1.7-42.5-15.1-73-15.2-73-2.2.9 15.5 28.4 14.1 84.9zm130-43.2c-.3.7-1.5 4.7-1.3 4.7.1 0 1.2-3.1 1.8-4.5 21.9-51.6 93.4-65 93-66.6-.1-.3-74.2 12.6-93.5 66.4zm150.6 31.9c-3.9 26.7-7.5 38.8-9.6 62.9-1.5 28.7.5-.8 1.7-8.7 3-22.6 7.8-38.1 10.6-64.9 3.5-35.3-8.9-56.6-9.2-56.4-2.1 1 13.2 13.7 6.5 67.1zm12.1 44.5c-3.5 17.1 9.1-26.5 5.6-57.7-3.1-24.8-14.1-38.6-14.2-38.6-2.2 1.6 24.4 21 8.6 96.3zm-79-116.5c-18.5 14.4-30.7 41.9-24.8 32.7 24-37.3 58.6-45.1 58.3-46.1-.2-1-21.4 3.8-33.5 13.4zm37.9 83.3c.5 3.4-.1-3.7.1-12 .3-40.2 15.4-72.5 14.3-73-1.1-.4-20.1 41.6-14.4 85zm151.6-16.8c20.3 88-24 131.4-42.8 192.6-13.3 42.6-2.1 69.9 20 87.6.9.7-1.2-1.1-6.1-5.7-71.1-78 79.5-157.3 21.7-301.8-12.5-30.6-30-47.1-30.1-47-1.5 1.3 24.8 19.9 37.3 74.3zm-48.1 15.6c3.5 32 7.5 128.8-4.6 181.2-15.4 68.4-53 142.4-33.3 100.7 44-97.6 47.9-151 41.1-259-1.4-17-2.1-23.9-4.9-41.2-1.5-9.2-4.4-20.1-4.5-20.1-.3.2 2.7 8 6.2 38.4zm-45-119.5c-16.5-.2-32.6 7.1-43.4 17.3-7.9 7.1 11.3-13 38.9-14.9 37.7-2.8 58.3 47.9 67.3 84.5 9.9 40.2 8.3 71.1 9.3 71.1 3.6-.1-2.2-157-72.1-158zm39.4 385.6c-6.7 54.7-38 67-33.3 130.8.5 6.9.7 8.6.6 0-.4-46 12.6-51.6 26.8-91.6 9.4-26.4 6.6-44.9 6.5-44.9-.1-.1-.3 3.6-.6 5.7zm-65.9-394.3c-6.6 3 3.3-1.1 10.5-3.2 31-9.3 45.7 1 46.2-.2.2-.5-21.7-11.7-56.7 3.4z"/><path fill="#29282E" d="M608.7 227.8c25.9-15.2 69.5 22.8 53.2 45.5-2.6-2.5-53-45.4-53.2-45.5zm-217.4 0c-25.7-15.1-69.7 22.5-53.2 45.5 2.5-2.4 53-45.4 53.2-45.5z"/></svg>