<svg xmlns="http://www.w3.org/2000/svg" xmlns:xlink="http://www.w3.org/1999/xlink" version="1.1" height="1000px" width="1000px" viewBox="0 0 1000 1000"><style type="text/css">.skin_fill{fill:#894C1A;} .skin_outline{fill:#332624;} .skin_dark{fill:#592F1E;} .skin_halftone{fill:#351810;} .skin_freckles{fill:#663211;} </style><style type="text/css">.hair_fill{fill:#504444;} .hair_outline{fill:#3B3131;} .hair_shadow{fill:#231A1A;} .hair_brow{fill:#4A3F3F;} </style><style type="text/css">.eye_iris{fill:#007FFF;} </style><style type="text/css">.bg_color{fill:#F6D047;} .bg_stop_1{stop-color:#F6D047;} .bg_stroke_1{stroke:#F6D047;} .bg_shape{fill:#4ECF99;} .bg_stop_2{stop-color:#4ECF99;} .bg_stroke_2{stroke:#4ECF99;} .bg_halftone{fill:#F7374D;} .bg_stop_3{stop-color:#F7374D;} .bg_stroke_3{stroke:#F7374D;} </style><pattern id="backdrop_a" width="72" height="72" y="1000" overflow="visible" patternUnits="userSpaceOnUse" viewBox="3 -74.1 72 72"><g fill="none"><path d="M3-74.1h72v72H3z"/><g class="bg_stroke_3" stroke-width=".3"><path d="M71-1.3l1.1-2.9M66.2-1.1l-.7-3.3M50.9-.3l.2-3M35.2-1.9l-1.4-2M19-1.7l1.3-2M7.9-.4L6.2-2.7M58.5-.1l2-3"/></g><g class="bg_stroke_3" stroke-width=".3"><path d="M77.8-50.1h-3M76.8-34.4l-2 1.5"/></g><g class="bg_stroke_3" stroke-width=".3"><path d="M8.8-63.4l-2.8 2M7.3-7.1L5-5.4M76.3-67.1l-3.3.7M75-55.4l-2.5 1.8M77.8-50.1h-3M74.5-42.6l-2.7-1.8M76.8-34.4l-2 1.5M74.3-22.4l-2.8-2.2M76.3-11.4l-4.3-.7M66.5-13.1l-2.2 1.7M74.8-29.1h-3M61-56.6l-1.9-2.8M31-58.1l-1.6-2.6M46.1-62.5l1.8-2.7M71-1.3l1.1-2.9M66.2-1.1l-.7-3.3M60-26.1l-1.9-2.8M51.7-54.5L50-57.1M50.9-.3l.2-3M43.6-3.8l1.8-2.7M35.2-1.9l-1.4-2M53.3-33.3l2.4-2.7M19-1.7l1.3-2M12.3-3.2l.9-4.2M7.9-.4L6.2-2.7M30.1-4.1l.1-3M10.3-68.9l3.5 1.5M7.5-53.4l.3-3.2M11-30.4l1.5 3.8M8.3-35.9l2.2-3.7M32.3-69.6L30-67.1M36.5-69.6l3.3 2.7M53.3-69.6l3.2 2M55.5-63.6l-2 3.2M62.5-64.9l5-2.2M70-61.4l-2.5 1.8M21.8-69.4v3M18.8-64.4l-3.3.5M23-59.9l.5 3.3M24-64.4l3.5-.7M12.3-52.6l2.7-2M10.5-10.1l.3-4M10.3-18.4l2.2-2.5M24.3-8.4l-2.5-3.5M32.8-45.6l-2.5 1.7M60.8-40.4L58-41.9M29.8-34.1l-3.8-.8M34.5-24.6l-2 1.5M32-12.6l-2.7-2.3M35.3-8.4l-2-1.2M32.5-19.4h-3M42.8-55.1l-2.5 1.7M45.5-49.9h-3M42.3-42.4l-2.8-1.7M41.5-31.6l-.7 2.5M42-22.1l-2.7-2.3M42.5-14.1l-2-1.3M66-29.6h-3M25.3-31.1l2.5 1.7M30-53.6h3M17.8-39.4l2.5 1.8M15-34.1h3M18.3-26.6l2.7-1.8M50.3-41.1l2.4-1.6M50.6-48.6l2.4 1.8M57.7-52.6l-.2 3M48.4-8.5l3 .1M49.4-14.4l2.3 1.8M56.5-18.4l1.1 3.1M51.3-30.6l-2.5 1.7M51-23.1l-3.2-1M60-7.6l-2.7-1.8M67.5-33.1l-2.7-1.8M65.3-22.1l-2 1.5M22.6-44.5l3.1.1M23.6-50.4l2.4 1.8M60.8-45.6l2.7.5M18-18.4l.5 3.3M20-20.4l3.5-.7M35.8-61.4l4 .8M36.5-40.6l.5 3.5M67.5-51.1L65-52.4M13-60.6l3.3 2.7M7.8-44.6l-2.5 1.7M18.8-50.1l-2 1.5M44.3-69.3l1.9-2.7M67.6-39l1.8-2.7M36.8-47.8l.7-2.8M23.3-15.3l.7-2.8M34.8-31.4l-2 1.5M5.8-50.1h-3M4.8-34.4l-2 1.5M71-73.3l1.1-2.9M66.2-73.1l-.7-3.3M50.9-72.3l.2-3M35.2-73.9l-1.4-2M19-73.7l1.3-2M7.9-72.4l-1.7-2.3M8.3-22.1l-3.8-.8M71.4-16.8l-1.9-2.8M27-38.1l.7-2.8M47.8-37.1l-2 1.5M58.5-72.1l2-3M58.5-.1l2-3"/></g><g class="bg_stroke_3" stroke-width=".3"><path d="M4.3-67.1l-3.3.7M3-55.4L.5-53.6M5.8-50.1h-3M4.8-34.4l-2 1.5M4.3-11.4L0-12.1"/></g><g class="bg_stroke_3" stroke-width=".3"><path d="M71-73.3l1.1-2.9M66.2-73.1l-.7-3.3M50.9-72.3l.2-3M35.2-73.9l-1.4-2M19-73.7l1.3-2M7.9-72.4l-1.7-2.3M58.5-72.1l2-3"/></g></g></pattern><path class="bg_color" d="M0 0h1000v1000H0z"/><pattern id="backdrop_b" patternTransform="matrix(3 0 0 3 15193.955 17348.203)" xlink:href="#backdrop_a"/><path fill="url(#backdrop_b)" d="M0 0h1000v1000H0z"/><pattern id="ear_i" width="48" height="48" x="250" y="750" overflow="visible" patternUnits="userSpaceOnUse" viewBox="4.8 -52.8 48 48"><defs><path id="ear_a" d="M4.8-52.8h48v48h-48z"/></defs><clipPath id="ear_b"><use overflow="visible" xlink:href="#ear_a"/></clipPath><g class="skin_dark" clip-path="url(#ear_b)"><path d="M28.8-57.6c2.7 0 4.8 2.1 4.8 4.8S31.5-48 28.8-48 24-50.2 24-52.8c0-2.7 2.1-4.8 4.8-4.8zM52.8-57.6c2.7 0 4.8 2.1 4.8 4.8S55.5-48 52.8-48 48-50.2 48-52.8c0-2.7 2.1-4.8 4.8-4.8zM28.8-33.6c2.7 0 4.8 2.1 4.8 4.8S31.5-24 28.8-24 24-26.1 24-28.8s2.1-4.8 4.8-4.8zM52.8-33.6c2.7 0 4.8 2.1 4.8 4.8S55.5-24 52.8-24 48-26.1 48-28.8s2.1-4.8 4.8-4.8zM40.8-45.6c2.7 0 4.8 2.1 4.8 4.8S43.5-36 40.8-36 36-38.2 36-40.8c0-2.7 2.1-4.8 4.8-4.8zM16.8-45.6c2.7 0 4.8 2.1 4.8 4.8S19.5-36 16.8-36 12-38.2 12-40.8c0-2.7 2.1-4.8 4.8-4.8zM40.8-21.6c2.7 0 4.8 2.1 4.8 4.8S43.5-12 40.8-12 36-14.1 36-16.8s2.1-4.8 4.8-4.8zM16.8-21.6c2.7 0 4.8 2.1 4.8 4.8S19.5-12 16.8-12 12-14.1 12-16.8s2.1-4.8 4.8-4.8z"/></g><defs><path id="ear_c" d="M4.8-52.8h48v48h-48z"/></defs><clipPath id="ear_d"><use overflow="visible" xlink:href="#ear_c"/></clipPath><g class="skin_dark" clip-path="url(#ear_d)"><path d="M4.8-57.6c2.7 0 4.8 2.1 4.8 4.8S7.5-48 4.8-48 0-50.1 0-52.8s2.1-4.8 4.8-4.8zM4.8-33.6c2.7 0 4.8 2.1 4.8 4.8S7.5-24 4.8-24 0-26.1 0-28.8s2.1-4.8 4.8-4.8z"/></g><g><defs><path id="ear_e" d="M4.8-52.8h48v48h-48z"/></defs><clipPath id="ear_f"><use overflow="visible" xlink:href="#ear_e"/></clipPath><g class="skin_dark" clip-path="url(#ear_f)"><path d="M28.8-9.6c2.7 0 4.8 2.1 4.8 4.8S31.5 0 28.8 0 24-2.2 24-4.8c0-2.7 2.1-4.8 4.8-4.8zM52.8-9.6c2.7 0 4.8 2.1 4.8 4.8S55.5 0 52.8 0 48-2.2 48-4.8c0-2.7 2.1-4.8 4.8-4.8z"/></g></g><g><defs><path id="ear_g" d="M4.8-52.8h48v48h-48z"/></defs><clipPath id="ear_h"><use overflow="visible" xlink:href="#ear_g"/></clipPath><path class="skin_dark" d="M4.8-9.6c2.7 0 4.8 2.1 4.8 4.8S7.5 0 4.8 0 0-2.2 0-4.8c0-2.7 2.1-4.8 4.8-4.8z" clip-path="url(#ear_h)"/></g></pattern><path class="skin_fill" d="M367.8 526l-17.1 11.9c-6.4 4.4-15.2 1.9-18.2-5.2l-39-89.7v-22.5c0-17.9 28.4-17.2 40.5-2 13.6 17 34 42.4 33.9 41.6-.3-1.2-.1 65.9-.1 65.9z"/><pattern id="ear_j" patternTransform="matrix(-.26 0 0 -.26 31108.844 993.389)" xlink:href="#ear_i"/><path fill="url(#ear_j)" d="M302.9 442.6c35.6 76.8 17.5 45.8 32.5 47.9 0 0-4.6-36.9-11.1-52s-21.4-28.8-21.4-13.5v17.6z"/><path class="skin_outline" d="M302.9 440.3c-.3 0-2.6-17.9 1-22 4.8-4.8 11.7 1.3 15.6 6.9 9.4 13.8 14.4 41.3 16.6 57.8 1.4 11 1.7 9.1-1.3 9.1-17.3-.3 6.3 30.7 5.4 31.4-.6.5-27.4-30.6-6.6-34.4.2-1.2-8.2-63.6-24.4-69.5-8.5-3.8-4 20.7-6.3 20.7z"/><path class="skin_fill" d="M632.2 526l17.1 11.9c6.4 4.4 15.2 1.9 18.2-5.2l39-89.7v-22.5c0-17.9-28.4-17.2-40.5-2-13.6 17-34 42.4-33.9 41.6.3-1.2.1 65.9.1 65.9z"/><pattern id="ear_k" patternTransform="matrix(.26 0 0 -.26 -47473.004 993.389)" xlink:href="#ear_i"/><path fill="url(#ear_k)" d="M697.1 442.6c-35.6 76.8-17.5 45.8-32.5 47.9 0 0 4.6-36.9 11.1-52 6.5-15.1 21.4-28.8 21.4-13.5v17.6z"/><path class="skin_outline" d="M697.1 440.3c.3 0 2.6-17.9-1-22-4.8-4.8-11.7 1.3-15.6 6.9-9.4 13.8-14.4 41.3-16.6 57.8-1.4 11-1.7 9.1 1.3 9.1 17.3-.3-6.3 30.7-5.4 31.4.6.5 27.4-30.6 6.6-34.4-.2-1.2 8.2-63.6 24.4-69.5 8.5-3.8 4 20.7 6.3 20.7z"/><g><path fill="#A9A9AC" d="M305.7 429.4c-12.7 0-15.6.8-15.6-2.4 0-1.3 1.1-2.4 2.4-2.4 13.9 0 14.1-.4 14.1 1 .1 1.8.5 3.8-.9 3.8zM305.7 437c-12.7 0-15.6.8-15.6-2.4 0-1.3 1.1-2.4 2.4-2.4 13.9 0 14.1-.4 14.1 1 .1 1.8.5 3.8-.9 3.8z"/><path fill="#CACACC" d="M305.7 428.4c-12.7 0-15.6.8-15.6-2.4 0-1.3 1.1-2.4 2.4-2.4 13.9 0 14.1-.4 14.1 1 .1 1.8.5 3.8-.9 3.8zM305.7 436c-12.7 0-15.6.8-15.6-2.4 0-1.3 1.1-2.4 2.4-2.4 13.9 0 14.1-.4 14.1 1 .1 1.8.5 3.8-.9 3.8z"/><g fill="#DFDFE0"><path d="M305.7 423.5c-12.7 0-15.6-.8-15.6 2.4 0 1.7-.1-1.4 2.4-1.4 13.9 0 14.1-.4 14.1 1 .1-1.9-.4-2-.9-2zM305.7 431.1c-12.7 0-15.6-.8-15.6 2.4 0 1.7-.1-1.4 2.4-1.4 13.9 0 14.1-.4 14.1 1 .1-1.9-.4-2-.9-2z"/></g></g><pattern id="face_i" width="48" height="48" x="250" y="750" overflow="visible" patternUnits="userSpaceOnUse" viewBox="4.8 -52.8 48 48"><defs><path id="face_a" d="M4.8-52.8h48v48h-48z"/></defs><clipPath id="face_b"><use overflow="visible" xlink:href="#face_a"/></clipPath><g class="skin_dark" clip-path="url(#face_b)"><path d="M28.8-57.6c2.7 0 4.8 2.1 4.8 4.8S31.5-48 28.8-48 24-50.2 24-52.8c0-2.7 2.1-4.8 4.8-4.8zM52.8-57.6c2.7 0 4.8 2.1 4.8 4.8S55.5-48 52.8-48 48-50.2 48-52.8c0-2.7 2.1-4.8 4.8-4.8zM28.8-33.6c2.7 0 4.8 2.1 4.8 4.8S31.5-24 28.8-24 24-26.1 24-28.8s2.1-4.8 4.8-4.8zM52.8-33.6c2.7 0 4.8 2.1 4.8 4.8S55.5-24 52.8-24 48-26.1 48-28.8s2.1-4.8 4.8-4.8zM40.8-45.6c2.7 0 4.8 2.1 4.8 4.8S43.5-36 40.8-36 36-38.2 36-40.8c0-2.7 2.1-4.8 4.8-4.8zM16.8-45.6c2.7 0 4.8 2.1 4.8 4.8S19.5-36 16.8-36 12-38.2 12-40.8c0-2.7 2.1-4.8 4.8-4.8zM40.8-21.6c2.7 0 4.8 2.1 4.8 4.8S43.5-12 40.8-12 36-14.1 36-16.8s2.1-4.8 4.8-4.8zM16.8-21.6c2.7 0 4.8 2.1 4.8 4.8S19.5-12 16.8-12 12-14.1 12-16.8s2.1-4.8 4.8-4.8z"/></g><defs><path id="face_c" d="M4.8-52.8h48v48h-48z"/></defs><clipPath id="face_d"><use overflow="visible" xlink:href="#face_c"/></clipPath><g class="skin_dark" clip-path="url(#face_d)"><path d="M4.8-57.6c2.7 0 4.8 2.1 4.8 4.8S7.5-48 4.8-48 0-50.1 0-52.8s2.1-4.8 4.8-4.8zM4.8-33.6c2.7 0 4.8 2.1 4.8 4.8S7.5-24 4.8-24 0-26.1 0-28.8s2.1-4.8 4.8-4.8z"/></g><g><defs><path id="face_e" d="M4.8-52.8h48v48h-48z"/></defs><clipPath id="face_f"><use overflow="visible" xlink:href="#face_e"/></clipPath><g class="skin_dark" clip-path="url(#face_f)"><path d="M28.8-9.6c2.7 0 4.8 2.1 4.8 4.8S31.5 0 28.8 0 24-2.2 24-4.8c0-2.7 2.1-4.8 4.8-4.8zM52.8-9.6c2.7 0 4.8 2.1 4.8 4.8S55.5 0 52.8 0 48-2.2 48-4.8c0-2.7 2.1-4.8 4.8-4.8z"/></g></g><g><defs><path id="face_g" d="M4.8-52.8h48v48h-48z"/></defs><clipPath id="face_h"><use overflow="visible" xlink:href="#face_g"/></clipPath><path class="skin_dark" d="M4.8-9.6c2.7 0 4.8 2.1 4.8 4.8S7.5 0 4.8 0 0-2.2 0-4.8c0-2.7 2.1-4.8 4.8-4.8z" clip-path="url(#face_h)"/></g></pattern><path class="skin_fill" d="M615.2 646.6c18.5-18.1 30.2-26.1 31.4-45.1 12.9-208.3 11.6-193.4 12.6-193.4 9.5-131.6-66.8-198.5-173.6-189.2-43.8 3.2-138.9 24.4-145.2 152.5-1.3 13.1-1.4 26.7-1.3 29.1 14.8 240.5 4.1 207.3 46.2 248.5 0 88.1 10.8 72.7-55 96.6l169.8 150 170.2-150c-66-24-55.1-8-55.1-99z"/><pattern id="face_j" patternTransform="matrix(.26 0 0 -.26 -47499.098 1009.889)" xlink:href="#face_i"/><path fill="url(#face_j)" d="M425.9 710.7c15.6 23.4 34.5 17.8 112.8 17.8 18 0 27.7-9.4 36.7-23l39.7-38.9v-20c-45.6 44.6-38.3 36.8-43.1 44-15.6 23.4-34.5 17.8-112.8 17.8-18 0-27.7-9.4-36.7-23L385.2 649v20c42.9 42 36 34.5 40.7 41.7z"/><path class="skin_outline" d="M347.7 541.5c-1.7.1-8.6-133.3-6.9-133.4 1.8-.1 8.7 133.3 6.9 133.4zM650.3 541.4c-1.7-.1 7.1-133.4 8.9-133.3 1.7.1-7.2 133.4-8.9 133.3z"/><g><pattern id="face_k" patternTransform="matrix(.26 0 0 -.26 -47499.098 1029.889)" xlink:href="#face_i"/><path fill="url(#face_k)" d="M402.1 632.3c1.6-79.2 8-100.8-16.1-117.7-23.1-16.2-26-40.1-26-40.1h-8.2c8.9 135.4-2 108.7 50.3 157.8z"/></g><pattern id="nose_m" width="28.8" height="28.8" x="250" y="750" overflow="visible" patternUnits="userSpaceOnUse" viewBox="1.4 -30.2 28.8 28.8"><defs><path id="nose_a" d="M1.4-30.2h28.8v28.8H1.4z"/></defs><clipPath id="nose_b"><use overflow="visible" xlink:href="#nose_a"/></clipPath><g clip-path="url(#nose_b)"><g fill="#FFF"><path d="M30.2 0c.8 0 1.4-.6 1.4-1.4s-.6-1.4-1.4-1.4-1.4.6-1.4 1.4c0 .8.6 1.4 1.4 1.4zM15.8 0c.8 0 1.4-.6 1.4-1.4s-.6-1.4-1.4-1.4c-.8 0-1.4.6-1.4 1.4 0 .8.6 1.4 1.4 1.4zM30.2-14.4c.8 0 1.4-.6 1.4-1.4s-.6-1.4-1.4-1.4-1.4.6-1.4 1.4c0 .8.6 1.4 1.4 1.4zM15.8-14.4c.8 0 1.4-.6 1.4-1.4s-.6-1.4-1.4-1.4c-.8 0-1.4.6-1.4 1.4 0 .8.6 1.4 1.4 1.4zM8.6-7.2c.8 0 1.4-.6 1.4-1.4S9.4-10 8.6-10c-.8 0-1.4.6-1.4 1.4 0 .8.6 1.4 1.4 1.4zM23-7.2c.8 0 1.4-.6 1.4-1.4S23.8-10 23-10s-1.4.6-1.4 1.4.6 1.4 1.4 1.4zM8.6-21.6c.8 0 1.4-.6 1.4-1.4s-.6-1.4-1.4-1.4c-.8 0-1.4.6-1.4 1.4 0 .8.6 1.4 1.4 1.4zM23-21.6c.8 0 1.4-.6 1.4-1.4s-.6-1.4-1.4-1.4-1.4.6-1.4 1.4c0 .8.6 1.4 1.4 1.4z"/></g><g fill="#FFF"><path d="M1.4 0c.8 0 1.4-.6 1.4-1.4s-.6-1.4-1.4-1.4C.6-2.9 0-2.2 0-1.4 0-.6.6 0 1.4 0zM1.4-14.4c.8 0 1.4-.6 1.4-1.4s-.6-1.4-1.4-1.4-1.4.6-1.4 1.4.6 1.4 1.4 1.4z"/></g><g fill="#FFF"><path d="M30.2-28.8c.8 0 1.4-.6 1.4-1.4s-.6-1.4-1.4-1.4-1.4.6-1.4 1.4c0 .8.6 1.4 1.4 1.4zM15.8-28.8c.8 0 1.4-.6 1.4-1.4s-.6-1.4-1.4-1.4-1.4.6-1.4 1.4c0 .8.6 1.4 1.4 1.4z"/></g><path fill="#FFF" d="M1.4-28.8c.8 0 1.4-.6 1.4-1.4s-.6-1.4-1.4-1.4C.6-31.7 0-31 0-30.2c0 .8.6 1.4 1.4 1.4z"/></g></pattern><pattern id="nose_k" width="48" height="48" x="250" y="750" overflow="visible" patternUnits="userSpaceOnUse" viewBox="4.8 -52.8 48 48"><defs><path id="nose_c" d="M4.8-52.8h48v48h-48z"/></defs><clipPath id="nose_d"><use overflow="visible" xlink:href="#nose_c"/></clipPath><g class="skin_dark" clip-path="url(#nose_d)"><path d="M28.8-57.6c2.7 0 4.8 2.1 4.8 4.8S31.5-48 28.8-48 24-50.2 24-52.8c0-2.7 2.1-4.8 4.8-4.8zM52.8-57.6c2.7 0 4.8 2.1 4.8 4.8S55.5-48 52.8-48 48-50.2 48-52.8c0-2.7 2.1-4.8 4.8-4.8zM28.8-33.6c2.7 0 4.8 2.1 4.8 4.8S31.5-24 28.8-24 24-26.1 24-28.8s2.1-4.8 4.8-4.8zM52.8-33.6c2.7 0 4.8 2.1 4.8 4.8S55.5-24 52.8-24 48-26.1 48-28.8s2.1-4.8 4.8-4.8zM40.8-45.6c2.7 0 4.8 2.1 4.8 4.8S43.5-36 40.8-36 36-38.2 36-40.8c0-2.7 2.1-4.8 4.8-4.8zM16.8-45.6c2.7 0 4.8 2.1 4.8 4.8S19.5-36 16.8-36 12-38.2 12-40.8c0-2.7 2.1-4.8 4.8-4.8zM40.8-21.6c2.7 0 4.8 2.1 4.8 4.8S43.5-12 40.8-12 36-14.1 36-16.8s2.1-4.8 4.8-4.8zM16.8-21.6c2.7 0 4.8 2.1 4.8 4.8S19.5-12 16.8-12 12-14.1 12-16.8s2.1-4.8 4.8-4.8z"/></g><defs><path id="nose_e" d="M4.8-52.8h48v48h-48z"/></defs><clipPath id="nose_f"><use overflow="visible" xlink:href="#nose_e"/></clipPath><g class="skin_dark" clip-path="url(#nose_f)"><path d="M4.8-57.6c2.7 0 4.8 2.1 4.8 4.8S7.5-48 4.8-48 0-50.1 0-52.8s2.1-4.8 4.8-4.8zM4.8-33.6c2.7 0 4.8 2.1 4.8 4.8S7.5-24 4.8-24 0-26.1 0-28.8s2.1-4.8 4.8-4.8z"/></g><g><defs><path id="nose_g" d="M4.8-52.8h48v48h-48z"/></defs><clipPath id="nose_h"><use overflow="visible" xlink:href="#nose_g"/></clipPath><g class="skin_dark" clip-path="url(#nose_h)"><path d="M28.8-9.6c2.7 0 4.8 2.1 4.8 4.8S31.5 0 28.8 0 24-2.2 24-4.8c0-2.7 2.1-4.8 4.8-4.8zM52.8-9.6c2.7 0 4.8 2.1 4.8 4.8S55.5 0 52.8 0 48-2.2 48-4.8c0-2.7 2.1-4.8 4.8-4.8z"/></g></g><g><defs><path id="nose_i" d="M4.8-52.8h48v48h-48z"/></defs><clipPath id="nose_j"><use overflow="visible" xlink:href="#nose_i"/></clipPath><path class="skin_dark" d="M4.8-9.6c2.7 0 4.8 2.1 4.8 4.8S7.5 0 4.8 0 0-2.2 0-4.8c0-2.7 2.1-4.8 4.8-4.8z" clip-path="url(#nose_j)"/></g></pattern><pattern id="nose_l" patternTransform="matrix(.252 0 0 -.252 -70856.242 -7206.028)" xlink:href="#nose_k"/><path fill="url(#nose_l)" d="M484.3 470.3c-1.9 16-3.1 18.7-.1 23.6 6 9.8 7.4 11.1 6.8 15.3-1.4 9.7-11 4.6-18.3 22.3-7.6-12.2-5.5-34.4-5.8-91.9 9.5 8.7 19.3 15.6 17.4 30.7z"/><pattern id="nose_n" patternTransform="rotate(180 27374.346 3312.582) scale(.416)" xlink:href="#nose_m"/><path fill="url(#nose_n)" d="M523.8 448.2l9.3-8.6c-.2 53.1 2.1 79.2-5.8 91.9 0 0-5.2-12.5-14.7-16.1-4-2.5-5.2-9.4-1.8-13.5 4.9-7.9 6.9-10.2 6.9-14.9-1.9-15.8-5.6-28 6.1-38.8zM487 539.6h26.1c-2.5-15.1-23.7-15.1-26.1 0z"/><g><path class="skin_outline" d="M534.1 542.5c-.5 13.8-14.6 12.7-15.6 13.9-2.4 2.9-4.9 6.3-9.8 7.7-4.1 1.1-15.1 1.7-20.4-1.1-3.2-1.7-4.9-4.1-7.2-6.8-20.1-1.8-18.1-21.2-9.4-25.5-.1.6 1-2.8 4.9-7.7 5.4-6.6 10.7-7.9 10.8-7.5.2.6-8 3.2-13.6 16.9-7.7 5.8-5.2 14.7-3.4 14.7 6.4-.4 11.5 4.6 15.4 9.3 4.4 5.1 8.2 5.5 16.3 5.3 8.7-.3 9.6-2.1 14.2-7.2 3.4-3.9 9.2-7.8 14-7 .6.1 4.9-6.7-2.1-14.8-3-3.5 5.8 1.5 5.9 9.8zm-53.3-53.9c.8 5.8 7.9 13.6 8.4 13.3 1.1-.7-4.8-8.8-5.2-13.6-.1-1.1-.1-.6.4-4.3 8.2-64-5.3-7.4-3.6 4.6zm35 5.3c.8.5 2.6-1.6 3.3-4 .9-3.1.2-10.9-1.3-10.9-1.9 0-2.5 14.6-2 14.9z"/></g><pattern id="mouth_i" width="28.8" height="28.8" x="250" y="750" overflow="visible" patternUnits="userSpaceOnUse" viewBox="1.4 -30.2 28.8 28.8"><defs><path id="mouth_a" d="M1.4-30.2h28.8v28.8H1.4z"/></defs><clipPath id="mouth_b"><use overflow="visible" xlink:href="#mouth_a"/></clipPath><g class="skin_halftone" clip-path="url(#mouth_b)"><path d="M30.2 0c1.9 0 1.9-2.8 0-2.8S28.3 0 30.2 0zM15.8 0c1.9 0 1.9-2.8 0-2.8S13.9 0 15.8 0zM30.2-14.4c1.9 0 1.9-2.8 0-2.8s-1.9 2.8 0 2.8zM15.8-14.4c1.9 0 1.9-2.8 0-2.8s-1.9 2.8 0 2.8zM8.6-7.2c1.9 0 1.9-2.8 0-2.8s-1.9 2.8 0 2.8zM23-7.2c1.9 0 1.9-2.8 0-2.8s-1.9 2.8 0 2.8zM8.6-21.6c1.9 0 1.9-2.8 0-2.8s-1.9 2.8 0 2.8zM23-21.6c1.9 0 1.9-2.8 0-2.8s-1.9 2.8 0 2.8z"/></g><defs><path id="mouth_c" d="M1.4-30.2h28.8v28.8H1.4z"/></defs><clipPath id="mouth_d"><use overflow="visible" xlink:href="#mouth_c"/></clipPath><g class="skin_halftone" clip-path="url(#mouth_d)"><path d="M1.4 0c1.9 0 1.9-2.8 0-2.8C-.4-3-.6 0 1.4 0zM1.4-14.4c1.9 0 1.9-2.8 0-2.8s-1.9 2.8 0 2.8z"/></g><g><defs><path id="mouth_e" d="M1.4-30.2h28.8v28.8H1.4z"/></defs><clipPath id="mouth_f"><use overflow="visible" xlink:href="#mouth_e"/></clipPath><g class="skin_halftone" clip-path="url(#mouth_f)"><path d="M30.2-28.8c1.9 0 1.9-2.8 0-2.8s-1.9 2.8 0 2.8zM15.8-28.8c1.9 0 1.9-2.8 0-2.8s-1.9 2.8 0 2.8z"/></g></g><g><defs><path id="mouth_g" d="M1.4-30.2h28.8v28.8H1.4z"/></defs><clipPath id="mouth_h"><use overflow="visible" xlink:href="#mouth_g"/></clipPath><path class="skin_halftone" d="M1.4-28.8c1.9 0 1.9-2.8 0-2.8-1.8-.2-2 2.8 0 2.8z" clip-path="url(#mouth_h)"/></g></pattern><path fill="#241F20" d="M546.4 611.7c0 7.2-20.8 24.3-46.4 24.3-25.6 0-46.4-17.1-46.4-24.3s20.8-14.1 46.4-14.1c25.6 0 46.4 6.9 46.4 14.1z"/><path fill="#EB8874" d="M536.8 608.3s3.9-1.4 3.7-6c0 0-12.3-8.5-40.6-8.5-28.2 0-40.6 8.5-40.6 8.5-.2 4.6 3.7 6 3.7 6h73.8z"/><path fill="#F7F3E8" d="M499.6 604.2c.1.4.7.4.8 0 1.4-3.8 3.8-6.1 8.9-6.2 4-.1 5.6 3.4 6.2 5.4.1.4.7.4.8 0 .9-2.2 3.2-6.4 6.6-5.9 3.6.5 4.6 4.6 4.9 6.4.1.3.5.5.7.2 5.2-4.8 9.5-.5 9.5-.5-1.1 7.7-4.6 10.5-6.6 10.5s-4-3.6-4-3.6-.5 2.2-4.9 2.2-6.7-4.4-6.7-4.4v.1c1 2-.6 4.4-2.8 4.4h-9.6c-1.9 0-3.4-1.5-3.4-3.4 0 1.9-1.5 3.4-3.4 3.4H487c-2.2 0-3.8-2.3-2.8-4.4v-.1s-2.3 4.4-6.7 4.4-4.9-2.2-4.9-2.2-2 3.6-4 3.6-5.5-2.8-6.6-10.5c0 0 4.3-4.3 9.5.5.2.2.7.1.7-.2.3-1.8 1.3-5.9 4.9-6.4 3.4-.5 5.6 3.7 6.6 5.9.2.4.7.3.8 0 .6-2 2.2-5.5 6.2-5.4 5.1.1 7.5 2.4 8.9 6.2z"/><path fill="#EB8874" d="M531.1 631.8h-62.2c-2.5 0-4.4-2.5-3.8-5l1-3.9c.2-.8.8-1.3 1.6-1.3h64.6c.7 0 1.4.5 1.6 1.3l1 3.9c.6 2.6-1.3 5-3.8 5z"/><path fill="#A5A5B7" d="M500 626c1 1.8 4.4 1 6.2.2 2-.9 3.2-3.2 3.7-4.4.1-.2.3-.1.3.1l.1 3.5s.9 2.4 4.9 1.5c2.9-.7 3.9-2.6 4.2-3.5.1-.2.3-.3.5-.1.9 1.3 3 3.3 5.3 3.6 1.8.2 2.8-1.1 3.2-1.9.1-.2.4-.2.5 0 1.3 2.7 4.7-.6 4.7-.6s-.1-5.1-1.8-7.3-3.8-.4-3.8-.4c-.4-1.2-2.2-3-3.5-3-1.4 0-4.5 3.2-4.5 3.2 0-1.5-1-2.7-2.4-2.7l-5.9-.1c-1 0-1.8.9-1.8 2 0-3.3-6-2.7-8.7-2.2-.7.1-1.3.8-1.3 1.7v1.6-1.6c0-.8-.6-1.6-1.3-1.7-2.7-.4-8.7-1-8.7 2.2 0-1.1-.8-2-1.8-2l-5.9.1c-1.3 0-2.4 1.2-2.4 2.7 0 0-3.1-3.2-4.5-3.2s-3.1 1.8-3.5 3c0 0-2.1-1.8-3.8.4-1.7 2.2-1.8 7.3-1.8 7.3s3.4 3.3 4.7.6c.1-.2.4-.2.5 0 .4.8 1.4 2.1 3.2 1.9 2.2-.3 4.4-2.3 5.3-3.6.1-.2.4-.1.5.1.3 1 1.3 2.8 4.2 3.5 4 .9 4.9-1.5 4.9-1.5l.1-3.5c0-.2.2-.2.3-.1.5 1.1 1.7 3.4 3.7 4.4 2 .8 5.4 1.6 6.4-.2z"/><g fill="#8B8B9E"><path d="M485.6 624.7c-2.9-.7-3.9-2.6-4.2-3.5-.1-.2-.3-.3-.5-.1-.9 1.3-3 3.3-5.3 3.6-1.8.2-2.8-1.1-3.2-1.9-.1-.2-.4-.2-.5 0-1.3 2.7-4.6-3.2-4-5.4-1.5 2.3-1.6 7-1.6 7s3.4 3.3 4.7.6c.1-.2.4-.2.5 0 .4.8 1.4 2.1 3.2 1.9 2.2-.3 4.4-2.3 5.3-3.6.1-.2.4-.1.5.1.3 1 1.3 2.8 4.2 3.5 4 .9 4.9-1.5 4.9-1.5l.1-1.8c-.3.6-1.1 1.7-4.1 1.1zM529.8 622.7c-.1-.2-.4-.2-.5 0-.4.8-1.4 2.1-3.2 1.9-2.2-.3-4.4-2.3-5.3-3.6-.1-.2-.4-.1-.5.1-.3 1-1.3 2.8-4.2 3.5-4 .9-4.9-1.5-4.9-1.5l-.1-3.5c0-.2-.2-.2-.3-.1-.5 1.1-1.7 3.4-3.7 4.4-1.8.8-5.2 1.6-6.2-.2-1 1.8-4.4 1-6.2.2-2-.9-3.8-3.7-4.3-4.8-.1-.2-.3-.1-.3.1v2.7c.5 1.2 1.7 3.3 3.7 4.2 1.8.8 5.2 1.6 6.2-.2 1 1.8 4.4 1 6.2.2 2-.9 3.2-3.2 3.7-4.4.1-.2.3-.1.3.1l.1 3.5s.9 2.4 4.9 1.5c2.9-.7 3.9-2.6 4.2-3.5.1-.2.3-.3.5-.1.9 1.3 3 3.3 5.3 3.6 1.8.2 2.8-1.1 3.2-1.9.1-.2.4-.2.5 0 1.3 2.7 4.7-.6 4.7-.6s0-2.7-.9-5.5c-1.2.8-2.1 5.7-2.9 3.9z"/></g><path fill="#EDEDED" d="M497.9 615.1c-.1.2-1.2 0-2.6 0-1.4.1-2.6.3-2.7 0-.1-.2 1-.9 2.6-.9 1.7 0 2.8.7 2.7.9zM498.4 621.7c-.1-.1 0-.4.1-.9s.1-1.2.2-2 .1-1.5.1-2v-.9c.1-.1.4.2.6.8.2.5.2 1.3.2 2.2-.1.8-.2 1.6-.5 2.1s-.7.8-.7.7zM508.5 616.3c-.2.1-.9-1.4-2.8-1.3-.9 0-1.7.1-2.4.2-.6 0-1.1 0-1.1-.2 0-.1.4-.3 1-.5s1.5-.4 2.5-.4c.5 0 1 .1 1.5.3.4.2.8.5.9.8.5.6.5 1 .4 1.1zM516.8 621.6c-.1-.1 0-.6.2-1.5.1-.4.2-1 .3-1.5 0-.3.1-.6 0-.9 0-.3 0-.6-.2-.8-.2-.5-.7-.8-1.2-.8-.6 0-1.1-.1-1.6-.1-.9-.1-1.5-.2-1.5-.3s.6-.2 1.5-.3c.5 0 1-.1 1.7-.1s1.5.5 1.9 1.3c.1.2.2.4.2.6v.6c0 .4 0 .7-.1 1-.1.6-.3 1.2-.5 1.6-.2.8-.6 1.2-.7 1.2zM526.7 617c-.2.1-.8-.7-1.6-1.3-.4-.3-.8-.4-1.1-.4-.3 0-.6 0-.7-.1-.1-.1.1-.4.5-.5.4-.2 1.2-.2 1.8.3 1.1.8 1.3 1.9 1.1 2z"/><ellipse cx="485.2" cy="615.7" fill="#EDEDED" rx="2.4" ry=".4"/><path fill="#EDEDED" d="M478.3 617.5c-.2.2-1-.4-1.7-1.2-.7-.8-1.4-1.2-1.4-1.4 0-.1.3-.2.7-.1.4.1.9.4 1.3.9.9.9 1.3 1.7 1.1 1.8zM471.3 618.2c-.2.1-.6-.2-1-.4-.3-.3-.7-.5-.7-.7 0-.2.6-.4 1.2 0 .7.4.7 1 .5 1.1zM507.3 621.7c-.2-.2.2-.8.5-1.8.3-.9.4-1.7.6-1.8.2 0 .5.9.2 2-.1.6-.4 1-.7 1.3-.3.3-.5.4-.6.3zM527.9 621.7c-.2 0-.4-.8-.6-1.8-.2-1-.4-1.8-.2-1.9.2-.1.7.7 1 1.7.2 1.1 0 2-.2 2z"/><g><path class="skin_dark" d="M500 604.2c10 0 20-2.9 20-2.9l16.9 6.2c2.6.9 5.3 1.4 8.1 1.4h7.9c-15-5.3-10.5-22.8-30.4-22.8l-22.5 3.8-22.5-3.8c-19.9 0-15.4 17.5-30.4 22.8h7.9c2.8 0 5.5-.5 8.1-1.4l16.9-6.2s10 2.9 20 2.9z"/></g><g><pattern id="mouth_j" patternTransform="matrix(.448 0 0 .448 -29141.309 3006.561)" xlink:href="#mouth_i"/><path fill="url(#mouth_j)" d="M500 604.2c10 0 20-2.9 20-2.9l16.9 6.2c2.6.9 5.3 1.4 8.1 1.4h7.9c-15-5.3-10.5-22.8-30.4-22.8l-22.5 3.8-22.5-3.8c-19.9 0-15.4 17.5-30.4 22.8h7.9c2.8 0 5.5-.5 8.1-1.4l16.9-6.2s10 2.9 20 2.9z"/></g><path class="skin_dark" d="M540.8 631.5l12.1-22.6H545s-8.6 15-14.1 15c-8.1 0-15.6 4.4-30.9 4.4s-22.8-4.4-30.9-4.4c-5.6 0-14.1-15-14.1-15h-7.9l12.1 22.6c5 9.3 15.2 15.2 26.3 15.2h29c11.1 0 21.3-5.9 26.3-15.2z"/><g><path class="skin_outline" d="M430.9 608.9c0-.4 5.3-.8 14.3-1.1 2.2-.1 4.7-.1 7.4-.2 1.3 0 2.7 0 4.1-.1 1.3-.1 2.7-.4 4.1-.8.7-.2 1.4-.4 2.1-.7.7-.3 1.5-.6 2.2-.9 1.5-.6 3-1.2 4.6-1.8 3.3-1.3 6.8-2.6 10.4-3.9l1.1.3.6.1 1.2.3c.8.2 1.6.4 2.4.5l4.8.9c3.3.5 6.6.8 10 .8 3.4 0 6.8-.3 10-.8 1.6-.2 3.3-.5 4.8-.9.8-.2 1.6-.3 2.4-.5l1.2-.3.6-.1 1.1-.3c3.6 1.4 7.1 2.7 10.4 3.9 1.6.6 3.1 1.2 4.6 1.8.8.3 1.5.6 2.2.9.7.3 1.4.5 2.1.7 1.4.4 2.8.6 4.1.8 1.3.1 2.7.1 4.1.1 2.7.1 5.1.1 7.4.2 9 .3 14.3.7 14.3 1.1 0 .4-5.3.8-14.3 1.1-2.2.1-4.7.1-7.4.2-1.3 0-2.7.1-4.2 0s-3.1-.3-4.6-.7c-.8-.2-1.6-.4-2.3-.7-.7-.3-1.5-.5-2.2-.8-1.5-.5-3.1-1.1-4.7-1.6-3-1.1-6.2-2.2-9.4-3.4h-.1l-.6.2-1.2.3-2.4.6c-1.6.4-3.3.7-5 .9-3.4.5-6.9.9-10.6.9-3.6 0-7.2-.4-10.6-.9-1.7-.3-3.4-.6-5-.9l-2.4-.6-1.2-.3-.6-.2h-.1c-3.3 1.2-6.4 2.3-9.4 3.4-1.6.6-3.1 1.1-4.7 1.6-.8.3-1.5.5-2.2.8-.8.3-1.6.5-2.3.7-1.6.4-3.1.6-4.6.7-1.5.1-2.9 0-4.2 0-2.7-.1-5.1-.1-7.4-.2-9.6-.3-14.9-.7-14.9-1.1z"/></g><path fill="none"/><pattern id="eye_i" width="48" height="48" y="1000" overflow="visible" patternUnits="userSpaceOnUse" viewBox="4.8 -52.8 48 48"><defs><path id="eye_a" d="M4.8-52.8h48v48h-48z"/></defs><clipPath id="eye_b"><use overflow="visible" xlink:href="#eye_a"/></clipPath><g class="skin_dark" clip-path="url(#eye_b)"><path d="M28.8 0c6.4 0 6.4-9.6 0-9.6-6.3 0-6.4 9.6 0 9.6zM52.8 0c6.4 0 6.4-9.6 0-9.6-6.3 0-6.4 9.6 0 9.6zM28.8-24c6.4 0 6.4-9.6 0-9.6s-6.4 9.6 0 9.6zM52.8-24c6.4 0 6.4-9.6 0-9.6s-6.4 9.6 0 9.6zM40.8-12c6.4 0 6.4-9.6 0-9.6-6.3 0-6.4 9.6 0 9.6zM16.8-12c6.4 0 6.4-9.6 0-9.6-6.3 0-6.4 9.6 0 9.6zM40.8-36c6.4 0 6.4-9.6 0-9.6s-6.4 9.6 0 9.6zM16.8-36c6.4 0 6.4-9.6 0-9.6s-6.4 9.6 0 9.6z"/></g><defs><path id="eye_c" d="M4.8-52.8h48v48h-48z"/></defs><clipPath id="eye_d"><use overflow="visible" xlink:href="#eye_c"/></clipPath><g class="skin_dark" clip-path="url(#eye_d)"><path d="M4.8 0c6.4 0 6.4-9.6 0-9.6S-1.6 0 4.8 0zM4.8-24c6.4 0 6.4-9.6 0-9.6s-6.4 9.6 0 9.6z"/></g><g><defs><path id="eye_e" d="M4.8-52.8h48v48h-48z"/></defs><clipPath id="eye_f"><use overflow="visible" xlink:href="#eye_e"/></clipPath><g class="skin_dark" clip-path="url(#eye_f)"><path d="M28.8-48c6.4 0 6.4-9.6 0-9.6-6.3 0-6.4 9.6 0 9.6zM52.8-48c6.4 0 6.4-9.6 0-9.6-6.3 0-6.4 9.6 0 9.6z"/></g></g><g><defs><path id="eye_g" d="M4.8-52.8h48v48h-48z"/></defs><clipPath id="eye_h"><use overflow="visible" xlink:href="#eye_g"/></clipPath><path class="skin_dark" d="M4.8-48c6.4 0 6.4-9.6 0-9.6-6.3 0-6.4 9.6 0 9.6z" clip-path="url(#eye_h)"/></g></pattern><path class="hair_brow" d="M472.4 417.8c-3.2 5.6-7.5 16-19.1 13.1-44.7-11.3-56.3-10.5-89.1-3.5 0 0 10.7-28.8 39.9-28.8 16.4 0 55.5 19.3 55.5 19.3 13.8 0 12.8.1 12.8-.1zM473.5 421.9c.4 0 .9 3.1-1.4 6.4-2.3 3.2-5.8 3.5-5.8 2.9 0-.5 2.5-1.2 4.4-3.9 1.8-2.6 2.3-5.4 2.8-5.4z"/><pattern id="eye_j" patternTransform="translate(-89580.727 5277.506) scale(.2294)" xlink:href="#eye_i"/><path fill="url(#eye_j)" d="M364.2 427.3s5.1 15.5 25.8 19.2c8.9-5.8 21.3-16.3 31.5-16.3 20.6 0 30.4 12.7 30.4 12.7 4.2-4.2 2.3-11.8-3.9-13.4-39.5-9.6-50.6-9.3-83.8-2.2z"/><path fill="#FFF" d="M398.7 451c0 15.4 20.8 13.4 41.5 13.4 6.5 0 13.7-.9 13.7-7-11.1-24.3-55.2-16.1-55.2-6.4z"/><path class="eye_iris" d="M418 464c3 .5.8.4 22.4.4 5.2-5.2 6.4-12.1 4.1-17.8-9.1-6.5-17.8-8-25.2-7.2-7.9 5.9-8.9 17.8-1.3 24.6z"/><path fill="#241F20" d="M447.6 463.7c1.2 2.4-45 1.5-41.1-2.4.1-.2 2.2.8 5.9 1.4 3.1.5 35.1.8 35.2 1z"/><path d="M429.2 445.4c9.3 0 9.3 14 0 14s-9.3-14 0-14z"/><path class="skin_outline" d="M451.9 442.9c-2 1.3-3.8-9.7-23.8-11.3-8.3-.7-17 1-23.9 5.6-9.1 5.3 15.2-19.8 42-1.9.5.5 6.2 7.1 5.7 7.6z"/><g><path fill="#241F20" d="M401.5 458.8c-1.4 1-6-6.5-4.9-9.8 2.8-9.7 30.2-15.7 50.5-5.6 3.2 1.6 9 13 6.6 14-.9.2-7.6-9.1-9.3-9.1-9.7-4.8-43.7-3.7-43.7 2.8 0 3.5 1.6 7.1.8 7.7z"/></g><g><path class="skin_outline" d="M451.9 469c1.1 1.1-10.9 16-33.4 9.3-3.8-1.1-5.9-2.2-5.8-2.6.1-.3 2.4.2 6.2.8 27.4 4.4 31.3-9.2 33-7.5z"/></g><g><path fill="#FFF" d="M422.2 456.9c-6 0-5.9-9 0-9s5.9 9 0 9z"/></g><g><path class="hair_brow" d="M526.8 417.8c3.2 5.6 7.5 16 19.1 13.1 44.7-11.3 56.3-10.5 89.1-3.5 0 0-10.7-28.8-39.9-28.8-16.4 0-55.5 19.3-55.5 19.3-13.8 0-12.8.1-12.8-.1zM525.7 421.9c.9-.2.9 4.9 5.7 8.1.9.6 1.5.9 1.5 1.1 0 .8-6.3.1-7.5-7.3-.1-1.1.1-1.8.3-1.9z"/><pattern id="eye_k" patternTransform="matrix(-.2294 0 0 .2294 -33846.82 5277.506)" xlink:href="#eye_i"/><path fill="url(#eye_k)" d="M635 427.3s-5.1 15.5-25.8 19.2c-8.9-5.8-21.3-16.3-31.5-16.3-20.6 0-30.4 12.7-30.4 12.7-4.2-4.2-2.3-11.8 3.9-13.4 39.5-9.6 50.6-9.3 83.8-2.2z"/><path fill="#FFF" d="M600.5 451c0 15.4-20.8 13.4-41.5 13.4-6.5 0-13.7-.9-13.7-7 11.1-24.3 55.2-16.1 55.2-6.4z"/><path class="eye_iris" d="M581.2 464c-3 .5-.8.4-22.4.4-5.2-5.2-6.4-12.1-4.1-17.8 9.1-6.5 17.8-8 25.2-7.2 7.9 5.9 9 17.8 1.3 24.6z"/><path fill="#241F20" d="M551.6 463.7c.1-.2 32.2-.5 35.4-1 3.6-.6 5.7-1.7 5.9-1.4 2.1 4.2-41.3 4.7-41.3 2.4z"/><path d="M570 445.4c9.3 0 9.3 14 0 14s-9.3-14 0-14z"/><path class="skin_outline" d="M547.3 442.9c-.1-.1 3.5-7.9 12.8-11.4 22.5-8.4 37.6 5.6 37 6.7-.3.5-7.5-5.2-15.4-6.2-11.3-2.1-24.5 1.9-28.1 5.5-3.7 3.5-6.1 5.6-6.3 5.4z"/><g><path fill="#241F20" d="M598.4 451.6c0-2.6-5.6-4.2-7.9-4.8-15.7-4-36 1.5-36.2 1.7-2.8 2.8 0-.8-6.6 6.9-4.5 5.7-3.8-1.9 2.2-9.9 13.2-13.2 65.9-7.2 49.9 12-4 4.4-1.4-3-1.4-5.9z"/></g><g><path class="skin_outline" d="M547.3 469c1.2-1.2 7.2 11.7 33 7.5 3.7-.6 6-1.1 6.2-.8.1.3-2 1.5-5.8 2.6-24 6.5-34.6-8.9-33.4-9.3z"/></g><g><path fill="#FFF" d="M564.2 456.9c-6 0-5.9-9 0-9s5.9 9 0 9z"/></g></g><g><path fill="#2D2B2C" d="M658.6 416.3C571.9 392 529 423 499 423c-30.3 0-72.6-31-159.6-6.7-3.7 1.1-2.8 3.6-2.8 19.2 0 4.6 5.9 2.2 9.6 21 3.7 19 5.8 48.8 38.4 55.4 16.5 3.3 34.2 3.3 48.3 1 33-5.4 39.9-32.7 50.7-64.4 1.9-5.7 4.7-10.7 15.4-10.7 10.8 0 13.5 4.9 15.4 10.7 10.8 31.7 17.6 59 50.7 64.4 13.5 2.2 31.7 2.4 48.3-1 32.1-6.5 34.4-35.2 38.4-55.4 3.7-19.2 9.6-16.3 9.6-21 0-16 .9-18.1-2.8-19.2zm-195.8 64.5c-9.7 23.1-28.4 27.6-51.3 27.6-45.1 0-53.3-18.2-56.5-62.5-1-13.4 8.5-25.3 21.7-27.5 19.2-3.3 49.2-5 81.8 5.4 19.6 6.1 16.7 27.5 4.3 57zm76.7-57.2c32.6-10.4 62.6-8.6 81.8-5.4 13.2 2.2 22.7 14.2 21.7 27.5-1.9 26.9-6.3 54.5-32.8 60.1-29.9 6.4-62.6 3.8-75-25.2-12.4-29.3-15.2-50.7 4.3-57z"/><g fill="#F7F6F6"><path d="M462.8 480.8c-9.7 23.1-28.4 27.6-51.3 27.6-45.1 0-53.3-18.2-56.5-62.5-1-13.4 8.5-25.3 21.7-27.5 19.2-3.3 49.2-5 81.8 5.4 19.6 6.1 16.7 27.5 4.3 57zM539.5 423.6c32.6-10.4 62.6-8.6 81.8-5.4 13.2 2.2 22.7 14.2 21.7 27.5-1.9 26.9-6.3 54.5-32.8 60.1-29.9 6.4-62.6 3.8-75-25.2-12.4-29.3-15.2-50.7 4.3-57z" opacity=".2"/></g></g><pattern id="hair_e" width="28.8" height="28.8" x="250" y="750" overflow="visible" patternUnits="userSpaceOnUse" viewBox="1.4 -30.2 28.8 28.8"><defs><path id="hair_a" d="M1.4-30.2h28.8v28.8H1.4z"/></defs><clipPath id="hair_b"><use overflow="visible" xlink:href="#hair_a"/></clipPath><g clip-path="url(#hair_b)"><g fill="#FFF"><path d="M30.2 0c.8 0 1.4-.6 1.4-1.4s-.6-1.4-1.4-1.4-1.4.6-1.4 1.4c0 .8.6 1.4 1.4 1.4zM15.8 0c.8 0 1.4-.6 1.4-1.4s-.6-1.4-1.4-1.4c-.8 0-1.4.6-1.4 1.4 0 .8.6 1.4 1.4 1.4zM30.2-14.4c.8 0 1.4-.6 1.4-1.4s-.6-1.4-1.4-1.4-1.4.6-1.4 1.4c0 .8.6 1.4 1.4 1.4zM15.8-14.4c.8 0 1.4-.6 1.4-1.4s-.6-1.4-1.4-1.4c-.8 0-1.4.6-1.4 1.4 0 .8.6 1.4 1.4 1.4zM8.6-7.2c.8 0 1.4-.6 1.4-1.4S9.4-10 8.6-10c-.8 0-1.4.6-1.4 1.4 0 .8.6 1.4 1.4 1.4zM23-7.2c.8 0 1.4-.6 1.4-1.4S23.8-10 23-10s-1.4.6-1.4 1.4.6 1.4 1.4 1.4zM8.6-21.6c.8 0 1.4-.6 1.4-1.4s-.6-1.4-1.4-1.4c-.8 0-1.4.6-1.4 1.4 0 .8.6 1.4 1.4 1.4zM23-21.6c.8 0 1.4-.6 1.4-1.4s-.6-1.4-1.4-1.4-1.4.6-1.4 1.4c0 .8.6 1.4 1.4 1.4z"/></g><g fill="#FFF"><path d="M1.4 0c.8 0 1.4-.6 1.4-1.4s-.6-1.4-1.4-1.4C.6-2.9 0-2.2 0-1.4 0-.6.6 0 1.4 0zM1.4-14.4c.8 0 1.4-.6 1.4-1.4s-.6-1.4-1.4-1.4-1.4.6-1.4 1.4.6 1.4 1.4 1.4z"/></g><g fill="#FFF"><path d="M30.2-28.8c.8 0 1.4-.6 1.4-1.4s-.6-1.4-1.4-1.4-1.4.6-1.4 1.4c0 .8.6 1.4 1.4 1.4zM15.8-28.8c.8 0 1.4-.6 1.4-1.4s-.6-1.4-1.4-1.4-1.4.6-1.4 1.4c0 .8.6 1.4 1.4 1.4z"/></g><path fill="#FFF" d="M1.4-28.8c.8 0 1.4-.6 1.4-1.4s-.6-1.4-1.4-1.4C.6-31.7 0-31 0-30.2c0 .8.6 1.4 1.4 1.4z"/></g></pattern><pattern id="hair_h" width="28.8" height="28.8" x="250" y="750" overflow="visible" patternUnits="userSpaceOnUse" viewBox="1.4 -30.2 28.8 28.8"><defs><path id="hair_c" d="M1.4-30.2h28.8v28.8H1.4z"/></defs><clipPath id="hair_d"><use overflow="visible" xlink:href="#hair_c"/></clipPath><g fill="#770A0C" clip-path="url(#hair_d)"><path d="M30.2 0c.8 0 1.4-.6 1.4-1.4s-.6-1.4-1.4-1.4-1.4.6-1.4 1.4c0 .8.6 1.4 1.4 1.4zM15.8 0c.8 0 1.4-.6 1.4-1.4s-.6-1.4-1.4-1.4c-.8 0-1.4.6-1.4 1.4 0 .8.6 1.4 1.4 1.4zM30.2-14.4c.8 0 1.4-.6 1.4-1.4s-.6-1.4-1.4-1.4-1.4.6-1.4 1.4c0 .8.6 1.4 1.4 1.4zM15.8-14.4c.8 0 1.4-.6 1.4-1.4s-.6-1.4-1.4-1.4c-.8 0-1.4.6-1.4 1.4 0 .8.6 1.4 1.4 1.4zM8.6-7.2c.8 0 1.4-.6 1.4-1.4S9.4-10 8.6-10c-.8 0-1.4.6-1.4 1.4 0 .8.6 1.4 1.4 1.4zM23-7.2c.8 0 1.4-.6 1.4-1.4S23.8-10 23-10s-1.4.6-1.4 1.4.6 1.4 1.4 1.4zM8.6-21.6c.8 0 1.4-.6 1.4-1.4s-.6-1.4-1.4-1.4c-.8 0-1.4.6-1.4 1.4 0 .8.6 1.4 1.4 1.4zM23-21.6c.8 0 1.4-.6 1.4-1.4s-.6-1.4-1.4-1.4-1.4.6-1.4 1.4c0 .8.6 1.4 1.4 1.4z"/><g><path d="M1.4 0c.8 0 1.4-.6 1.4-1.4s-.6-1.4-1.4-1.4C.6-2.9 0-2.2 0-1.4 0-.6.6 0 1.4 0zM1.4-14.4c.8 0 1.4-.6 1.4-1.4s-.6-1.4-1.4-1.4-1.4.6-1.4 1.4.6 1.4 1.4 1.4z"/></g><g><path d="M30.2-28.8c.8 0 1.4-.6 1.4-1.4s-.6-1.4-1.4-1.4-1.4.6-1.4 1.4c0 .8.6 1.4 1.4 1.4zM15.8-28.8c.8 0 1.4-.6 1.4-1.4s-.6-1.4-1.4-1.4-1.4.6-1.4 1.4c0 .8.6 1.4 1.4 1.4z"/></g><path d="M1.4-28.8c.8 0 1.4-.6 1.4-1.4s-.6-1.4-1.4-1.4C.6-31.7 0-31 0-30.2c0 .8.6 1.4 1.4 1.4z"/></g></pattern><path class="hair_fill" d="M340.3 426.1c-8.9 2.9-14.1-21.5-14.1-27.6 0-16.3-.4-52.8-.4-52.8h47.9c-13.3 29-33.4 80.4-33.4 80.4z"/><path class="hair_outline" d="M328.9 412.7c-1.1 0-2.2-28.3 9.3-54.7 2.3-5.5 4.3-8.6 4.7-8.4.3.2-1.1 3.5-2.9 9.1-11.7 33.7-9.5 54-11.1 54z"/><path class="hair_fill" d="M657.7 426.1c8.9 2.9 14.1-21.5 14.1-27.6 0-16.3.4-52.8.4-52.8h-47.9c13.3 29 33.4 80.4 33.4 80.4z"/><path class="hair_outline" d="M669.1 412.7c-1.4 0 .1-21.7-11-54-1.9-5.6-3.2-8.9-2.9-9.1 1.2-.6 14 25.1 14.5 53.5.1 1.4 0 9.6-.6 9.6z"/><g><path fill="#FD4136" d="M690.9 316.1l-27.7 6.3c-25.8 69.1-300.3 69.9-326.4 0l-27.7-6.3c-64.4-16.7-11.3 92.5 190.9 92.5 201.8 0 255.4-109.2 190.9-92.5z"/><path fill="#241F20" d="M712.3 310.3c-21.7 4.7-17.8 3.4-21.5 5.8 64.4-16.7 11.3 92.5-190.9 92.5-201.8 0-255.4-109.3-190.9-92.5-3.7-2.4.3-1.2-21.5-5.8-75.1-18.5-18.4 112.1 212.3 114.9 231.4-2.8 287.1-133.3 212.5-114.9z"/><path fill="#FD4136" d="M500 128c-21.6 0-163.2 9-163.2 194.4 28.1 73.1 297.9 74.2 326.4 0C663.2 137.1 521.6 128 500 128z"/><path fill="#ED1418" d="M663.2 322.4c3.6 1.3-34.4 68.3-199.4 55.6-109.1-8.9-128.2-55.1-127-55.6 1.5-.6 15.6 43.5 127.2 52.2 170.4 12.4 198.5-52.5 199.2-52.2zM283.3 322.7c-.9-11.5 16.9-12.5 25.9-6.5-.1-.1-22.5-7.2-25.9 6.5z"/><path fill="#ED1418" d="M370.4 353c-.6 0-10-174.9 101.6-204.9 71.5-19.6 153.8 32 157.8 183.5.4 9 0 21.4-.2 21.4-.4 0-.7-14.2-1.2-21.4-9.2-162.1-94.9-196.7-155.5-180.2C362.6 181 372.8 353 370.4 353zM716.7 322.7c.9-11.5-16.9-12.5-25.9-6.5.1-.1 22.5-7.2 25.9 6.5z"/><path fill="#ED1418" d="M508.1 128.3c0-.4.4.3-4-5.6-9.8 0-7.1-1.3-12.1 5.3 0 2.2-155.1-.5-155.1 194.4 2.2 3.9 4.3 6.9 10.5 13.3 0-155.7 99.9-189.5 144.7-195.8v7.3c5 8 2.2 6.4 12.1 6.4 4.8-7.7 4-4.5 4-13.7 44.8 6.3 144.7 40.1 144.7 195.8 6.1-6.4 8.2-9.4 10.5-13.3-.2-169.4-118.5-191.5-155.3-194.1z"/><path fill="#FBAF31" d="M496 122.7c-14.6 0-20.9-1.6-20.9 7.7 1.6 2.1 2.9 3.3 2.9 5.7 0 9.8-2.3 8 13.9 4.9v-13l4.1-5.3zM504 122.7c14.6 0 20.9-1.6 20.9 7.7-1.6 2.1-2.9 3.3-2.9 5.7 0 9.8 2.3 8-13.9 4.9v-13l-4.1-5.3z"/><path fill="#FEBE31" d="M504 122.7c-9.7 0-7-1.4-12.1 5.3 0 23-1.3 17 4 25.5 10 0 7 1.7 12.1-6.4.1-22.9 1.4-17.3-4-24.4z"/><path fill="#DADADC" d="M314.9 317.2c-8.1 6.4-9.8 7.2-8.3 8.3 8.8 6.5 28.3 9 28.6 6.5 1.2-8.2 2.1-10.5-.4-11.1-19.3-4.4-18.8-4.6-19.9-3.7z"/><path fill="#CACACC" d="M336.5 323.6c-1.2 8.7-1 9.3-2.3 9.3-16-.2-27.6-6.2-28-8 0 .9 0 2.5.4 2.8 2.8 2.1 11.4 7.2 27.6 7.4 1.3 0 1-.4 2.4-10.4.1-.4.1-.5-.1-1.1z"/><path fill="#CACACC" d="M318 318.6c-.9 4.3 15.2 6.2 15.6 4.4.8-4.2-15.2-6.1-15.6-4.4zM312.2 323.6c-.9 4.3 15.2 6.2 15.6 4.4.8-4.1-15.3-6.1-15.6-4.4z"/><path fill="#DADADC" d="M333.6 321.9c-.5 2.1-16-1.1-15.6-3.3.4-2.1 16 1.1 15.6 3.3zM327.7 326.9c-.5 2.1-16-1.1-15.6-3.3.5-2.1 16.1 1.2 15.6 3.3zM685.1 317.2c8.1 6.4 9.8 7.2 8.3 8.3-8.8 6.5-28.3 9-28.6 6.5-1.2-8.2-2.1-10.5.4-11.1 19.3-4.4 18.8-4.6 19.9-3.7z"/><path fill="#CACACC" d="M663.5 323.6c1.2 8.7 1 9.3 2.3 9.3 16-.2 27.6-6.2 28-8 0 .9 0 2.5-.4 2.8-2.8 2.1-11.4 7.2-27.6 7.4-1.3 0-1-.4-2.4-10.4-.1-.4-.1-.5.1-1.1z"/><path fill="#CACACC" d="M682 318.6c.9 4.3-15.2 6.2-15.6 4.4-.8-4.2 15.2-6.1 15.6-4.4zM687.8 323.6c.9 4.3-15.2 6.2-15.6 4.4-.8-4.1 15.3-6.1 15.6-4.4z"/><path fill="#DADADC" d="M666.4 321.9c.5 2.1 16-1.1 15.6-3.3-.4-2.1-16 1.1-15.6 3.3zM672.3 326.9c.5 2.1 16-1.1 15.6-3.3-.5-2.1-16.1 1.2-15.6 3.3z"/><pattern id="hair_f" patternTransform="rotate(180 28823.646 3650.047) scale(.4352)" xlink:href="#hair_e"/><path fill="url(#hair_f)" d="M544 387.6s89.1-4.7 112.3-42.8c0 0 6.8 47.5-112.3 42.8z"/><pattern id="hair_g" patternTransform="rotate(180 28823.646 3650.047) scale(.4352)" xlink:href="#hair_e"/><path fill="url(#hair_g)" d="M555.3 146.1s96.3 18.9 101 147c0 0-8.2-109.3-101-147z"/><pattern id="hair_i" patternTransform="matrix(.4157 0 0 -.4157 -101674.46 -50487.05)" xlink:href="#hair_h"/><path fill="url(#hair_i)" d="M564.7 172c-43.7 27.4-54.4-1.9-54.4-1.9 0-17.6 2.6-15.3-17.3-15.3-19.9 0-17.3-2.1-17.3 15.3 0 0-10.7 29.3-54.4 1.9-12.8-8-75.9 150.2 53.7 214.9 11.3 5.6 24.6 5.6 35.9 0C640.5 322.2 577.5 164 564.7 172z"/><path fill="#241F20" d="M571.7 170c-43.7 27.4-54.4-1.9-54.4-1.9 0-17.6 2.6-15.3-17.3-15.3-19.9 0-17.3-2.1-17.3 15.3 0 0-10.7 29.3-54.4 1.9-12.8-8-75.9 150.2 53.7 214.9 11.3 5.6 24.6 5.6 35.9 0C647.5 320.2 584.5 162 571.7 170z"/><path fill="#FEBE31" d="M500 379.1c-19.5 0-69.9-31.8-83.8-86.4-11.9-46.9 2.9-93.4 12-111 37.3 20.9 64.5 5.4 64.5-18.8 22.8 0 11.3-1.7 15.1 8.7 6.8 18.7 30.2 29 63.9 10.1 9.2 17.6 24 64.1 12 111-13.8 54.7-64.3 86.4-83.7 86.4z"/><g fill="#241F20" stroke="#241F20" stroke-miterlimit="10" stroke-width=".5"><path d="M440.6 216.7c2.9 5.9 1.2 5.2 6.7 2.5 1.3 2.6 2 1.4-3.4 4.1 4 8 3.9 6.3 1.4 7.6l-7.5-15.2 6.3-3.1c1.2 2.5 1.9 1.4-3.5 4.1zM456.2 225.8c-6.8-18.3-6.7-15.6-3.9-16.6 6.8 18.3 6.7 15.5 3.9 16.6zM466.9 213.7c1.1.6 1.8 1.6 2.1 2.9 1.5 5.9 2 4.7-.9 5.4-1.7-6.7-1.3-7.2-5.2-6.1 2.2 8.4 2.5 6.8-.3 7.6-5.1-19.7-5.4-16.1-.9-17.3 5.5-1.5 6.5 6 5.2 7.5zm-3.3-.3c2.3-.6 1.8-3 .9-4.4-.8-1.4-1.8-.8-3.6-.4 1.6 6 1 5.3 2.7 4.8zM474.5 205.6c1 6.5-.5 5.4 5.6 4.4.4 2.8 1.4 2-4.5 2.9 1 6.5-.5 5.4 5.6 4.5.4 2.9 1.7 1.9-6.6 3.2l-2.6-16.8 6.9-1.1c.5 2.8 1.5 2-4.4 2.9zM487.2 204c.4 6.6-.9 5.3 5.2 4.9.2 2.9 1.3 2.1-4.7 2.5.6 8.9 1.2 7.3-1.7 7.5l-1.1-16.9 7-.5c.1 2.9 1.2 2.1-4.7 2.5zM498.1 218.4c-.1-19.5-1-16.9 2-17 .2 19.5 1 16.9-2 17zM509.1 218.6c-5.2-.3-3.6-6.7-3.2-12.4.4-6.5 8.5-6 8.1.5-.1 1.4.5 1.1-2.3.9.2-2.3.3-4.2-2.3-3.8-1.8.2-1.4 3.7-1.8 9.8-.1 1.6.1 2.7 1.7 2.8 1.5.1 1.9-.9 2-2.5.1-1.7.7-1.2-2.5-1.5.2-2.9-.8-2.2 4.9-1.9-.3 3.5.1 8.4-4.6 8.1zM527.6 203.7c-3.1 19.5-2 16.9-4.8 16.4 1.4-9 2.2-7.1-2.1-7.8-1.4 8.8-.5 7.4-3.3 6.9 3.1-19.3 1.8-16.9 4.8-16.4-1.4 9-2.2 7.1 2.1 7.8 1.3-8.7.4-7.3 3.3-6.9zM542.6 209.6c-4.8-1.3-2.8-3.8-7.5 13.2-2.8-.8-2.7 1.7 1.9-14.8-4.5-1.3-3.7-.4-3-3.1 11 3.1 9.4 1.9 8.6 4.7zM549.9 212.3c-2.6 6.1-3.2 4.3 2.4 6.7-1.1 2.6.2 2.4-5.3.1-2.6 6.1-3.2 4.3 2.4 6.7-1.1 2.7.5 2.5-7.3-.7l6.6-15.6 6.5 2.7c-1.1 2.6.2 2.4-5.3.1zM562.4 225.8c.3 1.2.1 2.4-.6 3.5-3.2 5.2-2 4.7-4.5 3.2 3.6-5.9 4.2-5.9.7-8-4.5 7.4-3.1 6.6-5.6 5.1 10.5-17.4 7.8-15.1 11.8-12.7 4.9 2.9.2 8.8-1.8 8.9zm-2.1-2.5c2 1.2 3.3-.7 3.8-2.4.4-1.5-.7-1.9-2.2-2.8-3.1 5.2-3.1 4.3-1.6 5.2z"/></g><g><path fill="#FDBE30" stroke="#241F20" stroke-linecap="round" stroke-linejoin="round" stroke-miterlimit="10" stroke-width="4" d="M557.4 262.9c-1.2 4.3-4.5 12.4-13 17.9 1.4 2.5 2.6 5.3 3.6 8.4 0 0 14.7-8.7 17.1-23.9.1-.1-2.9-.5-7.7-2.4z"/><path fill="#241F20" d="M556.8 260.4c-16.3-7.1-26.4-21.9-47-18.4-1.8.3-2.3 2.7-.7 3.7 14.4 9.2 13.1 7.3 11.4 9.7-3.8 5.3.3 4.9 6.5 9-1.4 2.6-3.7 6.2-7 10.7-11.5-.8-12.8-9.9-19.9-9.9-7.3 0-8.2 9-19.9 9.9-3.4-4.5-5.6-8.1-7-10.7 6.1-4.1 10.3-3.7 6.5-9-1.6-2.2-3.3-.4 11.4-9.7 1.5-1 1.1-3.4-.7-3.7-20.6-3.5-30.6 11.3-47 18.4-.2.1-.5.3-.6.4-.3 0-.5 0-.8.1-6.9 2.8-7.7 1.7-8.6 3-2 2.6 4.2 18.9 17.7 26.8 3.9 2.3 2.5-6.4 12.5-17.9 1.1 1.5 2.8 3.9 4.9 6.8-1.9 4-.8 10.2-2.5 14.4-2 4.7-8.8 8.7-8.8 14.2 0 7.1 8.8 8.6 9.8 18.8-4.8 3.8-8 5.4-7.9 9.8.1 3.8 2.5 5.2 4.7 6.8 8.5 6.3 10.1 4 16.5-2.4 11.5.8 12.8 9.9 19.9 9.9 5.4 0 9.4-6.9 14.2-8.8 11.2-4.6 7.9 11.9 22.3 1.3 2.1-1.6 4.6-3 4.7-6.8.1-4.5-3.1-6-7.9-9.8.9-10 9.8-12 9.8-18.8 0-5.4-6.9-9.4-8.8-14.2-1.7-4.2-.6-10.3-2.5-14.4 2.1-2.9 3.8-5.2 4.9-6.8 2 2.3 3.8 4.8 5.4 7.5 2.9 5.6 20.2-17.4 14.5-19.9zM450.9 286c-3.7-2.7-11.4-9.5-13.7-19.3 1-.3 2.4-.7 4.1-1.3 1.6 4.5 4.9 10.9 11.6 15.9-.7 1.6-1.4 3.1-2 4.7zm4.8-9.5c-5.3-4.1-8-9.5-9.3-13.2 14-6.6 22.9-17.6 37.3-17.8-11.6 7.4-12.1 5.8-7.3 12.4-4.1 2-9 4.3-7.7 6.8 8.1 15.8 8.7 8.5 2.4 12-7-9.5-6.6-14-15.4-.2zm17.3 66c-2.3 2.2-4.7-.4-8.9-3.3-1.7-1.2-1.7-3.6-.1-4.9 6.6-5.1.4-.9 5.6 4.3 3.8 3.8 7.2.4 3.4 3.9zm63-8.2c1.6 1.3 1.6 3.7-.1 4.9-4.2 3-6.5 5.5-8.9 3.3-3.8-3.5-.4-.1 3.4-3.9 5.2-5.2-1-9.4 5.6-4.3zm8.3-57.8c-8.8-13.8-8.4-9.4-15.4.2-6.3-3.5-5.8 3.8 2.4-12 1.3-2.5-3.4-4.7-7.7-6.8 4.6-6.5 4.7-4.7-7.3-12.4 14.4.2 23.3 11.2 37.3 17.8-1.3 3.7-4 9.1-9.3 13.2z"/><circle cx="500" cy="308.2" r="30" fill="#FEBE31"/><path fill="none" stroke="#241F20" stroke-linecap="round" stroke-linejoin="round" stroke-miterlimit="10" stroke-width="4" d="M525 308.2c0 33.1-50 33.1-50 0s50-33.1 50 0z"/></g></g><g><g fill="#241F20"><path d="M515.3 303.6c-2.3-7.2-1.6.3-3 .3-7.5 0-.2 1.6-.6 3-2.3 7.2 1.4.7 2.6 1.6 6.1 4.5 1.1-1.2 2.3-2 6-4.6-.9-1.5-1.3-2.9z"/><path d="M509.8 313.2c-4.2 7.9 1.8-5.7.6-6.5-9-6-10.2-19.6-12.2-15-2.7 6.1-3.1 4.4 5.3 10.8-7-3.9-8-4.9-8.6-3.4-3.2 7-5.5 10.6-2.9 10.5 14.7-.9 14.5-1.4 2.7 1.1-6.1 1.3-10 8.3-6.9 8.3 10.7 0 6.8 1.7 19.9-10.3-4.9 6-9.2 10.3-6.1 10.3 12.4-.1 11.5 1.1 8.2-5.8z"/></g></g></svg>