<svg xmlns="http://www.w3.org/2000/svg" xmlns:xlink="http://www.w3.org/1999/xlink" version="1.1" height="1000px" width="1000px" viewBox="0 0 1000 1000">
  <style type="text/css">
    .skin_fill {
      fill: #54C571;
    }

    .skin_outline {
      fill: #00442D;
    }

    .skin_dark {
      fill: #3F895D;
    }

    .skin_halftone {
      fill: #154D32;
    }

    .skin_freckles {
      fill: #367B53;
    }
  </style>
  <style type="text/css">
    .hair_fill {
      fill: #FF0000;
    }

    .hair_outline {
      fill: #C4191C;
    }

    .hair_shadow {
      fill: #800A0C;
    }

    .hair_brow {
      fill: #E11E22;
    }
  </style>
  <style type="text/css">
    .eye_iris {
      fill: #00A86B;
    }
  </style>
  <style type="text/css">
    .bg_color {
      fill: #4AC575;
    }

    .bg_stop_1 {
      stop-color: #4AC575;
    }

    .bg_stroke_1 {
      stroke: #4AC575;
    }

    .bg_shape {
      fill: #FF7371;
    }

    .bg_stop_2 {
      stop-color: #FF7371;
    }

    .bg_stroke_2 {
      stroke: #FF7371;
    }

    .bg_halftone {
      fill: #405889;
    }

    .bg_stop_3 {
      stop-color: #405889;
    }

    .bg_stroke_3 {
      stroke: #405889;
    }
  </style>
  <pattern id="backdrop_a" width="83" height="65" y="1000" overflow="visible" patternUnits="userSpaceOnUse" viewBox="1.8 -133.6 83 65">
    <path fill="none" class="bg_stroke_2" stroke-dasharray="0,6.5" stroke-linecap="round" stroke-width="3.5" d="M84.8-67.2v65.4" />
    <g fill="none" class="bg_stroke_2" stroke-dasharray="0,6.5" stroke-linecap="round">
      <path stroke-width="3.5" d="M1.8-67.2v65.4" />
      <path stroke-width="3.25" d="M6.4-70.5v68.7" />
      <path stroke-width="3" d="M11-67.2v65.4" />
      <path stroke-width="2.75" d="M15.6-70.5v68.7" />
      <path stroke-width="2.25" d="M24.8-70.5v68.7" />
      <path stroke-width="1.75" d="M34-70.5v68.7" />
      <path stroke-width="1.25" d="M43.2-70.5v68.7" />
      <path stroke-width="3.5" d="M84.8-67.2v65.4" />
      <path stroke-width="3.25" d="M80.1-70.5v68.7" />
      <path stroke-width="3" d="M75.5-67.2v65.4" />
      <path stroke-width="2.75" d="M70.9-70.5v68.7" />
      <path stroke-width="2.25" d="M61.7-70.5v68.7" />
      <path stroke-width="1.75" d="M52.5-70.5v68.7" />
    </g>
    <path fill="none" class="bg_stroke_2" stroke-dasharray="0,6.5" stroke-linecap="round" stroke-width="3.5" d="M1.8-67.2v65.4M84.8-132.2v65.4" />
    <g fill="none" class="bg_stroke_2" stroke-dasharray="0,6.5" stroke-linecap="round">
      <path stroke-width="3.5" d="M1.8-132.2v65.4" />
      <path stroke-width="3.25" d="M6.4-135.5v68.7" />
      <path stroke-width="3" d="M11-132.2v65.4" />
      <path stroke-width="2.75" d="M15.6-135.5v68.7" />
      <path stroke-width="2.5" d="M20.2-132.2v65.4" />
      <path stroke-width="2.25" d="M24.8-135.5v68.7" />
      <path stroke-width="2" d="M29.4-132.2v65.4" />
      <path stroke-width="1.75" d="M34-135.5v68.7" />
      <path stroke-width="1.499" d="M38.6-132.2v65.4" />
      <path stroke-width="1.25" d="M43.2-135.5v68.7" />
      <path stroke-width="3.5" d="M84.8-132.2v65.4" />
      <path stroke-width="3.25" d="M80.1-135.5v68.7" />
      <path stroke-width="3" d="M75.5-132.2v65.4" />
      <path stroke-width="2.75" d="M70.9-135.5v68.7" />
      <path stroke-width="2.5" d="M66.3-132.2v65.4" />
      <path stroke-width="2.25" d="M61.7-135.5v68.7" />
      <path stroke-width="2" d="M57.1-132.2v65.4" />
      <path stroke-width="1.75" d="M52.5-135.5v68.7" />
      <path stroke-width="1.499" d="M47.9-132.2v65.4" />
    </g>
    <path fill="none" class="bg_stroke_2" stroke-dasharray="0,6.5" stroke-linecap="round" stroke-width="3.5" d="M1.8-132.2v65.4M84.8-197.2v65.4" />
    <g fill="none" class="bg_stroke_2" stroke-dasharray="0,6.5" stroke-linecap="round">
      <path stroke-width="3.5" d="M1.8-197.2v65.4" />
      <path stroke-width="3.25" d="M6.4-200.5v68.7" />
      <path stroke-width="3" d="M11-197.2v65.4" />
      <path stroke-width="2.75" d="M15.6-200.5v68.7" />
      <path stroke-width="2.5" d="M20.2-197.2v65.4" />
      <path stroke-width="2.25" d="M24.8-200.5v68.7" />
      <path stroke-width="2" d="M29.4-197.2v65.4" />
      <path stroke-width="1.75" d="M34-200.5v68.7" />
      <path stroke-width="1.499" d="M38.6-197.2v65.4" />
      <path stroke-width="1.25" d="M43.2-200.5v68.7" />
      <path stroke-width="3.5" d="M84.8-197.2v65.4" />
      <path stroke-width="3.25" d="M80.1-200.5v68.7" />
      <path stroke-width="3" d="M75.5-197.2v65.4" />
      <path stroke-width="2.75" d="M70.9-200.5v68.7" />
      <path stroke-width="2.5" d="M66.3-197.2v65.4" />
      <path stroke-width="2.25" d="M61.7-200.5v68.7" />
      <path stroke-width="2" d="M57.1-197.2v65.4" />
      <path stroke-width="1.75" d="M52.5-200.5v68.7" />
      <path stroke-width="1.499" d="M47.9-197.2v65.4" />
    </g>
    <path fill="none" class="bg_stroke_2" stroke-dasharray="0,6.5" stroke-linecap="round" stroke-width="3.5" d="M1.8-197.2v65.4" />
  </pattern>
  <path class="bg_color" d="M0 0h1000v1000H0z" />
  <pattern id="backdrop_b" patternTransform="matrix(3 0 0 3 15196.507 17467.127)" xlink:href="#backdrop_a" />
  <path fill="url(#backdrop_b)" d="M0 0h1000v1000H0z" />
  <pattern id="ear_i" width="48" height="48" x="250" y="750" overflow="visible" patternUnits="userSpaceOnUse" viewBox="4.8 -52.8 48 48">
    <defs>
      <path id="ear_a" d="M4.8-52.8h48v48h-48z" />
    </defs>
    <clipPath id="ear_b">
      <use overflow="visible" xlink:href="#ear_a" />
    </clipPath>
    <g class="skin_dark" clip-path="url(#ear_b)">
      <path d="M28.8-57.6c2.7 0 4.8 2.1 4.8 4.8S31.5-48 28.8-48 24-50.2 24-52.8c0-2.7 2.1-4.8 4.8-4.8zM52.8-57.6c2.7 0 4.8 2.1 4.8 4.8S55.5-48 52.8-48 48-50.2 48-52.8c0-2.7 2.1-4.8 4.8-4.8zM28.8-33.6c2.7 0 4.8 2.1 4.8 4.8S31.5-24 28.8-24 24-26.1 24-28.8s2.1-4.8 4.8-4.8zM52.8-33.6c2.7 0 4.8 2.1 4.8 4.8S55.5-24 52.8-24 48-26.1 48-28.8s2.1-4.8 4.8-4.8zM40.8-45.6c2.7 0 4.8 2.1 4.8 4.8S43.5-36 40.8-36 36-38.2 36-40.8c0-2.7 2.1-4.8 4.8-4.8zM16.8-45.6c2.7 0 4.8 2.1 4.8 4.8S19.5-36 16.8-36 12-38.2 12-40.8c0-2.7 2.1-4.8 4.8-4.8zM40.8-21.6c2.7 0 4.8 2.1 4.8 4.8S43.5-12 40.8-12 36-14.1 36-16.8s2.1-4.8 4.8-4.8zM16.8-21.6c2.7 0 4.8 2.1 4.8 4.8S19.5-12 16.8-12 12-14.1 12-16.8s2.1-4.8 4.8-4.8z" />
    </g>
    <defs>
      <path id="ear_c" d="M4.8-52.8h48v48h-48z" />
    </defs>
    <clipPath id="ear_d">
      <use overflow="visible" xlink:href="#ear_c" />
    </clipPath>
    <g class="skin_dark" clip-path="url(#ear_d)">
      <path d="M4.8-57.6c2.7 0 4.8 2.1 4.8 4.8S7.5-48 4.8-48 0-50.1 0-52.8s2.1-4.8 4.8-4.8zM4.8-33.6c2.7 0 4.8 2.1 4.8 4.8S7.5-24 4.8-24 0-26.1 0-28.8s2.1-4.8 4.8-4.8z" />
    </g>
    <g>
      <defs>
        <path id="ear_e" d="M4.8-52.8h48v48h-48z" />
      </defs>
      <clipPath id="ear_f">
        <use overflow="visible" xlink:href="#ear_e" />
      </clipPath>
      <g class="skin_dark" clip-path="url(#ear_f)">
        <path d="M28.8-9.6c2.7 0 4.8 2.1 4.8 4.8S31.5 0 28.8 0 24-2.2 24-4.8c0-2.7 2.1-4.8 4.8-4.8zM52.8-9.6c2.7 0 4.8 2.1 4.8 4.8S55.5 0 52.8 0 48-2.2 48-4.8c0-2.7 2.1-4.8 4.8-4.8z" />
      </g>
    </g>
    <g>
      <defs>
        <path id="ear_g" d="M4.8-52.8h48v48h-48z" />
      </defs>
      <clipPath id="ear_h">
        <use overflow="visible" xlink:href="#ear_g" />
      </clipPath>
      <path class="skin_dark" d="M4.8-9.6c2.7 0 4.8 2.1 4.8 4.8S7.5 0 4.8 0 0-2.2 0-4.8c0-2.7 2.1-4.8 4.8-4.8z" clip-path="url(#ear_h)" />
    </g>
  </pattern>
  <path class="skin_fill" d="M367.8 526l-17.1 11.9c-6.4 4.4-15.2 1.9-18.2-5.2l-18.4-42.3c0-57.6 6.7-31-36.6-127.9 0 0 56.4 34.1 84.9 105.8l5.4 57.7zm264.4 0l17.1 11.9c6.4 4.4 15.2 1.9 18.2-5.2l18.4-42.3c0-57.6-6.7-31 36.6-127.9 0 0-56.4 34.1-84.9 105.8l-5.4 57.7z" />
  <pattern id="ear_j" patternTransform="matrix(.26 0 0 -.26 -47477.004 993.389)" xlink:href="#ear_i" />
  <path fill="url(#ear_j)" d="M329.7 486.2l5.5 9.7s-17.5 7.1-17.5-20.4c0-21.1 4.8-37-31.5-104.2 47.3 58.7 50.4 100.6 50.4 100.6-5-2.7-12.7 4-6.9 14.3zm340.6 0l-5.5 9.7s17.5 7.1 17.5-20.4c0-21.1-4.8-37 31.5-104.2-47.3 58.7-50.4 100.6-50.4 100.6 5-2.7 12.7 4 6.9 14.3z" />
  <path class="skin_outline" d="M286.1 371.3c2.1-1.7 47.9 57.4 51.8 99.3.5 4.7 1.2 3.9-3.1 2.3-1.5-.8-7.1 1.6-5.6 8.7.7 3.1 19.3 37.2 3.6 11.9-3.2-5.2-6.4-9.3-6.5-14.4.3-6.2 4-9.4 8.1-9.4.3 0 .3.4-.1-1.5-9.3-48.8-49.6-95.8-48.2-96.9zm423.5 4.3c-20.8 24.1-41.8 60.4-47.1 92.1-1.4 9.7-1 5.6 3.1 5.1 3.5-.5 8.3 4.3 2.7 14.7-10.2 19.4-10 20.5 1.9 1.1 7.2-11.8 1.3-18.9-4.6-18.8-.2 0-.6.6.9-5.7 11.7-51.3 62.1-110.5 43.1-88.5z" />
  <path fill="none" stroke="#8C8C8C" stroke-miterlimit="10" d="M343.2 552.8c0 4.7-7.2 4.8-7.2 0s7.2-4.8 7.2 0z" />
  <path fill="#8C8C8C" d="M325.6 576l14-6.4v-16.8z" />
  <path fill="#393939" d="M339.6 569.6v14.5l-14-8.1z" />
  <path fill="#8C8C8C" d="M339.6 584.1v11.3c-18.4-25.6-18.7-22.2 0-11.3z" />
  <path fill="#343434" d="M353.5 576l-13.9-6.4v-16.8z" />
  <path fill="#141414" d="M339.6 569.6v14.5l13.9-8.1z" />
  <path fill="#3C3C3B" d="M339.6 584.1v11.3c18.3-25.6 18.6-22.2 0-11.3z" />
  <path fill="none" stroke="#8C8C8C" stroke-miterlimit="10" d="M339.6 549.2v-15.9" />
  <path fill="#8C8C8C" d="M342.1 543.9c0 3.3-5 3.3-5 0-.1-3.4 5-3.4 5 0zM340.6 549.2c0 1.4-2.1 1.4-2.1 0s2.1-1.4 2.1 0z" />
  <path fill="none" stroke="#8C8C8C" stroke-miterlimit="10" d="M656.8 552.8c0 4.7 7.2 4.8 7.2 0s-7.2-4.8-7.2 0z" />
  <path fill="#8C8C8C" d="M674.4 576l-14-6.4v-16.8z" />
  <path fill="#393939" d="M660.4 569.6v14.5l14-8.1z" />
  <path fill="#8C8C8C" d="M660.4 584.1v11.3c18.4-25.6 18.7-22.2 0-11.3z" />
  <path fill="#343434" d="M646.5 576l13.9-6.4v-16.8z" />
  <path fill="#141414" d="M660.4 569.6v14.5l-13.9-8.1z" />
  <path fill="#3C3C3B" d="M660.4 584.1v11.3c-18.3-25.6-18.6-22.2 0-11.3z" />
  <path fill="none" stroke="#8C8C8C" stroke-miterlimit="10" d="M660.4 549.2v-15.9" />
  <path fill="#8C8C8C" d="M657.9 543.9c0 3.3 5 3.3 5 0 .1-3.4-5-3.4-5 0zM659.4 549.2c0 1.4 2.1 1.4 2.1 0s-2.1-1.4-2.1 0z" />
  <pattern id="face_i" width="48" height="48" x="250" y="750" overflow="visible" patternUnits="userSpaceOnUse" viewBox="4.8 -52.8 48 48">
    <defs>
      <path id="face_a" d="M4.8-52.8h48v48h-48z" />
    </defs>
    <clipPath id="face_b">
      <use overflow="visible" xlink:href="#face_a" />
    </clipPath>
    <g class="skin_dark" clip-path="url(#face_b)">
      <path d="M28.8-57.6c2.7 0 4.8 2.1 4.8 4.8S31.5-48 28.8-48 24-50.2 24-52.8c0-2.7 2.1-4.8 4.8-4.8zM52.8-57.6c2.7 0 4.8 2.1 4.8 4.8S55.5-48 52.8-48 48-50.2 48-52.8c0-2.7 2.1-4.8 4.8-4.8zM28.8-33.6c2.7 0 4.8 2.1 4.8 4.8S31.5-24 28.8-24 24-26.1 24-28.8s2.1-4.8 4.8-4.8zM52.8-33.6c2.7 0 4.8 2.1 4.8 4.8S55.5-24 52.8-24 48-26.1 48-28.8s2.1-4.8 4.8-4.8zM40.8-45.6c2.7 0 4.8 2.1 4.8 4.8S43.5-36 40.8-36 36-38.2 36-40.8c0-2.7 2.1-4.8 4.8-4.8zM16.8-45.6c2.7 0 4.8 2.1 4.8 4.8S19.5-36 16.8-36 12-38.2 12-40.8c0-2.7 2.1-4.8 4.8-4.8zM40.8-21.6c2.7 0 4.8 2.1 4.8 4.8S43.5-12 40.8-12 36-14.1 36-16.8s2.1-4.8 4.8-4.8zM16.8-21.6c2.7 0 4.8 2.1 4.8 4.8S19.5-12 16.8-12 12-14.1 12-16.8s2.1-4.8 4.8-4.8z" />
    </g>
    <defs>
      <path id="face_c" d="M4.8-52.8h48v48h-48z" />
    </defs>
    <clipPath id="face_d">
      <use overflow="visible" xlink:href="#face_c" />
    </clipPath>
    <g class="skin_dark" clip-path="url(#face_d)">
      <path d="M4.8-57.6c2.7 0 4.8 2.1 4.8 4.8S7.5-48 4.8-48 0-50.1 0-52.8s2.1-4.8 4.8-4.8zM4.8-33.6c2.7 0 4.8 2.1 4.8 4.8S7.5-24 4.8-24 0-26.1 0-28.8s2.1-4.8 4.8-4.8z" />
    </g>
    <g>
      <defs>
        <path id="face_e" d="M4.8-52.8h48v48h-48z" />
      </defs>
      <clipPath id="face_f">
        <use overflow="visible" xlink:href="#face_e" />
      </clipPath>
      <g class="skin_dark" clip-path="url(#face_f)">
        <path d="M28.8-9.6c2.7 0 4.8 2.1 4.8 4.8S31.5 0 28.8 0 24-2.2 24-4.8c0-2.7 2.1-4.8 4.8-4.8zM52.8-9.6c2.7 0 4.8 2.1 4.8 4.8S55.5 0 52.8 0 48-2.2 48-4.8c0-2.7 2.1-4.8 4.8-4.8z" />
      </g>
    </g>
    <g>
      <defs>
        <path id="face_g" d="M4.8-52.8h48v48h-48z" />
      </defs>
      <clipPath id="face_h">
        <use overflow="visible" xlink:href="#face_g" />
      </clipPath>
      <path class="skin_dark" d="M4.8-9.6c2.7 0 4.8 2.1 4.8 4.8S7.5 0 4.8 0 0-2.2 0-4.8c0-2.7 2.1-4.8 4.8-4.8z" clip-path="url(#face_h)" />
    </g>
  </pattern>
  <path class="skin_fill" d="M590 708.9v-53.4c32.5-27.9 45-41.2 48.6-69.2C661.1 403 660.3 410.7 660 408.4c-1-187.9-160.1-180.7-160.1-180.7s-158.7-7.2-159.7 180.7c0 5.1-2.3-15 21.4 177.9 3.5 27.7 14.6 39.8 48.6 69v53.5c0 9.7-6.9 17.9-16.4 19.7l-38.6 7 68.9 80.8c39.9 46.8 112.2 46.8 152.2 0l68.9-80.8-38.6-7c-9.7-1.6-16.6-9.9-16.6-19.6z" />
  <pattern id="face_j" patternTransform="matrix(.2595 0 0 -.2601 -47417.488 1017.571)" xlink:href="#face_i" />
  <path fill="url(#face_j)" d="M546.3 712.8c17.5-15.2 31.9-27.2 43.7-37.3v-20c-11.8 10.1-26.2 22-43.7 37.3-21.1 18.9-68.3 21-92.6 0-17.7-15.4-32-27.4-43.7-37.4v20c11.7 10 26 22.1 43.7 37.4 24.3 21 71.5 18.9 92.6 0z" />
  <path class="skin_outline" d="M357.3 551.1c-5.7-28.8-24-187.3-10.2-91.8 3.3 24 9.6 77.7 10.2 91.8z" />
  <pattern id="face_k" patternTransform="matrix(.2595 0 0 -.2601 -47417.488 1017.571)" xlink:href="#face_i" />
  <path fill="url(#face_k)" d="M356.2 480.8c-.5-4.3 5.6-5.7 7-1.6 6.9 21.2 16.4 44.5 28.6 61 16.8 22.9 14.6 47.6 16.4 96.4 0 0-32.7-16-39.5-56.4l-12.5-99.4z" />
  <path class="skin_outline" d="M643.3 551.1c4-52.1 21.4-180.7 12.2-91.4-4.9 50.6-12 90.3-12.2 91.4z" />
  <pattern id="nose_m" width="28.8" height="28.8" x="250" y="750" overflow="visible" patternUnits="userSpaceOnUse" viewBox="1.4 -30.2 28.8 28.8">
    <defs>
      <path id="nose_a" d="M1.4-30.2h28.8v28.8H1.4z" />
    </defs>
    <clipPath id="nose_b">
      <use overflow="visible" xlink:href="#nose_a" />
    </clipPath>
    <g clip-path="url(#nose_b)">
      <g fill="#FFF">
        <path d="M30.2 0c.8 0 1.4-.6 1.4-1.4s-.6-1.4-1.4-1.4-1.4.6-1.4 1.4c0 .8.6 1.4 1.4 1.4zM15.8 0c.8 0 1.4-.6 1.4-1.4s-.6-1.4-1.4-1.4c-.8 0-1.4.6-1.4 1.4 0 .8.6 1.4 1.4 1.4zM30.2-14.4c.8 0 1.4-.6 1.4-1.4s-.6-1.4-1.4-1.4-1.4.6-1.4 1.4c0 .8.6 1.4 1.4 1.4zM15.8-14.4c.8 0 1.4-.6 1.4-1.4s-.6-1.4-1.4-1.4c-.8 0-1.4.6-1.4 1.4 0 .8.6 1.4 1.4 1.4zM8.6-7.2c.8 0 1.4-.6 1.4-1.4S9.4-10 8.6-10c-.8 0-1.4.6-1.4 1.4 0 .8.6 1.4 1.4 1.4zM23-7.2c.8 0 1.4-.6 1.4-1.4S23.8-10 23-10s-1.4.6-1.4 1.4.6 1.4 1.4 1.4zM8.6-21.6c.8 0 1.4-.6 1.4-1.4s-.6-1.4-1.4-1.4c-.8 0-1.4.6-1.4 1.4 0 .8.6 1.4 1.4 1.4zM23-21.6c.8 0 1.4-.6 1.4-1.4s-.6-1.4-1.4-1.4-1.4.6-1.4 1.4c0 .8.6 1.4 1.4 1.4z" />
      </g>
      <g fill="#FFF">
        <path d="M1.4 0c.8 0 1.4-.6 1.4-1.4s-.6-1.4-1.4-1.4C.6-2.9 0-2.2 0-1.4 0-.6.6 0 1.4 0zM1.4-14.4c.8 0 1.4-.6 1.4-1.4s-.6-1.4-1.4-1.4-1.4.6-1.4 1.4.6 1.4 1.4 1.4z" />
      </g>
      <g fill="#FFF">
        <path d="M30.2-28.8c.8 0 1.4-.6 1.4-1.4s-.6-1.4-1.4-1.4-1.4.6-1.4 1.4c0 .8.6 1.4 1.4 1.4zM15.8-28.8c.8 0 1.4-.6 1.4-1.4s-.6-1.4-1.4-1.4-1.4.6-1.4 1.4c0 .8.6 1.4 1.4 1.4z" />
      </g>
      <path fill="#FFF" d="M1.4-28.8c.8 0 1.4-.6 1.4-1.4s-.6-1.4-1.4-1.4C.6-31.7 0-31 0-30.2c0 .8.6 1.4 1.4 1.4z" />
    </g>
  </pattern>
  <pattern id="nose_k" width="48" height="48" x="250" y="750" overflow="visible" patternUnits="userSpaceOnUse" viewBox="4.8 -52.8 48 48">
    <defs>
      <path id="nose_c" d="M4.8-52.8h48v48h-48z" />
    </defs>
    <clipPath id="nose_d">
      <use overflow="visible" xlink:href="#nose_c" />
    </clipPath>
    <g class="skin_dark" clip-path="url(#nose_d)">
      <path d="M28.8-57.6c2.7 0 4.8 2.1 4.8 4.8S31.5-48 28.8-48 24-50.2 24-52.8c0-2.7 2.1-4.8 4.8-4.8zM52.8-57.6c2.7 0 4.8 2.1 4.8 4.8S55.5-48 52.8-48 48-50.2 48-52.8c0-2.7 2.1-4.8 4.8-4.8zM28.8-33.6c2.7 0 4.8 2.1 4.8 4.8S31.5-24 28.8-24 24-26.1 24-28.8s2.1-4.8 4.8-4.8zM52.8-33.6c2.7 0 4.8 2.1 4.8 4.8S55.5-24 52.8-24 48-26.1 48-28.8s2.1-4.8 4.8-4.8zM40.8-45.6c2.7 0 4.8 2.1 4.8 4.8S43.5-36 40.8-36 36-38.2 36-40.8c0-2.7 2.1-4.8 4.8-4.8zM16.8-45.6c2.7 0 4.8 2.1 4.8 4.8S19.5-36 16.8-36 12-38.2 12-40.8c0-2.7 2.1-4.8 4.8-4.8zM40.8-21.6c2.7 0 4.8 2.1 4.8 4.8S43.5-12 40.8-12 36-14.1 36-16.8s2.1-4.8 4.8-4.8zM16.8-21.6c2.7 0 4.8 2.1 4.8 4.8S19.5-12 16.8-12 12-14.1 12-16.8s2.1-4.8 4.8-4.8z" />
    </g>
    <defs>
      <path id="nose_e" d="M4.8-52.8h48v48h-48z" />
    </defs>
    <clipPath id="nose_f">
      <use overflow="visible" xlink:href="#nose_e" />
    </clipPath>
    <g class="skin_dark" clip-path="url(#nose_f)">
      <path d="M4.8-57.6c2.7 0 4.8 2.1 4.8 4.8S7.5-48 4.8-48 0-50.1 0-52.8s2.1-4.8 4.8-4.8zM4.8-33.6c2.7 0 4.8 2.1 4.8 4.8S7.5-24 4.8-24 0-26.1 0-28.8s2.1-4.8 4.8-4.8z" />
    </g>
    <g>
      <defs>
        <path id="nose_g" d="M4.8-52.8h48v48h-48z" />
      </defs>
      <clipPath id="nose_h">
        <use overflow="visible" xlink:href="#nose_g" />
      </clipPath>
      <g class="skin_dark" clip-path="url(#nose_h)">
        <path d="M28.8-9.6c2.7 0 4.8 2.1 4.8 4.8S31.5 0 28.8 0 24-2.2 24-4.8c0-2.7 2.1-4.8 4.8-4.8zM52.8-9.6c2.7 0 4.8 2.1 4.8 4.8S55.5 0 52.8 0 48-2.2 48-4.8c0-2.7 2.1-4.8 4.8-4.8z" />
      </g>
    </g>
    <g>
      <defs>
        <path id="nose_i" d="M4.8-52.8h48v48h-48z" />
      </defs>
      <clipPath id="nose_j">
        <use overflow="visible" xlink:href="#nose_i" />
      </clipPath>
      <path class="skin_dark" d="M4.8-9.6c2.7 0 4.8 2.1 4.8 4.8S7.5 0 4.8 0 0-2.2 0-4.8c0-2.7 2.1-4.8 4.8-4.8z" clip-path="url(#nose_j)" />
    </g>
  </pattern>
  <pattern id="nose_l" patternTransform="matrix(.26 0 0 -.26 -47498.695 1035.925)" xlink:href="#nose_k" />
  <path fill="url(#nose_l)" d="M475.1 539l12.8-11.4s.1-21.1 2.9-28.2c2.9-7.1 0-25.7 0-37.6 0-12-15.7-25.7-15.7-25.7V539z" />
  <pattern id="nose_n" patternTransform="rotate(180 27371.49 3311.683) scale(.416)" xlink:href="#nose_m" />
  <path fill="url(#nose_n)" d="M524.9 539l-12.8-11.4s-.1-21.1-2.9-28.2c-2.9-7.1 0-25.7 0-37.6 0-12 15.7-25.7 15.7-25.7V539zm-24.9-2.5c-8.1 0-8.1 7.2 0 7.2s8.1-7.2 0-7.2z" />
  <path class="skin_outline" d="M471.3 556.4c-.3.4-1.4 0-2.8-1.1-10.3-9 6.2-18.4 2.2-12.5-5.4 7.8 1.6 12.3.6 13.6zm63.2-9.9c-1.5-5-7.8-7.5-5.3-3.7 5.6 8.1-1.7 12.1-.6 13.6.8.9 7.3-3 5.9-9.9zm-9.3 2.8c-10.7-1.2-10 .4-18.4 12.2-2 2.9-3.3 5.6-6.8 5.6-3.4 0-4.7-2.6-6.8-5.6-8.6-12.1-7.9-13.4-18.4-12.2-11.6 1.3 11.3 7.4 13.8 11.3 3.6 5.5 5.7 10.1 11.4 10.1 5.8 0 7.8-4.6 11.4-10.1 2.5-3.9 25.6-10 13.8-11.3zm-22.5-46.2c2.3.3 5-1 6.2-3.2 2-3.6-2.1.3-3.4.9-1.3.7-6.8 1.7-2.8 2.3z" />
  <pattern id="mouth_i" width="28.8" height="28.8" x="250" y="750" overflow="visible" patternUnits="userSpaceOnUse" viewBox="1.4 -30.2 28.8 28.8">
    <defs>
      <path id="mouth_a" d="M1.4-30.2h28.8v28.8H1.4z" />
    </defs>
    <clipPath id="mouth_b">
      <use overflow="visible" xlink:href="#mouth_a" />
    </clipPath>
    <g class="skin_halftone" clip-path="url(#mouth_b)">
      <path d="M30.2 0c1.9 0 1.9-2.8 0-2.8S28.3 0 30.2 0zM15.8 0c1.9 0 1.9-2.8 0-2.8S13.9 0 15.8 0zM30.2-14.4c1.9 0 1.9-2.8 0-2.8s-1.9 2.8 0 2.8zM15.8-14.4c1.9 0 1.9-2.8 0-2.8s-1.9 2.8 0 2.8zM8.6-7.2c1.9 0 1.9-2.8 0-2.8s-1.9 2.8 0 2.8zM23-7.2c1.9 0 1.9-2.8 0-2.8s-1.9 2.8 0 2.8zM8.6-21.6c1.9 0 1.9-2.8 0-2.8s-1.9 2.8 0 2.8zM23-21.6c1.9 0 1.9-2.8 0-2.8s-1.9 2.8 0 2.8z" />
    </g>
    <defs>
      <path id="mouth_c" d="M1.4-30.2h28.8v28.8H1.4z" />
    </defs>
    <clipPath id="mouth_d">
      <use overflow="visible" xlink:href="#mouth_c" />
    </clipPath>
    <g class="skin_halftone" clip-path="url(#mouth_d)">
      <path d="M1.4 0c1.9 0 1.9-2.8 0-2.8C-.4-3-.6 0 1.4 0zM1.4-14.4c1.9 0 1.9-2.8 0-2.8s-1.9 2.8 0 2.8z" />
    </g>
    <g>
      <defs>
        <path id="mouth_e" d="M1.4-30.2h28.8v28.8H1.4z" />
      </defs>
      <clipPath id="mouth_f">
        <use overflow="visible" xlink:href="#mouth_e" />
      </clipPath>
      <g class="skin_halftone" clip-path="url(#mouth_f)">
        <path d="M30.2-28.8c1.9 0 1.9-2.8 0-2.8s-1.9 2.8 0 2.8zM15.8-28.8c1.9 0 1.9-2.8 0-2.8s-1.9 2.8 0 2.8z" />
      </g>
    </g>
    <g>
      <defs>
        <path id="mouth_g" d="M1.4-30.2h28.8v28.8H1.4z" />
      </defs>
      <clipPath id="mouth_h">
        <use overflow="visible" xlink:href="#mouth_g" />
      </clipPath>
      <path class="skin_halftone" d="M1.4-28.8c1.9 0 1.9-2.8 0-2.8-1.8-.2-2 2.8 0 2.8z" clip-path="url(#mouth_h)" />
    </g>
  </pattern>
  <ellipse cx="500" cy="618.8" fill="#241F20" rx="44.7" ry="25.3" />
  <path fill="#873332" d="M528.7 628c4.3-7.9.9-14.9-5.9-19-7.7-4.7-12.8-1.5-22.7-1.5s-17.2-7-24.8-2.2c-6.7 4.2-8.4 14.8-4.1 22.7 15.8 11.3 41.8 11.3 57.5 0z" />
  <path fill="#F7F3E8" d="M500 595.6c-6.2-5.7-24.5 9.3-24.6 9.4 2.3 1.5 6.1.1 8.5-1.3 2 4.5 15.4 5.1 16.1 1.4.7 3.7 14.2 3 16.1-1.4 2.4 1.4 6.2 2.8 8.5 1.3-.1-.1-18.4-15.1-24.6-9.4z" />
  <path class="skin_dark" d="M513.3 583.8c-4.2 0-9.1 2.2-13.3 2.2s-9.1-2.2-13.3-2.2c-18.9 0-34.2 21.3-34.2 32 11 60.4 84 60.3 95 0 0-10.7-15.3-32-34.2-32zm26.6 34.7c-14.8 22-65.1 22-79.9 0-2.9-4.2-8.9-2.5-2-3.4 3.3-.4 4.1-1.7 10-7.6 9.7-1.3 13-10.1 31.9-10.1 19.1 0 22.1 8.8 31.9 10.1 5.3 5.2 6.6 7.1 10 7.6 7.1.9 1-.9-1.9 3.4z" />
  <pattern id="mouth_j" patternTransform="matrix(.448 0 0 .448 -29133.092 3006.561)" xlink:href="#mouth_i" />
  <path fill="url(#mouth_j)" d="M468.1 607.5s4.2-.6 7.7-2.8c27.9-17.9 46.7 1.5 56.1 2.8 8.2 8.1 6.1 7 15.6 8.3 0-10.7-15.3-32-34.2-32-4.2 0-9.1 2.2-13.3 2.2s-9.1-2.2-13.3-2.2c-18.9 0-34.2 21.3-34.2 32 9.4-1.2 7.4-.2 15.6-8.3z" />
  <path fill="none" d="M501.9 594.4c-6.1-.4-3.2 0-1.9 1.2 0 0 .6-.6 1.9-1.2z" />
  <g>
    <path class="skin_outline" d="M547.5 615.8c0 .2-7.4 1-10.9-2.2-5.9-5.4-5.3-4.9-5.4-4.9-6.8-1.1-7.7-3.3-14-6.1-23.8-10.4-40.2 4.4-47.1 5.9-2 .5-.3-.8-6.7 5.1-3.4 3.1-10.8 2.5-10.9 2.2-.1-.5 5.6-1.4 7.2-2.1 4.1-2 4.8-6.6 9.8-7.9 5.1-1.4 24.1-17.9 49.1-6.2 4.1 2 5.7 3.4 7.2 4.2 6.5 3.8 4.3-.2 9.9 5.6 2.4 2.5 3 3.4 4.7 4.2 1.6.9 7.2 1.7 7.1 2.2z" />
  </g>
  <path fill="none" />
  <pattern id="eye_i" width="48" height="48" x="250" y="750" overflow="visible" patternUnits="userSpaceOnUse" viewBox="4.8 -52.8 48 48">
    <defs>
      <path id="eye_a" d="M4.8-52.8h48v48h-48z" />
    </defs>
    <clipPath id="eye_b">
      <use overflow="visible" xlink:href="#eye_a" />
    </clipPath>
    <g class="skin_dark" clip-path="url(#eye_b)">
      <path d="M28.8-57.6c2.7 0 4.8 2.1 4.8 4.8S31.5-48 28.8-48 24-50.2 24-52.8c0-2.7 2.1-4.8 4.8-4.8zM52.8-57.6c2.7 0 4.8 2.1 4.8 4.8S55.5-48 52.8-48 48-50.2 48-52.8c0-2.7 2.1-4.8 4.8-4.8zM28.8-33.6c2.7 0 4.8 2.1 4.8 4.8S31.5-24 28.8-24 24-26.1 24-28.8s2.1-4.8 4.8-4.8zM52.8-33.6c2.7 0 4.8 2.1 4.8 4.8S55.5-24 52.8-24 48-26.1 48-28.8s2.1-4.8 4.8-4.8zM40.8-45.6c2.7 0 4.8 2.1 4.8 4.8S43.5-36 40.8-36 36-38.2 36-40.8c0-2.7 2.1-4.8 4.8-4.8zM16.8-45.6c2.7 0 4.8 2.1 4.8 4.8S19.5-36 16.8-36 12-38.2 12-40.8c0-2.7 2.1-4.8 4.8-4.8zM40.8-21.6c2.7 0 4.8 2.1 4.8 4.8S43.5-12 40.8-12 36-14.1 36-16.8s2.1-4.8 4.8-4.8zM16.8-21.6c2.7 0 4.8 2.1 4.8 4.8S19.5-12 16.8-12 12-14.1 12-16.8s2.1-4.8 4.8-4.8z" />
    </g>
    <defs>
      <path id="eye_c" d="M4.8-52.8h48v48h-48z" />
    </defs>
    <clipPath id="eye_d">
      <use overflow="visible" xlink:href="#eye_c" />
    </clipPath>
    <g class="skin_dark" clip-path="url(#eye_d)">
      <path d="M4.8-57.6c2.7 0 4.8 2.1 4.8 4.8S7.5-48 4.8-48 0-50.1 0-52.8s2.1-4.8 4.8-4.8zM4.8-33.6c2.7 0 4.8 2.1 4.8 4.8S7.5-24 4.8-24 0-26.1 0-28.8s2.1-4.8 4.8-4.8z" />
    </g>
    <g>
      <defs>
        <path id="eye_e" d="M4.8-52.8h48v48h-48z" />
      </defs>
      <clipPath id="eye_f">
        <use overflow="visible" xlink:href="#eye_e" />
      </clipPath>
      <g class="skin_dark" clip-path="url(#eye_f)">
        <path d="M28.8-9.6c2.7 0 4.8 2.1 4.8 4.8S31.5 0 28.8 0 24-2.2 24-4.8c0-2.7 2.1-4.8 4.8-4.8zM52.8-9.6c2.7 0 4.8 2.1 4.8 4.8S55.5 0 52.8 0 48-2.2 48-4.8c0-2.7 2.1-4.8 4.8-4.8z" />
      </g>
    </g>
    <g>
      <defs>
        <path id="eye_g" d="M4.8-52.8h48v48h-48z" />
      </defs>
      <clipPath id="eye_h">
        <use overflow="visible" xlink:href="#eye_g" />
      </clipPath>
      <path class="skin_dark" d="M4.8-9.6c2.7 0 4.8 2.1 4.8 4.8S7.5 0 4.8 0 0-2.2 0-4.8c0-2.7 2.1-4.8 4.8-4.8z" clip-path="url(#eye_h)" />
    </g>
  </pattern>
  <pattern id="eye_j" patternTransform="matrix(.26 0 0 -.26 -47510.02 1031.854)" xlink:href="#eye_i" />
  <path fill="url(#eye_j)" d="M438 424.7c-74.5-27.6-73.7 14.7-73.7-3.9 32.7-26.8 104 8.1 104 8.1s-2.1 7.3-6.7 12.5c-4.7-6.4-12.1-12.5-23.6-16.7z" />
  <path class="hair_brow" d="M468.3 428.9s-42.4-15.5-79.2-15.5c-12.3 0-24.7 7.3-24.7 7.3s2.7-23.8 23.6-23.8c21.5 0 67.2 19 67.2 19s11.3 4.6 13.1 13z" />
  <g>
    <path fill="#DB3414" d="M429.6 445.4c24.3 7.4 40.1 25 40.1 25s3.8-30.6-33.1-42.8c-37.4-12.4-57.8-9.3-71.7 3.9 0 0-.5 33 54 33l10.7-19.1z" />
    <path fill="#7EE0DD" d="M469.7 470.4s3.8-30.6-33.1-42.8c-37.4-12.4-57.8-9.3-71.7 3.9v-5.7c10.7-12.8 36.2-14.7 73.1-1.1 36.5 13.5 31.7 45.7 31.7 45.7zM429.2 479l-6.5-10.4h13z" />
  </g>
  <g>
    <path fill="#FFF" d="M398.7 449c1.3 6.4 7.8 13.2 19.1 15 3 .5.8.4 22.4.4 6.5 0 11.9-2.8 13.7-7-21.3-24-45.3-16.4-55.2-8.4z" />
    <path class="eye_iris" d="M418 464c3 .5.8.4 22.4.4 5.2-5.2 6.4-12.1 4.1-17.8-9.1-6.5-17.8-8-25.2-7.2-7.9 5.9-8.9 17.8-1.3 24.6z" />
    <path fill="#A4270F" d="M401.3 439.1c-.4-.6 15.7-13.8 37.3-3.2 8.4 4.1 13.9 10.2 13.4 10.6-.6.6-10.4-9-24.4-11.6-15.4-2.9-25.7 5.2-26.3 4.2z" />
    <path d="M436.2 452.4c0 9.3-14 9.3-14 0s14-9.3 14 0zM452.7 459.4l.1-.1c-.1 0-.1.1-.1.1z" />
  </g>
  <g>
    <pattern id="eye_k" patternTransform="rotate(180 15566.87 515.927) scale(.26)" xlink:href="#eye_i" />
    <path fill="url(#eye_k)" d="M562.3 424.7c74.5-27.6 73.7 14.7 73.7-3.9-32.7-26.8-104 8.1-104 8.1s2.1 7.3 6.7 12.5c4.8-6.4 12.2-12.5 23.6-16.7z" />
    <path class="hair_brow" d="M531.7 428.9s42.4-15.5 79.2-15.5c12.3 0 24.7 7.3 24.7 7.3s-2.7-23.8-23.6-23.8c-21.5 0-67.2 19-67.2 19s-11.3 4.6-13.1 13z" />
    <path fill="#DB3414" d="M570.4 445.4c-24.3 7.4-40.1 25-40.1 25s-3.8-30.6 33.1-42.8c37.4-12.4 57.8-9.3 71.7 3.9 0 0 .5 33-54 33l-10.7-19.1z" />
    <path fill="#7EE0DD" d="M568.8 479l6.5-10.4h-12.9zM530.3 470.4s-3.8-30.6 33.1-42.8c37.4-12.4 57.8-9.3 71.7 3.9v-5.7c-10.7-12.8-36.2-14.7-73.1-1.1-36.5 13.5-31.7 45.7-31.7 45.7z" />
    <g>
      <path fill="#FFF" d="M601.3 449c-1.3 6.4-7.8 13.2-19.1 15-3 .5-.8.4-22.4.4-6.5 0-11.9-2.8-13.7-7 21.3-24 45.3-16.4 55.2-8.4z" />
      <path class="eye_iris" d="M582 464c-3 .5-.8.4-22.4.4-5.2-5.2-6.4-12.1-4.1-17.8 9.1-6.5 17.8-8 25.2-7.2 7.9 5.9 8.9 17.8 1.3 24.6z" />
      <path fill="#A4270F" d="M598.7 439.1c.4-.6-15.7-13.8-37.3-3.2-8.4 4.1-13.9 10.2-13.4 10.6.6.6 10.4-9 24.4-11.6 15.4-2.9 25.7 5.2 26.3 4.2z" />
      <path d="M563.8 452.4c0 9.3 14 9.3 14 0s-14-9.3-14 0zM547.3 459.4l-.1-.1c.1 0 .1.1.1.1z" />
      <g fill="#241F20">
        <path d="M426.2 438.8c-3.2-3.4-.7-6.9-1.2-6.2-1.1 1.6-1.2 3.3-.6 5 .5 1.4 1.2.9-3 .5-3.6-2.1-1.9-5.6-2.2-5.8-.2-.1-.7 1.7-.7 2.8.1 3.7 3.3 2.7-2.7 2.7-4-1.9-3.9-6.2-4.1-6.2-.3 0-.2 2.2.2 3.5 1.2 3.6 3.5 2.5-1.7 2.9-5.6-2.1-6.5-7.3-6.5-6.4.1 2.4 1.3 4.7 3.5 6.7-7.5.9-11-7.6-10.7-6.2 1.4 6.7 6.9 6.7 4.4 7.2-9.6-2-10.3-6.6-10.8-6.5-.6.2 1.5 3.5 2.5 4.5 2.3 2.5 5.5 3.4.9 2.3-7.1-1.7-9.7-6.7-9.1-5.3 2.8 6.7 11.1 7.9 5.8 7.2-7.3-1.1-10.8-6-10-4.6 3.5 6.6 8.8 5.4 5.7 6.7-3.3-.7-6.1-1.9-8.5-4-1.2-1 1.2 3.9 7.8 6.5.1.7-5.7.1-10.3-3.9-1.1-1 .8 3.7 7.4 6.5 4.8 1.6 3.5.7 3.6 1.1 1.4 3.8 2.2 3 .6 3.2-4.3.7-8.1 2.9-7.9 3.4.3.6 2.2-1.6 8-1.2 3.3.2 2.2.4 1.7.5-3 .6-7.2 2.8-6.9 3.3.2.5 2.1-1.4 7.1-1.3 3.8 0 2.2.3 1.8.5-1.8.6-5.7 2.7-5.5 3.2.2.5 4.8-2.4 9.6-1.2-2.1.7-4 1.7-5.9 3.4-1.3 1.2 2.9-1.7 7.7-1.6-.7.4-3.1 2.2-2.8 2.6.4.5 2-2.5 6.9-1.5-6.7 3.2 1.7.2 4.3 1-.3.2-1.9 1.2-1.8 1.5.4.6 1.1-1.5 5.2-.7 1.9.3 1.4-.1.3 1.2-.1.2.1.4.3.3 1.8-1.5 1.8-1 5.5-.7-.2.2-.9 1-.6 1.2.3.2.3-.4 1.5-1.1 4.5.2 3.5-.4 3 1.3-.1.2.3.3.3.1.8-1.9-1.9-1 21.9-1.8 7.8-.1 13.1-5.5 12.5-6-.3-.3-3.4 3.9-11.4 4-24.3-.6-24.5-.3-29.5-1-7.9-3-12-8.4-13-13.4 13.8-11.1 36.1-11.3 54 7.3 4 4.3-4.4-13.5-26.6-17.5zM625.5 442.4c-.5-.6-2.8 3.6-10.6 4.2.1-.8 0 .1 3.5-2.1 2.2-1.4 5-4.3 4.6-4.7 0 0-7 4.7-9.2 3.9-1.6-.6-.8.1 2.1-2.1 2.1-1.6 4.3-4.3 3.9-4.7-.4-.4-3.5 4.5-11.3 4.9-1.2-.4.3.2 3.7-2.7 1.9-1.7 3.7-4.5 3.3-4.8-.4-.3-2.9 5.1-11.5 5.8 3.2-1.9 5.1-4.5 5.9-7 .1-.2-6.3 7.1-11.6 6.2 4.2-2.8 5.4-7.1 5-7.2-.7-.3-.1 3.8-8.9 6.6-3.2-.5-1.4.5.7-3.2.8-1.5 1.3-3.8 1-3.9-.4-.1-.6 3.3-4.6 5.7-1.8 1.1-1.8.8-5.2.7 1.6-1.8 2.3-4 2-6.2-.1-1 .1 3-3.1 5.5-1.2 1-1 .5-4.8.8 1.2-1.7 1.2-3.7.4-5.6-.5-1.1 1 2.7-1.2 4.9-1 1.1-1.2.7-4.6 1.2 1.6-3 0-6.1-.3-5.9-.1.1 1.3 2.2 0 4.7-1.6 3.3-14.8 1.7-25.6 14.9-3.6 4.5-3.1 4.9-3.2 5 20.1-20.1 41.4-19.4 55.2-8.3 0 0-.9 4.4-4.8 8.3-6.9 6.9-13.9 5.5-28.6 5.8-7 .2-11.1.8-15.6-.9-3-1.2-6.8-4.7-4.2-1.5 4.5 5.2 11.7 5 32.7 5.1.9 1.1.7 1.5 1 1.4.3-.1-.2-1.1-.4-1.4 3.4 0 3.6-.4 4.8 1 .1.2.4 0 .3-.2-.8-1.4-1.8-.7 2.9-1.3.7.3 1.3.6 1.9 1.1.2.1.8 0-.7-1.2 2.6-.4 3.3-1 6.2.6.2.1.4-.1.2-.3-.4-.3-1.6-1.3-1.7-1.3 3.4-.9 6.5 1 6.8.7.3-.3-2.1-1.6-2.5-1.7 4.6-1 7.8 2.5 6.9 1.3-1.9-2.5-4.7-2.8-.8-2.3 4 .5 5.3 2.1 5.7 1.8.5-.6-3.9-2.9-5.2-3.4-1.8-.7 3.9-1 8.7 1.1 1.3.6-1.5-2.2-6-3.5 5.7-.9 10.9 1.8 9.6.9-2.1-1.6-4.5-2.6-7.5-3.2 3.4-.7 7-.5 10.1 1 1.5.7-1.8-2.9-8.5-3.6.8-1.3 1.5-3.1 1.6-3.2 7.9-1.7 11.8-7.3 11.5-7.7z" />
      </g>
    </g>
  </g>
  <pattern id="hair_e" width="28.8" height="28.8" x="250" y="750" overflow="visible" patternUnits="userSpaceOnUse" viewBox="1.4 -30.2 28.8 28.8">
    <defs>
      <path id="hair_a" d="M1.4-30.2h28.8v28.8H1.4z" />
    </defs>
    <clipPath id="hair_b">
      <use overflow="visible" xlink:href="#hair_a" />
    </clipPath>
    <g class="hair_shadow" clip-path="url(#hair_b)">
      <path d="M30.2 0c.8 0 1.4-.6 1.4-1.4s-.6-1.4-1.4-1.4-1.4.6-1.4 1.4c0 .8.6 1.4 1.4 1.4zM15.8 0c.8 0 1.4-.6 1.4-1.4s-.6-1.4-1.4-1.4c-.8 0-1.4.6-1.4 1.4 0 .8.6 1.4 1.4 1.4zM30.2-14.4c.8 0 1.4-.6 1.4-1.4s-.6-1.4-1.4-1.4-1.4.6-1.4 1.4c0 .8.6 1.4 1.4 1.4zM15.8-14.4c.8 0 1.4-.6 1.4-1.4s-.6-1.4-1.4-1.4c-.8 0-1.4.6-1.4 1.4 0 .8.6 1.4 1.4 1.4zM8.6-7.2c.8 0 1.4-.6 1.4-1.4S9.4-10 8.6-10c-.8 0-1.4.6-1.4 1.4 0 .8.6 1.4 1.4 1.4zM23-7.2c.8 0 1.4-.6 1.4-1.4S23.8-10 23-10s-1.4.6-1.4 1.4.6 1.4 1.4 1.4zM8.6-21.6c.8 0 1.4-.6 1.4-1.4s-.6-1.4-1.4-1.4c-.8 0-1.4.6-1.4 1.4 0 .8.6 1.4 1.4 1.4zM23-21.6c.8 0 1.4-.6 1.4-1.4s-.6-1.4-1.4-1.4-1.4.6-1.4 1.4c0 .8.6 1.4 1.4 1.4z" />
      <g>
        <path d="M1.4 0c.8 0 1.4-.6 1.4-1.4s-.6-1.4-1.4-1.4C.6-2.9 0-2.2 0-1.4 0-.6.6 0 1.4 0zM1.4-14.4c.8 0 1.4-.6 1.4-1.4s-.6-1.4-1.4-1.4-1.4.6-1.4 1.4.6 1.4 1.4 1.4z" />
      </g>
      <g>
        <path d="M30.2-28.8c.8 0 1.4-.6 1.4-1.4s-.6-1.4-1.4-1.4-1.4.6-1.4 1.4c0 .8.6 1.4 1.4 1.4zM15.8-28.8c.8 0 1.4-.6 1.4-1.4s-.6-1.4-1.4-1.4-1.4.6-1.4 1.4c0 .8.6 1.4 1.4 1.4z" />
      </g>
      <path d="M1.4-28.8c.8 0 1.4-.6 1.4-1.4s-.6-1.4-1.4-1.4C.6-31.7 0-31 0-30.2c0 .8.6 1.4 1.4 1.4z" />
    </g>
  </pattern>
  <pattern id="hair_g" width="28.8" height="28.8" x="250" y="750" overflow="visible" patternUnits="userSpaceOnUse" viewBox="1.4 -30.2 28.8 28.8">
    <defs>
      <path id="hair_c" d="M1.4-30.2h28.8v28.8H1.4z" />
    </defs>
    <clipPath id="hair_d">
      <use overflow="visible" xlink:href="#hair_c" />
    </clipPath>
    <g clip-path="url(#hair_d)">
      <g fill="#FFF">
        <path d="M30.2 0c.8 0 1.4-.6 1.4-1.4s-.6-1.4-1.4-1.4-1.4.6-1.4 1.4c0 .8.6 1.4 1.4 1.4zM15.8 0c.8 0 1.4-.6 1.4-1.4s-.6-1.4-1.4-1.4c-.8 0-1.4.6-1.4 1.4 0 .8.6 1.4 1.4 1.4zM30.2-14.4c.8 0 1.4-.6 1.4-1.4s-.6-1.4-1.4-1.4-1.4.6-1.4 1.4c0 .8.6 1.4 1.4 1.4zM15.8-14.4c.8 0 1.4-.6 1.4-1.4s-.6-1.4-1.4-1.4c-.8 0-1.4.6-1.4 1.4 0 .8.6 1.4 1.4 1.4zM8.6-7.2c.8 0 1.4-.6 1.4-1.4S9.4-10 8.6-10c-.8 0-1.4.6-1.4 1.4 0 .8.6 1.4 1.4 1.4zM23-7.2c.8 0 1.4-.6 1.4-1.4S23.8-10 23-10s-1.4.6-1.4 1.4.6 1.4 1.4 1.4zM8.6-21.6c.8 0 1.4-.6 1.4-1.4s-.6-1.4-1.4-1.4c-.8 0-1.4.6-1.4 1.4 0 .8.6 1.4 1.4 1.4zM23-21.6c.8 0 1.4-.6 1.4-1.4s-.6-1.4-1.4-1.4-1.4.6-1.4 1.4c0 .8.6 1.4 1.4 1.4z" />
      </g>
      <g fill="#FFF">
        <path d="M1.4 0c.8 0 1.4-.6 1.4-1.4s-.6-1.4-1.4-1.4C.6-2.9 0-2.2 0-1.4 0-.6.6 0 1.4 0zM1.4-14.4c.8 0 1.4-.6 1.4-1.4s-.6-1.4-1.4-1.4-1.4.6-1.4 1.4.6 1.4 1.4 1.4z" />
      </g>
      <g fill="#FFF">
        <path d="M30.2-28.8c.8 0 1.4-.6 1.4-1.4s-.6-1.4-1.4-1.4-1.4.6-1.4 1.4c0 .8.6 1.4 1.4 1.4zM15.8-28.8c.8 0 1.4-.6 1.4-1.4s-.6-1.4-1.4-1.4-1.4.6-1.4 1.4c0 .8.6 1.4 1.4 1.4z" />
      </g>
      <path fill="#FFF" d="M1.4-28.8c.8 0 1.4-.6 1.4-1.4s-.6-1.4-1.4-1.4C.6-31.7 0-31 0-30.2c0 .8.6 1.4 1.4 1.4z" />
    </g>
  </pattern>
  <path class="hair_fill" d="M721.8 347.6c-8.2-1.7-16.1-3.7-23.8-6-4.5-10.6-9.7-16.8-9.7-16.8 21.7-30.4-4.8-48.5-4.8-48.5-.2-12.2-6.2-20.2-13-25.5 25.1 14.6 20.9 32.8 23 32.7.9 0 3.2-16.2-12.3-29.5-13-10.8-29.9-13.2-30.1-12.1C640 188.8 502 184 502 184l-28.6-31.9c-.2-1.8-142.9 14.2-190.1 116.6-1.4 3.1-8.3 22 .3 2.8 11.7-26.2 36.1-54.6 73.8-77.2-26.6 21.1-47 52.8-46.2 100-33 19.5-41 37.9-42.5 62.8-7.3-2.1-13.5-7.7-10.6-21.5 0 0-15 9.2-2.5 23.9-25.9-9-69.9-18.2-75.7 21.5.6-1.6-32.5-11.9-46.7 19.4-4.1 7.8-6 23.4-4.9 23.6.5.1 1.6-4.7 2.1-6.4 6.4-23 2.2-8 4.1 6.8 0 0 14.8-15.8 43.4 10.7 0 0-32.7-15.8-41.9 7.7-27.1-8-34.6 19.9-34.7 19.9 1.5-1.5-98.1 1-81.9 83.8 2.5 10 5.2 16.6 5.6 16.5 2.3-.8-16.9-39.5 8.5-69.6-25.9 39.7 4 103.6 59.4 102.4-15.1 2.5-34.4 7.8-49.9 4.5-6-1.3-8.3-3-8.6-2.5-.3.4 2.5 3.1 8 4.9 18.6 6.2 24.6-3.6 8.8 7.2-34.3 22-40.3 65.7-24.3 105.2 6.9 16.7-3-10.6-4.8-31-2.2-24.5-6.2 27.6 50.2 79.9-26.7-35-20.9-107.4 22.5-120 0 0-7.8 53.4 33.7 84.2-1-1-25.3 24.4-24.3 59 .5 15.8 6.7 27.9 7.4 27.6 2.2-.9-15.3-29.7 8.4-72.6-10.7 22.1-21.7 66.9 32.4 108 0 0-7.5 33.3 8.7 49.5 8-69.8 95.2-95.4 145.7-202.6-8.5 24.5-5.3 61.7 13.6 78.4 7 6.3-.5-2.4-4.2-8.7-9.5-15.9-11.6-35.2-10.1-53.7 2.9 50 71 87 123.6 83.3-63.4-77 29.2-103-53.2-244.9-46.7-80.4 97.4-217.6 131.7-268.1 11.1-16.3 15.3 0 15.3 0 20.6 67.9 79.2 113.3 118.2 118.1 28.4 47.8-12.6 88.6-12.6 88.6-.3-.4-6.7 4.9-15.5 15-53.6 61.9-37.3 116.4-34.9 115.8 1.8-.5-8.8-25.1 7.7-65.7-13.6 44.2-.5 76.4 3.4 97.9-1.2-2.3-17.7 117.9-94.5 92.8 6 60.2 136.1 60 179-54.7-16.3 52.1-51.3 82.4-33.3 65.3 55.6-53 55.9-178.8 51.6-256 8.3 124.9-5.6 145.6-1.9 146.3.1 0 2-4.3 5.5-31.7 8.2-79.5-7.8-186.7-9.5-186.4 18.2-26.4 20.1-50.4 16.8-68.6 8.5 1.8 17.3 3.5 26.7 4.9 55.7 8.1 52.1 39.7 52.1 39.7s26-39.3-60.5-57.1zm-100.7 45.3c-30.9-14.6-55-36.7-74.2-66.1 16.7 22.6 44 48.6 86.5 63.1 3.1 3.7 5.7 7.4 7.9 11-2.7-1.1-10.1-3.5-20.2-8z" />
  <pattern id="hair_f" patternTransform="matrix(.3974 0 0 -.3974 -97533.39 -48603.25)" xlink:href="#hair_e" />
  <path fill="url(#hair_f)" d="M590 653.6C605.8 719 556.8 786 556.8 786c-56.8 1.7-61.4-39.5-61.4-39.5 78.6 25.6 93.3-99.7 94.6-92.9zm-46.7-418.2C596 311.8 694.7 341 694.7 341c7.6-20.9-71.3-43.4-151.4-105.6zM637 480.6c32.9-39.8 1.3-85.2 1.3-85.2 27.5 28.5 48.6 32 48.5 33.6-2.4 35.4-49.8 51.6-49.8 51.6zM211.7 741.9s-37.9 33.8-90.4-4.2l7.1-9.4s40.7 29.4 83.3 13.6zm115.5-260.2c-16.3 31.3 0 68.8 0 68.8-35.2-31.8-7.4-58.4-7.4-58.4-6.1-37.1 22.6-54.1 22.6-54.1-17.5 12.9-15.2 43.7-15.2 43.7zm-205.4 67c-18.8-34.4 40.3-62.6 73.5-22 0 0 36.3 41.6 66.4 12.6-47.2 30.7-120.9 44.2-139.9 9.4zM516.5 258c-7.2-44.8-91.8-8.5-91.8-8.5l69.7-25.4c84.9-29.5 29.2 59.5 29.2 59.5s8.5-20.8-7.1-25.6zm-189.3 39.6c40.4-87.3 149.9-91.1 149.9-91.1-96.1 29.6-149.9 91.1-149.9 91.1zM57.1 696.7c3.2-78.5 75.5-85 75.5-85C96.4 623.1 94.7 644 94.7 644c-34.3 12.5-37.6 52.7-37.6 52.7zm469-510.7s6.6 9.7 4.3 24.1l-6.8-2.1-21.6-24 24.1 2z" />
  <pattern id="hair_h" patternTransform="matrix(.5 0 0 .5 -4106.899 -4105.575)" xlink:href="#hair_g" />
  <path fill="url(#hair_h)" d="M343.8 238.3c30.1-60.8 108.9-73.2 108.9-73.2 12.1 13.5 28.6 24.8 28.6 24.8-94.6 1.5-137.5 48.4-137.5 48.4zm-35.6 141.1s-25.8 37-56.5 11.8c-25.4-20.8-52.2-16.7-52.2-16.7 25.2 8.1 23.5 16.4 49.9 35 35.6 25.2 58.8-30.1 58.8-30.1zm114-137.4c-33.5 10.1-80.5 39.5-95 85.5 0 0 27.6-42.8 95-85.5zM297.7 440s-54.8 13-88.4-11.9c-23.9-17.8-42.8-23.3-42.8-23.3C209 482 297.7 440 297.7 440zm-73 132.6s-120.4 59.8-25.2 139.2c0 0-23.4-30-19.4-57.7 0 0 3.9 42.1 51.7 66-.1.1-66.1-59.5-7.1-147.5zm-129.5-9.5s-18.6-29.7 16.1-68.9c0 0-53.4 20.2-16.1 68.9zm238.5 105.5c-9.4 17.9-10.8 70.8 6.8 85 0 0-12.8-50.5 6.8-91.9s2.6-71.9-2-84.1c0 0 7.5 54.6-11.6 91zM292 563.1s-81.4 69.7-45.7 140.1c0 0 45.3-57.5 63.1-139.5 0 0-36.7 46.9-47.7 82.8 0-.1 2.1-45.1 30.3-83.4zm380.4-85.4s-62.3 39.8-73.1 104.9c0 0 58.4-34.9 79.6-88.4l-53.4 51.4s29.8-47.8 46.9-67.9zm-31.7 154.9s-33.6 82.8-37 87.4c3.9-3.8 60.7-58.3 64.3-156.9 0 0-46.6 51.2-54.6 105.5l27.3-36zm-37.2 87.6l.2-.2-.2.2zM361.2 431.4s54-20.7 107.9-114.3c.1 0-75.5 89.5-107.9 114.3zm116.7-180.6s-26.8 10.3-41.7 46.8c81-59.2 69.4-48.2 32.1-32l9.6-14.8zm69.7-55.8v11.8l85.8 20.8c-26.5-12.8-85.8-32.6-85.8-32.6zm136.8 105.9C657.2 276.3 568.3 242 568.3 242c75.2 50.3 116.1 58.9 116.1 58.9zm-149.6-24.6S564.4 365 637 383.5c0 .1-57.7-30.9-102.2-107.2zm66.1 53.6c66.1 53.6 92.7 36.5 92.7 36.5-36.8 1.5-94.5-37.9-92.7-36.5z" />
  <path class="hair_outline" d="M178 435.2c1.1-1.2 38.2 35 79 27.6 4.5-.5 14.2-4 14.4-3.6.4.8-9.3 5.1-13.9 6-40.4 10.3-81-28.6-79.5-30zm171-1.3c-11.6 10.2-17.7 22.9-19.8 37.3-1.5 11.3-1 6.8 3.2 2.2 8.8-10.6 29.6-25.6 71.9-60.1 9.6-8 10.6-7.9 1.3 1.5-30.1 29.3-63.7 49.8-77 65.6 0 4.6-18.6 38.1 1.9 75.5 7.7-58.2 48.7-93.2 49.3-92.6.3.3-3.7 4.5-9.6 11.5-56.8 70.2-27.4 114-48.2 185.8-4.6 16.2-13.2 33.9-13.9 33.6-.6-.3 6.5-14.9 11.5-34.3 9.9-38.3 6.6-71 10.8-103.2-7.8-10.8-6.8-17.5-7.5-12.8C298.7 715.3 178.5 798.1 155 845.3c-3 6.3-2 7.4-6.6-1.8-21.4-44.3 2-82.4 4.3-80.7 2.4 1.5-21.7 25.4-2.5 80 3.2 8.6 1.5 9.1 4 2.1 12.1-29.9 55.9-66.9 94.1-122.1-41.8-21.6-69-105.8 53.2-186.9 28.9-19 12.1-.2 18.8-35.6 2.2-11.5 4.3-13.6 2.1-10.5-42.9 61.4-127.7 70.8-163.8 109.3-33.4 35.4-23.7 115.6 62.3 134.5 8.4 1.8 8.4 1.1 6.8 2.1-26.3 16.9-65 16.6-97.8-6.2-11.4-8.2 39.3 31.4 88.4 8.2-48.2 8.3-87-18.7-95-63.7-2-11.8.6-2 3.3 5.7 14.6 42.9 46.9 59.5 92 56.5-88.9-20.9-96.7-103.5-62.4-139.3 19.1-20.2 49.7-31.7 79.6-45.4 7.5-3.4 3.3-.6-4.2-1.6-12.2-1.5-24.5-10.7-33.8-18.8-25.7-22.3-15.8-18.7-28.2-22.7-50.7-12.7-66.1 39.8-27.3 55.6 28.8 10.9 62.8-.8 63.2.9.2.6-30.3 10.5-56.1 4.7-53.6-11-35.1-78.4 16.2-64.2 8.3 2.1 10.3 4.7 7.6 2-24.8-24.8-23.9-22.5-29.7-24.5C76.6 461.5 34.2 533.4 85 572c21.8 17 49.4 21.2 67.5 25.1 9.2 1.9-9.5.2-21.3-2.3-17 7.2-68 22.1-85.1 65.7-10 25-4.2 55.2 7.1 76.5 10.6 20.4 24.2 31.2 17.1 25.6-27.9-20.6-75.8-121.1 48.9-165 18.9-6.5 12.7 1.7-17.7-12.1-84.9-38.2-28.3-135.6 45.3-102.5-31.3-25.7-45.3-17.9-45.5-20.2 0-.2 18.5-6 49.1 18.9 36.3 29.3 63.3 73.4 94 65.7 11.3-5.4 22.8-11.4 33.3-18.4 16.7-11.1-16.3 17.2-50.1-11.1-31.2-28.2-44-53-72.8-66.8-10.8-5.2-27.5-10.8-13.5-6.9 27.8 8.1 40.1 20.7 59.6 41.8 59.3 51.4 102-9.1 140.2-72.6-20.9 13.4-45.3 20.3-71.1 18.7-41.3 6.1-59.6-39.6-88.3-50.2-6-2.2 5.1-2.2 23.6 12.9 16.2 13.9 13.7 13.8 26.9 23.5 41.5 28.6 75-2.1 96.5-49.8-56.3 12-73.9-8.3-73.2-8.8 1.6-1.6 29 37.1 158.4-27.2 54.7-27.3 48.4-25.6 57.2-37.5 30.7-41.5 12.3-6.5-61.7 33.7-34.1 18.5-81.1 36.1-119.6 33.4-5.5-.5-14.2-1.7-18.9-3.8-8.5-3.4 5.8 2.5 26.6 1.8 1.1-17.3 10.1-41.6 30.7-65.7 22.1-52.5 86.6-84.6 141.6-87.9 7.6-.4 27.7-8.3 41.2-10.6-17.1-20.4-8.2-12 10 7.3 4.4 4.7 2.5 3.2 5.2 3.9 10.6 2.8 9.2 5.8 14.1 6.3 43.7 4 111.6 26.6 110.9 28.6-.3.9 1.8-.6-111.1-27.3-2.4-.6 1.2 0 3.7 8.1 2 .6 9.3 4.2 11.2 5.2 84.2 39.2 129.1 45.9 128.5 48.4-.4 1.7-74.8-15.9-129.4-46.7-15.9-9.3-7.8-8.8-9.4 6.5 7.5 4.6 19.7 14.5 70.4 44.9 29.1 17.5 56.3 33 67.6 39.9 34.3 21-99.7-48.7-138.1-84-.2 1.8-.8.9 2.3 4.6 63.8 75.8 148.2 98 147.7 99.5-.5 1.6-81.5-22.1-144-90-2.1-2.3-1.7-2-1.5-1.5 20.1 53.5 71.8 84.4 126.4 102.9 60.7 18.3-11.9-.3-32.9-9.8-29.4-13.3-55.7-30-75.9-55.5-14.5-18.2-21.7-38.8-11.7-12.5 26.4 68.9 72.1 101.4 134.6 115.1 23.7 3.8 8.7 3.1-7.4.4-58-9.7-106.6-49-129.5-114.6-2.3-6.8-2.6-7.6-9.2-32.3-5.5 24.3-20 40.3-20 40.4-.1 0-.4.1-.7-16.2-.1-6.3.3-5-1.3-6.1-31.1-19-41.9 59.8-172.5 172.5zm-29.7 91.8c0-.1-28.3 19.1-51.4 39.8-52.6 45-74.7 112.2-19.3 156.9 32.1-46.6 55.8-97.3 71.4-168.3 5-23.8 2.2-3.5-.7-28.4zm81.2-183.1c-21.2 10.3-47.6 20.5-70.8 25.6-5.2 20.6-24.2 53.4-51.9 62.1 59-4.9 92.1-37.9 122.7-87.7zm60.6-33.8c-47.2 30.9-56.6 27.8-61.5 38-11.3 23.3-31.1 47.8-52.7 62.8-7.4 5.2-60.9 134.9-132.6 88.9-3.5-2.4-8.1-6.1 6.8 8.3 14.9 14.6 29.6 24.9 50.7 19.5 26.2-6.6 54.3-40.1 54-45.2-.8-16.6 6-37.4 22.8-51.2 46.7-38.1 76.7-72.6 112.5-121.1zm62.5-48c1.1.8.8.5.8 1.2-.3 18.6 1.8-9.6-3.3-23.1-1.9-5.4-5.9-10.6-11.6-13.3-6.3-2.9-7.5-2.9-28.2 4.6-36.8 13.2 30.4-13 35.4 24.6.6 5-1.5-.4 6.9 6zm14.9-11.1c2-6.6.7-16.3-1.4-21.7-5.8-15-18.8-9.4-31-5.7 22.7 3.3 24.7 36.5 18.6 58.5-.7 2.6 9.5-17 13.8-31.1zm-207.1 41.1c63.8-70.7 188.1-94.4 119.3-79.5-62.3 13.9-100.5 45.4-119.3 79.5zm-.7 64.7c28.5-51.9 81.9-105 149.5-128.4 36.6-12.8 47.3-14.4 54.3-7.3 8.3 8.3 5.8 24.5 6.6 19 2.3-16.2-2.7-25.7-18.1-29.3-.1 0 .5.7-9.8-11.3-2.2-2.6-.1-2.4-11.2 1.2-81.2 26.4-186.6 75.4-203.4 159.1-.5 2-1.9 1.9 6.9 1.2 7.6-.8 16.3-2.2 25.2-4.2zm77.2-29.9c1.3-.7 4.7-22 22.9-52.1 21.4-35.7 40.7-36.4 27.4-33.5-13.5 3.3-50 28.5-71.7 49.1-27.2 26-42.4 49.5-54.9 66.1 26.1-6 52.6-16.9 76.3-29.6zM516 257c-6.6-20.6-25.4-22.9-46.9-19.2-28.5 13.9-47.2 59.8-59.4 86.8C486.2 283.5 499 253.2 516 257zm183.3 138.4c-57.7 3.5-76.8-16.3-60.1 2.6 20.3 22.7 44.4 32 47.5 31-.9 1.2-1.5 13-10.6 23.4-5.8 6.9-14.4 12.5-22 17.3 14.6-26.1-5-58.3-6.9-57-1.4.9 14.4 24.4 6.6 51.9-2.3 7.8-2.1 6.6-4.3 8.1-16 10.4-20.8 17.2-20.3 17.6.6.6 2.6-3.2 22-14.9 17.9-10.9 34.5-21.2 35.9-43 .1-4.9.7-3.1-8.8-8.4-21.7-12-37-27.8-42.9-32.9 35.5 15.6 78.7 3.3 63.9 4.3zM426.9 794.6c-63.3-38-42.1-60.2-42.3-131.5-.3-52.5-28.4-84.4-31-127.8-1.8-27.8 8.6-47.6 7.6-48-.9-.4-11.1 22.7-10 48.2 1.6 43.8 29.5 75.8 30 127.7.3 58.5-21 100.8 45.4 132.1 4 1.9 4.3 1.8.3-.7zM596.5 647c.7 0 .4-14.4 5.1-29.5 15.9-50.7 69.4-65.1 85.2-116.2 3.8-12.4 4.8-30.1 3.7-30.1-.7 0-.8 14.3-6.1 29.3-17.4 50.2-71 64.7-85.2 116.2-3.7 13.7-3.6 30.3-2.7 30.3zm94-103.9c-16 81.6-59.5 183.8-127.1 235.9-9.3 7.6 16.4-12.4 26.9-51.7 6.5-23.7 5.4-49.2 1.4-63.3-6.3-24.6 13.4 38.6-18.5 95.7-43 33-75.3-15.6-77.8-13.6-1.2.9 34.9 48.6 74.4 18.8 2.5-1.8-12.5 18.6-13.5 19.2-11.5 8.4 74.8-27.7 123.4-188.1 12.1-41.2 17.2-86 10.8-52.9z" />
</svg>