<svg id="Layer_1" data-name="Layer 1" xmlns="http://www.w3.org/2000/svg" xmlns:xlink="http://www.w3.org/1999/xlink" viewBox="0 0 400 400" class="svg"><defs><style>.cls-1{fill:#fff;}.cls-2{fill:url(#linear-gradient);}</style><linearGradient id="linear-gradient" x1="200" y1="347" x2="200" y2="67.85" gradientUnits="userSpaceOnUse"><stop offset="0" stop-color="#00b7f2"></stop><stop offset="1" stop-color="#00f2ff"></stop></linearGradient></defs><circle class="cls-1" cx="200" cy="200" r="200"></circle><path class="cls-2" d="M258.63,103C225.5,71,207.11,57.7,207.11,57.7a9.9,9.9,0,0,0-14.22,0S174.5,71,141.37,103,77.85,176.11,77.85,223.16a122.15,122.15,0,0,0,244.3,0C322.15,176.11,291.77,134.87,258.63,103Zm6.19,131.34a3.64,3.64,0,0,1-3.64,3.64h-36.3a3.66,3.66,0,0,0-3.65,3.65V277.9a3.64,3.64,0,0,1-3.65,3.65H182.42a3.64,3.64,0,0,1-3.65-3.65V241.58a3.66,3.66,0,0,0-3.65-3.65h-36.3a3.64,3.64,0,0,1-3.64-3.64v-35.2a3.64,3.64,0,0,1,3.64-3.65H261.18a3.64,3.64,0,0,1,3.64,3.65Z"></path></svg>